<?xml version="1.0" encoding="utf-8" standalone="no"?>
<!DOCTYPE svg PUBLIC "-//W3C//DTD SVG 1.1//EN"
  "http://www.w3.org/Graphics/SVG/1.1/DTD/svg11.dtd">
<svg xmlns:xlink="http://www.w3.org/1999/xlink" width="432pt" height="324pt" viewBox="0 0 432 324" xmlns="http://www.w3.org/2000/svg" version="1.1">
 <metadata>
  <rdf:RDF xmlns:dc="http://purl.org/dc/elements/1.1/" xmlns:cc="http://creativecommons.org/ns#" xmlns:rdf="http://www.w3.org/1999/02/22-rdf-syntax-ns#">
   <cc:Work>
    <dc:type rdf:resource="http://purl.org/dc/dcmitype/StillImage"/>
    <dc:date>2026-07-05T23:00:39.480287</dc:date>
    <dc:format>image/svg+xml</dc:format>
    <dc:creator>
     <cc:Agent>
      <dc:title>Matplotlib v3.11.0, https://matplotlib.org/</dc:title>
     </cc:Agent>
    </dc:creator>
   </cc:Work>
  </rdf:RDF>
 </metadata>
 <defs>
  <style type="text/css">*{stroke-linejoin: round; stroke-linecap: butt}</style>
 </defs>
 <g id="figure_1">
  <g id="patch_1">
   <path d="M 0 324 
L 432 324 
L 432 0 
L 0 0 
z
" style="fill: #ffffff"/>
  </g>
  <g id="axes_1">
   <g id="patch_2">
    <path d="M 68.58 279.340781 
L 421.178182 279.340781 
L 421.178182 31.68 
L 68.58 31.68 
z
" style="fill: #ffffff"/>
   </g>
   <g id="matplotlib.axis_1">
    <g id="xtick_1">
     <g id="line2d_1">
      <path d="M 84.60719 279.340781 
L 84.60719 31.68 
" clip-path="url(#p5f4764066f)" style="fill: none; stroke-dasharray: 1.85,0.8; stroke-dashoffset: 0; stroke: #e5e7eb; stroke-opacity: 0.7; stroke-width: 0.5"/>
     </g>
     <g id="line2d_2">
      <defs>
       <path id="md94fc2b511" d="M 0 0 
L 0 3.5 
" style="stroke: #4b5563; stroke-width: 0.8"/>
      </defs>
      <g>
       <use xlink:href="#md94fc2b511" x="84.60719" y="279.340781" style="fill: #4b5563; stroke: #4b5563; stroke-width: 0.8"/>
      </g>
     </g>
     <g id="text_1">
      <!-- 500 -->
      <g style="fill: #4b5563" transform="translate(76.265784 293.840781) scale(0.1 -0.1)">
       <defs>
        <path id="Helvetica-18" d="M 791 1141 
Q 847 659 1238 475 
Q 1438 381 1700 381 
Q 2200 381 2440 700 
Q 2681 1019 2681 1406 
Q 2681 1875 2395 2131 
Q 2109 2388 1709 2388 
Q 1419 2388 1211 2275 
Q 1003 2163 856 1963 
L 369 1991 
L 709 4400 
L 3034 4400 
L 3034 3856 
L 1131 3856 
L 941 2613 
Q 1097 2731 1238 2791 
Q 1488 2894 1816 2894 
Q 2431 2894 2859 2497 
Q 3288 2100 3288 1491 
Q 3288 856 2895 371 
Q 2503 -113 1644 -113 
Q 1097 -113 676 195 
Q 256 503 206 1141 
L 791 1141 
z
" transform="scale(0.015625)"/>
        <path id="Helvetica-13" d="M 1731 4475 
Q 2600 4475 2988 3759 
Q 3288 3206 3288 2244 
Q 3288 1331 3016 734 
Q 2622 -122 1728 -122 
Q 922 -122 528 578 
Q 200 1163 200 2147 
Q 200 2909 397 3456 
Q 766 4475 1731 4475 
z
M 1725 391 
Q 2163 391 2422 778 
Q 2681 1166 2681 2222 
Q 2681 2984 2493 3476 
Q 2306 3969 1766 3969 
Q 1269 3969 1039 3501 
Q 809 3034 809 2125 
Q 809 1441 956 1025 
Q 1181 391 1725 391 
z
" transform="scale(0.015625)"/>
       </defs>
       <use xlink:href="#Helvetica-18"/>
       <use xlink:href="#Helvetica-13" transform="translate(55.609375 0)"/>
       <use xlink:href="#Helvetica-13" transform="translate(111.21875 0)"/>
      </g>
     </g>
    </g>
    <g id="xtick_2">
     <g id="line2d_3">
      <path d="M 244.879091 279.340781 
L 244.879091 31.68 
" clip-path="url(#p5f4764066f)" style="fill: none; stroke-dasharray: 1.85,0.8; stroke-dashoffset: 0; stroke: #e5e7eb; stroke-opacity: 0.7; stroke-width: 0.5"/>
     </g>
     <g id="line2d_4">
      <g>
       <use xlink:href="#md94fc2b511" x="244.879091" y="279.340781" style="fill: #4b5563; stroke: #4b5563; stroke-width: 0.8"/>
      </g>
     </g>
     <g id="text_2">
      <!-- 5,000 -->
      <g style="fill: #4b5563" transform="translate(232.368153 293.840781) scale(0.1 -0.1)">
       <defs>
        <path id="Helvetica-f" d="M 531 -653 
Q 747 -616 834 -350 
Q 881 -209 881 -78 
Q 881 -56 879 -39 
Q 878 -22 872 0 
L 531 0 
L 531 681 
L 1200 681 
L 1200 50 
Q 1200 -322 1050 -603 
Q 900 -884 531 -950 
L 531 -653 
z
" transform="scale(0.015625)"/>
       </defs>
       <use xlink:href="#Helvetica-18"/>
       <use xlink:href="#Helvetica-f" transform="translate(55.609375 0)"/>
       <use xlink:href="#Helvetica-13" transform="translate(83.390625 0)"/>
       <use xlink:href="#Helvetica-13" transform="translate(139 0)"/>
       <use xlink:href="#Helvetica-13" transform="translate(194.609375 0)"/>
      </g>
     </g>
    </g>
    <g id="xtick_3">
     <g id="line2d_5">
      <path d="M 293.125741 279.340781 
L 293.125741 31.68 
" clip-path="url(#p5f4764066f)" style="fill: none; stroke-dasharray: 1.85,0.8; stroke-dashoffset: 0; stroke: #e5e7eb; stroke-opacity: 0.7; stroke-width: 0.5"/>
     </g>
     <g id="line2d_6">
      <g>
       <use xlink:href="#md94fc2b511" x="293.125741" y="279.340781" style="fill: #4b5563; stroke: #4b5563; stroke-width: 0.8"/>
      </g>
     </g>
     <g id="text_3">
      <!-- 10,000 -->
      <g style="fill: #4b5563" transform="translate(277.834334 293.840781) scale(0.1 -0.1)">
       <defs>
        <path id="Helvetica-14" d="M 613 3169 
L 613 3600 
Q 1222 3659 1462 3798 
Q 1703 3938 1822 4456 
L 2266 4456 
L 2266 0 
L 1666 0 
L 1666 3169 
L 613 3169 
z
" transform="scale(0.015625)"/>
       </defs>
       <use xlink:href="#Helvetica-14"/>
       <use xlink:href="#Helvetica-13" transform="translate(55.609375 0)"/>
       <use xlink:href="#Helvetica-f" transform="translate(111.21875 0)"/>
       <use xlink:href="#Helvetica-13" transform="translate(139 0)"/>
       <use xlink:href="#Helvetica-13" transform="translate(194.609375 0)"/>
       <use xlink:href="#Helvetica-13" transform="translate(250.21875 0)"/>
      </g>
     </g>
    </g>
    <g id="xtick_4">
     <g id="line2d_7">
      <path d="M 356.904342 279.340781 
L 356.904342 31.68 
" clip-path="url(#p5f4764066f)" style="fill: none; stroke-dasharray: 1.85,0.8; stroke-dashoffset: 0; stroke: #e5e7eb; stroke-opacity: 0.7; stroke-width: 0.5"/>
     </g>
     <g id="line2d_8">
      <g>
       <use xlink:href="#md94fc2b511" x="356.904342" y="279.340781" style="fill: #4b5563; stroke: #4b5563; stroke-width: 0.8"/>
      </g>
     </g>
     <g id="text_4">
      <!-- 25,000 -->
      <g style="fill: #4b5563" transform="translate(341.612936 293.840781) scale(0.1 -0.1)">
       <defs>
        <path id="Helvetica-15" d="M 200 0 
Q 231 578 439 1006 
Q 647 1434 1250 1784 
L 1850 2131 
Q 2253 2366 2416 2531 
Q 2672 2791 2672 3125 
Q 2672 3516 2437 3745 
Q 2203 3975 1813 3975 
Q 1234 3975 1013 3538 
Q 894 3303 881 2888 
L 309 2888 
Q 319 3472 525 3841 
Q 891 4491 1816 4491 
Q 2584 4491 2939 4075 
Q 3294 3659 3294 3150 
Q 3294 2613 2916 2231 
Q 2697 2009 2131 1694 
L 1703 1456 
Q 1397 1288 1222 1134 
Q 909 863 828 531 
L 3272 531 
L 3272 0 
L 200 0 
z
" transform="scale(0.015625)"/>
       </defs>
       <use xlink:href="#Helvetica-15"/>
       <use xlink:href="#Helvetica-18" transform="translate(55.609375 0)"/>
       <use xlink:href="#Helvetica-f" transform="translate(111.21875 0)"/>
       <use xlink:href="#Helvetica-13" transform="translate(139 0)"/>
       <use xlink:href="#Helvetica-13" transform="translate(194.609375 0)"/>
       <use xlink:href="#Helvetica-13" transform="translate(250.21875 0)"/>
      </g>
     </g>
    </g>
    <g id="xtick_5">
     <g id="line2d_9">
      <path d="M 405.150992 279.340781 
L 405.150992 31.68 
" clip-path="url(#p5f4764066f)" style="fill: none; stroke-dasharray: 1.85,0.8; stroke-dashoffset: 0; stroke: #e5e7eb; stroke-opacity: 0.7; stroke-width: 0.5"/>
     </g>
     <g id="line2d_10">
      <g>
       <use xlink:href="#md94fc2b511" x="405.150992" y="279.340781" style="fill: #4b5563; stroke: #4b5563; stroke-width: 0.8"/>
      </g>
     </g>
     <g id="text_5">
      <!-- 50,000 -->
      <g style="fill: #4b5563" transform="translate(389.859585 293.840781) scale(0.1 -0.1)">
       <use xlink:href="#Helvetica-18"/>
       <use xlink:href="#Helvetica-13" transform="translate(55.609375 0)"/>
       <use xlink:href="#Helvetica-f" transform="translate(111.21875 0)"/>
       <use xlink:href="#Helvetica-13" transform="translate(139 0)"/>
       <use xlink:href="#Helvetica-13" transform="translate(194.609375 0)"/>
       <use xlink:href="#Helvetica-13" transform="translate(250.21875 0)"/>
      </g>
     </g>
    </g>
    <g id="xtick_6">
     <g id="line2d_11">
      <defs>
       <path id="meb3155d71d" d="M 0 0 
L 0 2 
" style="stroke: #4b5563; stroke-width: 0.6"/>
      </defs>
      <g>
       <use xlink:href="#meb3155d71d" x="69.075238" y="279.340781" style="fill: #4b5563; stroke: #4b5563; stroke-width: 0.6"/>
      </g>
     </g>
    </g>
    <g id="xtick_7">
     <g id="line2d_12">
      <g>
       <use xlink:href="#meb3155d71d" x="97.297719" y="279.340781" style="fill: #4b5563; stroke: #4b5563; stroke-width: 0.6"/>
      </g>
     </g>
    </g>
    <g id="xtick_8">
     <g id="line2d_13">
      <g>
       <use xlink:href="#meb3155d71d" x="108.027408" y="279.340781" style="fill: #4b5563; stroke: #4b5563; stroke-width: 0.6"/>
      </g>
     </g>
    </g>
    <g id="xtick_9">
     <g id="line2d_14">
      <g>
       <use xlink:href="#meb3155d71d" x="117.321888" y="279.340781" style="fill: #4b5563; stroke: #4b5563; stroke-width: 0.6"/>
      </g>
     </g>
    </g>
    <g id="xtick_10">
     <g id="line2d_15">
      <g>
       <use xlink:href="#meb3155d71d" x="125.5202" y="279.340781" style="fill: #4b5563; stroke: #4b5563; stroke-width: 0.6"/>
      </g>
     </g>
    </g>
    <g id="xtick_11">
     <g id="line2d_16">
      <g>
       <use xlink:href="#meb3155d71d" x="181.100489" y="279.340781" style="fill: #4b5563; stroke: #4b5563; stroke-width: 0.6"/>
      </g>
     </g>
    </g>
    <g id="xtick_12">
     <g id="line2d_17">
      <g>
       <use xlink:href="#meb3155d71d" x="209.32297" y="279.340781" style="fill: #4b5563; stroke: #4b5563; stroke-width: 0.6"/>
      </g>
     </g>
    </g>
    <g id="xtick_13">
     <g id="line2d_18">
      <g>
       <use xlink:href="#meb3155d71d" x="229.347139" y="279.340781" style="fill: #4b5563; stroke: #4b5563; stroke-width: 0.6"/>
      </g>
     </g>
    </g>
    <g id="xtick_14">
     <g id="line2d_19">
      <g>
       <use xlink:href="#meb3155d71d" x="257.56962" y="279.340781" style="fill: #4b5563; stroke: #4b5563; stroke-width: 0.6"/>
      </g>
     </g>
    </g>
    <g id="xtick_15">
     <g id="line2d_20">
      <g>
       <use xlink:href="#meb3155d71d" x="268.299309" y="279.340781" style="fill: #4b5563; stroke: #4b5563; stroke-width: 0.6"/>
      </g>
     </g>
    </g>
    <g id="xtick_16">
     <g id="line2d_21">
      <g>
       <use xlink:href="#meb3155d71d" x="277.593789" y="279.340781" style="fill: #4b5563; stroke: #4b5563; stroke-width: 0.6"/>
      </g>
     </g>
    </g>
    <g id="xtick_17">
     <g id="line2d_22">
      <g>
       <use xlink:href="#meb3155d71d" x="285.792101" y="279.340781" style="fill: #4b5563; stroke: #4b5563; stroke-width: 0.6"/>
      </g>
     </g>
    </g>
    <g id="xtick_18">
     <g id="line2d_23">
      <g>
       <use xlink:href="#meb3155d71d" x="341.37239" y="279.340781" style="fill: #4b5563; stroke: #4b5563; stroke-width: 0.6"/>
      </g>
     </g>
    </g>
    <g id="xtick_19">
     <g id="line2d_24">
      <g>
       <use xlink:href="#meb3155d71d" x="369.594871" y="279.340781" style="fill: #4b5563; stroke: #4b5563; stroke-width: 0.6"/>
      </g>
     </g>
    </g>
    <g id="xtick_20">
     <g id="line2d_25">
      <g>
       <use xlink:href="#meb3155d71d" x="389.61904" y="279.340781" style="fill: #4b5563; stroke: #4b5563; stroke-width: 0.6"/>
      </g>
     </g>
    </g>
    <g id="xtick_21">
     <g id="line2d_26">
      <g>
       <use xlink:href="#meb3155d71d" x="417.841521" y="279.340781" style="fill: #4b5563; stroke: #4b5563; stroke-width: 0.6"/>
      </g>
     </g>
    </g>
    <g id="text_6">
     <!-- Ledger Chain Size (Records) -->
     <g transform="translate(180.407997 311.04) scale(0.1 -0.1)">
      <defs>
       <path id="Helvetica-2f" d="M 488 4591 
L 1109 4591 
L 1109 547 
L 3434 547 
L 3434 0 
L 488 0 
L 488 4591 
z
" transform="scale(0.015625)"/>
       <path id="Helvetica-48" d="M 1806 3422 
Q 2163 3422 2497 3255 
Q 2831 3088 3006 2822 
Q 3175 2569 3231 2231 
Q 3281 2000 3281 1494 
L 828 1494 
Q 844 984 1069 676 
Q 1294 369 1766 369 
Q 2206 369 2469 659 
Q 2619 828 2681 1050 
L 3234 1050 
Q 3213 866 3089 639 
Q 2966 413 2813 269 
Q 2556 19 2178 -69 
Q 1975 -119 1719 -119 
Q 1094 -119 659 336 
Q 225 791 225 1609 
Q 225 2416 662 2919 
Q 1100 3422 1806 3422 
z
M 2703 1941 
Q 2669 2306 2544 2525 
Q 2313 2931 1772 2931 
Q 1384 2931 1121 2651 
Q 859 2372 844 1941 
L 2703 1941 
z
M 1753 3428 
L 1753 3428 
z
" transform="scale(0.015625)"/>
       <path id="Helvetica-47" d="M 769 1634 
Q 769 1097 997 734 
Q 1225 372 1728 372 
Q 2119 372 2370 708 
Q 2622 1044 2622 1672 
Q 2622 2306 2362 2611 
Q 2103 2916 1722 2916 
Q 1297 2916 1033 2591 
Q 769 2266 769 1634 
z
M 1616 3406 
Q 2000 3406 2259 3244 
Q 2409 3150 2600 2916 
L 2600 4606 
L 3141 4606 
L 3141 0 
L 2634 0 
L 2634 466 
Q 2438 156 2169 18 
Q 1900 -119 1553 -119 
Q 994 -119 584 351 
Q 175 822 175 1603 
Q 175 2334 548 2870 
Q 922 3406 1616 3406 
z
" transform="scale(0.015625)"/>
       <path id="Helvetica-4a" d="M 1594 3406 
Q 1988 3406 2281 3213 
Q 2441 3103 2606 2894 
L 2606 3316 
L 3125 3316 
L 3125 272 
Q 3125 -366 2938 -734 
Q 2588 -1416 1616 -1416 
Q 1075 -1416 706 -1173 
Q 338 -931 294 -416 
L 866 -416 
Q 906 -641 1028 -763 
Q 1219 -950 1628 -950 
Q 2275 -950 2475 -494 
Q 2594 -225 2584 466 
Q 2416 209 2178 84 
Q 1941 -41 1550 -41 
Q 1006 -41 598 345 
Q 191 731 191 1622 
Q 191 2463 602 2934 
Q 1013 3406 1594 3406 
z
M 2606 1688 
Q 2606 2309 2350 2609 
Q 2094 2909 1697 2909 
Q 1103 2909 884 2353 
Q 769 2056 769 1575 
Q 769 1009 998 714 
Q 1228 419 1616 419 
Q 2222 419 2469 966 
Q 2606 1275 2606 1688 
z
M 1659 3428 
L 1659 3428 
z
" transform="scale(0.015625)"/>
       <path id="Helvetica-55" d="M 428 3347 
L 963 3347 
L 963 2769 
Q 1028 2938 1284 3180 
Q 1541 3422 1875 3422 
Q 1891 3422 1928 3419 
Q 1966 3416 2056 3406 
L 2056 2813 
Q 2006 2822 1964 2825 
Q 1922 2828 1872 2828 
Q 1447 2828 1219 2554 
Q 991 2281 991 1925 
L 991 0 
L 428 0 
L 428 3347 
z
" transform="scale(0.015625)"/>
       <path id="Helvetica-3" transform="scale(0.015625)"/>
       <path id="Helvetica-26" d="M 2422 4716 
Q 3294 4716 3775 4256 
Q 4256 3797 4309 3213 
L 3703 3213 
Q 3600 3656 3292 3915 
Q 2984 4175 2428 4175 
Q 1750 4175 1333 3698 
Q 916 3222 916 2238 
Q 916 1431 1292 929 
Q 1669 428 2416 428 
Q 3103 428 3463 956 
Q 3653 1234 3747 1688 
L 4353 1688 
Q 4272 963 3816 472 
Q 3269 -119 2341 -119 
Q 1541 -119 997 366 
Q 281 1006 281 2344 
Q 281 3359 819 4009 
Q 1400 4716 2422 4716 
z
M 2297 4716 
L 2297 4716 
z
" transform="scale(0.015625)"/>
       <path id="Helvetica-4b" d="M 413 4606 
L 975 4606 
L 975 2894 
Q 1175 3147 1334 3250 
Q 1606 3428 2013 3428 
Q 2741 3428 3000 2919 
Q 3141 2641 3141 2147 
L 3141 0 
L 2563 0 
L 2563 2109 
Q 2563 2478 2469 2650 
Q 2316 2925 1894 2925 
Q 1544 2925 1259 2684 
Q 975 2444 975 1775 
L 975 0 
L 413 0 
L 413 4606 
z
" transform="scale(0.015625)"/>
       <path id="Helvetica-44" d="M 844 891 
Q 844 647 1022 506 
Q 1200 366 1444 366 
Q 1741 366 2019 503 
Q 2488 731 2488 1250 
L 2488 1703 
Q 2384 1638 2221 1594 
Q 2059 1550 1903 1531 
L 1563 1488 
Q 1256 1447 1103 1359 
Q 844 1213 844 891 
z
M 2206 2028 
Q 2400 2053 2466 2191 
Q 2503 2266 2503 2406 
Q 2503 2694 2298 2823 
Q 2094 2953 1713 2953 
Q 1272 2953 1088 2716 
Q 984 2584 953 2325 
L 428 2325 
Q 444 2944 830 3186 
Q 1216 3428 1725 3428 
Q 2316 3428 2684 3203 
Q 3050 2978 3050 2503 
L 3050 575 
Q 3050 488 3086 434 
Q 3122 381 3238 381 
Q 3275 381 3322 386 
Q 3369 391 3422 400 
L 3422 -16 
Q 3291 -53 3222 -62 
Q 3153 -72 3034 -72 
Q 2744 -72 2613 134 
Q 2544 244 2516 444 
Q 2344 219 2022 53 
Q 1700 -113 1313 -113 
Q 847 -113 551 170 
Q 256 453 256 878 
Q 256 1344 547 1600 
Q 838 1856 1309 1916 
L 2206 2028 
z
M 1741 3428 
L 1741 3428 
z
" transform="scale(0.015625)"/>
       <path id="Helvetica-4c" d="M 413 3331 
L 984 3331 
L 984 0 
L 413 0 
L 413 3331 
z
M 413 4591 
L 984 4591 
L 984 3953 
L 413 3953 
L 413 4591 
z
" transform="scale(0.015625)"/>
       <path id="Helvetica-51" d="M 413 3347 
L 947 3347 
L 947 2872 
Q 1184 3166 1450 3294 
Q 1716 3422 2041 3422 
Q 2753 3422 3003 2925 
Q 3141 2653 3141 2147 
L 3141 0 
L 2569 0 
L 2569 2109 
Q 2569 2416 2478 2603 
Q 2328 2916 1934 2916 
Q 1734 2916 1606 2875 
Q 1375 2806 1200 2600 
Q 1059 2434 1017 2257 
Q 975 2081 975 1753 
L 975 0 
L 413 0 
L 413 3347 
z
M 1734 3428 
L 1734 3428 
z
" transform="scale(0.015625)"/>
       <path id="Helvetica-36" d="M 894 1481 
Q 916 1091 1078 847 
Q 1388 391 2169 391 
Q 2519 391 2806 491 
Q 3363 684 3363 1184 
Q 3363 1559 3128 1719 
Q 2891 1875 2384 1991 
L 1763 2131 
Q 1153 2269 900 2434 
Q 463 2722 463 3294 
Q 463 3913 891 4309 
Q 1319 4706 2103 4706 
Q 2825 4706 3329 4357 
Q 3834 4009 3834 3244 
L 3250 3244 
Q 3203 3613 3050 3809 
Q 2766 4169 2084 4169 
Q 1534 4169 1293 3937 
Q 1053 3706 1053 3400 
Q 1053 3063 1334 2906 
Q 1519 2806 2169 2656 
L 2813 2509 
Q 3278 2403 3531 2219 
Q 3969 1897 3969 1284 
Q 3969 522 3414 194 
Q 2859 -134 2125 -134 
Q 1269 -134 784 303 
Q 300 738 309 1481 
L 894 1481 
z
M 2150 4716 
L 2150 4716 
z
" transform="scale(0.015625)"/>
       <path id="Helvetica-5d" d="M 163 444 
L 2147 2844 
L 309 2844 
L 309 3347 
L 2903 3347 
L 2903 2888 
L 931 503 
L 2963 503 
L 2963 0 
L 163 0 
L 163 444 
z
M 1609 3428 
L 1609 3428 
z
" transform="scale(0.015625)"/>
       <path id="Helvetica-b" d="M 1894 4666 
Q 1403 3713 1256 3263 
Q 1034 2578 1034 1681 
Q 1034 775 1288 25 
Q 1444 -438 1903 -1306 
L 1525 -1306 
Q 1069 -594 959 -397 
Q 850 -200 722 138 
Q 547 600 478 1125 
Q 444 1397 444 1644 
Q 444 2569 734 3291 
Q 919 3750 1503 4666 
L 1894 4666 
z
" transform="scale(0.015625)"/>
       <path id="Helvetica-35" d="M 2622 2488 
Q 3059 2488 3314 2663 
Q 3569 2838 3569 3294 
Q 3569 3784 3213 3963 
Q 3022 4056 2703 4056 
L 1184 4056 
L 1184 2488 
L 2622 2488 
z
M 563 4591 
L 2688 4591 
Q 3213 4591 3553 4438 
Q 4200 4144 4200 3353 
Q 4200 2941 4029 2678 
Q 3859 2416 3553 2256 
Q 3822 2147 3958 1969 
Q 4094 1791 4109 1391 
L 4131 775 
Q 4141 513 4175 384 
Q 4231 166 4375 103 
L 4375 0 
L 3613 0 
Q 3581 59 3562 153 
Q 3544 247 3531 516 
L 3494 1281 
Q 3472 1731 3159 1884 
Q 2981 1969 2600 1969 
L 1184 1969 
L 1184 0 
L 563 0 
L 563 4591 
z
" transform="scale(0.015625)"/>
       <path id="Helvetica-46" d="M 1703 3444 
Q 2269 3444 2623 3169 
Q 2978 2894 3050 2222 
L 2503 2222 
Q 2453 2531 2275 2736 
Q 2097 2941 1703 2941 
Q 1166 2941 934 2416 
Q 784 2075 784 1575 
Q 784 1072 996 728 
Q 1209 384 1666 384 
Q 2016 384 2220 598 
Q 2425 813 2503 1184 
L 3050 1184 
Q 2956 519 2581 211 
Q 2206 -97 1622 -97 
Q 966 -97 575 383 
Q 184 863 184 1581 
Q 184 2463 612 2953 
Q 1041 3444 1703 3444 
z
M 1616 3428 
L 1616 3428 
z
" transform="scale(0.015625)"/>
       <path id="Helvetica-52" d="M 1741 363 
Q 2300 363 2508 786 
Q 2716 1209 2716 1728 
Q 2716 2197 2566 2491 
Q 2328 2953 1747 2953 
Q 1231 2953 997 2559 
Q 763 2166 763 1609 
Q 763 1075 997 719 
Q 1231 363 1741 363 
z
M 1763 3444 
Q 2409 3444 2856 3012 
Q 3303 2581 3303 1744 
Q 3303 934 2909 406 
Q 2516 -122 1688 -122 
Q 997 -122 590 345 
Q 184 813 184 1600 
Q 184 2444 612 2944 
Q 1041 3444 1763 3444 
z
M 1744 3428 
L 1744 3428 
z
" transform="scale(0.015625)"/>
       <path id="Helvetica-56" d="M 747 1050 
Q 772 769 888 619 
Q 1100 347 1625 347 
Q 1938 347 2175 483 
Q 2413 619 2413 903 
Q 2413 1119 2222 1231 
Q 2100 1300 1741 1391 
L 1294 1503 
Q 866 1609 663 1741 
Q 300 1969 300 2372 
Q 300 2847 642 3140 
Q 984 3434 1563 3434 
Q 2319 3434 2653 2991 
Q 2863 2709 2856 2384 
L 2325 2384 
Q 2309 2575 2191 2731 
Q 1997 2953 1519 2953 
Q 1200 2953 1036 2831 
Q 872 2709 872 2509 
Q 872 2291 1088 2159 
Q 1213 2081 1456 2022 
L 1828 1931 
Q 2434 1784 2641 1647 
Q 2969 1431 2969 969 
Q 2969 522 2630 197 
Q 2291 -128 1597 -128 
Q 850 -128 539 211 
Q 228 550 206 1050 
L 747 1050 
z
M 1578 3428 
L 1578 3428 
z
" transform="scale(0.015625)"/>
       <path id="Helvetica-c" d="M 222 -1306 
Q 719 -338 863 106 
Q 1081 778 1081 1681 
Q 1081 2584 828 3334 
Q 672 3797 213 4666 
L 591 4666 
Q 1072 3897 1173 3717 
Q 1275 3538 1394 3222 
Q 1544 2831 1608 2450 
Q 1672 2069 1672 1716 
Q 1672 791 1378 66 
Q 1194 -400 613 -1306 
L 222 -1306 
z
" transform="scale(0.015625)"/>
      </defs>
      <use xlink:href="#Helvetica-2f"/>
      <use xlink:href="#Helvetica-48" transform="translate(55.609375 0)"/>
      <use xlink:href="#Helvetica-47" transform="translate(111.21875 0)"/>
      <use xlink:href="#Helvetica-4a" transform="translate(166.828125 0)"/>
      <use xlink:href="#Helvetica-48" transform="translate(222.4375 0)"/>
      <use xlink:href="#Helvetica-55" transform="translate(278.046875 0)"/>
      <use xlink:href="#Helvetica-3" transform="translate(311.34375 0)"/>
      <use xlink:href="#Helvetica-26" transform="translate(339.125 0)"/>
      <use xlink:href="#Helvetica-4b" transform="translate(411.34375 0)"/>
      <use xlink:href="#Helvetica-44" transform="translate(466.953125 0)"/>
      <use xlink:href="#Helvetica-4c" transform="translate(522.5625 0)"/>
      <use xlink:href="#Helvetica-51" transform="translate(544.78125 0)"/>
      <use xlink:href="#Helvetica-3" transform="translate(600.390625 0)"/>
      <use xlink:href="#Helvetica-36" transform="translate(628.171875 0)"/>
      <use xlink:href="#Helvetica-4c" transform="translate(694.875 0)"/>
      <use xlink:href="#Helvetica-5d" transform="translate(717.09375 0)"/>
      <use xlink:href="#Helvetica-48" transform="translate(767.09375 0)"/>
      <use xlink:href="#Helvetica-3" transform="translate(822.703125 0)"/>
      <use xlink:href="#Helvetica-b" transform="translate(850.484375 0)"/>
      <use xlink:href="#Helvetica-35" transform="translate(883.78125 0)"/>
      <use xlink:href="#Helvetica-48" transform="translate(956 0)"/>
      <use xlink:href="#Helvetica-46" transform="translate(1011.609375 0)"/>
      <use xlink:href="#Helvetica-52" transform="translate(1061.609375 0)"/>
      <use xlink:href="#Helvetica-55" transform="translate(1117.21875 0)"/>
      <use xlink:href="#Helvetica-47" transform="translate(1150.515625 0)"/>
      <use xlink:href="#Helvetica-56" transform="translate(1206.125 0)"/>
      <use xlink:href="#Helvetica-c" transform="translate(1256.125 0)"/>
     </g>
    </g>
   </g>
   <g id="matplotlib.axis_2">
    <g id="ytick_1">
     <g id="line2d_27">
      <path d="M 68.58 269.651501 
L 421.178182 269.651501 
" clip-path="url(#p5f4764066f)" style="fill: none; stroke-dasharray: 1.85,0.8; stroke-dashoffset: 0; stroke: #e5e7eb; stroke-opacity: 0.7; stroke-width: 0.5"/>
     </g>
     <g id="line2d_28">
      <defs>
       <path id="m37dec13553" d="M 0 0 
L -3.5 0 
" style="stroke: #4b5563; stroke-width: 0.8"/>
      </defs>
      <g>
       <use xlink:href="#m37dec13553" x="68.58" y="269.651501" style="fill: #4b5563; stroke: #4b5563; stroke-width: 0.8"/>
      </g>
     </g>
     <g id="text_7">
      <!-- 152500 -->
      <g style="fill: #4b5563" transform="translate(28.214375 273.401501) scale(0.1 -0.1)">
       <use xlink:href="#Helvetica-14"/>
       <use xlink:href="#Helvetica-18" transform="translate(55.609375 0)"/>
       <use xlink:href="#Helvetica-15" transform="translate(111.21875 0)"/>
       <use xlink:href="#Helvetica-18" transform="translate(166.828125 0)"/>
       <use xlink:href="#Helvetica-13" transform="translate(222.4375 0)"/>
       <use xlink:href="#Helvetica-13" transform="translate(278.046875 0)"/>
      </g>
     </g>
    </g>
    <g id="ytick_2">
     <g id="line2d_29">
      <path d="M 68.58 241.928238 
L 421.178182 241.928238 
" clip-path="url(#p5f4764066f)" style="fill: none; stroke-dasharray: 1.85,0.8; stroke-dashoffset: 0; stroke: #e5e7eb; stroke-opacity: 0.7; stroke-width: 0.5"/>
     </g>
     <g id="line2d_30">
      <g>
       <use xlink:href="#m37dec13553" x="68.58" y="241.928238" style="fill: #4b5563; stroke: #4b5563; stroke-width: 0.8"/>
      </g>
     </g>
     <g id="text_8">
      <!-- 155000 -->
      <g style="fill: #4b5563" transform="translate(28.214375 245.678238) scale(0.1 -0.1)">
       <use xlink:href="#Helvetica-14"/>
       <use xlink:href="#Helvetica-18" transform="translate(55.609375 0)"/>
       <use xlink:href="#Helvetica-18" transform="translate(111.21875 0)"/>
       <use xlink:href="#Helvetica-13" transform="translate(166.828125 0)"/>
       <use xlink:href="#Helvetica-13" transform="translate(222.4375 0)"/>
       <use xlink:href="#Helvetica-13" transform="translate(278.046875 0)"/>
      </g>
     </g>
    </g>
    <g id="ytick_3">
     <g id="line2d_31">
      <path d="M 68.58 214.204974 
L 421.178182 214.204974 
" clip-path="url(#p5f4764066f)" style="fill: none; stroke-dasharray: 1.85,0.8; stroke-dashoffset: 0; stroke: #e5e7eb; stroke-opacity: 0.7; stroke-width: 0.5"/>
     </g>
     <g id="line2d_32">
      <g>
       <use xlink:href="#m37dec13553" x="68.58" y="214.204974" style="fill: #4b5563; stroke: #4b5563; stroke-width: 0.8"/>
      </g>
     </g>
     <g id="text_9">
      <!-- 157500 -->
      <g style="fill: #4b5563" transform="translate(28.214375 217.954974) scale(0.1 -0.1)">
       <defs>
        <path id="Helvetica-1a" d="M 3347 4400 
L 3347 3909 
Q 3131 3700 2773 3181 
Q 2416 2663 2141 2063 
Q 1869 1478 1728 997 
Q 1638 688 1494 0 
L 872 0 
Q 1084 1281 1809 2550 
Q 2238 3294 2709 3834 
L 234 3834 
L 234 4400 
L 3347 4400 
z
" transform="scale(0.015625)"/>
       </defs>
       <use xlink:href="#Helvetica-14"/>
       <use xlink:href="#Helvetica-18" transform="translate(55.609375 0)"/>
       <use xlink:href="#Helvetica-1a" transform="translate(111.21875 0)"/>
       <use xlink:href="#Helvetica-18" transform="translate(166.828125 0)"/>
       <use xlink:href="#Helvetica-13" transform="translate(222.4375 0)"/>
       <use xlink:href="#Helvetica-13" transform="translate(278.046875 0)"/>
      </g>
     </g>
    </g>
    <g id="ytick_4">
     <g id="line2d_33">
      <path d="M 68.58 186.481711 
L 421.178182 186.481711 
" clip-path="url(#p5f4764066f)" style="fill: none; stroke-dasharray: 1.85,0.8; stroke-dashoffset: 0; stroke: #e5e7eb; stroke-opacity: 0.7; stroke-width: 0.5"/>
     </g>
     <g id="line2d_34">
      <g>
       <use xlink:href="#m37dec13553" x="68.58" y="186.481711" style="fill: #4b5563; stroke: #4b5563; stroke-width: 0.8"/>
      </g>
     </g>
     <g id="text_10">
      <!-- 160000 -->
      <g style="fill: #4b5563" transform="translate(28.214375 190.231711) scale(0.1 -0.1)">
       <defs>
        <path id="Helvetica-19" d="M 1872 4494 
Q 2622 4494 2917 4105 
Q 3213 3716 3213 3303 
L 2656 3303 
Q 2606 3569 2497 3719 
Q 2294 4000 1881 4000 
Q 1409 4000 1131 3564 
Q 853 3128 822 2316 
Q 1016 2600 1309 2741 
Q 1578 2866 1909 2866 
Q 2472 2866 2890 2506 
Q 3309 2147 3309 1434 
Q 3309 825 2912 354 
Q 2516 -116 1781 -116 
Q 1153 -116 697 361 
Q 241 838 241 1966 
Q 241 2800 444 3381 
Q 834 4494 1872 4494 
z
M 1831 384 
Q 2275 384 2495 682 
Q 2716 981 2716 1388 
Q 2716 1731 2519 2042 
Q 2322 2353 1803 2353 
Q 1441 2353 1167 2112 
Q 894 1872 894 1388 
Q 894 963 1142 673 
Q 1391 384 1831 384 
z
" transform="scale(0.015625)"/>
       </defs>
       <use xlink:href="#Helvetica-14"/>
       <use xlink:href="#Helvetica-19" transform="translate(55.609375 0)"/>
       <use xlink:href="#Helvetica-13" transform="translate(111.21875 0)"/>
       <use xlink:href="#Helvetica-13" transform="translate(166.828125 0)"/>
       <use xlink:href="#Helvetica-13" transform="translate(222.4375 0)"/>
       <use xlink:href="#Helvetica-13" transform="translate(278.046875 0)"/>
      </g>
     </g>
    </g>
    <g id="ytick_5">
     <g id="line2d_35">
      <path d="M 68.58 158.758448 
L 421.178182 158.758448 
" clip-path="url(#p5f4764066f)" style="fill: none; stroke-dasharray: 1.85,0.8; stroke-dashoffset: 0; stroke: #e5e7eb; stroke-opacity: 0.7; stroke-width: 0.5"/>
     </g>
     <g id="line2d_36">
      <g>
       <use xlink:href="#m37dec13553" x="68.58" y="158.758448" style="fill: #4b5563; stroke: #4b5563; stroke-width: 0.8"/>
      </g>
     </g>
     <g id="text_11">
      <!-- 162500 -->
      <g style="fill: #4b5563" transform="translate(28.214375 162.508448) scale(0.1 -0.1)">
       <use xlink:href="#Helvetica-14"/>
       <use xlink:href="#Helvetica-19" transform="translate(55.609375 0)"/>
       <use xlink:href="#Helvetica-15" transform="translate(111.21875 0)"/>
       <use xlink:href="#Helvetica-18" transform="translate(166.828125 0)"/>
       <use xlink:href="#Helvetica-13" transform="translate(222.4375 0)"/>
       <use xlink:href="#Helvetica-13" transform="translate(278.046875 0)"/>
      </g>
     </g>
    </g>
    <g id="ytick_6">
     <g id="line2d_37">
      <path d="M 68.58 131.035185 
L 421.178182 131.035185 
" clip-path="url(#p5f4764066f)" style="fill: none; stroke-dasharray: 1.85,0.8; stroke-dashoffset: 0; stroke: #e5e7eb; stroke-opacity: 0.7; stroke-width: 0.5"/>
     </g>
     <g id="line2d_38">
      <g>
       <use xlink:href="#m37dec13553" x="68.58" y="131.035185" style="fill: #4b5563; stroke: #4b5563; stroke-width: 0.8"/>
      </g>
     </g>
     <g id="text_12">
      <!-- 165000 -->
      <g style="fill: #4b5563" transform="translate(28.214375 134.785185) scale(0.1 -0.1)">
       <use xlink:href="#Helvetica-14"/>
       <use xlink:href="#Helvetica-19" transform="translate(55.609375 0)"/>
       <use xlink:href="#Helvetica-18" transform="translate(111.21875 0)"/>
       <use xlink:href="#Helvetica-13" transform="translate(166.828125 0)"/>
       <use xlink:href="#Helvetica-13" transform="translate(222.4375 0)"/>
       <use xlink:href="#Helvetica-13" transform="translate(278.046875 0)"/>
      </g>
     </g>
    </g>
    <g id="ytick_7">
     <g id="line2d_39">
      <path d="M 68.58 103.311922 
L 421.178182 103.311922 
" clip-path="url(#p5f4764066f)" style="fill: none; stroke-dasharray: 1.85,0.8; stroke-dashoffset: 0; stroke: #e5e7eb; stroke-opacity: 0.7; stroke-width: 0.5"/>
     </g>
     <g id="line2d_40">
      <g>
       <use xlink:href="#m37dec13553" x="68.58" y="103.311922" style="fill: #4b5563; stroke: #4b5563; stroke-width: 0.8"/>
      </g>
     </g>
     <g id="text_13">
      <!-- 167500 -->
      <g style="fill: #4b5563" transform="translate(28.214375 107.061922) scale(0.1 -0.1)">
       <use xlink:href="#Helvetica-14"/>
       <use xlink:href="#Helvetica-19" transform="translate(55.609375 0)"/>
       <use xlink:href="#Helvetica-1a" transform="translate(111.21875 0)"/>
       <use xlink:href="#Helvetica-18" transform="translate(166.828125 0)"/>
       <use xlink:href="#Helvetica-13" transform="translate(222.4375 0)"/>
       <use xlink:href="#Helvetica-13" transform="translate(278.046875 0)"/>
      </g>
     </g>
    </g>
    <g id="ytick_8">
     <g id="line2d_41">
      <path d="M 68.58 75.588659 
L 421.178182 75.588659 
" clip-path="url(#p5f4764066f)" style="fill: none; stroke-dasharray: 1.85,0.8; stroke-dashoffset: 0; stroke: #e5e7eb; stroke-opacity: 0.7; stroke-width: 0.5"/>
     </g>
     <g id="line2d_42">
      <g>
       <use xlink:href="#m37dec13553" x="68.58" y="75.588659" style="fill: #4b5563; stroke: #4b5563; stroke-width: 0.8"/>
      </g>
     </g>
     <g id="text_14">
      <!-- 170000 -->
      <g style="fill: #4b5563" transform="translate(28.214375 79.338659) scale(0.1 -0.1)">
       <use xlink:href="#Helvetica-14"/>
       <use xlink:href="#Helvetica-1a" transform="translate(55.609375 0)"/>
       <use xlink:href="#Helvetica-13" transform="translate(111.21875 0)"/>
       <use xlink:href="#Helvetica-13" transform="translate(166.828125 0)"/>
       <use xlink:href="#Helvetica-13" transform="translate(222.4375 0)"/>
       <use xlink:href="#Helvetica-13" transform="translate(278.046875 0)"/>
      </g>
     </g>
    </g>
    <g id="ytick_9">
     <g id="line2d_43">
      <path d="M 68.58 47.865395 
L 421.178182 47.865395 
" clip-path="url(#p5f4764066f)" style="fill: none; stroke-dasharray: 1.85,0.8; stroke-dashoffset: 0; stroke: #e5e7eb; stroke-opacity: 0.7; stroke-width: 0.5"/>
     </g>
     <g id="line2d_44">
      <g>
       <use xlink:href="#m37dec13553" x="68.58" y="47.865395" style="fill: #4b5563; stroke: #4b5563; stroke-width: 0.8"/>
      </g>
     </g>
     <g id="text_15">
      <!-- 172500 -->
      <g style="fill: #4b5563" transform="translate(28.214375 51.615395) scale(0.1 -0.1)">
       <use xlink:href="#Helvetica-14"/>
       <use xlink:href="#Helvetica-1a" transform="translate(55.609375 0)"/>
       <use xlink:href="#Helvetica-15" transform="translate(111.21875 0)"/>
       <use xlink:href="#Helvetica-18" transform="translate(166.828125 0)"/>
       <use xlink:href="#Helvetica-13" transform="translate(222.4375 0)"/>
       <use xlink:href="#Helvetica-13" transform="translate(278.046875 0)"/>
      </g>
     </g>
    </g>
    <g id="text_16">
     <!-- Throughput (logs/sec) -->
     <g transform="translate(18.001875 204.141641) rotate(-90) scale(0.1 -0.1)">
      <defs>
       <path id="Helvetica-37" d="M 3828 4591 
L 3828 4044 
L 2281 4044 
L 2281 0 
L 1650 0 
L 1650 4044 
L 103 4044 
L 103 4591 
L 3828 4591 
z
" transform="scale(0.015625)"/>
       <path id="Helvetica-58" d="M 975 3347 
L 975 1125 
Q 975 869 1056 706 
Q 1206 406 1616 406 
Q 2203 406 2416 931 
Q 2531 1213 2531 1703 
L 2531 3347 
L 3094 3347 
L 3094 0 
L 2563 0 
L 2569 494 
Q 2459 303 2297 172 
Q 1975 -91 1516 -91 
Q 800 -91 541 388 
Q 400 644 400 1072 
L 400 3347 
L 975 3347 
z
M 1747 3428 
L 1747 3428 
z
" transform="scale(0.015625)"/>
       <path id="Helvetica-53" d="M 1825 378 
Q 2219 378 2480 708 
Q 2741 1038 2741 1694 
Q 2741 2094 2625 2381 
Q 2406 2934 1825 2934 
Q 1241 2934 1025 2350 
Q 909 2038 909 1556 
Q 909 1169 1025 897 
Q 1244 378 1825 378 
z
M 369 3331 
L 916 3331 
L 916 2888 
Q 1084 3116 1284 3241 
Q 1569 3428 1953 3428 
Q 2522 3428 2919 2992 
Q 3316 2556 3316 1747 
Q 3316 653 2744 184 
Q 2381 -113 1900 -113 
Q 1522 -113 1266 53 
Q 1116 147 931 375 
L 931 -1334 
L 369 -1334 
L 369 3331 
z
" transform="scale(0.015625)"/>
       <path id="Helvetica-57" d="M 525 4281 
L 1094 4281 
L 1094 3347 
L 1628 3347 
L 1628 2888 
L 1094 2888 
L 1094 703 
Q 1094 528 1213 469 
Q 1278 434 1431 434 
Q 1472 434 1519 436 
Q 1566 438 1628 444 
L 1628 0 
Q 1531 -28 1426 -40 
Q 1322 -53 1200 -53 
Q 806 -53 665 148 
Q 525 350 525 672 
L 525 2888 
L 72 2888 
L 72 3347 
L 525 3347 
L 525 4281 
z
" transform="scale(0.015625)"/>
       <path id="Helvetica-4f" d="M 428 4591 
L 991 4591 
L 991 0 
L 428 0 
L 428 4591 
z
" transform="scale(0.015625)"/>
       <path id="Helvetica-12" d="M 1456 4591 
L 1931 4591 
L 475 0 
L 0 0 
L 1456 4591 
z
" transform="scale(0.015625)"/>
      </defs>
      <use xlink:href="#Helvetica-37"/>
      <use xlink:href="#Helvetica-4b" transform="translate(61.078125 0)"/>
      <use xlink:href="#Helvetica-55" transform="translate(116.6875 0)"/>
      <use xlink:href="#Helvetica-52" transform="translate(149.984375 0)"/>
      <use xlink:href="#Helvetica-58" transform="translate(205.59375 0)"/>
      <use xlink:href="#Helvetica-4a" transform="translate(261.203125 0)"/>
      <use xlink:href="#Helvetica-4b" transform="translate(316.8125 0)"/>
      <use xlink:href="#Helvetica-53" transform="translate(372.421875 0)"/>
      <use xlink:href="#Helvetica-58" transform="translate(428.03125 0)"/>
      <use xlink:href="#Helvetica-57" transform="translate(483.640625 0)"/>
      <use xlink:href="#Helvetica-3" transform="translate(511.421875 0)"/>
      <use xlink:href="#Helvetica-b" transform="translate(539.203125 0)"/>
      <use xlink:href="#Helvetica-4f" transform="translate(572.5 0)"/>
      <use xlink:href="#Helvetica-52" transform="translate(594.71875 0)"/>
      <use xlink:href="#Helvetica-4a" transform="translate(650.328125 0)"/>
      <use xlink:href="#Helvetica-56" transform="translate(705.9375 0)"/>
      <use xlink:href="#Helvetica-12" transform="translate(755.9375 0)"/>
      <use xlink:href="#Helvetica-56" transform="translate(783.71875 0)"/>
      <use xlink:href="#Helvetica-48" transform="translate(833.71875 0)"/>
      <use xlink:href="#Helvetica-46" transform="translate(889.328125 0)"/>
      <use xlink:href="#Helvetica-c" transform="translate(939.328125 0)"/>
     </g>
    </g>
   </g>
   <g id="line2d_45">
    <path d="M 84.60719 42.937308 
L 244.879091 106.928144 
L 293.125741 268.083473 
L 356.904342 139.285628 
L 405.150992 184.588767 
" clip-path="url(#p5f4764066f)" style="fill: none; stroke: #4f46e5; stroke-width: 2; stroke-linecap: square"/>
    <defs>
     <path id="m49c39c26b1" d="M 0 3 
C 0.795609 3 1.55874 2.683901 2.12132 2.12132 
C 2.683901 1.55874 3 0.795609 3 0 
C 3 -0.795609 2.683901 -1.55874 2.12132 -2.12132 
C 1.55874 -2.683901 0.795609 -3 0 -3 
C -0.795609 -3 -1.55874 -2.683901 -2.12132 -2.12132 
C -2.683901 -1.55874 -3 -0.795609 -3 0 
C -3 0.795609 -2.683901 1.55874 -2.12132 2.12132 
C -1.55874 2.683901 -0.795609 3 0 3 
z
" style="stroke: #4f46e5"/>
    </defs>
    <g clip-path="url(#p5f4764066f)">
     <use xlink:href="#m49c39c26b1" x="84.60719" y="42.937308" style="fill: #4f46e5; stroke: #4f46e5"/>
     <use xlink:href="#m49c39c26b1" x="244.879091" y="106.928144" style="fill: #4f46e5; stroke: #4f46e5"/>
     <use xlink:href="#m49c39c26b1" x="293.125741" y="268.083473" style="fill: #4f46e5; stroke: #4f46e5"/>
     <use xlink:href="#m49c39c26b1" x="356.904342" y="139.285628" style="fill: #4f46e5; stroke: #4f46e5"/>
     <use xlink:href="#m49c39c26b1" x="405.150992" y="184.588767" style="fill: #4f46e5; stroke: #4f46e5"/>
    </g>
   </g>
   <g id="patch_3">
    <path d="M 68.58 279.340781 
L 68.58 31.68 
" style="fill: none; stroke: #9ca3af; stroke-width: 0.8; stroke-linejoin: miter; stroke-linecap: square"/>
   </g>
   <g id="patch_4">
    <path d="M 68.58 279.340781 
L 421.178182 279.340781 
" style="fill: none; stroke: #9ca3af; stroke-width: 0.8; stroke-linejoin: miter; stroke-linecap: square"/>
   </g>
   <g id="text_17">
    <!-- Append Throughput vs. Chain Size -->
    <g style="fill: #1f2937" transform="translate(143.203466 19.68) scale(0.12 -0.12)">
     <defs>
      <path id="HelveticaRounded-Bold-22" d="M 160 781 
C 122 678 58 493 58 378 
C 58 96 256 -83 544 -83 
C 794 -83 941 0 1011 205 
L 1286 973 
L 2976 973 
L 3245 205 
C 3322 0 3488 -83 3718 -83 
C 3987 -83 4211 122 4211 378 
C 4211 493 4147 678 4109 781 
L 2842 4307 
C 2726 4634 2515 4691 2278 4691 
L 2029 4691 
C 1773 4691 1606 4608 1517 4371 
L 160 781 
z
M 2746 1702 
L 1517 1702 
L 2138 3552 
L 2150 3552 
L 2746 1702 
z
" transform="scale(0.015625)"/>
      <path id="HelveticaRounded-Bold-51" d="M 371 -858 
C 371 -1165 557 -1325 838 -1325 
C 1120 -1325 1306 -1165 1306 -858 
L 1306 390 
L 1318 390 
C 1491 90 1811 -83 2240 -83 
C 3226 -83 3680 755 3680 1651 
C 3680 2861 2995 3430 2214 3430 
C 1760 3430 1382 3238 1229 2842 
L 1216 2842 
L 1216 2989 
C 1216 3277 1069 3430 794 3430 
C 506 3430 371 3277 371 2989 
L 371 -858 
z
M 2746 1683 
C 2746 1248 2598 646 2003 646 
C 1434 640 1254 1203 1254 1683 
C 1254 2214 1459 2701 2003 2701 
C 2502 2688 2746 2234 2746 1683 
z
" transform="scale(0.015625)"/>
      <path id="HelveticaRounded-Bold-46" d="M 3277 1498 
C 3590 1498 3686 1581 3686 1901 
C 3686 2669 3072 3430 1997 3430 
C 890 3430 230 2701 230 1613 
C 230 800 723 -83 2029 -83 
C 2592 -83 3494 179 3494 742 
C 3494 915 3334 1107 3110 1107 
C 2733 1107 2733 646 2029 646 
C 1485 646 1165 1005 1165 1498 
L 3277 1498 
z
M 1165 2035 
C 1267 2490 1549 2778 2016 2778 
C 2432 2778 2752 2464 2803 2035 
L 1165 2035 
z
" transform="scale(0.015625)"/>
      <path id="HelveticaRounded-Bold-4f" d="M 371 384 
C 371 134 474 -83 838 -83 
C 1203 -83 1306 134 1306 384 
L 1306 1926 
C 1306 2394 1690 2662 2016 2662 
C 2419 2662 2605 2394 2605 2016 
L 2605 384 
C 2605 134 2707 -83 3072 -83 
C 3437 -83 3539 134 3539 384 
L 3539 2202 
C 3539 3149 2925 3430 2362 3430 
C 1830 3430 1491 3187 1229 2842 
L 1216 2842 
L 1216 2963 
C 1216 3245 1088 3430 794 3430 
C 499 3430 371 3245 371 2963 
L 371 384 
z
" transform="scale(0.015625)"/>
      <path id="HelveticaRounded-Bold-45" d="M 3539 4224 
C 3539 4531 3354 4691 3072 4691 
C 2790 4691 2605 4531 2605 4224 
L 2605 2957 
L 2592 2957 
C 2406 3258 2086 3430 1670 3430 
C 685 3430 230 2592 230 1696 
C 230 486 915 -83 1696 -83 
C 2150 -83 2528 109 2682 506 
L 2694 506 
L 2694 358 
C 2694 70 2842 -83 3117 -83 
C 3405 -83 3539 70 3539 358 
L 3539 4224 
z
M 1165 1664 
C 1165 2099 1312 2701 1907 2701 
C 2477 2707 2656 2144 2656 1664 
C 2656 1133 2451 646 1907 646 
C 1408 659 1165 1114 1165 1664 
z
" transform="scale(0.015625)"/>
      <path id="HelveticaRounded-Bold-1" transform="scale(0.015625)"/>
      <path id="HelveticaRounded-Bold-35" d="M 1613 442 
C 1613 128 1818 -83 2138 -83 
C 2458 -83 2662 128 2662 442 
L 2662 3725 
L 3654 3725 
C 3955 3725 4198 3878 4198 4166 
C 4198 4454 3955 4608 3654 4608 
L 621 4608 
C 320 4608 77 4454 77 4166 
C 77 3878 320 3725 621 3725 
L 1613 3725 
L 1613 442 
z
" transform="scale(0.015625)"/>
      <path id="HelveticaRounded-Bold-49" d="M 371 384 
C 371 134 474 -83 838 -83 
C 1203 -83 1306 134 1306 384 
L 1306 1926 
C 1306 2394 1690 2662 2016 2662 
C 2419 2662 2605 2394 2605 2016 
L 2605 384 
C 2605 134 2707 -83 3072 -83 
C 3437 -83 3539 134 3539 384 
L 3539 2202 
C 3539 3149 2925 3430 2362 3430 
C 1830 3430 1504 3181 1318 2938 
L 1306 2938 
L 1306 4224 
C 1306 4531 1120 4691 838 4691 
C 557 4691 371 4531 371 4224 
L 371 384 
z
" transform="scale(0.015625)"/>
      <path id="HelveticaRounded-Bold-53" d="M 422 384 
C 422 134 525 -83 890 -83 
C 1254 -83 1357 134 1357 384 
L 1357 1472 
C 1357 2246 1562 2509 1939 2509 
L 2106 2509 
C 2336 2509 2566 2630 2566 2976 
C 2566 3238 2349 3430 2054 3430 
C 1600 3430 1389 3027 1280 2637 
L 1267 2637 
L 1267 2995 
C 1267 3277 1082 3430 845 3430 
C 608 3430 422 3277 422 2995 
L 422 384 
z
" transform="scale(0.015625)"/>
      <path id="HelveticaRounded-Bold-50" d="M 1165 1677 
C 1165 2285 1414 2739 1958 2739 
C 2502 2739 2752 2285 2752 1677 
C 2752 1107 2515 608 1958 608 
C 1402 608 1165 1107 1165 1677 
z
M 230 1677 
C 230 742 685 -83 1958 -83 
C 3232 -83 3686 742 3686 1677 
C 3686 2662 3085 3430 1958 3430 
C 832 3430 230 2662 230 1677 
z
" transform="scale(0.015625)"/>
      <path id="HelveticaRounded-Bold-56" d="M 3539 2963 
C 3539 3213 3437 3430 3072 3430 
C 2707 3430 2605 3213 2605 2963 
L 2605 1421 
C 2605 954 2221 685 1894 685 
C 1491 685 1306 954 1306 1331 
L 1306 2963 
C 1306 3213 1203 3430 838 3430 
C 474 3430 371 3213 371 2963 
L 371 1146 
C 371 198 986 -83 1549 -83 
C 2080 -83 2419 160 2682 506 
L 2694 506 
L 2694 384 
C 2694 102 2822 -83 3117 -83 
C 3411 -83 3539 102 3539 384 
L 3539 2963 
z
" transform="scale(0.015625)"/>
      <path id="HelveticaRounded-Bold-48" d="M 1165 1683 
C 1165 2259 1350 2701 1952 2701 
C 2387 2701 2643 2400 2643 1722 
C 2643 1056 2323 781 1907 781 
C 1376 781 1165 1254 1165 1683 
z
M 3539 2989 
C 3539 3277 3405 3430 3117 3430 
C 2842 3430 2694 3277 2694 2989 
L 2694 2874 
L 2682 2874 
C 2509 3219 2150 3430 1696 3430 
C 909 3430 230 2861 230 1651 
C 230 730 742 90 1728 90 
C 2099 90 2464 294 2630 538 
L 2643 538 
L 2643 346 
C 2643 -390 2413 -678 1843 -678 
C 1318 -678 1242 -198 851 -198 
C 646 -198 467 -365 467 -595 
C 467 -1050 1165 -1370 1875 -1370 
C 2848 -1370 3539 -851 3539 275 
L 3539 2989 
z
" transform="scale(0.015625)"/>
      <path id="HelveticaRounded-Bold-55" d="M 614 749 
C 614 198 896 -83 1574 -83 
C 2022 -83 2253 64 2253 333 
C 2253 531 2131 646 1926 646 
L 1792 646 
C 1626 646 1549 723 1549 864 
L 1549 2733 
L 1830 2733 
C 2106 2733 2253 2816 2253 3040 
C 2253 3264 2106 3347 1830 3347 
L 1549 3347 
L 1549 3917 
C 1549 4224 1363 4384 1082 4384 
C 800 4384 614 4224 614 3917 
L 614 3347 
L 454 3347 
C 192 3347 83 3245 83 3040 
C 83 2835 192 2733 454 2733 
L 614 2733 
L 614 749 
z
" transform="scale(0.015625)"/>
      <path id="HelveticaRounded-Bold-57" d="M 986 250 
C 1075 0 1133 -83 1600 -83 
C 2067 -83 2125 0 2214 250 
L 3098 2707 
C 3123 2784 3155 2886 3155 2944 
C 3155 3277 2925 3430 2701 3430 
C 2349 3430 2259 3136 2234 3040 
L 1606 928 
L 1594 928 
L 966 3040 
C 941 3136 851 3430 499 3430 
C 275 3430 45 3277 45 2944 
C 45 2886 77 2784 102 2707 
L 986 250 
z
" transform="scale(0.015625)"/>
      <path id="HelveticaRounded-Bold-54" d="M 224 2387 
C 224 1760 646 1536 1190 1402 
L 1741 1267 
C 2074 1184 2278 1146 2278 909 
C 2278 717 2067 570 1734 570 
C 1043 570 1005 1146 602 1146 
C 339 1146 224 960 224 755 
C 224 294 928 -83 1773 -83 
C 2477 -83 3213 269 3213 1030 
C 3213 1683 2579 1907 2048 2029 
L 1658 2118 
C 1370 2182 1158 2234 1158 2451 
C 1158 2650 1370 2739 1696 2739 
C 2285 2739 2298 2310 2662 2310 
C 2906 2310 3053 2502 3053 2720 
C 3053 3149 2336 3430 1626 3430 
C 979 3430 224 3149 224 2387 
z
" transform="scale(0.015625)"/>
      <path id="HelveticaRounded-Bold-f" d="M 454 480 
C 454 192 691 -45 979 -45 
C 1267 -45 1504 192 1504 480 
C 1504 768 1267 1005 979 1005 
C 691 1005 454 768 454 480 
z
" transform="scale(0.015625)"/>
      <path id="HelveticaRounded-Bold-24" d="M 339 2304 
C 339 717 1190 -109 2630 -109 
C 3648 -109 4454 550 4454 1216 
C 4454 1472 4198 1619 3942 1619 
C 3437 1619 3456 736 2630 736 
C 1722 736 1389 1466 1389 2304 
C 1389 3302 1933 3872 2592 3872 
C 3552 3872 3373 3040 3981 3040 
C 4294 3040 4454 3219 4454 3514 
C 4454 3962 3795 4717 2592 4717 
C 1107 4717 339 3603 339 2304 
z
" transform="scale(0.015625)"/>
      <path id="HelveticaRounded-Bold-42" d="M 3475 2470 
C 3475 3142 2854 3430 1958 3430 
C 998 3430 474 2957 474 2586 
C 474 2394 634 2227 870 2227 
C 1242 2227 1261 2739 1952 2739 
C 2266 2739 2541 2624 2541 2355 
C 2541 2086 2362 2035 2138 2010 
L 1568 1946 
C 851 1862 262 1645 262 870 
C 262 282 787 -83 1318 -83 
C 1811 -83 2234 58 2598 461 
C 2611 173 2746 -83 3149 -83 
C 3373 -83 3571 64 3571 275 
C 3571 422 3475 512 3475 902 
L 3475 2470 
z
M 2541 1210 
C 2541 864 2227 531 1715 531 
C 1395 531 1197 704 1197 915 
C 1197 1197 1408 1318 1798 1376 
L 2138 1427 
C 2246 1446 2438 1478 2541 1574 
L 2541 1210 
z
" transform="scale(0.015625)"/>
      <path id="HelveticaRounded-Bold-4a" d="M 422 384 
C 422 134 525 -83 890 -83 
C 1254 -83 1357 134 1357 384 
L 1357 2963 
C 1357 3213 1254 3430 890 3430 
C 525 3430 422 3213 422 2963 
L 422 384 
z
M 403 4230 
C 403 3962 621 3744 890 3744 
C 1158 3744 1376 3962 1376 4230 
C 1376 4499 1158 4717 890 4717 
C 621 4717 403 4499 403 4230 
z
" transform="scale(0.015625)"/>
      <path id="HelveticaRounded-Bold-34" d="M 2022 2867 
C 1690 2944 1306 3046 1306 3366 
C 1306 3686 1574 3910 2061 3910 
C 3040 3910 2950 3226 3437 3226 
C 3693 3226 3917 3379 3917 3642 
C 3917 4256 2950 4717 2131 4717 
C 1242 4717 294 4333 294 3309 
C 294 2816 467 2291 1421 2048 
L 2605 1747 
C 2963 1658 3053 1453 3053 1267 
C 3053 960 2752 659 2208 659 
C 1146 659 1293 1491 723 1491 
C 467 1491 282 1312 282 1056 
C 282 557 877 -109 2208 -109 
C 3475 -109 4102 512 4102 1344 
C 4102 1882 3859 2451 2899 2669 
L 2022 2867 
z
" transform="scale(0.015625)"/>
      <path id="HelveticaRounded-Bold-5b" d="M 314 704 
C 230 614 192 499 192 365 
C 192 179 333 0 608 0 
L 2989 0 
C 3162 0 3366 96 3366 365 
C 3366 634 3162 730 2989 730 
L 1453 730 
L 3181 2624 
C 3270 2720 3328 2835 3328 2938 
C 3328 3181 3194 3347 2944 3347 
L 723 3347 
C 550 3347 346 3251 346 2982 
C 346 2714 550 2618 723 2618 
L 2074 2618 
L 314 704 
z
" transform="scale(0.015625)"/>
     </defs>
     <use xlink:href="#HelveticaRounded-Bold-22"/>
     <use xlink:href="#HelveticaRounded-Bold-51" transform="translate(66.703125 0)"/>
     <use xlink:href="#HelveticaRounded-Bold-51" transform="translate(127.796875 0)"/>
     <use xlink:href="#HelveticaRounded-Bold-46" transform="translate(188.890625 0)"/>
     <use xlink:href="#HelveticaRounded-Bold-4f" transform="translate(250.09375 0)"/>
     <use xlink:href="#HelveticaRounded-Bold-45" transform="translate(311.1875 0)"/>
     <use xlink:href="#HelveticaRounded-Bold-1" transform="translate(372.28125 0)"/>
     <use xlink:href="#HelveticaRounded-Bold-35" transform="translate(402.875 0)"/>
     <use xlink:href="#HelveticaRounded-Bold-49" transform="translate(467.875 0)"/>
     <use xlink:href="#HelveticaRounded-Bold-53" transform="translate(528.96875 0)"/>
     <use xlink:href="#HelveticaRounded-Bold-50" transform="translate(568.46875 0)"/>
     <use xlink:href="#HelveticaRounded-Bold-56" transform="translate(629.671875 0)"/>
     <use xlink:href="#HelveticaRounded-Bold-48" transform="translate(690.765625 0)"/>
     <use xlink:href="#HelveticaRounded-Bold-49" transform="translate(751.859375 0)"/>
     <use xlink:href="#HelveticaRounded-Bold-51" transform="translate(812.953125 0)"/>
     <use xlink:href="#HelveticaRounded-Bold-56" transform="translate(874.046875 0)"/>
     <use xlink:href="#HelveticaRounded-Bold-55" transform="translate(935.140625 0)"/>
     <use xlink:href="#HelveticaRounded-Bold-1" transform="translate(972.140625 0)"/>
     <use xlink:href="#HelveticaRounded-Bold-57" transform="translate(1002.734375 0)"/>
     <use xlink:href="#HelveticaRounded-Bold-54" transform="translate(1052.734375 0)"/>
     <use xlink:href="#HelveticaRounded-Bold-f" transform="translate(1106.4375 0)"/>
     <use xlink:href="#HelveticaRounded-Bold-1" transform="translate(1137.03125 0)"/>
     <use xlink:href="#HelveticaRounded-Bold-24" transform="translate(1167.625 0)"/>
     <use xlink:href="#HelveticaRounded-Bold-49" transform="translate(1239.828125 0)"/>
     <use xlink:href="#HelveticaRounded-Bold-42" transform="translate(1300.921875 0)"/>
     <use xlink:href="#HelveticaRounded-Bold-4a" transform="translate(1362.015625 0)"/>
     <use xlink:href="#HelveticaRounded-Bold-4f" transform="translate(1389.8125 0)"/>
     <use xlink:href="#HelveticaRounded-Bold-1" transform="translate(1450.90625 0)"/>
     <use xlink:href="#HelveticaRounded-Bold-34" transform="translate(1481.5 0)"/>
     <use xlink:href="#HelveticaRounded-Bold-4a" transform="translate(1550 0)"/>
     <use xlink:href="#HelveticaRounded-Bold-5b" transform="translate(1577.796875 0)"/>
     <use xlink:href="#HelveticaRounded-Bold-46" transform="translate(1633.390625 0)"/>
    </g>
   </g>
  </g>
 </g>
 <defs>
  <clipPath id="p5f4764066f">
   <rect x="68.58" y="31.68" width="352.598182" height="247.660781"/>
  </clipPath>
 </defs>
</svg>
