<?xml version="1.0" encoding="utf-8" standalone="no"?>
<!DOCTYPE svg PUBLIC "-//W3C//DTD SVG 1.1//EN"
  "http://www.w3.org/Graphics/SVG/1.1/DTD/svg11.dtd">
<svg xmlns:xlink="http://www.w3.org/1999/xlink" width="432pt" height="324pt" viewBox="0 0 432 324" xmlns="http://www.w3.org/2000/svg" version="1.1">
 <metadata>
  <rdf:RDF xmlns:dc="http://purl.org/dc/elements/1.1/" xmlns:cc="http://creativecommons.org/ns#" xmlns:rdf="http://www.w3.org/1999/02/22-rdf-syntax-ns#">
   <cc:Work>
    <dc:type rdf:resource="http://purl.org/dc/dcmitype/StillImage"/>
    <dc:date>2026-07-05T23:00:40.102386</dc:date>
    <dc:format>image/svg+xml</dc:format>
    <dc:creator>
     <cc:Agent>
      <dc:title>Matplotlib v3.11.0, https://matplotlib.org/</dc:title>
     </cc:Agent>
    </dc:creator>
   </cc:Work>
  </rdf:RDF>
 </metadata>
 <defs>
  <style type="text/css">*{stroke-linejoin: round; stroke-linecap: butt}</style>
 </defs>
 <g id="figure_1">
  <g id="patch_1">
   <path d="M 0 324 
L 432 324 
L 432 0 
L 0 0 
z
" style="fill: #ffffff"/>
  </g>
  <g id="axes_1">
   <g id="patch_2">
    <path d="M 52.02 279.340781 
L 421.178182 279.340781 
L 421.178182 31.68 
L 52.02 31.68 
z
" style="fill: #ffffff"/>
   </g>
   <g id="matplotlib.axis_1">
    <g id="xtick_1">
     <g id="line2d_1">
      <path d="M 68.799917 279.340781 
L 68.799917 31.68 
" clip-path="url(#pf1c0c14e8e)" style="fill: none; stroke-dasharray: 1.85,0.8; stroke-dashoffset: 0; stroke: #e5e7eb; stroke-opacity: 0.7; stroke-width: 0.5"/>
     </g>
     <g id="line2d_2">
      <defs>
       <path id="mae12efd5c0" d="M 0 0 
L 0 3.5 
" style="stroke: #4b5563; stroke-width: 0.8"/>
      </defs>
      <g>
       <use xlink:href="#mae12efd5c0" x="68.799917" y="279.340781" style="fill: #4b5563; stroke: #4b5563; stroke-width: 0.8"/>
      </g>
     </g>
     <g id="text_1">
      <!-- 500 -->
      <g style="fill: #4b5563" transform="translate(60.458511 293.840781) scale(0.1 -0.1)">
       <defs>
        <path id="Helvetica-18" d="M 791 1141 
Q 847 659 1238 475 
Q 1438 381 1700 381 
Q 2200 381 2440 700 
Q 2681 1019 2681 1406 
Q 2681 1875 2395 2131 
Q 2109 2388 1709 2388 
Q 1419 2388 1211 2275 
Q 1003 2163 856 1963 
L 369 1991 
L 709 4400 
L 3034 4400 
L 3034 3856 
L 1131 3856 
L 941 2613 
Q 1097 2731 1238 2791 
Q 1488 2894 1816 2894 
Q 2431 2894 2859 2497 
Q 3288 2100 3288 1491 
Q 3288 856 2895 371 
Q 2503 -113 1644 -113 
Q 1097 -113 676 195 
Q 256 503 206 1141 
L 791 1141 
z
" transform="scale(0.015625)"/>
        <path id="Helvetica-13" d="M 1731 4475 
Q 2600 4475 2988 3759 
Q 3288 3206 3288 2244 
Q 3288 1331 3016 734 
Q 2622 -122 1728 -122 
Q 922 -122 528 578 
Q 200 1163 200 2147 
Q 200 2909 397 3456 
Q 766 4475 1731 4475 
z
M 1725 391 
Q 2163 391 2422 778 
Q 2681 1166 2681 2222 
Q 2681 2984 2493 3476 
Q 2306 3969 1766 3969 
Q 1269 3969 1039 3501 
Q 809 3034 809 2125 
Q 809 1441 956 1025 
Q 1181 391 1725 391 
z
" transform="scale(0.015625)"/>
       </defs>
       <use xlink:href="#Helvetica-18"/>
       <use xlink:href="#Helvetica-13" transform="translate(55.609375 0)"/>
       <use xlink:href="#Helvetica-13" transform="translate(111.21875 0)"/>
      </g>
     </g>
    </g>
    <g id="xtick_2">
     <g id="line2d_3">
      <path d="M 236.599091 279.340781 
L 236.599091 31.68 
" clip-path="url(#pf1c0c14e8e)" style="fill: none; stroke-dasharray: 1.85,0.8; stroke-dashoffset: 0; stroke: #e5e7eb; stroke-opacity: 0.7; stroke-width: 0.5"/>
     </g>
     <g id="line2d_4">
      <g>
       <use xlink:href="#mae12efd5c0" x="236.599091" y="279.340781" style="fill: #4b5563; stroke: #4b5563; stroke-width: 0.8"/>
      </g>
     </g>
     <g id="text_2">
      <!-- 5,000 -->
      <g style="fill: #4b5563" transform="translate(224.088153 293.840781) scale(0.1 -0.1)">
       <defs>
        <path id="Helvetica-f" d="M 531 -653 
Q 747 -616 834 -350 
Q 881 -209 881 -78 
Q 881 -56 879 -39 
Q 878 -22 872 0 
L 531 0 
L 531 681 
L 1200 681 
L 1200 50 
Q 1200 -322 1050 -603 
Q 900 -884 531 -950 
L 531 -653 
z
" transform="scale(0.015625)"/>
       </defs>
       <use xlink:href="#Helvetica-18"/>
       <use xlink:href="#Helvetica-f" transform="translate(55.609375 0)"/>
       <use xlink:href="#Helvetica-13" transform="translate(83.390625 0)"/>
       <use xlink:href="#Helvetica-13" transform="translate(139 0)"/>
       <use xlink:href="#Helvetica-13" transform="translate(194.609375 0)"/>
      </g>
     </g>
    </g>
    <g id="xtick_3">
     <g id="line2d_5">
      <path d="M 287.111675 279.340781 
L 287.111675 31.68 
" clip-path="url(#pf1c0c14e8e)" style="fill: none; stroke-dasharray: 1.85,0.8; stroke-dashoffset: 0; stroke: #e5e7eb; stroke-opacity: 0.7; stroke-width: 0.5"/>
     </g>
     <g id="line2d_6">
      <g>
       <use xlink:href="#mae12efd5c0" x="287.111675" y="279.340781" style="fill: #4b5563; stroke: #4b5563; stroke-width: 0.8"/>
      </g>
     </g>
     <g id="text_3">
      <!-- 10,000 -->
      <g style="fill: #4b5563" transform="translate(271.820269 293.840781) scale(0.1 -0.1)">
       <defs>
        <path id="Helvetica-14" d="M 613 3169 
L 613 3600 
Q 1222 3659 1462 3798 
Q 1703 3938 1822 4456 
L 2266 4456 
L 2266 0 
L 1666 0 
L 1666 3169 
L 613 3169 
z
" transform="scale(0.015625)"/>
       </defs>
       <use xlink:href="#Helvetica-14"/>
       <use xlink:href="#Helvetica-13" transform="translate(55.609375 0)"/>
       <use xlink:href="#Helvetica-f" transform="translate(111.21875 0)"/>
       <use xlink:href="#Helvetica-13" transform="translate(139 0)"/>
       <use xlink:href="#Helvetica-13" transform="translate(194.609375 0)"/>
       <use xlink:href="#Helvetica-13" transform="translate(250.21875 0)"/>
      </g>
     </g>
    </g>
    <g id="xtick_4">
     <g id="line2d_7">
      <path d="M 353.88568 279.340781 
L 353.88568 31.68 
" clip-path="url(#pf1c0c14e8e)" style="fill: none; stroke-dasharray: 1.85,0.8; stroke-dashoffset: 0; stroke: #e5e7eb; stroke-opacity: 0.7; stroke-width: 0.5"/>
     </g>
     <g id="line2d_8">
      <g>
       <use xlink:href="#mae12efd5c0" x="353.88568" y="279.340781" style="fill: #4b5563; stroke: #4b5563; stroke-width: 0.8"/>
      </g>
     </g>
     <g id="text_4">
      <!-- 25,000 -->
      <g style="fill: #4b5563" transform="translate(338.594274 293.840781) scale(0.1 -0.1)">
       <defs>
        <path id="Helvetica-15" d="M 200 0 
Q 231 578 439 1006 
Q 647 1434 1250 1784 
L 1850 2131 
Q 2253 2366 2416 2531 
Q 2672 2791 2672 3125 
Q 2672 3516 2437 3745 
Q 2203 3975 1813 3975 
Q 1234 3975 1013 3538 
Q 894 3303 881 2888 
L 309 2888 
Q 319 3472 525 3841 
Q 891 4491 1816 4491 
Q 2584 4491 2939 4075 
Q 3294 3659 3294 3150 
Q 3294 2613 2916 2231 
Q 2697 2009 2131 1694 
L 1703 1456 
Q 1397 1288 1222 1134 
Q 909 863 828 531 
L 3272 531 
L 3272 0 
L 200 0 
z
" transform="scale(0.015625)"/>
       </defs>
       <use xlink:href="#Helvetica-15"/>
       <use xlink:href="#Helvetica-18" transform="translate(55.609375 0)"/>
       <use xlink:href="#Helvetica-f" transform="translate(111.21875 0)"/>
       <use xlink:href="#Helvetica-13" transform="translate(139 0)"/>
       <use xlink:href="#Helvetica-13" transform="translate(194.609375 0)"/>
       <use xlink:href="#Helvetica-13" transform="translate(250.21875 0)"/>
      </g>
     </g>
    </g>
    <g id="xtick_5">
     <g id="line2d_9">
      <path d="M 404.398264 279.340781 
L 404.398264 31.68 
" clip-path="url(#pf1c0c14e8e)" style="fill: none; stroke-dasharray: 1.85,0.8; stroke-dashoffset: 0; stroke: #e5e7eb; stroke-opacity: 0.7; stroke-width: 0.5"/>
     </g>
     <g id="line2d_10">
      <g>
       <use xlink:href="#mae12efd5c0" x="404.398264" y="279.340781" style="fill: #4b5563; stroke: #4b5563; stroke-width: 0.8"/>
      </g>
     </g>
     <g id="text_5">
      <!-- 50,000 -->
      <g style="fill: #4b5563" transform="translate(389.106858 293.840781) scale(0.1 -0.1)">
       <use xlink:href="#Helvetica-18"/>
       <use xlink:href="#Helvetica-13" transform="translate(55.609375 0)"/>
       <use xlink:href="#Helvetica-f" transform="translate(111.21875 0)"/>
       <use xlink:href="#Helvetica-13" transform="translate(139 0)"/>
       <use xlink:href="#Helvetica-13" transform="translate(194.609375 0)"/>
       <use xlink:href="#Helvetica-13" transform="translate(250.21875 0)"/>
      </g>
     </g>
    </g>
    <g id="xtick_6">
     <g id="line2d_11">
      <defs>
       <path id="m80491f61bd" d="M 0 0 
L 0 2 
" style="stroke: #4b5563; stroke-width: 0.6"/>
      </defs>
      <g>
       <use xlink:href="#m80491f61bd" x="52.538497" y="279.340781" style="fill: #4b5563; stroke: #4b5563; stroke-width: 0.6"/>
      </g>
     </g>
    </g>
    <g id="xtick_7">
     <g id="line2d_12">
      <g>
       <use xlink:href="#m80491f61bd" x="82.086465" y="279.340781" style="fill: #4b5563; stroke: #4b5563; stroke-width: 0.6"/>
      </g>
     </g>
    </g>
    <g id="xtick_8">
     <g id="line2d_13">
      <g>
       <use xlink:href="#m80491f61bd" x="93.320081" y="279.340781" style="fill: #4b5563; stroke: #4b5563; stroke-width: 0.6"/>
      </g>
     </g>
    </g>
    <g id="xtick_9">
     <g id="line2d_14">
      <g>
       <use xlink:href="#m80491f61bd" x="103.051082" y="279.340781" style="fill: #4b5563; stroke: #4b5563; stroke-width: 0.6"/>
      </g>
     </g>
    </g>
    <g id="xtick_10">
     <g id="line2d_15">
      <g>
       <use xlink:href="#m80491f61bd" x="111.634433" y="279.340781" style="fill: #4b5563; stroke: #4b5563; stroke-width: 0.6"/>
      </g>
     </g>
    </g>
    <g id="xtick_11">
     <g id="line2d_16">
      <g>
       <use xlink:href="#m80491f61bd" x="169.825086" y="279.340781" style="fill: #4b5563; stroke: #4b5563; stroke-width: 0.6"/>
      </g>
     </g>
    </g>
    <g id="xtick_12">
     <g id="line2d_17">
      <g>
       <use xlink:href="#m80491f61bd" x="199.373054" y="279.340781" style="fill: #4b5563; stroke: #4b5563; stroke-width: 0.6"/>
      </g>
     </g>
    </g>
    <g id="xtick_13">
     <g id="line2d_18">
      <g>
       <use xlink:href="#m80491f61bd" x="220.337671" y="279.340781" style="fill: #4b5563; stroke: #4b5563; stroke-width: 0.6"/>
      </g>
     </g>
    </g>
    <g id="xtick_14">
     <g id="line2d_19">
      <g>
       <use xlink:href="#m80491f61bd" x="249.885639" y="279.340781" style="fill: #4b5563; stroke: #4b5563; stroke-width: 0.6"/>
      </g>
     </g>
    </g>
    <g id="xtick_15">
     <g id="line2d_20">
      <g>
       <use xlink:href="#m80491f61bd" x="261.119255" y="279.340781" style="fill: #4b5563; stroke: #4b5563; stroke-width: 0.6"/>
      </g>
     </g>
    </g>
    <g id="xtick_16">
     <g id="line2d_21">
      <g>
       <use xlink:href="#m80491f61bd" x="270.850255" y="279.340781" style="fill: #4b5563; stroke: #4b5563; stroke-width: 0.6"/>
      </g>
     </g>
    </g>
    <g id="xtick_17">
     <g id="line2d_22">
      <g>
       <use xlink:href="#m80491f61bd" x="279.433606" y="279.340781" style="fill: #4b5563; stroke: #4b5563; stroke-width: 0.6"/>
      </g>
     </g>
    </g>
    <g id="xtick_18">
     <g id="line2d_23">
      <g>
       <use xlink:href="#m80491f61bd" x="337.62426" y="279.340781" style="fill: #4b5563; stroke: #4b5563; stroke-width: 0.6"/>
      </g>
     </g>
    </g>
    <g id="xtick_19">
     <g id="line2d_24">
      <g>
       <use xlink:href="#m80491f61bd" x="367.172228" y="279.340781" style="fill: #4b5563; stroke: #4b5563; stroke-width: 0.6"/>
      </g>
     </g>
    </g>
    <g id="xtick_20">
     <g id="line2d_25">
      <g>
       <use xlink:href="#m80491f61bd" x="388.136844" y="279.340781" style="fill: #4b5563; stroke: #4b5563; stroke-width: 0.6"/>
      </g>
     </g>
    </g>
    <g id="xtick_21">
     <g id="line2d_26">
      <g>
       <use xlink:href="#m80491f61bd" x="417.684812" y="279.340781" style="fill: #4b5563; stroke: #4b5563; stroke-width: 0.6"/>
      </g>
     </g>
    </g>
    <g id="text_6">
     <!-- Ledger Chain Size (Records) -->
     <g transform="translate(172.127997 311.04) scale(0.1 -0.1)">
      <defs>
       <path id="Helvetica-2f" d="M 488 4591 
L 1109 4591 
L 1109 547 
L 3434 547 
L 3434 0 
L 488 0 
L 488 4591 
z
" transform="scale(0.015625)"/>
       <path id="Helvetica-48" d="M 1806 3422 
Q 2163 3422 2497 3255 
Q 2831 3088 3006 2822 
Q 3175 2569 3231 2231 
Q 3281 2000 3281 1494 
L 828 1494 
Q 844 984 1069 676 
Q 1294 369 1766 369 
Q 2206 369 2469 659 
Q 2619 828 2681 1050 
L 3234 1050 
Q 3213 866 3089 639 
Q 2966 413 2813 269 
Q 2556 19 2178 -69 
Q 1975 -119 1719 -119 
Q 1094 -119 659 336 
Q 225 791 225 1609 
Q 225 2416 662 2919 
Q 1100 3422 1806 3422 
z
M 2703 1941 
Q 2669 2306 2544 2525 
Q 2313 2931 1772 2931 
Q 1384 2931 1121 2651 
Q 859 2372 844 1941 
L 2703 1941 
z
M 1753 3428 
L 1753 3428 
z
" transform="scale(0.015625)"/>
       <path id="Helvetica-47" d="M 769 1634 
Q 769 1097 997 734 
Q 1225 372 1728 372 
Q 2119 372 2370 708 
Q 2622 1044 2622 1672 
Q 2622 2306 2362 2611 
Q 2103 2916 1722 2916 
Q 1297 2916 1033 2591 
Q 769 2266 769 1634 
z
M 1616 3406 
Q 2000 3406 2259 3244 
Q 2409 3150 2600 2916 
L 2600 4606 
L 3141 4606 
L 3141 0 
L 2634 0 
L 2634 466 
Q 2438 156 2169 18 
Q 1900 -119 1553 -119 
Q 994 -119 584 351 
Q 175 822 175 1603 
Q 175 2334 548 2870 
Q 922 3406 1616 3406 
z
" transform="scale(0.015625)"/>
       <path id="Helvetica-4a" d="M 1594 3406 
Q 1988 3406 2281 3213 
Q 2441 3103 2606 2894 
L 2606 3316 
L 3125 3316 
L 3125 272 
Q 3125 -366 2938 -734 
Q 2588 -1416 1616 -1416 
Q 1075 -1416 706 -1173 
Q 338 -931 294 -416 
L 866 -416 
Q 906 -641 1028 -763 
Q 1219 -950 1628 -950 
Q 2275 -950 2475 -494 
Q 2594 -225 2584 466 
Q 2416 209 2178 84 
Q 1941 -41 1550 -41 
Q 1006 -41 598 345 
Q 191 731 191 1622 
Q 191 2463 602 2934 
Q 1013 3406 1594 3406 
z
M 2606 1688 
Q 2606 2309 2350 2609 
Q 2094 2909 1697 2909 
Q 1103 2909 884 2353 
Q 769 2056 769 1575 
Q 769 1009 998 714 
Q 1228 419 1616 419 
Q 2222 419 2469 966 
Q 2606 1275 2606 1688 
z
M 1659 3428 
L 1659 3428 
z
" transform="scale(0.015625)"/>
       <path id="Helvetica-55" d="M 428 3347 
L 963 3347 
L 963 2769 
Q 1028 2938 1284 3180 
Q 1541 3422 1875 3422 
Q 1891 3422 1928 3419 
Q 1966 3416 2056 3406 
L 2056 2813 
Q 2006 2822 1964 2825 
Q 1922 2828 1872 2828 
Q 1447 2828 1219 2554 
Q 991 2281 991 1925 
L 991 0 
L 428 0 
L 428 3347 
z
" transform="scale(0.015625)"/>
       <path id="Helvetica-3" transform="scale(0.015625)"/>
       <path id="Helvetica-26" d="M 2422 4716 
Q 3294 4716 3775 4256 
Q 4256 3797 4309 3213 
L 3703 3213 
Q 3600 3656 3292 3915 
Q 2984 4175 2428 4175 
Q 1750 4175 1333 3698 
Q 916 3222 916 2238 
Q 916 1431 1292 929 
Q 1669 428 2416 428 
Q 3103 428 3463 956 
Q 3653 1234 3747 1688 
L 4353 1688 
Q 4272 963 3816 472 
Q 3269 -119 2341 -119 
Q 1541 -119 997 366 
Q 281 1006 281 2344 
Q 281 3359 819 4009 
Q 1400 4716 2422 4716 
z
M 2297 4716 
L 2297 4716 
z
" transform="scale(0.015625)"/>
       <path id="Helvetica-4b" d="M 413 4606 
L 975 4606 
L 975 2894 
Q 1175 3147 1334 3250 
Q 1606 3428 2013 3428 
Q 2741 3428 3000 2919 
Q 3141 2641 3141 2147 
L 3141 0 
L 2563 0 
L 2563 2109 
Q 2563 2478 2469 2650 
Q 2316 2925 1894 2925 
Q 1544 2925 1259 2684 
Q 975 2444 975 1775 
L 975 0 
L 413 0 
L 413 4606 
z
" transform="scale(0.015625)"/>
       <path id="Helvetica-44" d="M 844 891 
Q 844 647 1022 506 
Q 1200 366 1444 366 
Q 1741 366 2019 503 
Q 2488 731 2488 1250 
L 2488 1703 
Q 2384 1638 2221 1594 
Q 2059 1550 1903 1531 
L 1563 1488 
Q 1256 1447 1103 1359 
Q 844 1213 844 891 
z
M 2206 2028 
Q 2400 2053 2466 2191 
Q 2503 2266 2503 2406 
Q 2503 2694 2298 2823 
Q 2094 2953 1713 2953 
Q 1272 2953 1088 2716 
Q 984 2584 953 2325 
L 428 2325 
Q 444 2944 830 3186 
Q 1216 3428 1725 3428 
Q 2316 3428 2684 3203 
Q 3050 2978 3050 2503 
L 3050 575 
Q 3050 488 3086 434 
Q 3122 381 3238 381 
Q 3275 381 3322 386 
Q 3369 391 3422 400 
L 3422 -16 
Q 3291 -53 3222 -62 
Q 3153 -72 3034 -72 
Q 2744 -72 2613 134 
Q 2544 244 2516 444 
Q 2344 219 2022 53 
Q 1700 -113 1313 -113 
Q 847 -113 551 170 
Q 256 453 256 878 
Q 256 1344 547 1600 
Q 838 1856 1309 1916 
L 2206 2028 
z
M 1741 3428 
L 1741 3428 
z
" transform="scale(0.015625)"/>
       <path id="Helvetica-4c" d="M 413 3331 
L 984 3331 
L 984 0 
L 413 0 
L 413 3331 
z
M 413 4591 
L 984 4591 
L 984 3953 
L 413 3953 
L 413 4591 
z
" transform="scale(0.015625)"/>
       <path id="Helvetica-51" d="M 413 3347 
L 947 3347 
L 947 2872 
Q 1184 3166 1450 3294 
Q 1716 3422 2041 3422 
Q 2753 3422 3003 2925 
Q 3141 2653 3141 2147 
L 3141 0 
L 2569 0 
L 2569 2109 
Q 2569 2416 2478 2603 
Q 2328 2916 1934 2916 
Q 1734 2916 1606 2875 
Q 1375 2806 1200 2600 
Q 1059 2434 1017 2257 
Q 975 2081 975 1753 
L 975 0 
L 413 0 
L 413 3347 
z
M 1734 3428 
L 1734 3428 
z
" transform="scale(0.015625)"/>
       <path id="Helvetica-36" d="M 894 1481 
Q 916 1091 1078 847 
Q 1388 391 2169 391 
Q 2519 391 2806 491 
Q 3363 684 3363 1184 
Q 3363 1559 3128 1719 
Q 2891 1875 2384 1991 
L 1763 2131 
Q 1153 2269 900 2434 
Q 463 2722 463 3294 
Q 463 3913 891 4309 
Q 1319 4706 2103 4706 
Q 2825 4706 3329 4357 
Q 3834 4009 3834 3244 
L 3250 3244 
Q 3203 3613 3050 3809 
Q 2766 4169 2084 4169 
Q 1534 4169 1293 3937 
Q 1053 3706 1053 3400 
Q 1053 3063 1334 2906 
Q 1519 2806 2169 2656 
L 2813 2509 
Q 3278 2403 3531 2219 
Q 3969 1897 3969 1284 
Q 3969 522 3414 194 
Q 2859 -134 2125 -134 
Q 1269 -134 784 303 
Q 300 738 309 1481 
L 894 1481 
z
M 2150 4716 
L 2150 4716 
z
" transform="scale(0.015625)"/>
       <path id="Helvetica-5d" d="M 163 444 
L 2147 2844 
L 309 2844 
L 309 3347 
L 2903 3347 
L 2903 2888 
L 931 503 
L 2963 503 
L 2963 0 
L 163 0 
L 163 444 
z
M 1609 3428 
L 1609 3428 
z
" transform="scale(0.015625)"/>
       <path id="Helvetica-b" d="M 1894 4666 
Q 1403 3713 1256 3263 
Q 1034 2578 1034 1681 
Q 1034 775 1288 25 
Q 1444 -438 1903 -1306 
L 1525 -1306 
Q 1069 -594 959 -397 
Q 850 -200 722 138 
Q 547 600 478 1125 
Q 444 1397 444 1644 
Q 444 2569 734 3291 
Q 919 3750 1503 4666 
L 1894 4666 
z
" transform="scale(0.015625)"/>
       <path id="Helvetica-35" d="M 2622 2488 
Q 3059 2488 3314 2663 
Q 3569 2838 3569 3294 
Q 3569 3784 3213 3963 
Q 3022 4056 2703 4056 
L 1184 4056 
L 1184 2488 
L 2622 2488 
z
M 563 4591 
L 2688 4591 
Q 3213 4591 3553 4438 
Q 4200 4144 4200 3353 
Q 4200 2941 4029 2678 
Q 3859 2416 3553 2256 
Q 3822 2147 3958 1969 
Q 4094 1791 4109 1391 
L 4131 775 
Q 4141 513 4175 384 
Q 4231 166 4375 103 
L 4375 0 
L 3613 0 
Q 3581 59 3562 153 
Q 3544 247 3531 516 
L 3494 1281 
Q 3472 1731 3159 1884 
Q 2981 1969 2600 1969 
L 1184 1969 
L 1184 0 
L 563 0 
L 563 4591 
z
" transform="scale(0.015625)"/>
       <path id="Helvetica-46" d="M 1703 3444 
Q 2269 3444 2623 3169 
Q 2978 2894 3050 2222 
L 2503 2222 
Q 2453 2531 2275 2736 
Q 2097 2941 1703 2941 
Q 1166 2941 934 2416 
Q 784 2075 784 1575 
Q 784 1072 996 728 
Q 1209 384 1666 384 
Q 2016 384 2220 598 
Q 2425 813 2503 1184 
L 3050 1184 
Q 2956 519 2581 211 
Q 2206 -97 1622 -97 
Q 966 -97 575 383 
Q 184 863 184 1581 
Q 184 2463 612 2953 
Q 1041 3444 1703 3444 
z
M 1616 3428 
L 1616 3428 
z
" transform="scale(0.015625)"/>
       <path id="Helvetica-52" d="M 1741 363 
Q 2300 363 2508 786 
Q 2716 1209 2716 1728 
Q 2716 2197 2566 2491 
Q 2328 2953 1747 2953 
Q 1231 2953 997 2559 
Q 763 2166 763 1609 
Q 763 1075 997 719 
Q 1231 363 1741 363 
z
M 1763 3444 
Q 2409 3444 2856 3012 
Q 3303 2581 3303 1744 
Q 3303 934 2909 406 
Q 2516 -122 1688 -122 
Q 997 -122 590 345 
Q 184 813 184 1600 
Q 184 2444 612 2944 
Q 1041 3444 1763 3444 
z
M 1744 3428 
L 1744 3428 
z
" transform="scale(0.015625)"/>
       <path id="Helvetica-56" d="M 747 1050 
Q 772 769 888 619 
Q 1100 347 1625 347 
Q 1938 347 2175 483 
Q 2413 619 2413 903 
Q 2413 1119 2222 1231 
Q 2100 1300 1741 1391 
L 1294 1503 
Q 866 1609 663 1741 
Q 300 1969 300 2372 
Q 300 2847 642 3140 
Q 984 3434 1563 3434 
Q 2319 3434 2653 2991 
Q 2863 2709 2856 2384 
L 2325 2384 
Q 2309 2575 2191 2731 
Q 1997 2953 1519 2953 
Q 1200 2953 1036 2831 
Q 872 2709 872 2509 
Q 872 2291 1088 2159 
Q 1213 2081 1456 2022 
L 1828 1931 
Q 2434 1784 2641 1647 
Q 2969 1431 2969 969 
Q 2969 522 2630 197 
Q 2291 -128 1597 -128 
Q 850 -128 539 211 
Q 228 550 206 1050 
L 747 1050 
z
M 1578 3428 
L 1578 3428 
z
" transform="scale(0.015625)"/>
       <path id="Helvetica-c" d="M 222 -1306 
Q 719 -338 863 106 
Q 1081 778 1081 1681 
Q 1081 2584 828 3334 
Q 672 3797 213 4666 
L 591 4666 
Q 1072 3897 1173 3717 
Q 1275 3538 1394 3222 
Q 1544 2831 1608 2450 
Q 1672 2069 1672 1716 
Q 1672 791 1378 66 
Q 1194 -400 613 -1306 
L 222 -1306 
z
" transform="scale(0.015625)"/>
      </defs>
      <use xlink:href="#Helvetica-2f"/>
      <use xlink:href="#Helvetica-48" transform="translate(55.609375 0)"/>
      <use xlink:href="#Helvetica-47" transform="translate(111.21875 0)"/>
      <use xlink:href="#Helvetica-4a" transform="translate(166.828125 0)"/>
      <use xlink:href="#Helvetica-48" transform="translate(222.4375 0)"/>
      <use xlink:href="#Helvetica-55" transform="translate(278.046875 0)"/>
      <use xlink:href="#Helvetica-3" transform="translate(311.34375 0)"/>
      <use xlink:href="#Helvetica-26" transform="translate(339.125 0)"/>
      <use xlink:href="#Helvetica-4b" transform="translate(411.34375 0)"/>
      <use xlink:href="#Helvetica-44" transform="translate(466.953125 0)"/>
      <use xlink:href="#Helvetica-4c" transform="translate(522.5625 0)"/>
      <use xlink:href="#Helvetica-51" transform="translate(544.78125 0)"/>
      <use xlink:href="#Helvetica-3" transform="translate(600.390625 0)"/>
      <use xlink:href="#Helvetica-36" transform="translate(628.171875 0)"/>
      <use xlink:href="#Helvetica-4c" transform="translate(694.875 0)"/>
      <use xlink:href="#Helvetica-5d" transform="translate(717.09375 0)"/>
      <use xlink:href="#Helvetica-48" transform="translate(767.09375 0)"/>
      <use xlink:href="#Helvetica-3" transform="translate(822.703125 0)"/>
      <use xlink:href="#Helvetica-b" transform="translate(850.484375 0)"/>
      <use xlink:href="#Helvetica-35" transform="translate(883.78125 0)"/>
      <use xlink:href="#Helvetica-48" transform="translate(956 0)"/>
      <use xlink:href="#Helvetica-46" transform="translate(1011.609375 0)"/>
      <use xlink:href="#Helvetica-52" transform="translate(1061.609375 0)"/>
      <use xlink:href="#Helvetica-55" transform="translate(1117.21875 0)"/>
      <use xlink:href="#Helvetica-47" transform="translate(1150.515625 0)"/>
      <use xlink:href="#Helvetica-56" transform="translate(1206.125 0)"/>
      <use xlink:href="#Helvetica-c" transform="translate(1256.125 0)"/>
     </g>
    </g>
   </g>
   <g id="matplotlib.axis_2">
    <g id="ytick_1">
     <g id="line2d_27">
      <path d="M 52.02 270.187386 
L 421.178182 270.187386 
" clip-path="url(#pf1c0c14e8e)" style="fill: none; stroke-dasharray: 1.85,0.8; stroke-dashoffset: 0; stroke: #e5e7eb; stroke-opacity: 0.7; stroke-width: 0.5"/>
     </g>
     <g id="line2d_28">
      <defs>
       <path id="m408cbeba6e" d="M 0 0 
L -3.5 0 
" style="stroke: #4b5563; stroke-width: 0.8"/>
      </defs>
      <g>
       <use xlink:href="#m408cbeba6e" x="52.02" y="270.187386" style="fill: #4b5563; stroke: #4b5563; stroke-width: 0.8"/>
      </g>
     </g>
     <g id="text_7">
      <!-- 0 -->
      <g style="fill: #4b5563" transform="translate(39.459063 273.937386) scale(0.1 -0.1)">
       <use xlink:href="#Helvetica-13"/>
      </g>
     </g>
    </g>
    <g id="ytick_2">
     <g id="line2d_29">
      <path d="M 52.02 227.940135 
L 421.178182 227.940135 
" clip-path="url(#pf1c0c14e8e)" style="fill: none; stroke-dasharray: 1.85,0.8; stroke-dashoffset: 0; stroke: #e5e7eb; stroke-opacity: 0.7; stroke-width: 0.5"/>
     </g>
     <g id="line2d_30">
      <g>
       <use xlink:href="#m408cbeba6e" x="52.02" y="227.940135" style="fill: #4b5563; stroke: #4b5563; stroke-width: 0.8"/>
      </g>
     </g>
     <g id="text_8">
      <!-- 20 -->
      <g style="fill: #4b5563" transform="translate(33.898125 231.690135) scale(0.1 -0.1)">
       <use xlink:href="#Helvetica-15"/>
       <use xlink:href="#Helvetica-13" transform="translate(55.609375 0)"/>
      </g>
     </g>
    </g>
    <g id="ytick_3">
     <g id="line2d_31">
      <path d="M 52.02 185.692883 
L 421.178182 185.692883 
" clip-path="url(#pf1c0c14e8e)" style="fill: none; stroke-dasharray: 1.85,0.8; stroke-dashoffset: 0; stroke: #e5e7eb; stroke-opacity: 0.7; stroke-width: 0.5"/>
     </g>
     <g id="line2d_32">
      <g>
       <use xlink:href="#m408cbeba6e" x="52.02" y="185.692883" style="fill: #4b5563; stroke: #4b5563; stroke-width: 0.8"/>
      </g>
     </g>
     <g id="text_9">
      <!-- 40 -->
      <g style="fill: #4b5563" transform="translate(33.898125 189.442883) scale(0.1 -0.1)">
       <defs>
        <path id="Helvetica-17" d="M 2116 1584 
L 2116 3613 
L 681 1584 
L 2116 1584 
z
M 2125 0 
L 2125 1094 
L 163 1094 
L 163 1644 
L 2213 4488 
L 2688 4488 
L 2688 1584 
L 3347 1584 
L 3347 1094 
L 2688 1094 
L 2688 0 
L 2125 0 
z
" transform="scale(0.015625)"/>
       </defs>
       <use xlink:href="#Helvetica-17"/>
       <use xlink:href="#Helvetica-13" transform="translate(55.609375 0)"/>
      </g>
     </g>
    </g>
    <g id="ytick_4">
     <g id="line2d_33">
      <path d="M 52.02 143.445632 
L 421.178182 143.445632 
" clip-path="url(#pf1c0c14e8e)" style="fill: none; stroke-dasharray: 1.85,0.8; stroke-dashoffset: 0; stroke: #e5e7eb; stroke-opacity: 0.7; stroke-width: 0.5"/>
     </g>
     <g id="line2d_34">
      <g>
       <use xlink:href="#m408cbeba6e" x="52.02" y="143.445632" style="fill: #4b5563; stroke: #4b5563; stroke-width: 0.8"/>
      </g>
     </g>
     <g id="text_10">
      <!-- 60 -->
      <g style="fill: #4b5563" transform="translate(33.898125 147.195632) scale(0.1 -0.1)">
       <defs>
        <path id="Helvetica-19" d="M 1872 4494 
Q 2622 4494 2917 4105 
Q 3213 3716 3213 3303 
L 2656 3303 
Q 2606 3569 2497 3719 
Q 2294 4000 1881 4000 
Q 1409 4000 1131 3564 
Q 853 3128 822 2316 
Q 1016 2600 1309 2741 
Q 1578 2866 1909 2866 
Q 2472 2866 2890 2506 
Q 3309 2147 3309 1434 
Q 3309 825 2912 354 
Q 2516 -116 1781 -116 
Q 1153 -116 697 361 
Q 241 838 241 1966 
Q 241 2800 444 3381 
Q 834 4494 1872 4494 
z
M 1831 384 
Q 2275 384 2495 682 
Q 2716 981 2716 1388 
Q 2716 1731 2519 2042 
Q 2322 2353 1803 2353 
Q 1441 2353 1167 2112 
Q 894 1872 894 1388 
Q 894 963 1142 673 
Q 1391 384 1831 384 
z
" transform="scale(0.015625)"/>
       </defs>
       <use xlink:href="#Helvetica-19"/>
       <use xlink:href="#Helvetica-13" transform="translate(55.609375 0)"/>
      </g>
     </g>
    </g>
    <g id="ytick_5">
     <g id="line2d_35">
      <path d="M 52.02 101.19838 
L 421.178182 101.19838 
" clip-path="url(#pf1c0c14e8e)" style="fill: none; stroke-dasharray: 1.85,0.8; stroke-dashoffset: 0; stroke: #e5e7eb; stroke-opacity: 0.7; stroke-width: 0.5"/>
     </g>
     <g id="line2d_36">
      <g>
       <use xlink:href="#m408cbeba6e" x="52.02" y="101.19838" style="fill: #4b5563; stroke: #4b5563; stroke-width: 0.8"/>
      </g>
     </g>
     <g id="text_11">
      <!-- 80 -->
      <g style="fill: #4b5563" transform="translate(33.898125 104.94838) scale(0.1 -0.1)">
       <defs>
        <path id="Helvetica-1b" d="M 1741 2600 
Q 2113 2600 2322 2808 
Q 2531 3016 2531 3303 
Q 2531 3553 2331 3762 
Q 2131 3972 1722 3972 
Q 1316 3972 1134 3762 
Q 953 3553 953 3272 
Q 953 2956 1187 2778 
Q 1422 2600 1741 2600 
z
M 1775 384 
Q 2166 384 2423 595 
Q 2681 806 2681 1225 
Q 2681 1659 2415 1884 
Q 2150 2109 1734 2109 
Q 1331 2109 1076 1879 
Q 822 1650 822 1244 
Q 822 894 1055 639 
Q 1288 384 1775 384 
z
M 975 2384 
Q 741 2484 609 2619 
Q 363 2869 363 3269 
Q 363 3769 725 4128 
Q 1088 4488 1753 4488 
Q 2397 4488 2762 4148 
Q 3128 3809 3128 3356 
Q 3128 2938 2916 2678 
Q 2797 2531 2547 2391 
Q 2825 2263 2984 2097 
Q 3281 1784 3281 1284 
Q 3281 694 2884 283 
Q 2488 -128 1763 -128 
Q 1109 -128 657 226 
Q 206 581 206 1256 
Q 206 1653 400 1942 
Q 594 2231 975 2384 
z
" transform="scale(0.015625)"/>
       </defs>
       <use xlink:href="#Helvetica-1b"/>
       <use xlink:href="#Helvetica-13" transform="translate(55.609375 0)"/>
      </g>
     </g>
    </g>
    <g id="ytick_6">
     <g id="line2d_37">
      <path d="M 52.02 58.951129 
L 421.178182 58.951129 
" clip-path="url(#pf1c0c14e8e)" style="fill: none; stroke-dasharray: 1.85,0.8; stroke-dashoffset: 0; stroke: #e5e7eb; stroke-opacity: 0.7; stroke-width: 0.5"/>
     </g>
     <g id="line2d_38">
      <g>
       <use xlink:href="#m408cbeba6e" x="52.02" y="58.951129" style="fill: #4b5563; stroke: #4b5563; stroke-width: 0.8"/>
      </g>
     </g>
     <g id="text_12">
      <!-- 100 -->
      <g style="fill: #4b5563" transform="translate(28.337188 62.701129) scale(0.1 -0.1)">
       <use xlink:href="#Helvetica-14"/>
       <use xlink:href="#Helvetica-13" transform="translate(55.609375 0)"/>
       <use xlink:href="#Helvetica-13" transform="translate(111.21875 0)"/>
      </g>
     </g>
    </g>
    <g id="text_13">
     <!-- Verification Time (ms) -->
     <g transform="translate(18.296563 203.582266) rotate(-90) scale(0.1 -0.1)">
      <defs>
       <path id="Helvetica-39" d="M 850 4591 
L 2169 681 
L 3472 4591 
L 4169 4591 
L 2494 0 
L 1834 0 
L 163 4591 
L 850 4591 
z
" transform="scale(0.015625)"/>
       <path id="Helvetica-7d4" d="M 553 3856 
Q 566 4206 675 4369 
Q 872 4656 1434 4656 
Q 1488 4656 1544 4653 
Q 1600 4650 1672 4644 
L 1672 4131 
Q 1584 4138 1545 4139 
Q 1506 4141 1472 4141 
Q 1216 4141 1166 4008 
Q 1116 3875 1116 3331 
L 1672 3331 
L 1672 2888 
L 1109 2888 
L 1109 0 
L 553 0 
L 553 2888 
L 88 2888 
L 88 3331 
L 553 3331 
L 553 3856 
z
M 2213 3953 
L 2213 4591 
L 2775 4591 
L 2775 3953 
L 2213 3953 
z
M 2213 3331 
L 2775 3331 
L 2775 0 
L 2213 0 
L 2213 3331 
z
" transform="scale(0.015625)"/>
       <path id="Helvetica-57" d="M 525 4281 
L 1094 4281 
L 1094 3347 
L 1628 3347 
L 1628 2888 
L 1094 2888 
L 1094 703 
Q 1094 528 1213 469 
Q 1278 434 1431 434 
Q 1472 434 1519 436 
Q 1566 438 1628 444 
L 1628 0 
Q 1531 -28 1426 -40 
Q 1322 -53 1200 -53 
Q 806 -53 665 148 
Q 525 350 525 672 
L 525 2888 
L 72 2888 
L 72 3347 
L 525 3347 
L 525 4281 
z
" transform="scale(0.015625)"/>
       <path id="Helvetica-37" d="M 3828 4591 
L 3828 4044 
L 2281 4044 
L 2281 0 
L 1650 0 
L 1650 4044 
L 103 4044 
L 103 4591 
L 3828 4591 
z
" transform="scale(0.015625)"/>
       <path id="Helvetica-50" d="M 413 3347 
L 969 3347 
L 969 2872 
Q 1169 3119 1331 3231 
Q 1609 3422 1963 3422 
Q 2363 3422 2606 3225 
Q 2744 3113 2856 2894 
Q 3044 3163 3297 3292 
Q 3550 3422 3866 3422 
Q 4541 3422 4784 2934 
Q 4916 2672 4916 2228 
L 4916 0 
L 4331 0 
L 4331 2325 
Q 4331 2659 4164 2784 
Q 3997 2909 3756 2909 
Q 3425 2909 3186 2687 
Q 2947 2466 2947 1947 
L 2947 0 
L 2375 0 
L 2375 2184 
Q 2375 2525 2294 2681 
Q 2166 2916 1816 2916 
Q 1497 2916 1236 2669 
Q 975 2422 975 1775 
L 975 0 
L 413 0 
L 413 3347 
z
" transform="scale(0.015625)"/>
      </defs>
      <use xlink:href="#Helvetica-39"/>
      <use xlink:href="#Helvetica-48" transform="translate(61.234375 0)"/>
      <use xlink:href="#Helvetica-55" transform="translate(116.84375 0)"/>
      <use xlink:href="#Helvetica-4c" transform="translate(150.140625 0)"/>
      <use xlink:href="#Helvetica-7d4" transform="translate(172.359375 0)"/>
      <use xlink:href="#Helvetica-46" transform="translate(222.359375 0)"/>
      <use xlink:href="#Helvetica-44" transform="translate(272.359375 0)"/>
      <use xlink:href="#Helvetica-57" transform="translate(327.96875 0)"/>
      <use xlink:href="#Helvetica-4c" transform="translate(355.75 0)"/>
      <use xlink:href="#Helvetica-52" transform="translate(377.96875 0)"/>
      <use xlink:href="#Helvetica-51" transform="translate(433.578125 0)"/>
      <use xlink:href="#Helvetica-3" transform="translate(489.1875 0)"/>
      <use xlink:href="#Helvetica-37" transform="translate(515.21875 0)"/>
      <use xlink:href="#Helvetica-4c" transform="translate(572.640625 0)"/>
      <use xlink:href="#Helvetica-50" transform="translate(594.859375 0)"/>
      <use xlink:href="#Helvetica-48" transform="translate(678.15625 0)"/>
      <use xlink:href="#Helvetica-3" transform="translate(733.765625 0)"/>
      <use xlink:href="#Helvetica-b" transform="translate(761.546875 0)"/>
      <use xlink:href="#Helvetica-50" transform="translate(794.84375 0)"/>
      <use xlink:href="#Helvetica-56" transform="translate(878.140625 0)"/>
      <use xlink:href="#Helvetica-c" transform="translate(928.140625 0)"/>
     </g>
    </g>
   </g>
   <g id="line2d_39">
    <path d="M 68.799917 268.083473 
L 236.599091 248.301198 
L 287.111675 223.573881 
L 353.88568 159.379183 
L 404.398264 42.937308 
" clip-path="url(#pf1c0c14e8e)" style="fill: none; stroke: #ef4444; stroke-width: 2; stroke-linecap: square"/>
    <defs>
     <path id="m53e61796c3" d="M -3 3 
L 3 3 
L 3 -3 
L -3 -3 
z
" style="stroke: #ef4444; stroke-linejoin: miter"/>
    </defs>
    <g clip-path="url(#pf1c0c14e8e)">
     <use xlink:href="#m53e61796c3" x="68.799917" y="268.083473" style="fill: #ef4444; stroke: #ef4444; stroke-linejoin: miter"/>
     <use xlink:href="#m53e61796c3" x="236.599091" y="248.301198" style="fill: #ef4444; stroke: #ef4444; stroke-linejoin: miter"/>
     <use xlink:href="#m53e61796c3" x="287.111675" y="223.573881" style="fill: #ef4444; stroke: #ef4444; stroke-linejoin: miter"/>
     <use xlink:href="#m53e61796c3" x="353.88568" y="159.379183" style="fill: #ef4444; stroke: #ef4444; stroke-linejoin: miter"/>
     <use xlink:href="#m53e61796c3" x="404.398264" y="42.937308" style="fill: #ef4444; stroke: #ef4444; stroke-linejoin: miter"/>
    </g>
   </g>
   <g id="patch_3">
    <path d="M 52.02 279.340781 
L 52.02 31.68 
" style="fill: none; stroke: #9ca3af; stroke-width: 0.8; stroke-linejoin: miter; stroke-linecap: square"/>
   </g>
   <g id="patch_4">
    <path d="M 52.02 279.340781 
L 421.178182 279.340781 
" style="fill: none; stroke: #9ca3af; stroke-width: 0.8; stroke-linejoin: miter; stroke-linecap: square"/>
   </g>
   <g id="text_14">
    <!-- Verification Duration vs. Chain Size -->
    <g style="fill: #1f2937" transform="translate(132.599403 19.68) scale(0.12 -0.12)">
     <defs>
      <path id="HelveticaRounded-Bold-37" d="M 4026 3917 
C 4070 4038 4090 4141 4090 4224 
C 4090 4576 3821 4691 3558 4691 
C 3315 4691 3162 4544 3066 4230 
L 2080 1094 
L 2067 1094 
L 1120 4230 
C 1024 4544 870 4691 589 4691 
C 326 4691 58 4576 58 4224 
C 58 4141 77 4038 122 3917 
L 1414 282 
C 1523 -19 1728 -83 2054 -83 
C 2381 -83 2586 -19 2694 282 
L 4026 3917 
z
" transform="scale(0.015625)"/>
      <path id="HelveticaRounded-Bold-46" d="M 3277 1498 
C 3590 1498 3686 1581 3686 1901 
C 3686 2669 3072 3430 1997 3430 
C 890 3430 230 2701 230 1613 
C 230 800 723 -83 2029 -83 
C 2592 -83 3494 179 3494 742 
C 3494 915 3334 1107 3110 1107 
C 2733 1107 2733 646 2029 646 
C 1485 646 1165 1005 1165 1498 
L 3277 1498 
z
M 1165 2035 
C 1267 2490 1549 2778 2016 2778 
C 2432 2778 2752 2464 2803 2035 
L 1165 2035 
z
" transform="scale(0.015625)"/>
      <path id="HelveticaRounded-Bold-53" d="M 422 384 
C 422 134 525 -83 890 -83 
C 1254 -83 1357 134 1357 384 
L 1357 1472 
C 1357 2246 1562 2509 1939 2509 
L 2106 2509 
C 2336 2509 2566 2630 2566 2976 
C 2566 3238 2349 3430 2054 3430 
C 1600 3430 1389 3027 1280 2637 
L 1267 2637 
L 1267 2995 
C 1267 3277 1082 3430 845 3430 
C 608 3430 422 3277 422 2995 
L 422 384 
z
" transform="scale(0.015625)"/>
      <path id="HelveticaRounded-Bold-4a" d="M 422 384 
C 422 134 525 -83 890 -83 
C 1254 -83 1357 134 1357 384 
L 1357 2963 
C 1357 3213 1254 3430 890 3430 
C 525 3430 422 3213 422 2963 
L 422 384 
z
M 403 4230 
C 403 3962 621 3744 890 3744 
C 1158 3744 1376 3962 1376 4230 
C 1376 4499 1158 4717 890 4717 
C 621 4717 403 4499 403 4230 
z
" transform="scale(0.015625)"/>
      <path id="HelveticaRounded-Bold-47" d="M 666 384 
C 666 77 851 -83 1133 -83 
C 1414 -83 1600 77 1600 384 
L 1600 2733 
L 1888 2733 
C 2163 2733 2310 2816 2310 3040 
C 2310 3264 2163 3347 1888 3347 
L 1600 3347 
L 1600 3750 
C 1600 3878 1670 3968 1805 3968 
C 1875 3968 1939 3949 2010 3949 
C 2176 3949 2310 4096 2310 4269 
C 2310 4582 2035 4717 1696 4717 
C 1152 4717 666 4403 666 3814 
L 666 3347 
L 454 3347 
C 192 3347 83 3245 83 3040 
C 83 2835 192 2733 454 2733 
L 666 2733 
L 666 384 
z
" transform="scale(0.015625)"/>
      <path id="HelveticaRounded-Bold-44" d="M 192 1606 
C 192 627 736 -83 1888 -83 
C 2848 -83 3309 480 3309 890 
C 3309 1075 3155 1248 2918 1248 
C 2426 1248 2566 646 1914 646 
C 1402 646 1126 1024 1126 1606 
C 1126 2451 1555 2701 1920 2701 
C 2592 2701 2432 2150 2874 2150 
C 3110 2150 3309 2285 3309 2554 
C 3309 2989 2726 3430 1946 3430 
C 800 3430 192 2682 192 1606 
z
" transform="scale(0.015625)"/>
      <path id="HelveticaRounded-Bold-42" d="M 3475 2470 
C 3475 3142 2854 3430 1958 3430 
C 998 3430 474 2957 474 2586 
C 474 2394 634 2227 870 2227 
C 1242 2227 1261 2739 1952 2739 
C 2266 2739 2541 2624 2541 2355 
C 2541 2086 2362 2035 2138 2010 
L 1568 1946 
C 851 1862 262 1645 262 870 
C 262 282 787 -83 1318 -83 
C 1811 -83 2234 58 2598 461 
C 2611 173 2746 -83 3149 -83 
C 3373 -83 3571 64 3571 275 
C 3571 422 3475 512 3475 902 
L 3475 2470 
z
M 2541 1210 
C 2541 864 2227 531 1715 531 
C 1395 531 1197 704 1197 915 
C 1197 1197 1408 1318 1798 1376 
L 2138 1427 
C 2246 1446 2438 1478 2541 1574 
L 2541 1210 
z
" transform="scale(0.015625)"/>
      <path id="HelveticaRounded-Bold-55" d="M 614 749 
C 614 198 896 -83 1574 -83 
C 2022 -83 2253 64 2253 333 
C 2253 531 2131 646 1926 646 
L 1792 646 
C 1626 646 1549 723 1549 864 
L 1549 2733 
L 1830 2733 
C 2106 2733 2253 2816 2253 3040 
C 2253 3264 2106 3347 1830 3347 
L 1549 3347 
L 1549 3917 
C 1549 4224 1363 4384 1082 4384 
C 800 4384 614 4224 614 3917 
L 614 3347 
L 454 3347 
C 192 3347 83 3245 83 3040 
C 83 2835 192 2733 454 2733 
L 614 2733 
L 614 749 
z
" transform="scale(0.015625)"/>
      <path id="HelveticaRounded-Bold-50" d="M 1165 1677 
C 1165 2285 1414 2739 1958 2739 
C 2502 2739 2752 2285 2752 1677 
C 2752 1107 2515 608 1958 608 
C 1402 608 1165 1107 1165 1677 
z
M 230 1677 
C 230 742 685 -83 1958 -83 
C 3232 -83 3686 742 3686 1677 
C 3686 2662 3085 3430 1958 3430 
C 832 3430 230 2662 230 1677 
z
" transform="scale(0.015625)"/>
      <path id="HelveticaRounded-Bold-4f" d="M 371 384 
C 371 134 474 -83 838 -83 
C 1203 -83 1306 134 1306 384 
L 1306 1926 
C 1306 2394 1690 2662 2016 2662 
C 2419 2662 2605 2394 2605 2016 
L 2605 384 
C 2605 134 2707 -83 3072 -83 
C 3437 -83 3539 134 3539 384 
L 3539 2202 
C 3539 3149 2925 3430 2362 3430 
C 1830 3430 1491 3187 1229 2842 
L 1216 2842 
L 1216 2963 
C 1216 3245 1088 3430 794 3430 
C 499 3430 371 3245 371 2963 
L 371 384 
z
" transform="scale(0.015625)"/>
      <path id="HelveticaRounded-Bold-1" transform="scale(0.015625)"/>
      <path id="HelveticaRounded-Bold-25" d="M 486 614 
C 486 147 730 0 1101 0 
L 2362 0 
C 3763 0 4576 845 4576 2304 
C 4576 4109 3526 4608 2381 4608 
L 1101 4608 
C 730 4608 486 4461 486 3994 
L 486 614 
z
M 1536 3763 
L 2413 3763 
C 3181 3763 3526 3213 3526 2304 
C 3526 1594 3258 845 2419 845 
L 1536 845 
L 1536 3763 
z
" transform="scale(0.015625)"/>
      <path id="HelveticaRounded-Bold-56" d="M 3539 2963 
C 3539 3213 3437 3430 3072 3430 
C 2707 3430 2605 3213 2605 2963 
L 2605 1421 
C 2605 954 2221 685 1894 685 
C 1491 685 1306 954 1306 1331 
L 1306 2963 
C 1306 3213 1203 3430 838 3430 
C 474 3430 371 3213 371 2963 
L 371 1146 
C 371 198 986 -83 1549 -83 
C 2080 -83 2419 160 2682 506 
L 2694 506 
L 2694 384 
C 2694 102 2822 -83 3117 -83 
C 3411 -83 3539 102 3539 384 
L 3539 2963 
z
" transform="scale(0.015625)"/>
      <path id="HelveticaRounded-Bold-57" d="M 986 250 
C 1075 0 1133 -83 1600 -83 
C 2067 -83 2125 0 2214 250 
L 3098 2707 
C 3123 2784 3155 2886 3155 2944 
C 3155 3277 2925 3430 2701 3430 
C 2349 3430 2259 3136 2234 3040 
L 1606 928 
L 1594 928 
L 966 3040 
C 941 3136 851 3430 499 3430 
C 275 3430 45 3277 45 2944 
C 45 2886 77 2784 102 2707 
L 986 250 
z
" transform="scale(0.015625)"/>
      <path id="HelveticaRounded-Bold-54" d="M 224 2387 
C 224 1760 646 1536 1190 1402 
L 1741 1267 
C 2074 1184 2278 1146 2278 909 
C 2278 717 2067 570 1734 570 
C 1043 570 1005 1146 602 1146 
C 339 1146 224 960 224 755 
C 224 294 928 -83 1773 -83 
C 2477 -83 3213 269 3213 1030 
C 3213 1683 2579 1907 2048 2029 
L 1658 2118 
C 1370 2182 1158 2234 1158 2451 
C 1158 2650 1370 2739 1696 2739 
C 2285 2739 2298 2310 2662 2310 
C 2906 2310 3053 2502 3053 2720 
C 3053 3149 2336 3430 1626 3430 
C 979 3430 224 3149 224 2387 
z
" transform="scale(0.015625)"/>
      <path id="HelveticaRounded-Bold-f" d="M 454 480 
C 454 192 691 -45 979 -45 
C 1267 -45 1504 192 1504 480 
C 1504 768 1267 1005 979 1005 
C 691 1005 454 768 454 480 
z
" transform="scale(0.015625)"/>
      <path id="HelveticaRounded-Bold-24" d="M 339 2304 
C 339 717 1190 -109 2630 -109 
C 3648 -109 4454 550 4454 1216 
C 4454 1472 4198 1619 3942 1619 
C 3437 1619 3456 736 2630 736 
C 1722 736 1389 1466 1389 2304 
C 1389 3302 1933 3872 2592 3872 
C 3552 3872 3373 3040 3981 3040 
C 4294 3040 4454 3219 4454 3514 
C 4454 3962 3795 4717 2592 4717 
C 1107 4717 339 3603 339 2304 
z
" transform="scale(0.015625)"/>
      <path id="HelveticaRounded-Bold-49" d="M 371 384 
C 371 134 474 -83 838 -83 
C 1203 -83 1306 134 1306 384 
L 1306 1926 
C 1306 2394 1690 2662 2016 2662 
C 2419 2662 2605 2394 2605 2016 
L 2605 384 
C 2605 134 2707 -83 3072 -83 
C 3437 -83 3539 134 3539 384 
L 3539 2202 
C 3539 3149 2925 3430 2362 3430 
C 1830 3430 1504 3181 1318 2938 
L 1306 2938 
L 1306 4224 
C 1306 4531 1120 4691 838 4691 
C 557 4691 371 4531 371 4224 
L 371 384 
z
" transform="scale(0.015625)"/>
      <path id="HelveticaRounded-Bold-34" d="M 2022 2867 
C 1690 2944 1306 3046 1306 3366 
C 1306 3686 1574 3910 2061 3910 
C 3040 3910 2950 3226 3437 3226 
C 3693 3226 3917 3379 3917 3642 
C 3917 4256 2950 4717 2131 4717 
C 1242 4717 294 4333 294 3309 
C 294 2816 467 2291 1421 2048 
L 2605 1747 
C 2963 1658 3053 1453 3053 1267 
C 3053 960 2752 659 2208 659 
C 1146 659 1293 1491 723 1491 
C 467 1491 282 1312 282 1056 
C 282 557 877 -109 2208 -109 
C 3475 -109 4102 512 4102 1344 
C 4102 1882 3859 2451 2899 2669 
L 2022 2867 
z
" transform="scale(0.015625)"/>
      <path id="HelveticaRounded-Bold-5b" d="M 314 704 
C 230 614 192 499 192 365 
C 192 179 333 0 608 0 
L 2989 0 
C 3162 0 3366 96 3366 365 
C 3366 634 3162 730 2989 730 
L 1453 730 
L 3181 2624 
C 3270 2720 3328 2835 3328 2938 
C 3328 3181 3194 3347 2944 3347 
L 723 3347 
C 550 3347 346 3251 346 2982 
C 346 2714 550 2618 723 2618 
L 2074 2618 
L 314 704 
z
" transform="scale(0.015625)"/>
     </defs>
     <use xlink:href="#HelveticaRounded-Bold-37"/>
     <use xlink:href="#HelveticaRounded-Bold-46" transform="translate(59.796875 0)"/>
     <use xlink:href="#HelveticaRounded-Bold-53" transform="translate(121 0)"/>
     <use xlink:href="#HelveticaRounded-Bold-4a" transform="translate(161.703125 0)"/>
     <use xlink:href="#HelveticaRounded-Bold-47" transform="translate(189.5 0)"/>
     <use xlink:href="#HelveticaRounded-Bold-4a" transform="translate(226.5 0)"/>
     <use xlink:href="#HelveticaRounded-Bold-44" transform="translate(254.296875 0)"/>
     <use xlink:href="#HelveticaRounded-Bold-42" transform="translate(308 0)"/>
     <use xlink:href="#HelveticaRounded-Bold-55" transform="translate(369.09375 0)"/>
     <use xlink:href="#HelveticaRounded-Bold-4a" transform="translate(406.09375 0)"/>
     <use xlink:href="#HelveticaRounded-Bold-50" transform="translate(433.890625 0)"/>
     <use xlink:href="#HelveticaRounded-Bold-4f" transform="translate(495.09375 0)"/>
     <use xlink:href="#HelveticaRounded-Bold-1" transform="translate(556.1875 0)"/>
     <use xlink:href="#HelveticaRounded-Bold-25" transform="translate(586.78125 0)"/>
     <use xlink:href="#HelveticaRounded-Bold-56" transform="translate(662.6875 0)"/>
     <use xlink:href="#HelveticaRounded-Bold-53" transform="translate(723.78125 0)"/>
     <use xlink:href="#HelveticaRounded-Bold-42" transform="translate(762.6875 0)"/>
     <use xlink:href="#HelveticaRounded-Bold-55" transform="translate(823.78125 0)"/>
     <use xlink:href="#HelveticaRounded-Bold-4a" transform="translate(860.78125 0)"/>
     <use xlink:href="#HelveticaRounded-Bold-50" transform="translate(888.578125 0)"/>
     <use xlink:href="#HelveticaRounded-Bold-4f" transform="translate(949.78125 0)"/>
     <use xlink:href="#HelveticaRounded-Bold-1" transform="translate(1010.875 0)"/>
     <use xlink:href="#HelveticaRounded-Bold-57" transform="translate(1041.46875 0)"/>
     <use xlink:href="#HelveticaRounded-Bold-54" transform="translate(1091.46875 0)"/>
     <use xlink:href="#HelveticaRounded-Bold-f" transform="translate(1145.171875 0)"/>
     <use xlink:href="#HelveticaRounded-Bold-1" transform="translate(1175.765625 0)"/>
     <use xlink:href="#HelveticaRounded-Bold-24" transform="translate(1206.359375 0)"/>
     <use xlink:href="#HelveticaRounded-Bold-49" transform="translate(1278.5625 0)"/>
     <use xlink:href="#HelveticaRounded-Bold-42" transform="translate(1339.65625 0)"/>
     <use xlink:href="#HelveticaRounded-Bold-4a" transform="translate(1400.75 0)"/>
     <use xlink:href="#HelveticaRounded-Bold-4f" transform="translate(1428.546875 0)"/>
     <use xlink:href="#HelveticaRounded-Bold-1" transform="translate(1489.640625 0)"/>
     <use xlink:href="#HelveticaRounded-Bold-34" transform="translate(1520.234375 0)"/>
     <use xlink:href="#HelveticaRounded-Bold-4a" transform="translate(1588.734375 0)"/>
     <use xlink:href="#HelveticaRounded-Bold-5b" transform="translate(1616.53125 0)"/>
     <use xlink:href="#HelveticaRounded-Bold-46" transform="translate(1672.125 0)"/>
    </g>
   </g>
  </g>
 </g>
 <defs>
  <clipPath id="pf1c0c14e8e">
   <rect x="52.02" y="31.68" width="369.158182" height="247.660781"/>
  </clipPath>
 </defs>
</svg>
