<?xml version="1.0" encoding="utf-8" standalone="no"?>
<!DOCTYPE svg PUBLIC "-//W3C//DTD SVG 1.1//EN"
  "http://www.w3.org/Graphics/SVG/1.1/DTD/svg11.dtd">
<svg xmlns:xlink="http://www.w3.org/1999/xlink" width="360pt" height="288pt" viewBox="0 0 360 288" xmlns="http://www.w3.org/2000/svg" version="1.1">
 <metadata>
  <rdf:RDF xmlns:dc="http://purl.org/dc/elements/1.1/" xmlns:cc="http://creativecommons.org/ns#" xmlns:rdf="http://www.w3.org/1999/02/22-rdf-syntax-ns#">
   <cc:Work>
    <dc:type rdf:resource="http://purl.org/dc/dcmitype/StillImage"/>
    <dc:date>2026-07-06T14:23:50.142774</dc:date>
    <dc:format>image/svg+xml</dc:format>
    <dc:creator>
     <cc:Agent>
      <dc:title>Matplotlib v3.11.0, https://matplotlib.org/</dc:title>
     </cc:Agent>
    </dc:creator>
   </cc:Work>
  </rdf:RDF>
 </metadata>
 <defs>
  <style type="text/css">*{stroke-linejoin: round; stroke-linecap: butt}</style>
 </defs>
 <g id="figure_1">
  <g id="patch_1">
   <path d="M 0 288 
L 360 288 
L 360 0 
L 0 0 
z
" style="fill: #ffffff"/>
  </g>
  <g id="axes_1">
   <g id="patch_2">
    <path d="M 63.06 261.000781 
L 349.2 261.000781 
L 349.2 31.68 
L 63.06 31.68 
z
" style="fill: #ffffff"/>
   </g>
   <g id="patch_3">
    <path d="M 76.066364 261.000781 
L 150.388442 261.000781 
L 150.388442 43.43549 
L 76.066364 43.43549 
z
" clip-path="url(#pd6e8420334)" style="fill: #9ca3af"/>
   </g>
   <g id="patch_4">
    <path d="M 261.871558 261.000781 
L 336.193636 261.000781 
L 336.193636 42.600037 
L 261.871558 42.600037 
z
" clip-path="url(#pd6e8420334)" style="fill: #6366f1"/>
   </g>
   <g id="matplotlib.axis_1">
    <g id="xtick_1">
     <g id="line2d_1">
      <defs>
       <path id="m678ab00fcc" d="M 0 0 
L 0 3.5 
" style="stroke: #4b5563; stroke-width: 0.8"/>
      </defs>
      <g>
       <use xlink:href="#m678ab00fcc" x="113.227403" y="261.000781" style="fill: #4b5563; stroke: #4b5563; stroke-width: 0.8"/>
      </g>
     </g>
     <g id="text_1">
      <!-- Baseline FL -->
      <g style="fill: #4b5563" transform="translate(86.825059 275.500781) scale(0.1 -0.1)">
       <defs>
        <path id="Helvetica-25" d="M 2213 2650 
Q 2606 2650 2825 2759 
Q 3169 2931 3169 3378 
Q 3169 3828 2803 3984 
Q 2597 4072 2191 4072 
L 1081 4072 
L 1081 2650 
L 2213 2650 
z
M 2422 531 
Q 2994 531 3238 863 
Q 3391 1072 3391 1369 
Q 3391 1869 2944 2050 
Q 2706 2147 2316 2147 
L 1081 2147 
L 1081 531 
L 2422 531 
z
M 472 4591 
L 2444 4591 
Q 3250 4591 3591 4109 
Q 3791 3825 3791 3453 
Q 3791 3019 3544 2741 
Q 3416 2594 3175 2472 
Q 3528 2338 3703 2169 
Q 4013 1869 4013 1341 
Q 4013 897 3734 538 
Q 3319 0 2413 0 
L 472 0 
L 472 4591 
z
" transform="scale(0.015625)"/>
        <path id="Helvetica-44" d="M 844 891 
Q 844 647 1022 506 
Q 1200 366 1444 366 
Q 1741 366 2019 503 
Q 2488 731 2488 1250 
L 2488 1703 
Q 2384 1638 2221 1594 
Q 2059 1550 1903 1531 
L 1563 1488 
Q 1256 1447 1103 1359 
Q 844 1213 844 891 
z
M 2206 2028 
Q 2400 2053 2466 2191 
Q 2503 2266 2503 2406 
Q 2503 2694 2298 2823 
Q 2094 2953 1713 2953 
Q 1272 2953 1088 2716 
Q 984 2584 953 2325 
L 428 2325 
Q 444 2944 830 3186 
Q 1216 3428 1725 3428 
Q 2316 3428 2684 3203 
Q 3050 2978 3050 2503 
L 3050 575 
Q 3050 488 3086 434 
Q 3122 381 3238 381 
Q 3275 381 3322 386 
Q 3369 391 3422 400 
L 3422 -16 
Q 3291 -53 3222 -62 
Q 3153 -72 3034 -72 
Q 2744 -72 2613 134 
Q 2544 244 2516 444 
Q 2344 219 2022 53 
Q 1700 -113 1313 -113 
Q 847 -113 551 170 
Q 256 453 256 878 
Q 256 1344 547 1600 
Q 838 1856 1309 1916 
L 2206 2028 
z
M 1741 3428 
L 1741 3428 
z
" transform="scale(0.015625)"/>
        <path id="Helvetica-56" d="M 747 1050 
Q 772 769 888 619 
Q 1100 347 1625 347 
Q 1938 347 2175 483 
Q 2413 619 2413 903 
Q 2413 1119 2222 1231 
Q 2100 1300 1741 1391 
L 1294 1503 
Q 866 1609 663 1741 
Q 300 1969 300 2372 
Q 300 2847 642 3140 
Q 984 3434 1563 3434 
Q 2319 3434 2653 2991 
Q 2863 2709 2856 2384 
L 2325 2384 
Q 2309 2575 2191 2731 
Q 1997 2953 1519 2953 
Q 1200 2953 1036 2831 
Q 872 2709 872 2509 
Q 872 2291 1088 2159 
Q 1213 2081 1456 2022 
L 1828 1931 
Q 2434 1784 2641 1647 
Q 2969 1431 2969 969 
Q 2969 522 2630 197 
Q 2291 -128 1597 -128 
Q 850 -128 539 211 
Q 228 550 206 1050 
L 747 1050 
z
M 1578 3428 
L 1578 3428 
z
" transform="scale(0.015625)"/>
        <path id="Helvetica-48" d="M 1806 3422 
Q 2163 3422 2497 3255 
Q 2831 3088 3006 2822 
Q 3175 2569 3231 2231 
Q 3281 2000 3281 1494 
L 828 1494 
Q 844 984 1069 676 
Q 1294 369 1766 369 
Q 2206 369 2469 659 
Q 2619 828 2681 1050 
L 3234 1050 
Q 3213 866 3089 639 
Q 2966 413 2813 269 
Q 2556 19 2178 -69 
Q 1975 -119 1719 -119 
Q 1094 -119 659 336 
Q 225 791 225 1609 
Q 225 2416 662 2919 
Q 1100 3422 1806 3422 
z
M 2703 1941 
Q 2669 2306 2544 2525 
Q 2313 2931 1772 2931 
Q 1384 2931 1121 2651 
Q 859 2372 844 1941 
L 2703 1941 
z
M 1753 3428 
L 1753 3428 
z
" transform="scale(0.015625)"/>
        <path id="Helvetica-4f" d="M 428 4591 
L 991 4591 
L 991 0 
L 428 0 
L 428 4591 
z
" transform="scale(0.015625)"/>
        <path id="Helvetica-4c" d="M 413 3331 
L 984 3331 
L 984 0 
L 413 0 
L 413 3331 
z
M 413 4591 
L 984 4591 
L 984 3953 
L 413 3953 
L 413 4591 
z
" transform="scale(0.015625)"/>
        <path id="Helvetica-51" d="M 413 3347 
L 947 3347 
L 947 2872 
Q 1184 3166 1450 3294 
Q 1716 3422 2041 3422 
Q 2753 3422 3003 2925 
Q 3141 2653 3141 2147 
L 3141 0 
L 2569 0 
L 2569 2109 
Q 2569 2416 2478 2603 
Q 2328 2916 1934 2916 
Q 1734 2916 1606 2875 
Q 1375 2806 1200 2600 
Q 1059 2434 1017 2257 
Q 975 2081 975 1753 
L 975 0 
L 413 0 
L 413 3347 
z
M 1734 3428 
L 1734 3428 
z
" transform="scale(0.015625)"/>
        <path id="Helvetica-3" transform="scale(0.015625)"/>
        <path id="Helvetica-29" d="M 547 4591 
L 3731 4591 
L 3731 4028 
L 1169 4028 
L 1169 2634 
L 3422 2634 
L 3422 2088 
L 1169 2088 
L 1169 0 
L 547 0 
L 547 4591 
z
" transform="scale(0.015625)"/>
        <path id="Helvetica-2f" d="M 488 4591 
L 1109 4591 
L 1109 547 
L 3434 547 
L 3434 0 
L 488 0 
L 488 4591 
z
" transform="scale(0.015625)"/>
       </defs>
       <use xlink:href="#Helvetica-25"/>
       <use xlink:href="#Helvetica-44" transform="translate(66.703125 0)"/>
       <use xlink:href="#Helvetica-56" transform="translate(122.3125 0)"/>
       <use xlink:href="#Helvetica-48" transform="translate(172.3125 0)"/>
       <use xlink:href="#Helvetica-4f" transform="translate(227.921875 0)"/>
       <use xlink:href="#Helvetica-4c" transform="translate(250.140625 0)"/>
       <use xlink:href="#Helvetica-51" transform="translate(272.359375 0)"/>
       <use xlink:href="#Helvetica-48" transform="translate(327.96875 0)"/>
       <use xlink:href="#Helvetica-3" transform="translate(383.578125 0)"/>
       <use xlink:href="#Helvetica-29" transform="translate(411.359375 0)"/>
       <use xlink:href="#Helvetica-2f" transform="translate(472.4375 0)"/>
      </g>
     </g>
    </g>
    <g id="xtick_2">
     <g id="line2d_2">
      <g>
       <use xlink:href="#m678ab00fcc" x="299.032597" y="261.000781" style="fill: #4b5563; stroke: #4b5563; stroke-width: 0.8"/>
      </g>
     </g>
     <g id="text_2">
      <!-- Conclave -->
      <g style="fill: #4b5563" transform="translate(278.188847 275.500781) scale(0.1 -0.1)">
       <defs>
        <path id="Helvetica-26" d="M 2422 4716 
Q 3294 4716 3775 4256 
Q 4256 3797 4309 3213 
L 3703 3213 
Q 3600 3656 3292 3915 
Q 2984 4175 2428 4175 
Q 1750 4175 1333 3698 
Q 916 3222 916 2238 
Q 916 1431 1292 929 
Q 1669 428 2416 428 
Q 3103 428 3463 956 
Q 3653 1234 3747 1688 
L 4353 1688 
Q 4272 963 3816 472 
Q 3269 -119 2341 -119 
Q 1541 -119 997 366 
Q 281 1006 281 2344 
Q 281 3359 819 4009 
Q 1400 4716 2422 4716 
z
M 2297 4716 
L 2297 4716 
z
" transform="scale(0.015625)"/>
        <path id="Helvetica-52" d="M 1741 363 
Q 2300 363 2508 786 
Q 2716 1209 2716 1728 
Q 2716 2197 2566 2491 
Q 2328 2953 1747 2953 
Q 1231 2953 997 2559 
Q 763 2166 763 1609 
Q 763 1075 997 719 
Q 1231 363 1741 363 
z
M 1763 3444 
Q 2409 3444 2856 3012 
Q 3303 2581 3303 1744 
Q 3303 934 2909 406 
Q 2516 -122 1688 -122 
Q 997 -122 590 345 
Q 184 813 184 1600 
Q 184 2444 612 2944 
Q 1041 3444 1763 3444 
z
M 1744 3428 
L 1744 3428 
z
" transform="scale(0.015625)"/>
        <path id="Helvetica-46" d="M 1703 3444 
Q 2269 3444 2623 3169 
Q 2978 2894 3050 2222 
L 2503 2222 
Q 2453 2531 2275 2736 
Q 2097 2941 1703 2941 
Q 1166 2941 934 2416 
Q 784 2075 784 1575 
Q 784 1072 996 728 
Q 1209 384 1666 384 
Q 2016 384 2220 598 
Q 2425 813 2503 1184 
L 3050 1184 
Q 2956 519 2581 211 
Q 2206 -97 1622 -97 
Q 966 -97 575 383 
Q 184 863 184 1581 
Q 184 2463 612 2953 
Q 1041 3444 1703 3444 
z
M 1616 3428 
L 1616 3428 
z
" transform="scale(0.015625)"/>
        <path id="Helvetica-59" d="M 688 3347 
L 1581 622 
L 2516 3347 
L 3131 3347 
L 1869 0 
L 1269 0 
L 34 3347 
L 688 3347 
z
" transform="scale(0.015625)"/>
       </defs>
       <use xlink:href="#Helvetica-26"/>
       <use xlink:href="#Helvetica-52" transform="translate(72.21875 0)"/>
       <use xlink:href="#Helvetica-51" transform="translate(127.828125 0)"/>
       <use xlink:href="#Helvetica-46" transform="translate(183.4375 0)"/>
       <use xlink:href="#Helvetica-4f" transform="translate(233.4375 0)"/>
       <use xlink:href="#Helvetica-44" transform="translate(255.65625 0)"/>
       <use xlink:href="#Helvetica-59" transform="translate(311.265625 0)"/>
       <use xlink:href="#Helvetica-48" transform="translate(361.265625 0)"/>
      </g>
     </g>
    </g>
   </g>
   <g id="matplotlib.axis_2">
    <g id="ytick_1">
     <g id="line2d_3">
      <path d="M 63.06 261.000781 
L 349.2 261.000781 
" clip-path="url(#pd6e8420334)" style="fill: none; stroke-dasharray: 1.85,0.8; stroke-dashoffset: 0; stroke: #e5e7eb; stroke-opacity: 0.7; stroke-width: 0.5"/>
     </g>
     <g id="line2d_4">
      <defs>
       <path id="m9254c4ac74" d="M 0 0 
L -3.5 0 
" style="stroke: #4b5563; stroke-width: 0.8"/>
      </defs>
      <g>
       <use xlink:href="#m9254c4ac74" x="63.06" y="261.000781" style="fill: #4b5563; stroke: #4b5563; stroke-width: 0.8"/>
      </g>
     </g>
     <g id="text_3">
      <!-- 0 -->
      <g style="fill: #4b5563" transform="translate(50.499063 264.750781) scale(0.1 -0.1)">
       <defs>
        <path id="Helvetica-13" d="M 1731 4475 
Q 2600 4475 2988 3759 
Q 3288 3206 3288 2244 
Q 3288 1331 3016 734 
Q 2622 -122 1728 -122 
Q 922 -122 528 578 
Q 200 1163 200 2147 
Q 200 2909 397 3456 
Q 766 4475 1731 4475 
z
M 1725 391 
Q 2163 391 2422 778 
Q 2681 1166 2681 2222 
Q 2681 2984 2493 3476 
Q 2306 3969 1766 3969 
Q 1269 3969 1039 3501 
Q 809 3034 809 2125 
Q 809 1441 956 1025 
Q 1181 391 1725 391 
z
" transform="scale(0.015625)"/>
       </defs>
       <use xlink:href="#Helvetica-13"/>
      </g>
     </g>
    </g>
    <g id="ytick_2">
     <g id="line2d_5">
      <path d="M 63.06 233.152353 
L 349.2 233.152353 
" clip-path="url(#pd6e8420334)" style="fill: none; stroke-dasharray: 1.85,0.8; stroke-dashoffset: 0; stroke: #e5e7eb; stroke-opacity: 0.7; stroke-width: 0.5"/>
     </g>
     <g id="line2d_6">
      <g>
       <use xlink:href="#m9254c4ac74" x="63.06" y="233.152353" style="fill: #4b5563; stroke: #4b5563; stroke-width: 0.8"/>
      </g>
     </g>
     <g id="text_4">
      <!-- 2500 -->
      <g style="fill: #4b5563" transform="translate(33.81625 236.902353) scale(0.1 -0.1)">
       <defs>
        <path id="Helvetica-15" d="M 200 0 
Q 231 578 439 1006 
Q 647 1434 1250 1784 
L 1850 2131 
Q 2253 2366 2416 2531 
Q 2672 2791 2672 3125 
Q 2672 3516 2437 3745 
Q 2203 3975 1813 3975 
Q 1234 3975 1013 3538 
Q 894 3303 881 2888 
L 309 2888 
Q 319 3472 525 3841 
Q 891 4491 1816 4491 
Q 2584 4491 2939 4075 
Q 3294 3659 3294 3150 
Q 3294 2613 2916 2231 
Q 2697 2009 2131 1694 
L 1703 1456 
Q 1397 1288 1222 1134 
Q 909 863 828 531 
L 3272 531 
L 3272 0 
L 200 0 
z
" transform="scale(0.015625)"/>
        <path id="Helvetica-18" d="M 791 1141 
Q 847 659 1238 475 
Q 1438 381 1700 381 
Q 2200 381 2440 700 
Q 2681 1019 2681 1406 
Q 2681 1875 2395 2131 
Q 2109 2388 1709 2388 
Q 1419 2388 1211 2275 
Q 1003 2163 856 1963 
L 369 1991 
L 709 4400 
L 3034 4400 
L 3034 3856 
L 1131 3856 
L 941 2613 
Q 1097 2731 1238 2791 
Q 1488 2894 1816 2894 
Q 2431 2894 2859 2497 
Q 3288 2100 3288 1491 
Q 3288 856 2895 371 
Q 2503 -113 1644 -113 
Q 1097 -113 676 195 
Q 256 503 206 1141 
L 791 1141 
z
" transform="scale(0.015625)"/>
       </defs>
       <use xlink:href="#Helvetica-15"/>
       <use xlink:href="#Helvetica-18" transform="translate(55.609375 0)"/>
       <use xlink:href="#Helvetica-13" transform="translate(111.21875 0)"/>
       <use xlink:href="#Helvetica-13" transform="translate(166.828125 0)"/>
      </g>
     </g>
    </g>
    <g id="ytick_3">
     <g id="line2d_7">
      <path d="M 63.06 205.303924 
L 349.2 205.303924 
" clip-path="url(#pd6e8420334)" style="fill: none; stroke-dasharray: 1.85,0.8; stroke-dashoffset: 0; stroke: #e5e7eb; stroke-opacity: 0.7; stroke-width: 0.5"/>
     </g>
     <g id="line2d_8">
      <g>
       <use xlink:href="#m9254c4ac74" x="63.06" y="205.303924" style="fill: #4b5563; stroke: #4b5563; stroke-width: 0.8"/>
      </g>
     </g>
     <g id="text_5">
      <!-- 5000 -->
      <g style="fill: #4b5563" transform="translate(33.81625 209.053924) scale(0.1 -0.1)">
       <use xlink:href="#Helvetica-18"/>
       <use xlink:href="#Helvetica-13" transform="translate(55.609375 0)"/>
       <use xlink:href="#Helvetica-13" transform="translate(111.21875 0)"/>
       <use xlink:href="#Helvetica-13" transform="translate(166.828125 0)"/>
      </g>
     </g>
    </g>
    <g id="ytick_4">
     <g id="line2d_9">
      <path d="M 63.06 177.455496 
L 349.2 177.455496 
" clip-path="url(#pd6e8420334)" style="fill: none; stroke-dasharray: 1.85,0.8; stroke-dashoffset: 0; stroke: #e5e7eb; stroke-opacity: 0.7; stroke-width: 0.5"/>
     </g>
     <g id="line2d_10">
      <g>
       <use xlink:href="#m9254c4ac74" x="63.06" y="177.455496" style="fill: #4b5563; stroke: #4b5563; stroke-width: 0.8"/>
      </g>
     </g>
     <g id="text_6">
      <!-- 7500 -->
      <g style="fill: #4b5563" transform="translate(33.81625 181.205496) scale(0.1 -0.1)">
       <defs>
        <path id="Helvetica-1a" d="M 3347 4400 
L 3347 3909 
Q 3131 3700 2773 3181 
Q 2416 2663 2141 2063 
Q 1869 1478 1728 997 
Q 1638 688 1494 0 
L 872 0 
Q 1084 1281 1809 2550 
Q 2238 3294 2709 3834 
L 234 3834 
L 234 4400 
L 3347 4400 
z
" transform="scale(0.015625)"/>
       </defs>
       <use xlink:href="#Helvetica-1a"/>
       <use xlink:href="#Helvetica-18" transform="translate(55.609375 0)"/>
       <use xlink:href="#Helvetica-13" transform="translate(111.21875 0)"/>
       <use xlink:href="#Helvetica-13" transform="translate(166.828125 0)"/>
      </g>
     </g>
    </g>
    <g id="ytick_5">
     <g id="line2d_11">
      <path d="M 63.06 149.607067 
L 349.2 149.607067 
" clip-path="url(#pd6e8420334)" style="fill: none; stroke-dasharray: 1.85,0.8; stroke-dashoffset: 0; stroke: #e5e7eb; stroke-opacity: 0.7; stroke-width: 0.5"/>
     </g>
     <g id="line2d_12">
      <g>
       <use xlink:href="#m9254c4ac74" x="63.06" y="149.607067" style="fill: #4b5563; stroke: #4b5563; stroke-width: 0.8"/>
      </g>
     </g>
     <g id="text_7">
      <!-- 10000 -->
      <g style="fill: #4b5563" transform="translate(28.255313 153.357067) scale(0.1 -0.1)">
       <defs>
        <path id="Helvetica-14" d="M 613 3169 
L 613 3600 
Q 1222 3659 1462 3798 
Q 1703 3938 1822 4456 
L 2266 4456 
L 2266 0 
L 1666 0 
L 1666 3169 
L 613 3169 
z
" transform="scale(0.015625)"/>
       </defs>
       <use xlink:href="#Helvetica-14"/>
       <use xlink:href="#Helvetica-13" transform="translate(55.609375 0)"/>
       <use xlink:href="#Helvetica-13" transform="translate(111.21875 0)"/>
       <use xlink:href="#Helvetica-13" transform="translate(166.828125 0)"/>
       <use xlink:href="#Helvetica-13" transform="translate(222.4375 0)"/>
      </g>
     </g>
    </g>
    <g id="ytick_6">
     <g id="line2d_13">
      <path d="M 63.06 121.758638 
L 349.2 121.758638 
" clip-path="url(#pd6e8420334)" style="fill: none; stroke-dasharray: 1.85,0.8; stroke-dashoffset: 0; stroke: #e5e7eb; stroke-opacity: 0.7; stroke-width: 0.5"/>
     </g>
     <g id="line2d_14">
      <g>
       <use xlink:href="#m9254c4ac74" x="63.06" y="121.758638" style="fill: #4b5563; stroke: #4b5563; stroke-width: 0.8"/>
      </g>
     </g>
     <g id="text_8">
      <!-- 12500 -->
      <g style="fill: #4b5563" transform="translate(28.255313 125.508638) scale(0.1 -0.1)">
       <use xlink:href="#Helvetica-14"/>
       <use xlink:href="#Helvetica-15" transform="translate(55.609375 0)"/>
       <use xlink:href="#Helvetica-18" transform="translate(111.21875 0)"/>
       <use xlink:href="#Helvetica-13" transform="translate(166.828125 0)"/>
       <use xlink:href="#Helvetica-13" transform="translate(222.4375 0)"/>
      </g>
     </g>
    </g>
    <g id="ytick_7">
     <g id="line2d_15">
      <path d="M 63.06 93.91021 
L 349.2 93.91021 
" clip-path="url(#pd6e8420334)" style="fill: none; stroke-dasharray: 1.85,0.8; stroke-dashoffset: 0; stroke: #e5e7eb; stroke-opacity: 0.7; stroke-width: 0.5"/>
     </g>
     <g id="line2d_16">
      <g>
       <use xlink:href="#m9254c4ac74" x="63.06" y="93.91021" style="fill: #4b5563; stroke: #4b5563; stroke-width: 0.8"/>
      </g>
     </g>
     <g id="text_9">
      <!-- 15000 -->
      <g style="fill: #4b5563" transform="translate(28.255313 97.66021) scale(0.1 -0.1)">
       <use xlink:href="#Helvetica-14"/>
       <use xlink:href="#Helvetica-18" transform="translate(55.609375 0)"/>
       <use xlink:href="#Helvetica-13" transform="translate(111.21875 0)"/>
       <use xlink:href="#Helvetica-13" transform="translate(166.828125 0)"/>
       <use xlink:href="#Helvetica-13" transform="translate(222.4375 0)"/>
      </g>
     </g>
    </g>
    <g id="ytick_8">
     <g id="line2d_17">
      <path d="M 63.06 66.061781 
L 349.2 66.061781 
" clip-path="url(#pd6e8420334)" style="fill: none; stroke-dasharray: 1.85,0.8; stroke-dashoffset: 0; stroke: #e5e7eb; stroke-opacity: 0.7; stroke-width: 0.5"/>
     </g>
     <g id="line2d_18">
      <g>
       <use xlink:href="#m9254c4ac74" x="63.06" y="66.061781" style="fill: #4b5563; stroke: #4b5563; stroke-width: 0.8"/>
      </g>
     </g>
     <g id="text_10">
      <!-- 17500 -->
      <g style="fill: #4b5563" transform="translate(28.255313 69.811781) scale(0.1 -0.1)">
       <use xlink:href="#Helvetica-14"/>
       <use xlink:href="#Helvetica-1a" transform="translate(55.609375 0)"/>
       <use xlink:href="#Helvetica-18" transform="translate(111.21875 0)"/>
       <use xlink:href="#Helvetica-13" transform="translate(166.828125 0)"/>
       <use xlink:href="#Helvetica-13" transform="translate(222.4375 0)"/>
      </g>
     </g>
    </g>
    <g id="ytick_9">
     <g id="line2d_19">
      <path d="M 63.06 38.213353 
L 349.2 38.213353 
" clip-path="url(#pd6e8420334)" style="fill: none; stroke-dasharray: 1.85,0.8; stroke-dashoffset: 0; stroke: #e5e7eb; stroke-opacity: 0.7; stroke-width: 0.5"/>
     </g>
     <g id="line2d_20">
      <g>
       <use xlink:href="#m9254c4ac74" x="63.06" y="38.213353" style="fill: #4b5563; stroke: #4b5563; stroke-width: 0.8"/>
      </g>
     </g>
     <g id="text_11">
      <!-- 20000 -->
      <g style="fill: #4b5563" transform="translate(28.255313 41.963353) scale(0.1 -0.1)">
       <use xlink:href="#Helvetica-15"/>
       <use xlink:href="#Helvetica-13" transform="translate(55.609375 0)"/>
       <use xlink:href="#Helvetica-13" transform="translate(111.21875 0)"/>
       <use xlink:href="#Helvetica-13" transform="translate(166.828125 0)"/>
       <use xlink:href="#Helvetica-13" transform="translate(222.4375 0)"/>
      </g>
     </g>
    </g>
    <g id="text_12">
     <!-- Payload Size (KB) -->
     <g transform="translate(18.111562 186.913047) rotate(-90) scale(0.1 -0.1)">
      <defs>
       <path id="Helvetica-33" d="M 547 4591 
L 2613 4591 
Q 3225 4591 3600 4245 
Q 3975 3900 3975 3275 
Q 3975 2738 3640 2339 
Q 3306 1941 2613 1941 
L 1169 1941 
L 1169 0 
L 547 0 
L 547 4591 
z
M 3347 3272 
Q 3347 3778 2972 3959 
Q 2766 4056 2406 4056 
L 1169 4056 
L 1169 2466 
L 2406 2466 
Q 2825 2466 3086 2644 
Q 3347 2822 3347 3272 
z
" transform="scale(0.015625)"/>
       <path id="Helvetica-5c" d="M 2503 3347 
L 3125 3347 
Q 3006 3025 2597 1878 
Q 2291 1016 2084 472 
Q 1597 -809 1397 -1090 
Q 1197 -1372 709 -1372 
Q 591 -1372 527 -1362 
Q 463 -1353 369 -1328 
L 369 -816 
Q 516 -856 581 -865 
Q 647 -875 697 -875 
Q 853 -875 926 -823 
Q 1000 -772 1050 -697 
Q 1066 -672 1162 -440 
Q 1259 -209 1303 -97 
L 66 3347 
L 703 3347 
L 1600 622 
L 2503 3347 
z
M 1597 3428 
L 1597 3428 
z
" transform="scale(0.015625)"/>
       <path id="Helvetica-47" d="M 769 1634 
Q 769 1097 997 734 
Q 1225 372 1728 372 
Q 2119 372 2370 708 
Q 2622 1044 2622 1672 
Q 2622 2306 2362 2611 
Q 2103 2916 1722 2916 
Q 1297 2916 1033 2591 
Q 769 2266 769 1634 
z
M 1616 3406 
Q 2000 3406 2259 3244 
Q 2409 3150 2600 2916 
L 2600 4606 
L 3141 4606 
L 3141 0 
L 2634 0 
L 2634 466 
Q 2438 156 2169 18 
Q 1900 -119 1553 -119 
Q 994 -119 584 351 
Q 175 822 175 1603 
Q 175 2334 548 2870 
Q 922 3406 1616 3406 
z
" transform="scale(0.015625)"/>
       <path id="Helvetica-36" d="M 894 1481 
Q 916 1091 1078 847 
Q 1388 391 2169 391 
Q 2519 391 2806 491 
Q 3363 684 3363 1184 
Q 3363 1559 3128 1719 
Q 2891 1875 2384 1991 
L 1763 2131 
Q 1153 2269 900 2434 
Q 463 2722 463 3294 
Q 463 3913 891 4309 
Q 1319 4706 2103 4706 
Q 2825 4706 3329 4357 
Q 3834 4009 3834 3244 
L 3250 3244 
Q 3203 3613 3050 3809 
Q 2766 4169 2084 4169 
Q 1534 4169 1293 3937 
Q 1053 3706 1053 3400 
Q 1053 3063 1334 2906 
Q 1519 2806 2169 2656 
L 2813 2509 
Q 3278 2403 3531 2219 
Q 3969 1897 3969 1284 
Q 3969 522 3414 194 
Q 2859 -134 2125 -134 
Q 1269 -134 784 303 
Q 300 738 309 1481 
L 894 1481 
z
M 2150 4716 
L 2150 4716 
z
" transform="scale(0.015625)"/>
       <path id="Helvetica-5d" d="M 163 444 
L 2147 2844 
L 309 2844 
L 309 3347 
L 2903 3347 
L 2903 2888 
L 931 503 
L 2963 503 
L 2963 0 
L 163 0 
L 163 444 
z
M 1609 3428 
L 1609 3428 
z
" transform="scale(0.015625)"/>
       <path id="Helvetica-b" d="M 1894 4666 
Q 1403 3713 1256 3263 
Q 1034 2578 1034 1681 
Q 1034 775 1288 25 
Q 1444 -438 1903 -1306 
L 1525 -1306 
Q 1069 -594 959 -397 
Q 850 -200 722 138 
Q 547 600 478 1125 
Q 444 1397 444 1644 
Q 444 2569 734 3291 
Q 919 3750 1503 4666 
L 1894 4666 
z
" transform="scale(0.015625)"/>
       <path id="Helvetica-2e" d="M 488 4591 
L 1094 4591 
L 1094 2353 
L 3331 4591 
L 4191 4591 
L 2281 2741 
L 4244 0 
L 3434 0 
L 1828 2303 
L 1094 1600 
L 1094 0 
L 488 0 
L 488 4591 
z
" transform="scale(0.015625)"/>
       <path id="Helvetica-c" d="M 222 -1306 
Q 719 -338 863 106 
Q 1081 778 1081 1681 
Q 1081 2584 828 3334 
Q 672 3797 213 4666 
L 591 4666 
Q 1072 3897 1173 3717 
Q 1275 3538 1394 3222 
Q 1544 2831 1608 2450 
Q 1672 2069 1672 1716 
Q 1672 791 1378 66 
Q 1194 -400 613 -1306 
L 222 -1306 
z
" transform="scale(0.015625)"/>
      </defs>
      <use xlink:href="#Helvetica-33"/>
      <use xlink:href="#Helvetica-44" transform="translate(66.703125 0)"/>
      <use xlink:href="#Helvetica-5c" transform="translate(122.3125 0)"/>
      <use xlink:href="#Helvetica-4f" transform="translate(172.3125 0)"/>
      <use xlink:href="#Helvetica-52" transform="translate(194.53125 0)"/>
      <use xlink:href="#Helvetica-44" transform="translate(250.140625 0)"/>
      <use xlink:href="#Helvetica-47" transform="translate(305.75 0)"/>
      <use xlink:href="#Helvetica-3" transform="translate(361.359375 0)"/>
      <use xlink:href="#Helvetica-36" transform="translate(389.140625 0)"/>
      <use xlink:href="#Helvetica-4c" transform="translate(455.84375 0)"/>
      <use xlink:href="#Helvetica-5d" transform="translate(478.0625 0)"/>
      <use xlink:href="#Helvetica-48" transform="translate(528.0625 0)"/>
      <use xlink:href="#Helvetica-3" transform="translate(583.671875 0)"/>
      <use xlink:href="#Helvetica-b" transform="translate(611.453125 0)"/>
      <use xlink:href="#Helvetica-2e" transform="translate(644.75 0)"/>
      <use xlink:href="#Helvetica-25" transform="translate(711.453125 0)"/>
      <use xlink:href="#Helvetica-c" transform="translate(778.15625 0)"/>
     </g>
    </g>
   </g>
   <g id="patch_5">
    <path d="M 63.06 261.000781 
L 63.06 31.68 
" style="fill: none; stroke: #9ca3af; stroke-width: 0.8; stroke-linejoin: miter; stroke-linecap: square"/>
   </g>
   <g id="patch_6">
    <path d="M 63.06 261.000781 
L 349.2 261.000781 
" style="fill: none; stroke: #9ca3af; stroke-width: 0.8; stroke-linejoin: miter; stroke-linecap: square"/>
   </g>
   <g id="text_13">
    <!-- 19,531 KB -->
    <g style="fill: #1f2937" transform="translate(92.388184 38.57249) scale(0.09 -0.09)">
     <defs>
      <path id="HelveticaRounded-Bold-12" d="M 1094 480 
C 1094 147 1222 -83 1581 -83 
C 1939 -83 2067 147 2067 480 
L 2067 4115 
C 2067 4461 1901 4550 1696 4550 
C 1152 4550 1350 3821 640 3667 
L 403 3616 
C 70 3552 -58 3488 -58 3251 
C -58 2989 58 2912 269 2912 
L 1094 2912 
L 1094 480 
z
" transform="scale(0.015625)"/>
      <path id="HelveticaRounded-Bold-1a" d="M 2733 1843 
C 2733 1254 2490 608 1824 608 
C 1306 608 1286 1158 864 1158 
C 640 1158 461 973 461 742 
C 461 352 979 -83 1741 -83 
C 2931 -83 3667 589 3667 2483 
C 3667 3494 3264 4550 1907 4550 
C 973 4550 250 4019 250 2963 
C 250 2189 774 1549 1734 1549 
C 2163 1549 2458 1696 2733 1958 
L 2733 1843 
z
M 2675 3027 
C 2675 2522 2342 2240 1926 2240 
C 1504 2240 1184 2483 1184 3027 
C 1184 3520 1466 3821 1926 3821 
C 2387 3821 2675 3520 2675 3027 
z
" transform="scale(0.015625)"/>
      <path id="HelveticaRounded-Bold-d" d="M 454 480 
C 454 224 621 -13 915 -13 
C 1005 -13 1075 13 1133 45 
C 1101 -608 454 -461 454 -742 
C 454 -845 531 -934 672 -934 
C 870 -934 1158 -749 1254 -659 
C 1453 -454 1581 -237 1581 198 
C 1581 634 1395 1005 979 1005 
C 691 1005 454 768 454 480 
z
" transform="scale(0.015625)"/>
      <path id="HelveticaRounded-Bold-16" d="M 301 2701 
C 282 2592 269 2490 269 2362 
C 269 2061 480 1939 710 1939 
C 1030 1939 1184 2253 1690 2253 
C 2170 2253 2554 2010 2554 1466 
C 2554 1050 2221 646 1734 646 
C 1056 646 1056 1267 666 1267 
C 390 1267 205 1082 205 826 
C 205 493 614 -83 1722 -83 
C 2746 -83 3488 480 3488 1510 
C 3488 2496 2771 2982 1971 2982 
C 1645 2982 1312 2886 1082 2688 
L 1069 2701 
L 1242 3661 
L 2874 3661 
C 3104 3661 3283 3776 3283 4064 
C 3283 4352 3104 4467 2861 4467 
L 941 4467 
C 730 4467 570 4282 531 4064 
L 301 2701 
z
" transform="scale(0.015625)"/>
      <path id="HelveticaRounded-Bold-14" d="M 198 1024 
C 198 666 576 -83 1779 -83 
C 2726 -83 3507 403 3507 1414 
C 3507 1894 3302 2278 2822 2413 
C 3181 2605 3366 2899 3366 3309 
C 3366 3930 2957 4550 1850 4550 
C 1229 4550 301 4218 301 3437 
C 301 3149 512 3053 730 3053 
C 1235 3053 1056 3782 1830 3782 
C 2170 3782 2470 3603 2470 3219 
C 2470 2925 2304 2739 1984 2720 
C 1619 2701 1427 2630 1427 2298 
C 1427 2003 1779 1971 1958 1952 
C 2400 1907 2534 1683 2534 1376 
C 2534 979 2278 685 1798 685 
C 915 685 1222 1472 653 1472 
C 390 1472 198 1286 198 1024 
z
" transform="scale(0.015625)"/>
      <path id="HelveticaRounded-Bold-1" transform="scale(0.015625)"/>
      <path id="HelveticaRounded-Bold-2c" d="M 486 442 
C 486 128 691 -83 1011 -83 
C 1331 -83 1536 128 1536 442 
L 1536 1485 
L 2112 2061 
L 3322 192 
C 3462 -32 3578 -83 3789 -83 
C 4038 -83 4326 32 4326 422 
C 4326 557 4224 691 4128 838 
L 2854 2778 
L 3930 3910 
C 4019 4000 4102 4109 4102 4269 
C 4102 4538 3853 4691 3603 4691 
C 3418 4691 3309 4589 3187 4461 
L 1536 2643 
L 1536 4166 
C 1536 4480 1331 4691 1011 4691 
C 691 4691 486 4480 486 4166 
L 486 442 
z
" transform="scale(0.015625)"/>
      <path id="HelveticaRounded-Bold-23" d="M 486 614 
C 486 147 730 0 1101 0 
L 2643 0 
C 3552 0 4339 397 4339 1363 
C 4339 1997 4019 2342 3533 2470 
L 3533 2483 
C 3968 2656 4179 3027 4179 3418 
C 4179 4435 3264 4608 2496 4608 
L 1101 4608 
C 730 4608 486 4461 486 3994 
L 486 614 
z
M 1536 2048 
L 2291 2048 
C 2803 2048 3290 1978 3290 1421 
C 3290 890 2829 806 2419 806 
L 1536 806 
L 1536 2048 
z
M 1536 3840 
L 2368 3840 
C 2758 3840 3130 3718 3130 3277 
C 3130 2912 2893 2714 2400 2714 
L 1536 2714 
L 1536 3840 
z
" transform="scale(0.015625)"/>
     </defs>
     <use xlink:href="#HelveticaRounded-Bold-12"/>
     <use xlink:href="#HelveticaRounded-Bold-1a" transform="translate(40.703125 0)"/>
     <use xlink:href="#HelveticaRounded-Bold-d" transform="translate(101.90625 0)"/>
     <use xlink:href="#HelveticaRounded-Bold-16" transform="translate(132.5 0)"/>
     <use xlink:href="#HelveticaRounded-Bold-14" transform="translate(191.796875 0)"/>
     <use xlink:href="#HelveticaRounded-Bold-12" transform="translate(251.09375 0)"/>
     <use xlink:href="#HelveticaRounded-Bold-1" transform="translate(291.796875 0)"/>
     <use xlink:href="#HelveticaRounded-Bold-2c" transform="translate(322.390625 0)"/>
     <use xlink:href="#HelveticaRounded-Bold-23" transform="translate(390.890625 0)"/>
    </g>
   </g>
   <g id="text_14">
    <!-- 19,606 KB -->
    <g style="fill: #1f2937" transform="translate(277.099316 37.737037) scale(0.09 -0.09)">
     <defs>
      <path id="HelveticaRounded-Bold-17" d="M 1184 2624 
C 1184 3213 1427 3859 2093 3859 
C 2611 3859 2630 3309 3053 3309 
C 3277 3309 3456 3494 3456 3725 
C 3456 4115 2938 4550 2176 4550 
C 986 4550 250 3878 250 1984 
C 250 973 653 -83 2010 -83 
C 2944 -83 3667 448 3667 1504 
C 3667 2278 3142 2918 2182 2918 
C 1754 2918 1459 2771 1184 2509 
L 1184 2624 
z
M 1242 1440 
C 1242 1946 1574 2227 1990 2227 
C 2413 2227 2733 1984 2733 1440 
C 2733 947 2451 646 1990 646 
C 1530 646 1242 947 1242 1440 
z
" transform="scale(0.015625)"/>
      <path id="HelveticaRounded-Bold-11" d="M 1184 2234 
C 1184 3194 1395 3782 1958 3782 
C 2522 3782 2733 3194 2733 2234 
C 2733 1088 2451 685 1958 685 
C 1466 685 1184 1088 1184 2234 
z
M 250 2291 
C 250 1158 608 -83 1958 -83 
C 3309 -83 3667 1158 3667 2291 
C 3667 3802 2995 4550 1958 4550 
C 922 4550 250 3802 250 2291 
z
" transform="scale(0.015625)"/>
     </defs>
     <use xlink:href="#HelveticaRounded-Bold-12"/>
     <use xlink:href="#HelveticaRounded-Bold-1a" transform="translate(40.703125 0)"/>
     <use xlink:href="#HelveticaRounded-Bold-d" transform="translate(101.90625 0)"/>
     <use xlink:href="#HelveticaRounded-Bold-17" transform="translate(132.5 0)"/>
     <use xlink:href="#HelveticaRounded-Bold-11" transform="translate(193.703125 0)"/>
     <use xlink:href="#HelveticaRounded-Bold-17" transform="translate(254.90625 0)"/>
     <use xlink:href="#HelveticaRounded-Bold-1" transform="translate(316.109375 0)"/>
     <use xlink:href="#HelveticaRounded-Bold-2c" transform="translate(346.703125 0)"/>
     <use xlink:href="#HelveticaRounded-Bold-23" transform="translate(415.203125 0)"/>
    </g>
   </g>
   <g id="text_15">
    <!-- Total Network Payload Size -->
    <g style="fill: #1f2937" transform="translate(125.522813 19.68) scale(0.12 -0.12)">
     <defs>
      <path id="HelveticaRounded-Bold-35" d="M 1613 442 
C 1613 128 1818 -83 2138 -83 
C 2458 -83 2662 128 2662 442 
L 2662 3725 
L 3654 3725 
C 3955 3725 4198 3878 4198 4166 
C 4198 4454 3955 4608 3654 4608 
L 621 4608 
C 320 4608 77 4454 77 4166 
C 77 3878 320 3725 621 3725 
L 1613 3725 
L 1613 442 
z
" transform="scale(0.015625)"/>
      <path id="HelveticaRounded-Bold-50" d="M 1165 1677 
C 1165 2285 1414 2739 1958 2739 
C 2502 2739 2752 2285 2752 1677 
C 2752 1107 2515 608 1958 608 
C 1402 608 1165 1107 1165 1677 
z
M 230 1677 
C 230 742 685 -83 1958 -83 
C 3232 -83 3686 742 3686 1677 
C 3686 2662 3085 3430 1958 3430 
C 832 3430 230 2662 230 1677 
z
" transform="scale(0.015625)"/>
      <path id="HelveticaRounded-Bold-55" d="M 614 749 
C 614 198 896 -83 1574 -83 
C 2022 -83 2253 64 2253 333 
C 2253 531 2131 646 1926 646 
L 1792 646 
C 1626 646 1549 723 1549 864 
L 1549 2733 
L 1830 2733 
C 2106 2733 2253 2816 2253 3040 
C 2253 3264 2106 3347 1830 3347 
L 1549 3347 
L 1549 3917 
C 1549 4224 1363 4384 1082 4384 
C 800 4384 614 4224 614 3917 
L 614 3347 
L 454 3347 
C 192 3347 83 3245 83 3040 
C 83 2835 192 2733 454 2733 
L 614 2733 
L 614 749 
z
" transform="scale(0.015625)"/>
      <path id="HelveticaRounded-Bold-42" d="M 3475 2470 
C 3475 3142 2854 3430 1958 3430 
C 998 3430 474 2957 474 2586 
C 474 2394 634 2227 870 2227 
C 1242 2227 1261 2739 1952 2739 
C 2266 2739 2541 2624 2541 2355 
C 2541 2086 2362 2035 2138 2010 
L 1568 1946 
C 851 1862 262 1645 262 870 
C 262 282 787 -83 1318 -83 
C 1811 -83 2234 58 2598 461 
C 2611 173 2746 -83 3149 -83 
C 3373 -83 3571 64 3571 275 
C 3571 422 3475 512 3475 902 
L 3475 2470 
z
M 2541 1210 
C 2541 864 2227 531 1715 531 
C 1395 531 1197 704 1197 915 
C 1197 1197 1408 1318 1798 1376 
L 2138 1427 
C 2246 1446 2438 1478 2541 1574 
L 2541 1210 
z
" transform="scale(0.015625)"/>
      <path id="HelveticaRounded-Bold-4d" d="M 422 384 
C 422 77 608 -83 890 -83 
C 1171 -83 1357 77 1357 384 
L 1357 4224 
C 1357 4531 1171 4691 890 4691 
C 608 4691 422 4531 422 4224 
L 422 384 
z
" transform="scale(0.015625)"/>
      <path id="HelveticaRounded-Bold-2f" d="M 467 422 
C 467 83 659 -83 973 -83 
C 1286 -83 1478 83 1478 422 
L 1478 3078 
L 1491 3078 
L 3315 198 
C 3450 -13 3558 -83 3891 -83 
C 4333 -83 4512 154 4512 570 
L 4512 4186 
C 4512 4525 4320 4691 4006 4691 
C 3693 4691 3501 4525 3501 4186 
L 3501 1453 
L 3488 1453 
L 1651 4416 
C 1536 4608 1344 4691 1126 4691 
C 678 4691 467 4512 467 4077 
L 467 422 
z
" transform="scale(0.015625)"/>
      <path id="HelveticaRounded-Bold-46" d="M 3277 1498 
C 3590 1498 3686 1581 3686 1901 
C 3686 2669 3072 3430 1997 3430 
C 890 3430 230 2701 230 1613 
C 230 800 723 -83 2029 -83 
C 2592 -83 3494 179 3494 742 
C 3494 915 3334 1107 3110 1107 
C 2733 1107 2733 646 2029 646 
C 1485 646 1165 1005 1165 1498 
L 3277 1498 
z
M 1165 2035 
C 1267 2490 1549 2778 2016 2778 
C 2432 2778 2752 2464 2803 2035 
L 1165 2035 
z
" transform="scale(0.015625)"/>
      <path id="HelveticaRounded-Bold-58" d="M 832 422 
C 966 -19 1069 -83 1440 -83 
C 1830 -83 1926 32 2022 403 
L 2483 2240 
L 2496 2240 
L 2957 403 
C 3053 32 3149 -83 3539 -83 
C 3910 -83 4013 -19 4147 422 
L 4832 2650 
C 4864 2752 4896 2854 4896 2995 
C 4896 3238 4678 3430 4442 3430 
C 4096 3430 4038 3245 3981 2976 
L 3520 928 
L 3507 928 
L 3104 2790 
C 3021 3162 2931 3443 2490 3430 
C 2054 3443 1978 3155 1901 2790 
L 1504 928 
L 1491 928 
L 998 2976 
C 934 3245 883 3430 538 3430 
C 301 3430 83 3238 83 2995 
C 83 2854 115 2752 147 2650 
L 832 422 
z
" transform="scale(0.015625)"/>
      <path id="HelveticaRounded-Bold-53" d="M 422 384 
C 422 134 525 -83 890 -83 
C 1254 -83 1357 134 1357 384 
L 1357 1472 
C 1357 2246 1562 2509 1939 2509 
L 2106 2509 
C 2336 2509 2566 2630 2566 2976 
C 2566 3238 2349 3430 2054 3430 
C 1600 3430 1389 3027 1280 2637 
L 1267 2637 
L 1267 2995 
C 1267 3277 1082 3430 845 3430 
C 608 3430 422 3277 422 2995 
L 422 384 
z
" transform="scale(0.015625)"/>
      <path id="HelveticaRounded-Bold-4c" d="M 371 384 
C 371 77 557 -83 838 -83 
C 1120 -83 1306 77 1306 384 
L 1306 1094 
L 1632 1382 
L 2515 134 
C 2586 32 2707 -83 2938 -83 
C 3187 -83 3379 134 3379 371 
C 3379 525 3315 627 3283 672 
L 2310 1978 
L 3002 2701 
C 3085 2790 3142 2842 3142 3008 
C 3142 3245 2912 3430 2701 3430 
C 2560 3430 2438 3354 2342 3251 
L 1306 2099 
L 1306 4224 
C 1306 4531 1120 4691 838 4691 
C 557 4691 371 4531 371 4224 
L 371 384 
z
" transform="scale(0.015625)"/>
      <path id="HelveticaRounded-Bold-31" d="M 486 442 
C 486 128 691 -83 1011 -83 
C 1331 -83 1536 128 1536 442 
L 1536 1690 
L 2701 1690 
C 3718 1690 4301 2310 4301 3149 
C 4301 4173 3590 4608 2707 4608 
L 1101 4608 
C 730 4608 486 4461 486 3994 
L 486 442 
z
M 1536 3802 
L 2406 3802 
C 2925 3802 3251 3610 3251 3149 
C 3251 2752 2938 2496 2515 2496 
L 1536 2496 
L 1536 3802 
z
" transform="scale(0.015625)"/>
      <path id="HelveticaRounded-Bold-5a" d="M 1011 3078 
C 954 3290 781 3430 531 3430 
C 282 3430 77 3238 77 2982 
C 77 2874 115 2771 192 2547 
L 1165 -224 
C 1094 -512 960 -518 838 -518 
L 742 -518 
C 493 -518 314 -646 314 -896 
C 314 -1120 486 -1325 902 -1325 
C 1491 -1325 1747 -992 1971 -352 
L 3053 2714 
C 3098 2835 3123 2931 3123 3008 
C 3123 3123 3014 3430 2643 3430 
C 2387 3430 2259 3251 2195 3014 
L 1626 896 
L 1613 896 
L 1011 3078 
z
" transform="scale(0.015625)"/>
      <path id="HelveticaRounded-Bold-45" d="M 3539 4224 
C 3539 4531 3354 4691 3072 4691 
C 2790 4691 2605 4531 2605 4224 
L 2605 2957 
L 2592 2957 
C 2406 3258 2086 3430 1670 3430 
C 685 3430 230 2592 230 1696 
C 230 486 915 -83 1696 -83 
C 2150 -83 2528 109 2682 506 
L 2694 506 
L 2694 358 
C 2694 70 2842 -83 3117 -83 
C 3405 -83 3539 70 3539 358 
L 3539 4224 
z
M 1165 1664 
C 1165 2099 1312 2701 1907 2701 
C 2477 2707 2656 2144 2656 1664 
C 2656 1133 2451 646 1907 646 
C 1408 659 1165 1114 1165 1664 
z
" transform="scale(0.015625)"/>
      <path id="HelveticaRounded-Bold-34" d="M 2022 2867 
C 1690 2944 1306 3046 1306 3366 
C 1306 3686 1574 3910 2061 3910 
C 3040 3910 2950 3226 3437 3226 
C 3693 3226 3917 3379 3917 3642 
C 3917 4256 2950 4717 2131 4717 
C 1242 4717 294 4333 294 3309 
C 294 2816 467 2291 1421 2048 
L 2605 1747 
C 2963 1658 3053 1453 3053 1267 
C 3053 960 2752 659 2208 659 
C 1146 659 1293 1491 723 1491 
C 467 1491 282 1312 282 1056 
C 282 557 877 -109 2208 -109 
C 3475 -109 4102 512 4102 1344 
C 4102 1882 3859 2451 2899 2669 
L 2022 2867 
z
" transform="scale(0.015625)"/>
      <path id="HelveticaRounded-Bold-4a" d="M 422 384 
C 422 134 525 -83 890 -83 
C 1254 -83 1357 134 1357 384 
L 1357 2963 
C 1357 3213 1254 3430 890 3430 
C 525 3430 422 3213 422 2963 
L 422 384 
z
M 403 4230 
C 403 3962 621 3744 890 3744 
C 1158 3744 1376 3962 1376 4230 
C 1376 4499 1158 4717 890 4717 
C 621 4717 403 4499 403 4230 
z
" transform="scale(0.015625)"/>
      <path id="HelveticaRounded-Bold-5b" d="M 314 704 
C 230 614 192 499 192 365 
C 192 179 333 0 608 0 
L 2989 0 
C 3162 0 3366 96 3366 365 
C 3366 634 3162 730 2989 730 
L 1453 730 
L 3181 2624 
C 3270 2720 3328 2835 3328 2938 
C 3328 3181 3194 3347 2944 3347 
L 723 3347 
C 550 3347 346 3251 346 2982 
C 346 2714 550 2618 723 2618 
L 2074 2618 
L 314 704 
z
" transform="scale(0.015625)"/>
     </defs>
     <use xlink:href="#HelveticaRounded-Bold-35"/>
     <use xlink:href="#HelveticaRounded-Bold-50" transform="translate(53.09375 0)"/>
     <use xlink:href="#HelveticaRounded-Bold-55" transform="translate(114.296875 0)"/>
     <use xlink:href="#HelveticaRounded-Bold-42" transform="translate(151.296875 0)"/>
     <use xlink:href="#HelveticaRounded-Bold-4d" transform="translate(212.390625 0)"/>
     <use xlink:href="#HelveticaRounded-Bold-1" transform="translate(240.1875 0)"/>
     <use xlink:href="#HelveticaRounded-Bold-2f" transform="translate(270.78125 0)"/>
     <use xlink:href="#HelveticaRounded-Bold-46" transform="translate(348.578125 0)"/>
     <use xlink:href="#HelveticaRounded-Bold-55" transform="translate(409.78125 0)"/>
     <use xlink:href="#HelveticaRounded-Bold-58" transform="translate(446.78125 0)"/>
     <use xlink:href="#HelveticaRounded-Bold-50" transform="translate(524.578125 0)"/>
     <use xlink:href="#HelveticaRounded-Bold-53" transform="translate(585.78125 0)"/>
     <use xlink:href="#HelveticaRounded-Bold-4c" transform="translate(626.484375 0)"/>
     <use xlink:href="#HelveticaRounded-Bold-1" transform="translate(680.1875 0)"/>
     <use xlink:href="#HelveticaRounded-Bold-31" transform="translate(710.78125 0)"/>
     <use xlink:href="#HelveticaRounded-Bold-42" transform="translate(777.484375 0)"/>
     <use xlink:href="#HelveticaRounded-Bold-5a" transform="translate(838.578125 0)"/>
     <use xlink:href="#HelveticaRounded-Bold-4d" transform="translate(888.578125 0)"/>
     <use xlink:href="#HelveticaRounded-Bold-50" transform="translate(916.375 0)"/>
     <use xlink:href="#HelveticaRounded-Bold-42" transform="translate(977.578125 0)"/>
     <use xlink:href="#HelveticaRounded-Bold-45" transform="translate(1038.671875 0)"/>
     <use xlink:href="#HelveticaRounded-Bold-1" transform="translate(1099.765625 0)"/>
     <use xlink:href="#HelveticaRounded-Bold-34" transform="translate(1130.359375 0)"/>
     <use xlink:href="#HelveticaRounded-Bold-4a" transform="translate(1198.859375 0)"/>
     <use xlink:href="#HelveticaRounded-Bold-5b" transform="translate(1226.65625 0)"/>
     <use xlink:href="#HelveticaRounded-Bold-46" transform="translate(1282.25 0)"/>
    </g>
   </g>
  </g>
 </g>
 <defs>
  <clipPath id="pd6e8420334">
   <rect x="63.06" y="31.68" width="286.14" height="229.320781"/>
  </clipPath>
 </defs>
</svg>
