<?xml version="1.0" encoding="utf-8" standalone="no"?>
<!DOCTYPE svg PUBLIC "-//W3C//DTD SVG 1.1//EN"
  "http://www.w3.org/Graphics/SVG/1.1/DTD/svg11.dtd">
<svg xmlns:xlink="http://www.w3.org/1999/xlink" width="360pt" height="288pt" viewBox="0 0 360 288" xmlns="http://www.w3.org/2000/svg" version="1.1">
 <metadata>
  <rdf:RDF xmlns:dc="http://purl.org/dc/elements/1.1/" xmlns:cc="http://creativecommons.org/ns#" xmlns:rdf="http://www.w3.org/1999/02/22-rdf-syntax-ns#">
   <cc:Work>
    <dc:type rdf:resource="http://purl.org/dc/dcmitype/StillImage"/>
    <dc:date>2026-07-06T14:23:49.018873</dc:date>
    <dc:format>image/svg+xml</dc:format>
    <dc:creator>
     <cc:Agent>
      <dc:title>Matplotlib v3.11.0, https://matplotlib.org/</dc:title>
     </cc:Agent>
    </dc:creator>
   </cc:Work>
  </rdf:RDF>
 </metadata>
 <defs>
  <style type="text/css">*{stroke-linejoin: round; stroke-linecap: butt}</style>
 </defs>
 <g id="figure_1">
  <g id="patch_1">
   <path d="M 0 288 
L 360 288 
L 360 0 
L 0 0 
z
" style="fill: #ffffff"/>
  </g>
  <g id="axes_1">
   <g id="patch_2">
    <path d="M 40.98 261.000781 
L 349.2 261.000781 
L 349.2 31.68 
L 40.98 31.68 
z
" style="fill: #ffffff"/>
   </g>
   <g id="patch_3">
    <path d="M 54.99 261.000781 
L 135.047143 261.000781 
L 135.047143 158.870937 
L 54.99 158.870937 
z
" clip-path="url(#p29a17bb15e)" style="fill: #9ca3af"/>
   </g>
   <g id="patch_4">
    <path d="M 255.132857 261.000781 
L 335.19 261.000781 
L 335.19 42.600037 
L 255.132857 42.600037 
z
" clip-path="url(#p29a17bb15e)" style="fill: #6366f1"/>
   </g>
   <g id="matplotlib.axis_1">
    <g id="xtick_1">
     <g id="line2d_1">
      <defs>
       <path id="m6f5d226bf0" d="M 0 0 
L 0 3.5 
" style="stroke: #4b5563; stroke-width: 0.8"/>
      </defs>
      <g>
       <use xlink:href="#m6f5d226bf0" x="95.018571" y="261.000781" style="fill: #4b5563; stroke: #4b5563; stroke-width: 0.8"/>
      </g>
     </g>
     <g id="text_1">
      <!-- Baseline FL -->
      <g style="fill: #4b5563" transform="translate(68.616228 275.500781) scale(0.1 -0.1)">
       <defs>
        <path id="Helvetica-25" d="M 2213 2650 
Q 2606 2650 2825 2759 
Q 3169 2931 3169 3378 
Q 3169 3828 2803 3984 
Q 2597 4072 2191 4072 
L 1081 4072 
L 1081 2650 
L 2213 2650 
z
M 2422 531 
Q 2994 531 3238 863 
Q 3391 1072 3391 1369 
Q 3391 1869 2944 2050 
Q 2706 2147 2316 2147 
L 1081 2147 
L 1081 531 
L 2422 531 
z
M 472 4591 
L 2444 4591 
Q 3250 4591 3591 4109 
Q 3791 3825 3791 3453 
Q 3791 3019 3544 2741 
Q 3416 2594 3175 2472 
Q 3528 2338 3703 2169 
Q 4013 1869 4013 1341 
Q 4013 897 3734 538 
Q 3319 0 2413 0 
L 472 0 
L 472 4591 
z
" transform="scale(0.015625)"/>
        <path id="Helvetica-44" d="M 844 891 
Q 844 647 1022 506 
Q 1200 366 1444 366 
Q 1741 366 2019 503 
Q 2488 731 2488 1250 
L 2488 1703 
Q 2384 1638 2221 1594 
Q 2059 1550 1903 1531 
L 1563 1488 
Q 1256 1447 1103 1359 
Q 844 1213 844 891 
z
M 2206 2028 
Q 2400 2053 2466 2191 
Q 2503 2266 2503 2406 
Q 2503 2694 2298 2823 
Q 2094 2953 1713 2953 
Q 1272 2953 1088 2716 
Q 984 2584 953 2325 
L 428 2325 
Q 444 2944 830 3186 
Q 1216 3428 1725 3428 
Q 2316 3428 2684 3203 
Q 3050 2978 3050 2503 
L 3050 575 
Q 3050 488 3086 434 
Q 3122 381 3238 381 
Q 3275 381 3322 386 
Q 3369 391 3422 400 
L 3422 -16 
Q 3291 -53 3222 -62 
Q 3153 -72 3034 -72 
Q 2744 -72 2613 134 
Q 2544 244 2516 444 
Q 2344 219 2022 53 
Q 1700 -113 1313 -113 
Q 847 -113 551 170 
Q 256 453 256 878 
Q 256 1344 547 1600 
Q 838 1856 1309 1916 
L 2206 2028 
z
M 1741 3428 
L 1741 3428 
z
" transform="scale(0.015625)"/>
        <path id="Helvetica-56" d="M 747 1050 
Q 772 769 888 619 
Q 1100 347 1625 347 
Q 1938 347 2175 483 
Q 2413 619 2413 903 
Q 2413 1119 2222 1231 
Q 2100 1300 1741 1391 
L 1294 1503 
Q 866 1609 663 1741 
Q 300 1969 300 2372 
Q 300 2847 642 3140 
Q 984 3434 1563 3434 
Q 2319 3434 2653 2991 
Q 2863 2709 2856 2384 
L 2325 2384 
Q 2309 2575 2191 2731 
Q 1997 2953 1519 2953 
Q 1200 2953 1036 2831 
Q 872 2709 872 2509 
Q 872 2291 1088 2159 
Q 1213 2081 1456 2022 
L 1828 1931 
Q 2434 1784 2641 1647 
Q 2969 1431 2969 969 
Q 2969 522 2630 197 
Q 2291 -128 1597 -128 
Q 850 -128 539 211 
Q 228 550 206 1050 
L 747 1050 
z
M 1578 3428 
L 1578 3428 
z
" transform="scale(0.015625)"/>
        <path id="Helvetica-48" d="M 1806 3422 
Q 2163 3422 2497 3255 
Q 2831 3088 3006 2822 
Q 3175 2569 3231 2231 
Q 3281 2000 3281 1494 
L 828 1494 
Q 844 984 1069 676 
Q 1294 369 1766 369 
Q 2206 369 2469 659 
Q 2619 828 2681 1050 
L 3234 1050 
Q 3213 866 3089 639 
Q 2966 413 2813 269 
Q 2556 19 2178 -69 
Q 1975 -119 1719 -119 
Q 1094 -119 659 336 
Q 225 791 225 1609 
Q 225 2416 662 2919 
Q 1100 3422 1806 3422 
z
M 2703 1941 
Q 2669 2306 2544 2525 
Q 2313 2931 1772 2931 
Q 1384 2931 1121 2651 
Q 859 2372 844 1941 
L 2703 1941 
z
M 1753 3428 
L 1753 3428 
z
" transform="scale(0.015625)"/>
        <path id="Helvetica-4f" d="M 428 4591 
L 991 4591 
L 991 0 
L 428 0 
L 428 4591 
z
" transform="scale(0.015625)"/>
        <path id="Helvetica-4c" d="M 413 3331 
L 984 3331 
L 984 0 
L 413 0 
L 413 3331 
z
M 413 4591 
L 984 4591 
L 984 3953 
L 413 3953 
L 413 4591 
z
" transform="scale(0.015625)"/>
        <path id="Helvetica-51" d="M 413 3347 
L 947 3347 
L 947 2872 
Q 1184 3166 1450 3294 
Q 1716 3422 2041 3422 
Q 2753 3422 3003 2925 
Q 3141 2653 3141 2147 
L 3141 0 
L 2569 0 
L 2569 2109 
Q 2569 2416 2478 2603 
Q 2328 2916 1934 2916 
Q 1734 2916 1606 2875 
Q 1375 2806 1200 2600 
Q 1059 2434 1017 2257 
Q 975 2081 975 1753 
L 975 0 
L 413 0 
L 413 3347 
z
M 1734 3428 
L 1734 3428 
z
" transform="scale(0.015625)"/>
        <path id="Helvetica-3" transform="scale(0.015625)"/>
        <path id="Helvetica-29" d="M 547 4591 
L 3731 4591 
L 3731 4028 
L 1169 4028 
L 1169 2634 
L 3422 2634 
L 3422 2088 
L 1169 2088 
L 1169 0 
L 547 0 
L 547 4591 
z
" transform="scale(0.015625)"/>
        <path id="Helvetica-2f" d="M 488 4591 
L 1109 4591 
L 1109 547 
L 3434 547 
L 3434 0 
L 488 0 
L 488 4591 
z
" transform="scale(0.015625)"/>
       </defs>
       <use xlink:href="#Helvetica-25"/>
       <use xlink:href="#Helvetica-44" transform="translate(66.703125 0)"/>
       <use xlink:href="#Helvetica-56" transform="translate(122.3125 0)"/>
       <use xlink:href="#Helvetica-48" transform="translate(172.3125 0)"/>
       <use xlink:href="#Helvetica-4f" transform="translate(227.921875 0)"/>
       <use xlink:href="#Helvetica-4c" transform="translate(250.140625 0)"/>
       <use xlink:href="#Helvetica-51" transform="translate(272.359375 0)"/>
       <use xlink:href="#Helvetica-48" transform="translate(327.96875 0)"/>
       <use xlink:href="#Helvetica-3" transform="translate(383.578125 0)"/>
       <use xlink:href="#Helvetica-29" transform="translate(411.359375 0)"/>
       <use xlink:href="#Helvetica-2f" transform="translate(472.4375 0)"/>
      </g>
     </g>
    </g>
    <g id="xtick_2">
     <g id="line2d_2">
      <g>
       <use xlink:href="#m6f5d226bf0" x="295.161429" y="261.000781" style="fill: #4b5563; stroke: #4b5563; stroke-width: 0.8"/>
      </g>
     </g>
     <g id="text_2">
      <!-- Conclave -->
      <g style="fill: #4b5563" transform="translate(274.317679 275.500781) scale(0.1 -0.1)">
       <defs>
        <path id="Helvetica-26" d="M 2422 4716 
Q 3294 4716 3775 4256 
Q 4256 3797 4309 3213 
L 3703 3213 
Q 3600 3656 3292 3915 
Q 2984 4175 2428 4175 
Q 1750 4175 1333 3698 
Q 916 3222 916 2238 
Q 916 1431 1292 929 
Q 1669 428 2416 428 
Q 3103 428 3463 956 
Q 3653 1234 3747 1688 
L 4353 1688 
Q 4272 963 3816 472 
Q 3269 -119 2341 -119 
Q 1541 -119 997 366 
Q 281 1006 281 2344 
Q 281 3359 819 4009 
Q 1400 4716 2422 4716 
z
M 2297 4716 
L 2297 4716 
z
" transform="scale(0.015625)"/>
        <path id="Helvetica-52" d="M 1741 363 
Q 2300 363 2508 786 
Q 2716 1209 2716 1728 
Q 2716 2197 2566 2491 
Q 2328 2953 1747 2953 
Q 1231 2953 997 2559 
Q 763 2166 763 1609 
Q 763 1075 997 719 
Q 1231 363 1741 363 
z
M 1763 3444 
Q 2409 3444 2856 3012 
Q 3303 2581 3303 1744 
Q 3303 934 2909 406 
Q 2516 -122 1688 -122 
Q 997 -122 590 345 
Q 184 813 184 1600 
Q 184 2444 612 2944 
Q 1041 3444 1763 3444 
z
M 1744 3428 
L 1744 3428 
z
" transform="scale(0.015625)"/>
        <path id="Helvetica-46" d="M 1703 3444 
Q 2269 3444 2623 3169 
Q 2978 2894 3050 2222 
L 2503 2222 
Q 2453 2531 2275 2736 
Q 2097 2941 1703 2941 
Q 1166 2941 934 2416 
Q 784 2075 784 1575 
Q 784 1072 996 728 
Q 1209 384 1666 384 
Q 2016 384 2220 598 
Q 2425 813 2503 1184 
L 3050 1184 
Q 2956 519 2581 211 
Q 2206 -97 1622 -97 
Q 966 -97 575 383 
Q 184 863 184 1581 
Q 184 2463 612 2953 
Q 1041 3444 1703 3444 
z
M 1616 3428 
L 1616 3428 
z
" transform="scale(0.015625)"/>
        <path id="Helvetica-59" d="M 688 3347 
L 1581 622 
L 2516 3347 
L 3131 3347 
L 1869 0 
L 1269 0 
L 34 3347 
L 688 3347 
z
" transform="scale(0.015625)"/>
       </defs>
       <use xlink:href="#Helvetica-26"/>
       <use xlink:href="#Helvetica-52" transform="translate(72.21875 0)"/>
       <use xlink:href="#Helvetica-51" transform="translate(127.828125 0)"/>
       <use xlink:href="#Helvetica-46" transform="translate(183.4375 0)"/>
       <use xlink:href="#Helvetica-4f" transform="translate(233.4375 0)"/>
       <use xlink:href="#Helvetica-44" transform="translate(255.65625 0)"/>
       <use xlink:href="#Helvetica-59" transform="translate(311.265625 0)"/>
       <use xlink:href="#Helvetica-48" transform="translate(361.265625 0)"/>
      </g>
     </g>
    </g>
   </g>
   <g id="matplotlib.axis_2">
    <g id="ytick_1">
     <g id="line2d_3">
      <path d="M 40.98 261.000781 
L 349.2 261.000781 
" clip-path="url(#p29a17bb15e)" style="fill: none; stroke-dasharray: 1.85,0.8; stroke-dashoffset: 0; stroke: #e5e7eb; stroke-opacity: 0.7; stroke-width: 0.5"/>
     </g>
     <g id="line2d_4">
      <defs>
       <path id="m12f3e3cb24" d="M 0 0 
L -3.5 0 
" style="stroke: #4b5563; stroke-width: 0.8"/>
      </defs>
      <g>
       <use xlink:href="#m12f3e3cb24" x="40.98" y="261.000781" style="fill: #4b5563; stroke: #4b5563; stroke-width: 0.8"/>
      </g>
     </g>
     <g id="text_3">
      <!-- 0 -->
      <g style="fill: #4b5563" transform="translate(28.419063 264.750781) scale(0.1 -0.1)">
       <defs>
        <path id="Helvetica-13" d="M 1731 4475 
Q 2600 4475 2988 3759 
Q 3288 3206 3288 2244 
Q 3288 1331 3016 734 
Q 2622 -122 1728 -122 
Q 922 -122 528 578 
Q 200 1163 200 2147 
Q 200 2909 397 3456 
Q 766 4475 1731 4475 
z
M 1725 391 
Q 2163 391 2422 778 
Q 2681 1166 2681 2222 
Q 2681 2984 2493 3476 
Q 2306 3969 1766 3969 
Q 1269 3969 1039 3501 
Q 809 3034 809 2125 
Q 809 1441 956 1025 
Q 1181 391 1725 391 
z
" transform="scale(0.015625)"/>
       </defs>
       <use xlink:href="#Helvetica-13"/>
      </g>
     </g>
    </g>
    <g id="ytick_2">
     <g id="line2d_5">
      <path d="M 40.98 221.720072 
L 349.2 221.720072 
" clip-path="url(#p29a17bb15e)" style="fill: none; stroke-dasharray: 1.85,0.8; stroke-dashoffset: 0; stroke: #e5e7eb; stroke-opacity: 0.7; stroke-width: 0.5"/>
     </g>
     <g id="line2d_6">
      <g>
       <use xlink:href="#m12f3e3cb24" x="40.98" y="221.720072" style="fill: #4b5563; stroke: #4b5563; stroke-width: 0.8"/>
      </g>
     </g>
     <g id="text_4">
      <!-- 1 -->
      <g style="fill: #4b5563" transform="translate(28.419063 225.470072) scale(0.1 -0.1)">
       <defs>
        <path id="Helvetica-14" d="M 613 3169 
L 613 3600 
Q 1222 3659 1462 3798 
Q 1703 3938 1822 4456 
L 2266 4456 
L 2266 0 
L 1666 0 
L 1666 3169 
L 613 3169 
z
" transform="scale(0.015625)"/>
       </defs>
       <use xlink:href="#Helvetica-14"/>
      </g>
     </g>
    </g>
    <g id="ytick_3">
     <g id="line2d_7">
      <path d="M 40.98 182.439363 
L 349.2 182.439363 
" clip-path="url(#p29a17bb15e)" style="fill: none; stroke-dasharray: 1.85,0.8; stroke-dashoffset: 0; stroke: #e5e7eb; stroke-opacity: 0.7; stroke-width: 0.5"/>
     </g>
     <g id="line2d_8">
      <g>
       <use xlink:href="#m12f3e3cb24" x="40.98" y="182.439363" style="fill: #4b5563; stroke: #4b5563; stroke-width: 0.8"/>
      </g>
     </g>
     <g id="text_5">
      <!-- 2 -->
      <g style="fill: #4b5563" transform="translate(28.419063 186.189363) scale(0.1 -0.1)">
       <defs>
        <path id="Helvetica-15" d="M 200 0 
Q 231 578 439 1006 
Q 647 1434 1250 1784 
L 1850 2131 
Q 2253 2366 2416 2531 
Q 2672 2791 2672 3125 
Q 2672 3516 2437 3745 
Q 2203 3975 1813 3975 
Q 1234 3975 1013 3538 
Q 894 3303 881 2888 
L 309 2888 
Q 319 3472 525 3841 
Q 891 4491 1816 4491 
Q 2584 4491 2939 4075 
Q 3294 3659 3294 3150 
Q 3294 2613 2916 2231 
Q 2697 2009 2131 1694 
L 1703 1456 
Q 1397 1288 1222 1134 
Q 909 863 828 531 
L 3272 531 
L 3272 0 
L 200 0 
z
" transform="scale(0.015625)"/>
       </defs>
       <use xlink:href="#Helvetica-15"/>
      </g>
     </g>
    </g>
    <g id="ytick_4">
     <g id="line2d_9">
      <path d="M 40.98 143.158653 
L 349.2 143.158653 
" clip-path="url(#p29a17bb15e)" style="fill: none; stroke-dasharray: 1.85,0.8; stroke-dashoffset: 0; stroke: #e5e7eb; stroke-opacity: 0.7; stroke-width: 0.5"/>
     </g>
     <g id="line2d_10">
      <g>
       <use xlink:href="#m12f3e3cb24" x="40.98" y="143.158653" style="fill: #4b5563; stroke: #4b5563; stroke-width: 0.8"/>
      </g>
     </g>
     <g id="text_6">
      <!-- 3 -->
      <g style="fill: #4b5563" transform="translate(28.419063 146.908653) scale(0.1 -0.1)">
       <defs>
        <path id="Helvetica-16" d="M 1663 -122 
Q 869 -122 511 314 
Q 153 750 153 1375 
L 741 1375 
Q 778 941 903 744 
Q 1122 391 1694 391 
Q 2138 391 2406 628 
Q 2675 866 2675 1241 
Q 2675 1703 2392 1887 
Q 2109 2072 1606 2072 
Q 1550 2072 1492 2070 
Q 1434 2069 1375 2066 
L 1375 2563 
Q 1463 2553 1522 2550 
Q 1581 2547 1650 2547 
Q 1966 2547 2169 2647 
Q 2525 2822 2525 3272 
Q 2525 3606 2287 3787 
Q 2050 3969 1734 3969 
Q 1172 3969 956 3594 
Q 838 3388 822 3006 
L 266 3006 
Q 266 3506 466 3856 
Q 809 4481 1675 4481 
Q 2359 4481 2734 4176 
Q 3109 3872 3109 3294 
Q 3109 2881 2888 2625 
Q 2750 2466 2531 2375 
Q 2884 2278 3082 2001 
Q 3281 1725 3281 1325 
Q 3281 684 2859 281 
Q 2438 -122 1663 -122 
z
" transform="scale(0.015625)"/>
       </defs>
       <use xlink:href="#Helvetica-16"/>
      </g>
     </g>
    </g>
    <g id="ytick_5">
     <g id="line2d_11">
      <path d="M 40.98 103.877944 
L 349.2 103.877944 
" clip-path="url(#p29a17bb15e)" style="fill: none; stroke-dasharray: 1.85,0.8; stroke-dashoffset: 0; stroke: #e5e7eb; stroke-opacity: 0.7; stroke-width: 0.5"/>
     </g>
     <g id="line2d_12">
      <g>
       <use xlink:href="#m12f3e3cb24" x="40.98" y="103.877944" style="fill: #4b5563; stroke: #4b5563; stroke-width: 0.8"/>
      </g>
     </g>
     <g id="text_7">
      <!-- 4 -->
      <g style="fill: #4b5563" transform="translate(28.419063 107.627944) scale(0.1 -0.1)">
       <defs>
        <path id="Helvetica-17" d="M 2116 1584 
L 2116 3613 
L 681 1584 
L 2116 1584 
z
M 2125 0 
L 2125 1094 
L 163 1094 
L 163 1644 
L 2213 4488 
L 2688 4488 
L 2688 1584 
L 3347 1584 
L 3347 1094 
L 2688 1094 
L 2688 0 
L 2125 0 
z
" transform="scale(0.015625)"/>
       </defs>
       <use xlink:href="#Helvetica-17"/>
      </g>
     </g>
    </g>
    <g id="ytick_6">
     <g id="line2d_13">
      <path d="M 40.98 64.597234 
L 349.2 64.597234 
" clip-path="url(#p29a17bb15e)" style="fill: none; stroke-dasharray: 1.85,0.8; stroke-dashoffset: 0; stroke: #e5e7eb; stroke-opacity: 0.7; stroke-width: 0.5"/>
     </g>
     <g id="line2d_14">
      <g>
       <use xlink:href="#m12f3e3cb24" x="40.98" y="64.597234" style="fill: #4b5563; stroke: #4b5563; stroke-width: 0.8"/>
      </g>
     </g>
     <g id="text_8">
      <!-- 5 -->
      <g style="fill: #4b5563" transform="translate(28.419063 68.347234) scale(0.1 -0.1)">
       <defs>
        <path id="Helvetica-18" d="M 791 1141 
Q 847 659 1238 475 
Q 1438 381 1700 381 
Q 2200 381 2440 700 
Q 2681 1019 2681 1406 
Q 2681 1875 2395 2131 
Q 2109 2388 1709 2388 
Q 1419 2388 1211 2275 
Q 1003 2163 856 1963 
L 369 1991 
L 709 4400 
L 3034 4400 
L 3034 3856 
L 1131 3856 
L 941 2613 
Q 1097 2731 1238 2791 
Q 1488 2894 1816 2894 
Q 2431 2894 2859 2497 
Q 3288 2100 3288 1491 
Q 3288 856 2895 371 
Q 2503 -113 1644 -113 
Q 1097 -113 676 195 
Q 256 503 206 1141 
L 791 1141 
z
" transform="scale(0.015625)"/>
       </defs>
       <use xlink:href="#Helvetica-18"/>
      </g>
     </g>
    </g>
    <g id="text_9">
     <!-- Execution Time (sec) -->
     <g transform="translate(18.378437 193.025547) rotate(-90) scale(0.1 -0.1)">
      <defs>
       <path id="Helvetica-28" d="M 547 4591 
L 3894 4591 
L 3894 4028 
L 1153 4028 
L 1153 2634 
L 3688 2634 
L 3688 2103 
L 1153 2103 
L 1153 547 
L 3941 547 
L 3941 0 
L 547 0 
L 547 4591 
z
M 2244 4591 
L 2244 4591 
z
" transform="scale(0.015625)"/>
       <path id="Helvetica-5b" d="M 94 3347 
L 822 3347 
L 1591 2169 
L 2369 3347 
L 3053 3331 
L 1925 1716 
L 3103 0 
L 2384 0 
L 1553 1256 
L 747 0 
L 34 0 
L 1213 1716 
L 94 3347 
z
" transform="scale(0.015625)"/>
       <path id="Helvetica-58" d="M 975 3347 
L 975 1125 
Q 975 869 1056 706 
Q 1206 406 1616 406 
Q 2203 406 2416 931 
Q 2531 1213 2531 1703 
L 2531 3347 
L 3094 3347 
L 3094 0 
L 2563 0 
L 2569 494 
Q 2459 303 2297 172 
Q 1975 -91 1516 -91 
Q 800 -91 541 388 
Q 400 644 400 1072 
L 400 3347 
L 975 3347 
z
M 1747 3428 
L 1747 3428 
z
" transform="scale(0.015625)"/>
       <path id="Helvetica-57" d="M 525 4281 
L 1094 4281 
L 1094 3347 
L 1628 3347 
L 1628 2888 
L 1094 2888 
L 1094 703 
Q 1094 528 1213 469 
Q 1278 434 1431 434 
Q 1472 434 1519 436 
Q 1566 438 1628 444 
L 1628 0 
Q 1531 -28 1426 -40 
Q 1322 -53 1200 -53 
Q 806 -53 665 148 
Q 525 350 525 672 
L 525 2888 
L 72 2888 
L 72 3347 
L 525 3347 
L 525 4281 
z
" transform="scale(0.015625)"/>
       <path id="Helvetica-37" d="M 3828 4591 
L 3828 4044 
L 2281 4044 
L 2281 0 
L 1650 0 
L 1650 4044 
L 103 4044 
L 103 4591 
L 3828 4591 
z
" transform="scale(0.015625)"/>
       <path id="Helvetica-50" d="M 413 3347 
L 969 3347 
L 969 2872 
Q 1169 3119 1331 3231 
Q 1609 3422 1963 3422 
Q 2363 3422 2606 3225 
Q 2744 3113 2856 2894 
Q 3044 3163 3297 3292 
Q 3550 3422 3866 3422 
Q 4541 3422 4784 2934 
Q 4916 2672 4916 2228 
L 4916 0 
L 4331 0 
L 4331 2325 
Q 4331 2659 4164 2784 
Q 3997 2909 3756 2909 
Q 3425 2909 3186 2687 
Q 2947 2466 2947 1947 
L 2947 0 
L 2375 0 
L 2375 2184 
Q 2375 2525 2294 2681 
Q 2166 2916 1816 2916 
Q 1497 2916 1236 2669 
Q 975 2422 975 1775 
L 975 0 
L 413 0 
L 413 3347 
z
" transform="scale(0.015625)"/>
       <path id="Helvetica-b" d="M 1894 4666 
Q 1403 3713 1256 3263 
Q 1034 2578 1034 1681 
Q 1034 775 1288 25 
Q 1444 -438 1903 -1306 
L 1525 -1306 
Q 1069 -594 959 -397 
Q 850 -200 722 138 
Q 547 600 478 1125 
Q 444 1397 444 1644 
Q 444 2569 734 3291 
Q 919 3750 1503 4666 
L 1894 4666 
z
" transform="scale(0.015625)"/>
       <path id="Helvetica-c" d="M 222 -1306 
Q 719 -338 863 106 
Q 1081 778 1081 1681 
Q 1081 2584 828 3334 
Q 672 3797 213 4666 
L 591 4666 
Q 1072 3897 1173 3717 
Q 1275 3538 1394 3222 
Q 1544 2831 1608 2450 
Q 1672 2069 1672 1716 
Q 1672 791 1378 66 
Q 1194 -400 613 -1306 
L 222 -1306 
z
" transform="scale(0.015625)"/>
      </defs>
      <use xlink:href="#Helvetica-28"/>
      <use xlink:href="#Helvetica-5b" transform="translate(66.703125 0)"/>
      <use xlink:href="#Helvetica-48" transform="translate(116.703125 0)"/>
      <use xlink:href="#Helvetica-46" transform="translate(172.3125 0)"/>
      <use xlink:href="#Helvetica-58" transform="translate(222.3125 0)"/>
      <use xlink:href="#Helvetica-57" transform="translate(277.921875 0)"/>
      <use xlink:href="#Helvetica-4c" transform="translate(305.703125 0)"/>
      <use xlink:href="#Helvetica-52" transform="translate(327.921875 0)"/>
      <use xlink:href="#Helvetica-51" transform="translate(383.53125 0)"/>
      <use xlink:href="#Helvetica-3" transform="translate(439.140625 0)"/>
      <use xlink:href="#Helvetica-37" transform="translate(465.171875 0)"/>
      <use xlink:href="#Helvetica-4c" transform="translate(522.59375 0)"/>
      <use xlink:href="#Helvetica-50" transform="translate(544.8125 0)"/>
      <use xlink:href="#Helvetica-48" transform="translate(628.109375 0)"/>
      <use xlink:href="#Helvetica-3" transform="translate(683.71875 0)"/>
      <use xlink:href="#Helvetica-b" transform="translate(711.5 0)"/>
      <use xlink:href="#Helvetica-56" transform="translate(744.796875 0)"/>
      <use xlink:href="#Helvetica-48" transform="translate(794.796875 0)"/>
      <use xlink:href="#Helvetica-46" transform="translate(850.40625 0)"/>
      <use xlink:href="#Helvetica-c" transform="translate(900.40625 0)"/>
     </g>
    </g>
   </g>
   <g id="patch_5">
    <path d="M 40.98 261.000781 
L 40.98 31.68 
" style="fill: none; stroke: #9ca3af; stroke-width: 0.8; stroke-linejoin: miter; stroke-linecap: square"/>
   </g>
   <g id="patch_6">
    <path d="M 40.98 261.000781 
L 349.2 261.000781 
" style="fill: none; stroke: #9ca3af; stroke-width: 0.8; stroke-linejoin: miter; stroke-linecap: square"/>
   </g>
   <g id="text_10">
    <!-- 2.60 s -->
    <g style="fill: #1f2937" transform="translate(81.671853 154.007937) scale(0.09 -0.09)">
     <defs>
      <path id="HelveticaRounded-Bold-13" d="M 1254 806 
C 1338 1050 1779 1312 2502 1722 
C 3181 2106 3571 2438 3571 3290 
C 3571 3878 2963 4550 1939 4550 
C 998 4550 230 3955 230 3174 
C 230 2854 435 2746 698 2746 
C 954 2746 1037 2867 1101 3104 
C 1242 3616 1517 3782 1926 3782 
C 2278 3782 2598 3552 2598 3136 
C 2598 2618 2291 2502 1402 1939 
C 602 1434 198 928 198 474 
C 198 250 352 0 723 0 
L 3123 0 
C 3418 0 3597 115 3597 403 
C 3597 691 3418 806 3174 806 
L 1254 806 
z
" transform="scale(0.015625)"/>
      <path id="HelveticaRounded-Bold-f" d="M 454 480 
C 454 192 691 -45 979 -45 
C 1267 -45 1504 192 1504 480 
C 1504 768 1267 1005 979 1005 
C 691 1005 454 768 454 480 
z
" transform="scale(0.015625)"/>
      <path id="HelveticaRounded-Bold-17" d="M 1184 2624 
C 1184 3213 1427 3859 2093 3859 
C 2611 3859 2630 3309 3053 3309 
C 3277 3309 3456 3494 3456 3725 
C 3456 4115 2938 4550 2176 4550 
C 986 4550 250 3878 250 1984 
C 250 973 653 -83 2010 -83 
C 2944 -83 3667 448 3667 1504 
C 3667 2278 3142 2918 2182 2918 
C 1754 2918 1459 2771 1184 2509 
L 1184 2624 
z
M 1242 1440 
C 1242 1946 1574 2227 1990 2227 
C 2413 2227 2733 1984 2733 1440 
C 2733 947 2451 646 1990 646 
C 1530 646 1242 947 1242 1440 
z
" transform="scale(0.015625)"/>
      <path id="HelveticaRounded-Bold-11" d="M 1184 2234 
C 1184 3194 1395 3782 1958 3782 
C 2522 3782 2733 3194 2733 2234 
C 2733 1088 2451 685 1958 685 
C 1466 685 1184 1088 1184 2234 
z
M 250 2291 
C 250 1158 608 -83 1958 -83 
C 3309 -83 3667 1158 3667 2291 
C 3667 3802 2995 4550 1958 4550 
C 922 4550 250 3802 250 2291 
z
" transform="scale(0.015625)"/>
      <path id="HelveticaRounded-Bold-1" transform="scale(0.015625)"/>
      <path id="HelveticaRounded-Bold-54" d="M 224 2387 
C 224 1760 646 1536 1190 1402 
L 1741 1267 
C 2074 1184 2278 1146 2278 909 
C 2278 717 2067 570 1734 570 
C 1043 570 1005 1146 602 1146 
C 339 1146 224 960 224 755 
C 224 294 928 -83 1773 -83 
C 2477 -83 3213 269 3213 1030 
C 3213 1683 2579 1907 2048 2029 
L 1658 2118 
C 1370 2182 1158 2234 1158 2451 
C 1158 2650 1370 2739 1696 2739 
C 2285 2739 2298 2310 2662 2310 
C 2906 2310 3053 2502 3053 2720 
C 3053 3149 2336 3430 1626 3430 
C 979 3430 224 3149 224 2387 
z
" transform="scale(0.015625)"/>
     </defs>
     <use xlink:href="#HelveticaRounded-Bold-13"/>
     <use xlink:href="#HelveticaRounded-Bold-f" transform="translate(59.296875 0)"/>
     <use xlink:href="#HelveticaRounded-Bold-17" transform="translate(89.890625 0)"/>
     <use xlink:href="#HelveticaRounded-Bold-11" transform="translate(151.09375 0)"/>
     <use xlink:href="#HelveticaRounded-Bold-1" transform="translate(212.296875 0)"/>
     <use xlink:href="#HelveticaRounded-Bold-54" transform="translate(242.890625 0)"/>
    </g>
   </g>
   <g id="text_11">
    <!-- 5.56 s -->
    <g style="fill: #1f2937" transform="translate(281.900491 37.737037) scale(0.09 -0.09)">
     <defs>
      <path id="HelveticaRounded-Bold-16" d="M 301 2701 
C 282 2592 269 2490 269 2362 
C 269 2061 480 1939 710 1939 
C 1030 1939 1184 2253 1690 2253 
C 2170 2253 2554 2010 2554 1466 
C 2554 1050 2221 646 1734 646 
C 1056 646 1056 1267 666 1267 
C 390 1267 205 1082 205 826 
C 205 493 614 -83 1722 -83 
C 2746 -83 3488 480 3488 1510 
C 3488 2496 2771 2982 1971 2982 
C 1645 2982 1312 2886 1082 2688 
L 1069 2701 
L 1242 3661 
L 2874 3661 
C 3104 3661 3283 3776 3283 4064 
C 3283 4352 3104 4467 2861 4467 
L 941 4467 
C 730 4467 570 4282 531 4064 
L 301 2701 
z
" transform="scale(0.015625)"/>
     </defs>
     <use xlink:href="#HelveticaRounded-Bold-16"/>
     <use xlink:href="#HelveticaRounded-Bold-f" transform="translate(59.296875 0)"/>
     <use xlink:href="#HelveticaRounded-Bold-16" transform="translate(89.890625 0)"/>
     <use xlink:href="#HelveticaRounded-Bold-17" transform="translate(149.1875 0)"/>
     <use xlink:href="#HelveticaRounded-Bold-1" transform="translate(210.390625 0)"/>
     <use xlink:href="#HelveticaRounded-Bold-54" transform="translate(240.984375 0)"/>
    </g>
   </g>
   <g id="text_12">
    <!-- Total Session Runtime -->
    <g style="fill: #1f2937" transform="translate(128.882812 19.68) scale(0.12 -0.12)">
     <defs>
      <path id="HelveticaRounded-Bold-35" d="M 1613 442 
C 1613 128 1818 -83 2138 -83 
C 2458 -83 2662 128 2662 442 
L 2662 3725 
L 3654 3725 
C 3955 3725 4198 3878 4198 4166 
C 4198 4454 3955 4608 3654 4608 
L 621 4608 
C 320 4608 77 4454 77 4166 
C 77 3878 320 3725 621 3725 
L 1613 3725 
L 1613 442 
z
" transform="scale(0.015625)"/>
      <path id="HelveticaRounded-Bold-50" d="M 1165 1677 
C 1165 2285 1414 2739 1958 2739 
C 2502 2739 2752 2285 2752 1677 
C 2752 1107 2515 608 1958 608 
C 1402 608 1165 1107 1165 1677 
z
M 230 1677 
C 230 742 685 -83 1958 -83 
C 3232 -83 3686 742 3686 1677 
C 3686 2662 3085 3430 1958 3430 
C 832 3430 230 2662 230 1677 
z
" transform="scale(0.015625)"/>
      <path id="HelveticaRounded-Bold-55" d="M 614 749 
C 614 198 896 -83 1574 -83 
C 2022 -83 2253 64 2253 333 
C 2253 531 2131 646 1926 646 
L 1792 646 
C 1626 646 1549 723 1549 864 
L 1549 2733 
L 1830 2733 
C 2106 2733 2253 2816 2253 3040 
C 2253 3264 2106 3347 1830 3347 
L 1549 3347 
L 1549 3917 
C 1549 4224 1363 4384 1082 4384 
C 800 4384 614 4224 614 3917 
L 614 3347 
L 454 3347 
C 192 3347 83 3245 83 3040 
C 83 2835 192 2733 454 2733 
L 614 2733 
L 614 749 
z
" transform="scale(0.015625)"/>
      <path id="HelveticaRounded-Bold-42" d="M 3475 2470 
C 3475 3142 2854 3430 1958 3430 
C 998 3430 474 2957 474 2586 
C 474 2394 634 2227 870 2227 
C 1242 2227 1261 2739 1952 2739 
C 2266 2739 2541 2624 2541 2355 
C 2541 2086 2362 2035 2138 2010 
L 1568 1946 
C 851 1862 262 1645 262 870 
C 262 282 787 -83 1318 -83 
C 1811 -83 2234 58 2598 461 
C 2611 173 2746 -83 3149 -83 
C 3373 -83 3571 64 3571 275 
C 3571 422 3475 512 3475 902 
L 3475 2470 
z
M 2541 1210 
C 2541 864 2227 531 1715 531 
C 1395 531 1197 704 1197 915 
C 1197 1197 1408 1318 1798 1376 
L 2138 1427 
C 2246 1446 2438 1478 2541 1574 
L 2541 1210 
z
" transform="scale(0.015625)"/>
      <path id="HelveticaRounded-Bold-4d" d="M 422 384 
C 422 77 608 -83 890 -83 
C 1171 -83 1357 77 1357 384 
L 1357 4224 
C 1357 4531 1171 4691 890 4691 
C 608 4691 422 4531 422 4224 
L 422 384 
z
" transform="scale(0.015625)"/>
      <path id="HelveticaRounded-Bold-34" d="M 2022 2867 
C 1690 2944 1306 3046 1306 3366 
C 1306 3686 1574 3910 2061 3910 
C 3040 3910 2950 3226 3437 3226 
C 3693 3226 3917 3379 3917 3642 
C 3917 4256 2950 4717 2131 4717 
C 1242 4717 294 4333 294 3309 
C 294 2816 467 2291 1421 2048 
L 2605 1747 
C 2963 1658 3053 1453 3053 1267 
C 3053 960 2752 659 2208 659 
C 1146 659 1293 1491 723 1491 
C 467 1491 282 1312 282 1056 
C 282 557 877 -109 2208 -109 
C 3475 -109 4102 512 4102 1344 
C 4102 1882 3859 2451 2899 2669 
L 2022 2867 
z
" transform="scale(0.015625)"/>
      <path id="HelveticaRounded-Bold-46" d="M 3277 1498 
C 3590 1498 3686 1581 3686 1901 
C 3686 2669 3072 3430 1997 3430 
C 890 3430 230 2701 230 1613 
C 230 800 723 -83 2029 -83 
C 2592 -83 3494 179 3494 742 
C 3494 915 3334 1107 3110 1107 
C 2733 1107 2733 646 2029 646 
C 1485 646 1165 1005 1165 1498 
L 3277 1498 
z
M 1165 2035 
C 1267 2490 1549 2778 2016 2778 
C 2432 2778 2752 2464 2803 2035 
L 1165 2035 
z
" transform="scale(0.015625)"/>
      <path id="HelveticaRounded-Bold-4a" d="M 422 384 
C 422 134 525 -83 890 -83 
C 1254 -83 1357 134 1357 384 
L 1357 2963 
C 1357 3213 1254 3430 890 3430 
C 525 3430 422 3213 422 2963 
L 422 384 
z
M 403 4230 
C 403 3962 621 3744 890 3744 
C 1158 3744 1376 3962 1376 4230 
C 1376 4499 1158 4717 890 4717 
C 621 4717 403 4499 403 4230 
z
" transform="scale(0.015625)"/>
      <path id="HelveticaRounded-Bold-4f" d="M 371 384 
C 371 134 474 -83 838 -83 
C 1203 -83 1306 134 1306 384 
L 1306 1926 
C 1306 2394 1690 2662 2016 2662 
C 2419 2662 2605 2394 2605 2016 
L 2605 384 
C 2605 134 2707 -83 3072 -83 
C 3437 -83 3539 134 3539 384 
L 3539 2202 
C 3539 3149 2925 3430 2362 3430 
C 1830 3430 1491 3187 1229 2842 
L 1216 2842 
L 1216 2963 
C 1216 3245 1088 3430 794 3430 
C 499 3430 371 3245 371 2963 
L 371 384 
z
" transform="scale(0.015625)"/>
      <path id="HelveticaRounded-Bold-33" d="M 486 442 
C 486 128 691 -83 1011 -83 
C 1331 -83 1536 128 1536 442 
L 1536 1792 
L 2573 1792 
C 3149 1792 3296 1466 3296 659 
C 3296 474 3341 -83 3917 -83 
C 4160 -83 4410 83 4410 326 
C 4410 544 4269 742 4269 1274 
C 4269 1741 4173 2131 3635 2208 
L 3635 2221 
C 4134 2336 4429 2829 4429 3328 
C 4429 3923 4096 4608 2848 4608 
L 1101 4608 
C 730 4608 486 4461 486 3994 
L 486 442 
z
M 1536 3802 
L 2618 3802 
C 3078 3802 3379 3674 3379 3181 
C 3379 2662 2982 2560 2586 2560 
L 1536 2560 
L 1536 3802 
z
" transform="scale(0.015625)"/>
      <path id="HelveticaRounded-Bold-56" d="M 3539 2963 
C 3539 3213 3437 3430 3072 3430 
C 2707 3430 2605 3213 2605 2963 
L 2605 1421 
C 2605 954 2221 685 1894 685 
C 1491 685 1306 954 1306 1331 
L 1306 2963 
C 1306 3213 1203 3430 838 3430 
C 474 3430 371 3213 371 2963 
L 371 1146 
C 371 198 986 -83 1549 -83 
C 2080 -83 2419 160 2682 506 
L 2694 506 
L 2694 384 
C 2694 102 2822 -83 3117 -83 
C 3411 -83 3539 102 3539 384 
L 3539 2963 
z
" transform="scale(0.015625)"/>
      <path id="HelveticaRounded-Bold-4e" d="M 371 384 
C 371 134 474 -83 838 -83 
C 1203 -83 1306 134 1306 384 
L 1306 1939 
C 1306 2374 1626 2662 1984 2662 
C 2349 2662 2496 2394 2496 2061 
L 2496 384 
C 2496 134 2598 -83 2963 -83 
C 3328 -83 3430 134 3430 384 
L 3430 1939 
C 3430 2374 3750 2662 4109 2662 
C 4474 2662 4621 2394 4621 2061 
L 4621 384 
C 4621 134 4723 -83 5088 -83 
C 5453 -83 5555 134 5555 384 
L 5555 2298 
C 5555 3136 5037 3430 4390 3430 
C 3885 3430 3552 3206 3290 2842 
C 3117 3283 2714 3430 2394 3430 
C 1920 3430 1510 3213 1267 2842 
L 1254 2842 
L 1254 2963 
C 1254 3245 1088 3430 813 3430 
C 538 3430 371 3245 371 2963 
L 371 384 
z
" transform="scale(0.015625)"/>
     </defs>
     <use xlink:href="#HelveticaRounded-Bold-35"/>
     <use xlink:href="#HelveticaRounded-Bold-50" transform="translate(53.09375 0)"/>
     <use xlink:href="#HelveticaRounded-Bold-55" transform="translate(114.296875 0)"/>
     <use xlink:href="#HelveticaRounded-Bold-42" transform="translate(151.296875 0)"/>
     <use xlink:href="#HelveticaRounded-Bold-4d" transform="translate(212.390625 0)"/>
     <use xlink:href="#HelveticaRounded-Bold-1" transform="translate(240.1875 0)"/>
     <use xlink:href="#HelveticaRounded-Bold-34" transform="translate(270.78125 0)"/>
     <use xlink:href="#HelveticaRounded-Bold-46" transform="translate(339.28125 0)"/>
     <use xlink:href="#HelveticaRounded-Bold-54" transform="translate(400.484375 0)"/>
     <use xlink:href="#HelveticaRounded-Bold-54" transform="translate(454.1875 0)"/>
     <use xlink:href="#HelveticaRounded-Bold-4a" transform="translate(507.890625 0)"/>
     <use xlink:href="#HelveticaRounded-Bold-50" transform="translate(535.6875 0)"/>
     <use xlink:href="#HelveticaRounded-Bold-4f" transform="translate(596.890625 0)"/>
     <use xlink:href="#HelveticaRounded-Bold-1" transform="translate(657.984375 0)"/>
     <use xlink:href="#HelveticaRounded-Bold-33" transform="translate(688.578125 0)"/>
     <use xlink:href="#HelveticaRounded-Bold-56" transform="translate(762.671875 0)"/>
     <use xlink:href="#HelveticaRounded-Bold-4f" transform="translate(823.765625 0)"/>
     <use xlink:href="#HelveticaRounded-Bold-55" transform="translate(884.859375 0)"/>
     <use xlink:href="#HelveticaRounded-Bold-4a" transform="translate(921.859375 0)"/>
     <use xlink:href="#HelveticaRounded-Bold-4e" transform="translate(949.65625 0)"/>
     <use xlink:href="#HelveticaRounded-Bold-46" transform="translate(1042.25 0)"/>
    </g>
   </g>
  </g>
 </g>
 <defs>
  <clipPath id="p29a17bb15e">
   <rect x="40.98" y="31.68" width="308.22" height="229.320781"/>
  </clipPath>
 </defs>
</svg>
