<?xml version="1.0" encoding="utf-8" standalone="no"?>
<!DOCTYPE svg PUBLIC "-//W3C//DTD SVG 1.1//EN"
  "http://www.w3.org/Graphics/SVG/1.1/DTD/svg11.dtd">
<svg xmlns:xlink="http://www.w3.org/1999/xlink" width="360pt" height="288pt" viewBox="0 0 360 288" xmlns="http://www.w3.org/2000/svg" version="1.1">
 <metadata>
  <rdf:RDF xmlns:dc="http://purl.org/dc/elements/1.1/" xmlns:cc="http://creativecommons.org/ns#" xmlns:rdf="http://www.w3.org/1999/02/22-rdf-syntax-ns#">
   <cc:Work>
    <dc:type rdf:resource="http://purl.org/dc/dcmitype/StillImage"/>
    <dc:date>2026-07-06T14:23:49.458796</dc:date>
    <dc:format>image/svg+xml</dc:format>
    <dc:creator>
     <cc:Agent>
      <dc:title>Matplotlib v3.11.0, https://matplotlib.org/</dc:title>
     </cc:Agent>
    </dc:creator>
   </cc:Work>
  </rdf:RDF>
 </metadata>
 <defs>
  <style type="text/css">*{stroke-linejoin: round; stroke-linecap: butt}</style>
 </defs>
 <g id="figure_1">
  <g id="patch_1">
   <path d="M 0 288 
L 360 288 
L 360 0 
L 0 0 
z
" style="fill: #ffffff"/>
  </g>
  <g id="axes_1">
   <g id="patch_2">
    <path d="M 46.5 261.000781 
L 349.2 261.000781 
L 349.2 31.68 
L 46.5 31.68 
z
" style="fill: #ffffff"/>
   </g>
   <g id="patch_3">
    <path d="M 60.259091 261.000781 
L 138.882468 261.000781 
L 138.882468 42.600037 
L 60.259091 42.600037 
z
" clip-path="url(#p59e03f7e93)" style="fill: #9ca3af"/>
   </g>
   <g id="patch_4">
    <path d="M 256.817532 261.000781 
L 335.440909 261.000781 
L 335.440909 157.363935 
L 256.817532 157.363935 
z
" clip-path="url(#p59e03f7e93)" style="fill: #6366f1"/>
   </g>
   <g id="matplotlib.axis_1">
    <g id="xtick_1">
     <g id="line2d_1">
      <defs>
       <path id="m392cdf115b" d="M 0 0 
L 0 3.5 
" style="stroke: #4b5563; stroke-width: 0.8"/>
      </defs>
      <g>
       <use xlink:href="#m392cdf115b" x="99.570779" y="261.000781" style="fill: #4b5563; stroke: #4b5563; stroke-width: 0.8"/>
      </g>
     </g>
     <g id="text_1">
      <!-- Baseline FL -->
      <g style="fill: #4b5563" transform="translate(73.168435 275.500781) scale(0.1 -0.1)">
       <defs>
        <path id="Helvetica-25" d="M 2213 2650 
Q 2606 2650 2825 2759 
Q 3169 2931 3169 3378 
Q 3169 3828 2803 3984 
Q 2597 4072 2191 4072 
L 1081 4072 
L 1081 2650 
L 2213 2650 
z
M 2422 531 
Q 2994 531 3238 863 
Q 3391 1072 3391 1369 
Q 3391 1869 2944 2050 
Q 2706 2147 2316 2147 
L 1081 2147 
L 1081 531 
L 2422 531 
z
M 472 4591 
L 2444 4591 
Q 3250 4591 3591 4109 
Q 3791 3825 3791 3453 
Q 3791 3019 3544 2741 
Q 3416 2594 3175 2472 
Q 3528 2338 3703 2169 
Q 4013 1869 4013 1341 
Q 4013 897 3734 538 
Q 3319 0 2413 0 
L 472 0 
L 472 4591 
z
" transform="scale(0.015625)"/>
        <path id="Helvetica-44" d="M 844 891 
Q 844 647 1022 506 
Q 1200 366 1444 366 
Q 1741 366 2019 503 
Q 2488 731 2488 1250 
L 2488 1703 
Q 2384 1638 2221 1594 
Q 2059 1550 1903 1531 
L 1563 1488 
Q 1256 1447 1103 1359 
Q 844 1213 844 891 
z
M 2206 2028 
Q 2400 2053 2466 2191 
Q 2503 2266 2503 2406 
Q 2503 2694 2298 2823 
Q 2094 2953 1713 2953 
Q 1272 2953 1088 2716 
Q 984 2584 953 2325 
L 428 2325 
Q 444 2944 830 3186 
Q 1216 3428 1725 3428 
Q 2316 3428 2684 3203 
Q 3050 2978 3050 2503 
L 3050 575 
Q 3050 488 3086 434 
Q 3122 381 3238 381 
Q 3275 381 3322 386 
Q 3369 391 3422 400 
L 3422 -16 
Q 3291 -53 3222 -62 
Q 3153 -72 3034 -72 
Q 2744 -72 2613 134 
Q 2544 244 2516 444 
Q 2344 219 2022 53 
Q 1700 -113 1313 -113 
Q 847 -113 551 170 
Q 256 453 256 878 
Q 256 1344 547 1600 
Q 838 1856 1309 1916 
L 2206 2028 
z
M 1741 3428 
L 1741 3428 
z
" transform="scale(0.015625)"/>
        <path id="Helvetica-56" d="M 747 1050 
Q 772 769 888 619 
Q 1100 347 1625 347 
Q 1938 347 2175 483 
Q 2413 619 2413 903 
Q 2413 1119 2222 1231 
Q 2100 1300 1741 1391 
L 1294 1503 
Q 866 1609 663 1741 
Q 300 1969 300 2372 
Q 300 2847 642 3140 
Q 984 3434 1563 3434 
Q 2319 3434 2653 2991 
Q 2863 2709 2856 2384 
L 2325 2384 
Q 2309 2575 2191 2731 
Q 1997 2953 1519 2953 
Q 1200 2953 1036 2831 
Q 872 2709 872 2509 
Q 872 2291 1088 2159 
Q 1213 2081 1456 2022 
L 1828 1931 
Q 2434 1784 2641 1647 
Q 2969 1431 2969 969 
Q 2969 522 2630 197 
Q 2291 -128 1597 -128 
Q 850 -128 539 211 
Q 228 550 206 1050 
L 747 1050 
z
M 1578 3428 
L 1578 3428 
z
" transform="scale(0.015625)"/>
        <path id="Helvetica-48" d="M 1806 3422 
Q 2163 3422 2497 3255 
Q 2831 3088 3006 2822 
Q 3175 2569 3231 2231 
Q 3281 2000 3281 1494 
L 828 1494 
Q 844 984 1069 676 
Q 1294 369 1766 369 
Q 2206 369 2469 659 
Q 2619 828 2681 1050 
L 3234 1050 
Q 3213 866 3089 639 
Q 2966 413 2813 269 
Q 2556 19 2178 -69 
Q 1975 -119 1719 -119 
Q 1094 -119 659 336 
Q 225 791 225 1609 
Q 225 2416 662 2919 
Q 1100 3422 1806 3422 
z
M 2703 1941 
Q 2669 2306 2544 2525 
Q 2313 2931 1772 2931 
Q 1384 2931 1121 2651 
Q 859 2372 844 1941 
L 2703 1941 
z
M 1753 3428 
L 1753 3428 
z
" transform="scale(0.015625)"/>
        <path id="Helvetica-4f" d="M 428 4591 
L 991 4591 
L 991 0 
L 428 0 
L 428 4591 
z
" transform="scale(0.015625)"/>
        <path id="Helvetica-4c" d="M 413 3331 
L 984 3331 
L 984 0 
L 413 0 
L 413 3331 
z
M 413 4591 
L 984 4591 
L 984 3953 
L 413 3953 
L 413 4591 
z
" transform="scale(0.015625)"/>
        <path id="Helvetica-51" d="M 413 3347 
L 947 3347 
L 947 2872 
Q 1184 3166 1450 3294 
Q 1716 3422 2041 3422 
Q 2753 3422 3003 2925 
Q 3141 2653 3141 2147 
L 3141 0 
L 2569 0 
L 2569 2109 
Q 2569 2416 2478 2603 
Q 2328 2916 1934 2916 
Q 1734 2916 1606 2875 
Q 1375 2806 1200 2600 
Q 1059 2434 1017 2257 
Q 975 2081 975 1753 
L 975 0 
L 413 0 
L 413 3347 
z
M 1734 3428 
L 1734 3428 
z
" transform="scale(0.015625)"/>
        <path id="Helvetica-3" transform="scale(0.015625)"/>
        <path id="Helvetica-29" d="M 547 4591 
L 3731 4591 
L 3731 4028 
L 1169 4028 
L 1169 2634 
L 3422 2634 
L 3422 2088 
L 1169 2088 
L 1169 0 
L 547 0 
L 547 4591 
z
" transform="scale(0.015625)"/>
        <path id="Helvetica-2f" d="M 488 4591 
L 1109 4591 
L 1109 547 
L 3434 547 
L 3434 0 
L 488 0 
L 488 4591 
z
" transform="scale(0.015625)"/>
       </defs>
       <use xlink:href="#Helvetica-25"/>
       <use xlink:href="#Helvetica-44" transform="translate(66.703125 0)"/>
       <use xlink:href="#Helvetica-56" transform="translate(122.3125 0)"/>
       <use xlink:href="#Helvetica-48" transform="translate(172.3125 0)"/>
       <use xlink:href="#Helvetica-4f" transform="translate(227.921875 0)"/>
       <use xlink:href="#Helvetica-4c" transform="translate(250.140625 0)"/>
       <use xlink:href="#Helvetica-51" transform="translate(272.359375 0)"/>
       <use xlink:href="#Helvetica-48" transform="translate(327.96875 0)"/>
       <use xlink:href="#Helvetica-3" transform="translate(383.578125 0)"/>
       <use xlink:href="#Helvetica-29" transform="translate(411.359375 0)"/>
       <use xlink:href="#Helvetica-2f" transform="translate(472.4375 0)"/>
      </g>
     </g>
    </g>
    <g id="xtick_2">
     <g id="line2d_2">
      <g>
       <use xlink:href="#m392cdf115b" x="296.129221" y="261.000781" style="fill: #4b5563; stroke: #4b5563; stroke-width: 0.8"/>
      </g>
     </g>
     <g id="text_2">
      <!-- Conclave -->
      <g style="fill: #4b5563" transform="translate(275.285471 275.500781) scale(0.1 -0.1)">
       <defs>
        <path id="Helvetica-26" d="M 2422 4716 
Q 3294 4716 3775 4256 
Q 4256 3797 4309 3213 
L 3703 3213 
Q 3600 3656 3292 3915 
Q 2984 4175 2428 4175 
Q 1750 4175 1333 3698 
Q 916 3222 916 2238 
Q 916 1431 1292 929 
Q 1669 428 2416 428 
Q 3103 428 3463 956 
Q 3653 1234 3747 1688 
L 4353 1688 
Q 4272 963 3816 472 
Q 3269 -119 2341 -119 
Q 1541 -119 997 366 
Q 281 1006 281 2344 
Q 281 3359 819 4009 
Q 1400 4716 2422 4716 
z
M 2297 4716 
L 2297 4716 
z
" transform="scale(0.015625)"/>
        <path id="Helvetica-52" d="M 1741 363 
Q 2300 363 2508 786 
Q 2716 1209 2716 1728 
Q 2716 2197 2566 2491 
Q 2328 2953 1747 2953 
Q 1231 2953 997 2559 
Q 763 2166 763 1609 
Q 763 1075 997 719 
Q 1231 363 1741 363 
z
M 1763 3444 
Q 2409 3444 2856 3012 
Q 3303 2581 3303 1744 
Q 3303 934 2909 406 
Q 2516 -122 1688 -122 
Q 997 -122 590 345 
Q 184 813 184 1600 
Q 184 2444 612 2944 
Q 1041 3444 1763 3444 
z
M 1744 3428 
L 1744 3428 
z
" transform="scale(0.015625)"/>
        <path id="Helvetica-46" d="M 1703 3444 
Q 2269 3444 2623 3169 
Q 2978 2894 3050 2222 
L 2503 2222 
Q 2453 2531 2275 2736 
Q 2097 2941 1703 2941 
Q 1166 2941 934 2416 
Q 784 2075 784 1575 
Q 784 1072 996 728 
Q 1209 384 1666 384 
Q 2016 384 2220 598 
Q 2425 813 2503 1184 
L 3050 1184 
Q 2956 519 2581 211 
Q 2206 -97 1622 -97 
Q 966 -97 575 383 
Q 184 863 184 1581 
Q 184 2463 612 2953 
Q 1041 3444 1703 3444 
z
M 1616 3428 
L 1616 3428 
z
" transform="scale(0.015625)"/>
        <path id="Helvetica-59" d="M 688 3347 
L 1581 622 
L 2516 3347 
L 3131 3347 
L 1869 0 
L 1269 0 
L 34 3347 
L 688 3347 
z
" transform="scale(0.015625)"/>
       </defs>
       <use xlink:href="#Helvetica-26"/>
       <use xlink:href="#Helvetica-52" transform="translate(72.21875 0)"/>
       <use xlink:href="#Helvetica-51" transform="translate(127.828125 0)"/>
       <use xlink:href="#Helvetica-46" transform="translate(183.4375 0)"/>
       <use xlink:href="#Helvetica-4f" transform="translate(233.4375 0)"/>
       <use xlink:href="#Helvetica-44" transform="translate(255.65625 0)"/>
       <use xlink:href="#Helvetica-59" transform="translate(311.265625 0)"/>
       <use xlink:href="#Helvetica-48" transform="translate(361.265625 0)"/>
      </g>
     </g>
    </g>
   </g>
   <g id="matplotlib.axis_2">
    <g id="ytick_1">
     <g id="line2d_3">
      <path d="M 46.5 261.000781 
L 349.2 261.000781 
" clip-path="url(#p59e03f7e93)" style="fill: none; stroke-dasharray: 1.85,0.8; stroke-dashoffset: 0; stroke: #e5e7eb; stroke-opacity: 0.7; stroke-width: 0.5"/>
     </g>
     <g id="line2d_4">
      <defs>
       <path id="m58bfcdfdd5" d="M 0 0 
L -3.5 0 
" style="stroke: #4b5563; stroke-width: 0.8"/>
      </defs>
      <g>
       <use xlink:href="#m58bfcdfdd5" x="46.5" y="261.000781" style="fill: #4b5563; stroke: #4b5563; stroke-width: 0.8"/>
      </g>
     </g>
     <g id="text_3">
      <!-- 0 -->
      <g style="fill: #4b5563" transform="translate(33.939063 264.750781) scale(0.1 -0.1)">
       <defs>
        <path id="Helvetica-13" d="M 1731 4475 
Q 2600 4475 2988 3759 
Q 3288 3206 3288 2244 
Q 3288 1331 3016 734 
Q 2622 -122 1728 -122 
Q 922 -122 528 578 
Q 200 1163 200 2147 
Q 200 2909 397 3456 
Q 766 4475 1731 4475 
z
M 1725 391 
Q 2163 391 2422 778 
Q 2681 1166 2681 2222 
Q 2681 2984 2493 3476 
Q 2306 3969 1766 3969 
Q 1269 3969 1039 3501 
Q 809 3034 809 2125 
Q 809 1441 956 1025 
Q 1181 391 1725 391 
z
" transform="scale(0.015625)"/>
       </defs>
       <use xlink:href="#Helvetica-13"/>
      </g>
     </g>
    </g>
    <g id="ytick_2">
     <g id="line2d_5">
      <path d="M 46.5 235.123916 
L 349.2 235.123916 
" clip-path="url(#p59e03f7e93)" style="fill: none; stroke-dasharray: 1.85,0.8; stroke-dashoffset: 0; stroke: #e5e7eb; stroke-opacity: 0.7; stroke-width: 0.5"/>
     </g>
     <g id="line2d_6">
      <g>
       <use xlink:href="#m58bfcdfdd5" x="46.5" y="235.123916" style="fill: #4b5563; stroke: #4b5563; stroke-width: 0.8"/>
      </g>
     </g>
     <g id="text_4">
      <!-- 2 -->
      <g style="fill: #4b5563" transform="translate(33.939063 238.873916) scale(0.1 -0.1)">
       <defs>
        <path id="Helvetica-15" d="M 200 0 
Q 231 578 439 1006 
Q 647 1434 1250 1784 
L 1850 2131 
Q 2253 2366 2416 2531 
Q 2672 2791 2672 3125 
Q 2672 3516 2437 3745 
Q 2203 3975 1813 3975 
Q 1234 3975 1013 3538 
Q 894 3303 881 2888 
L 309 2888 
Q 319 3472 525 3841 
Q 891 4491 1816 4491 
Q 2584 4491 2939 4075 
Q 3294 3659 3294 3150 
Q 3294 2613 2916 2231 
Q 2697 2009 2131 1694 
L 1703 1456 
Q 1397 1288 1222 1134 
Q 909 863 828 531 
L 3272 531 
L 3272 0 
L 200 0 
z
" transform="scale(0.015625)"/>
       </defs>
       <use xlink:href="#Helvetica-15"/>
      </g>
     </g>
    </g>
    <g id="ytick_3">
     <g id="line2d_7">
      <path d="M 46.5 209.24705 
L 349.2 209.24705 
" clip-path="url(#p59e03f7e93)" style="fill: none; stroke-dasharray: 1.85,0.8; stroke-dashoffset: 0; stroke: #e5e7eb; stroke-opacity: 0.7; stroke-width: 0.5"/>
     </g>
     <g id="line2d_8">
      <g>
       <use xlink:href="#m58bfcdfdd5" x="46.5" y="209.24705" style="fill: #4b5563; stroke: #4b5563; stroke-width: 0.8"/>
      </g>
     </g>
     <g id="text_5">
      <!-- 4 -->
      <g style="fill: #4b5563" transform="translate(33.939063 212.99705) scale(0.1 -0.1)">
       <defs>
        <path id="Helvetica-17" d="M 2116 1584 
L 2116 3613 
L 681 1584 
L 2116 1584 
z
M 2125 0 
L 2125 1094 
L 163 1094 
L 163 1644 
L 2213 4488 
L 2688 4488 
L 2688 1584 
L 3347 1584 
L 3347 1094 
L 2688 1094 
L 2688 0 
L 2125 0 
z
" transform="scale(0.015625)"/>
       </defs>
       <use xlink:href="#Helvetica-17"/>
      </g>
     </g>
    </g>
    <g id="ytick_4">
     <g id="line2d_9">
      <path d="M 46.5 183.370185 
L 349.2 183.370185 
" clip-path="url(#p59e03f7e93)" style="fill: none; stroke-dasharray: 1.85,0.8; stroke-dashoffset: 0; stroke: #e5e7eb; stroke-opacity: 0.7; stroke-width: 0.5"/>
     </g>
     <g id="line2d_10">
      <g>
       <use xlink:href="#m58bfcdfdd5" x="46.5" y="183.370185" style="fill: #4b5563; stroke: #4b5563; stroke-width: 0.8"/>
      </g>
     </g>
     <g id="text_6">
      <!-- 6 -->
      <g style="fill: #4b5563" transform="translate(33.939063 187.120185) scale(0.1 -0.1)">
       <defs>
        <path id="Helvetica-19" d="M 1872 4494 
Q 2622 4494 2917 4105 
Q 3213 3716 3213 3303 
L 2656 3303 
Q 2606 3569 2497 3719 
Q 2294 4000 1881 4000 
Q 1409 4000 1131 3564 
Q 853 3128 822 2316 
Q 1016 2600 1309 2741 
Q 1578 2866 1909 2866 
Q 2472 2866 2890 2506 
Q 3309 2147 3309 1434 
Q 3309 825 2912 354 
Q 2516 -116 1781 -116 
Q 1153 -116 697 361 
Q 241 838 241 1966 
Q 241 2800 444 3381 
Q 834 4494 1872 4494 
z
M 1831 384 
Q 2275 384 2495 682 
Q 2716 981 2716 1388 
Q 2716 1731 2519 2042 
Q 2322 2353 1803 2353 
Q 1441 2353 1167 2112 
Q 894 1872 894 1388 
Q 894 963 1142 673 
Q 1391 384 1831 384 
z
" transform="scale(0.015625)"/>
       </defs>
       <use xlink:href="#Helvetica-19"/>
      </g>
     </g>
    </g>
    <g id="ytick_5">
     <g id="line2d_11">
      <path d="M 46.5 157.49332 
L 349.2 157.49332 
" clip-path="url(#p59e03f7e93)" style="fill: none; stroke-dasharray: 1.85,0.8; stroke-dashoffset: 0; stroke: #e5e7eb; stroke-opacity: 0.7; stroke-width: 0.5"/>
     </g>
     <g id="line2d_12">
      <g>
       <use xlink:href="#m58bfcdfdd5" x="46.5" y="157.49332" style="fill: #4b5563; stroke: #4b5563; stroke-width: 0.8"/>
      </g>
     </g>
     <g id="text_7">
      <!-- 8 -->
      <g style="fill: #4b5563" transform="translate(33.939063 161.24332) scale(0.1 -0.1)">
       <defs>
        <path id="Helvetica-1b" d="M 1741 2600 
Q 2113 2600 2322 2808 
Q 2531 3016 2531 3303 
Q 2531 3553 2331 3762 
Q 2131 3972 1722 3972 
Q 1316 3972 1134 3762 
Q 953 3553 953 3272 
Q 953 2956 1187 2778 
Q 1422 2600 1741 2600 
z
M 1775 384 
Q 2166 384 2423 595 
Q 2681 806 2681 1225 
Q 2681 1659 2415 1884 
Q 2150 2109 1734 2109 
Q 1331 2109 1076 1879 
Q 822 1650 822 1244 
Q 822 894 1055 639 
Q 1288 384 1775 384 
z
M 975 2384 
Q 741 2484 609 2619 
Q 363 2869 363 3269 
Q 363 3769 725 4128 
Q 1088 4488 1753 4488 
Q 2397 4488 2762 4148 
Q 3128 3809 3128 3356 
Q 3128 2938 2916 2678 
Q 2797 2531 2547 2391 
Q 2825 2263 2984 2097 
Q 3281 1784 3281 1284 
Q 3281 694 2884 283 
Q 2488 -128 1763 -128 
Q 1109 -128 657 226 
Q 206 581 206 1256 
Q 206 1653 400 1942 
Q 594 2231 975 2384 
z
" transform="scale(0.015625)"/>
       </defs>
       <use xlink:href="#Helvetica-1b"/>
      </g>
     </g>
    </g>
    <g id="ytick_6">
     <g id="line2d_13">
      <path d="M 46.5 131.616454 
L 349.2 131.616454 
" clip-path="url(#p59e03f7e93)" style="fill: none; stroke-dasharray: 1.85,0.8; stroke-dashoffset: 0; stroke: #e5e7eb; stroke-opacity: 0.7; stroke-width: 0.5"/>
     </g>
     <g id="line2d_14">
      <g>
       <use xlink:href="#m58bfcdfdd5" x="46.5" y="131.616454" style="fill: #4b5563; stroke: #4b5563; stroke-width: 0.8"/>
      </g>
     </g>
     <g id="text_8">
      <!-- 10 -->
      <g style="fill: #4b5563" transform="translate(28.378125 135.366454) scale(0.1 -0.1)">
       <defs>
        <path id="Helvetica-14" d="M 613 3169 
L 613 3600 
Q 1222 3659 1462 3798 
Q 1703 3938 1822 4456 
L 2266 4456 
L 2266 0 
L 1666 0 
L 1666 3169 
L 613 3169 
z
" transform="scale(0.015625)"/>
       </defs>
       <use xlink:href="#Helvetica-14"/>
       <use xlink:href="#Helvetica-13" transform="translate(55.609375 0)"/>
      </g>
     </g>
    </g>
    <g id="ytick_7">
     <g id="line2d_15">
      <path d="M 46.5 105.739589 
L 349.2 105.739589 
" clip-path="url(#p59e03f7e93)" style="fill: none; stroke-dasharray: 1.85,0.8; stroke-dashoffset: 0; stroke: #e5e7eb; stroke-opacity: 0.7; stroke-width: 0.5"/>
     </g>
     <g id="line2d_16">
      <g>
       <use xlink:href="#m58bfcdfdd5" x="46.5" y="105.739589" style="fill: #4b5563; stroke: #4b5563; stroke-width: 0.8"/>
      </g>
     </g>
     <g id="text_9">
      <!-- 12 -->
      <g style="fill: #4b5563" transform="translate(28.378125 109.489589) scale(0.1 -0.1)">
       <use xlink:href="#Helvetica-14"/>
       <use xlink:href="#Helvetica-15" transform="translate(55.609375 0)"/>
      </g>
     </g>
    </g>
    <g id="ytick_8">
     <g id="line2d_17">
      <path d="M 46.5 79.862723 
L 349.2 79.862723 
" clip-path="url(#p59e03f7e93)" style="fill: none; stroke-dasharray: 1.85,0.8; stroke-dashoffset: 0; stroke: #e5e7eb; stroke-opacity: 0.7; stroke-width: 0.5"/>
     </g>
     <g id="line2d_18">
      <g>
       <use xlink:href="#m58bfcdfdd5" x="46.5" y="79.862723" style="fill: #4b5563; stroke: #4b5563; stroke-width: 0.8"/>
      </g>
     </g>
     <g id="text_10">
      <!-- 14 -->
      <g style="fill: #4b5563" transform="translate(28.378125 83.612723) scale(0.1 -0.1)">
       <use xlink:href="#Helvetica-14"/>
       <use xlink:href="#Helvetica-17" transform="translate(55.609375 0)"/>
      </g>
     </g>
    </g>
    <g id="ytick_9">
     <g id="line2d_19">
      <path d="M 46.5 53.985858 
L 349.2 53.985858 
" clip-path="url(#p59e03f7e93)" style="fill: none; stroke-dasharray: 1.85,0.8; stroke-dashoffset: 0; stroke: #e5e7eb; stroke-opacity: 0.7; stroke-width: 0.5"/>
     </g>
     <g id="line2d_20">
      <g>
       <use xlink:href="#m58bfcdfdd5" x="46.5" y="53.985858" style="fill: #4b5563; stroke: #4b5563; stroke-width: 0.8"/>
      </g>
     </g>
     <g id="text_11">
      <!-- 16 -->
      <g style="fill: #4b5563" transform="translate(28.378125 57.735858) scale(0.1 -0.1)">
       <use xlink:href="#Helvetica-14"/>
       <use xlink:href="#Helvetica-19" transform="translate(55.609375 0)"/>
      </g>
     </g>
    </g>
    <g id="text_12">
     <!-- CPU Usage (%) -->
     <g transform="translate(18.165625 181.903672) rotate(-90) scale(0.1 -0.1)">
      <defs>
       <path id="Helvetica-33" d="M 547 4591 
L 2613 4591 
Q 3225 4591 3600 4245 
Q 3975 3900 3975 3275 
Q 3975 2738 3640 2339 
Q 3306 1941 2613 1941 
L 1169 1941 
L 1169 0 
L 547 0 
L 547 4591 
z
M 3347 3272 
Q 3347 3778 2972 3959 
Q 2766 4056 2406 4056 
L 1169 4056 
L 1169 2466 
L 2406 2466 
Q 2825 2466 3086 2644 
Q 3347 2822 3347 3272 
z
" transform="scale(0.015625)"/>
       <path id="Helvetica-38" d="M 1163 4591 
L 1163 1753 
Q 1163 1253 1350 922 
Q 1628 422 2288 422 
Q 3078 422 3363 963 
Q 3516 1256 3516 1753 
L 3516 4591 
L 4147 4591 
L 4147 2013 
Q 4147 1166 3919 709 
Q 3500 -122 2338 -122 
Q 1175 -122 759 709 
Q 531 1166 531 2013 
L 531 4591 
L 1163 4591 
z
M 2341 4591 
L 2341 4591 
z
" transform="scale(0.015625)"/>
       <path id="Helvetica-4a" d="M 1594 3406 
Q 1988 3406 2281 3213 
Q 2441 3103 2606 2894 
L 2606 3316 
L 3125 3316 
L 3125 272 
Q 3125 -366 2938 -734 
Q 2588 -1416 1616 -1416 
Q 1075 -1416 706 -1173 
Q 338 -931 294 -416 
L 866 -416 
Q 906 -641 1028 -763 
Q 1219 -950 1628 -950 
Q 2275 -950 2475 -494 
Q 2594 -225 2584 466 
Q 2416 209 2178 84 
Q 1941 -41 1550 -41 
Q 1006 -41 598 345 
Q 191 731 191 1622 
Q 191 2463 602 2934 
Q 1013 3406 1594 3406 
z
M 2606 1688 
Q 2606 2309 2350 2609 
Q 2094 2909 1697 2909 
Q 1103 2909 884 2353 
Q 769 2056 769 1575 
Q 769 1009 998 714 
Q 1228 419 1616 419 
Q 2222 419 2469 966 
Q 2606 1275 2606 1688 
z
M 1659 3428 
L 1659 3428 
z
" transform="scale(0.015625)"/>
       <path id="Helvetica-b" d="M 1894 4666 
Q 1403 3713 1256 3263 
Q 1034 2578 1034 1681 
Q 1034 775 1288 25 
Q 1444 -438 1903 -1306 
L 1525 -1306 
Q 1069 -594 959 -397 
Q 850 -200 722 138 
Q 547 600 478 1125 
Q 444 1397 444 1644 
Q 444 2569 734 3291 
Q 919 3750 1503 4666 
L 1894 4666 
z
" transform="scale(0.015625)"/>
       <path id="Helvetica-8" d="M 4363 2175 
Q 4813 2175 5131 1856 
Q 5450 1538 5450 1088 
Q 5450 638 5131 319 
Q 4813 0 4363 0 
Q 3909 0 3590 319 
Q 3272 638 3272 1088 
Q 3272 1538 3590 1856 
Q 3909 2175 4363 2175 
z
M 3909 4456 
L 4256 4456 
L 1753 -119 
L 1406 -119 
L 3909 4456 
z
M 1294 2606 
Q 1563 2606 1752 2795 
Q 1941 2984 1941 3250 
Q 1941 3516 1752 3705 
Q 1563 3894 1294 3894 
Q 1028 3894 839 3706 
Q 650 3519 650 3250 
Q 650 2984 839 2795 
Q 1028 2606 1294 2606 
z
M 1294 4341 
Q 1747 4341 2065 4020 
Q 2384 3700 2384 3250 
Q 2384 2800 2065 2481 
Q 1747 2163 1294 2163 
Q 844 2163 525 2481 
Q 206 2800 206 3250 
Q 206 3700 525 4020 
Q 844 4341 1294 4341 
z
M 4363 444 
Q 4628 444 4817 633 
Q 5006 822 5006 1088 
Q 5006 1353 4817 1542 
Q 4628 1731 4363 1731 
Q 4094 1731 3905 1542 
Q 3716 1353 3716 1088 
Q 3716 822 3905 633 
Q 4094 444 4363 444 
z
" transform="scale(0.015625)"/>
       <path id="Helvetica-c" d="M 222 -1306 
Q 719 -338 863 106 
Q 1081 778 1081 1681 
Q 1081 2584 828 3334 
Q 672 3797 213 4666 
L 591 4666 
Q 1072 3897 1173 3717 
Q 1275 3538 1394 3222 
Q 1544 2831 1608 2450 
Q 1672 2069 1672 1716 
Q 1672 791 1378 66 
Q 1194 -400 613 -1306 
L 222 -1306 
z
" transform="scale(0.015625)"/>
      </defs>
      <use xlink:href="#Helvetica-26"/>
      <use xlink:href="#Helvetica-33" transform="translate(72.21875 0)"/>
      <use xlink:href="#Helvetica-38" transform="translate(138.921875 0)"/>
      <use xlink:href="#Helvetica-3" transform="translate(211.140625 0)"/>
      <use xlink:href="#Helvetica-38" transform="translate(238.921875 0)"/>
      <use xlink:href="#Helvetica-56" transform="translate(311.140625 0)"/>
      <use xlink:href="#Helvetica-44" transform="translate(361.140625 0)"/>
      <use xlink:href="#Helvetica-4a" transform="translate(416.75 0)"/>
      <use xlink:href="#Helvetica-48" transform="translate(472.359375 0)"/>
      <use xlink:href="#Helvetica-3" transform="translate(527.96875 0)"/>
      <use xlink:href="#Helvetica-b" transform="translate(555.75 0)"/>
      <use xlink:href="#Helvetica-8" transform="translate(589.046875 0)"/>
      <use xlink:href="#Helvetica-c" transform="translate(677.96875 0)"/>
     </g>
    </g>
   </g>
   <g id="patch_5">
    <path d="M 46.5 261.000781 
L 46.5 31.68 
" style="fill: none; stroke: #9ca3af; stroke-width: 0.8; stroke-linejoin: miter; stroke-linecap: square"/>
   </g>
   <g id="patch_6">
    <path d="M 46.5 261.000781 
L 349.2 261.000781 
" style="fill: none; stroke: #9ca3af; stroke-width: 0.8; stroke-linejoin: miter; stroke-linecap: square"/>
   </g>
   <g id="text_13">
    <!-- 16.9% -->
    <g style="fill: #1f2937" transform="translate(86.354139 37.737037) scale(0.09 -0.09)">
     <defs>
      <path id="HelveticaRounded-Bold-12" d="M 1094 480 
C 1094 147 1222 -83 1581 -83 
C 1939 -83 2067 147 2067 480 
L 2067 4115 
C 2067 4461 1901 4550 1696 4550 
C 1152 4550 1350 3821 640 3667 
L 403 3616 
C 70 3552 -58 3488 -58 3251 
C -58 2989 58 2912 269 2912 
L 1094 2912 
L 1094 480 
z
" transform="scale(0.015625)"/>
      <path id="HelveticaRounded-Bold-17" d="M 1184 2624 
C 1184 3213 1427 3859 2093 3859 
C 2611 3859 2630 3309 3053 3309 
C 3277 3309 3456 3494 3456 3725 
C 3456 4115 2938 4550 2176 4550 
C 986 4550 250 3878 250 1984 
C 250 973 653 -83 2010 -83 
C 2944 -83 3667 448 3667 1504 
C 3667 2278 3142 2918 2182 2918 
C 1754 2918 1459 2771 1184 2509 
L 1184 2624 
z
M 1242 1440 
C 1242 1946 1574 2227 1990 2227 
C 2413 2227 2733 1984 2733 1440 
C 2733 947 2451 646 1990 646 
C 1530 646 1242 947 1242 1440 
z
" transform="scale(0.015625)"/>
      <path id="HelveticaRounded-Bold-f" d="M 454 480 
C 454 192 691 -45 979 -45 
C 1267 -45 1504 192 1504 480 
C 1504 768 1267 1005 979 1005 
C 691 1005 454 768 454 480 
z
" transform="scale(0.015625)"/>
      <path id="HelveticaRounded-Bold-1a" d="M 2733 1843 
C 2733 1254 2490 608 1824 608 
C 1306 608 1286 1158 864 1158 
C 640 1158 461 973 461 742 
C 461 352 979 -83 1741 -83 
C 2931 -83 3667 589 3667 2483 
C 3667 3494 3264 4550 1907 4550 
C 973 4550 250 4019 250 2963 
C 250 2189 774 1549 1734 1549 
C 2163 1549 2458 1696 2733 1958 
L 2733 1843 
z
M 2675 3027 
C 2675 2522 2342 2240 1926 2240 
C 1504 2240 1184 2483 1184 3027 
C 1184 3520 1466 3821 1926 3821 
C 2387 3821 2675 3520 2675 3027 
z
" transform="scale(0.015625)"/>
      <path id="HelveticaRounded-Bold-6" d="M 506 3328 
C 506 2637 806 2106 1581 2106 
C 2355 2106 2656 2637 2656 3328 
C 2656 4019 2355 4550 1581 4550 
C 806 4550 506 4019 506 3328 
z
M 1197 3328 
C 1197 3712 1286 4051 1581 4051 
C 1875 4051 1965 3712 1965 3328 
C 1965 2918 1875 2605 1581 2605 
C 1286 2605 1197 2918 1197 3328 
z
M 3744 1139 
C 3744 448 4045 -83 4819 -83 
C 5594 -83 5894 448 5894 1139 
C 5894 1830 5594 2362 4819 2362 
C 4045 2362 3744 1830 3744 1139 
z
M 4435 1139 
C 4435 1523 4525 1862 4819 1862 
C 5114 1862 5203 1523 5203 1139 
C 5203 730 5114 416 4819 416 
C 4525 416 4435 730 4435 1139 
z
M 1837 186 
C 1792 102 1766 32 1766 -32 
C 1766 -141 1875 -250 2016 -250 
C 2144 -250 2221 -154 2266 -70 
L 4570 4282 
C 4614 4365 4640 4435 4640 4499 
C 4640 4608 4531 4717 4390 4717 
C 4262 4717 4186 4621 4141 4538 
L 1837 186 
z
" transform="scale(0.015625)"/>
     </defs>
     <use xlink:href="#HelveticaRounded-Bold-12"/>
     <use xlink:href="#HelveticaRounded-Bold-17" transform="translate(40.703125 0)"/>
     <use xlink:href="#HelveticaRounded-Bold-f" transform="translate(101.90625 0)"/>
     <use xlink:href="#HelveticaRounded-Bold-1a" transform="translate(132.5 0)"/>
     <use xlink:href="#HelveticaRounded-Bold-6" transform="translate(193.703125 0)"/>
    </g>
   </g>
   <g id="text_14">
    <!-- 8.0% -->
    <g style="fill: #1f2937" transform="translate(284.744221 152.500935) scale(0.09 -0.09)">
     <defs>
      <path id="HelveticaRounded-Bold-19" d="M 250 1350 
C 250 269 1171 -83 1958 -83 
C 2746 -83 3667 269 3667 1350 
C 3667 1843 3424 2240 2944 2394 
C 3309 2566 3539 2931 3539 3334 
C 3539 4038 2944 4550 1958 4550 
C 973 4550 378 4038 378 3334 
C 378 2931 608 2566 973 2394 
C 493 2240 250 1843 250 1350 
z
M 1184 1344 
C 1184 1619 1376 2067 1958 2067 
C 2541 2067 2733 1619 2733 1344 
C 2733 902 2413 646 1958 646 
C 1504 646 1184 902 1184 1344 
z
M 1274 3270 
C 1274 3648 1574 3859 1958 3859 
C 2342 3859 2643 3648 2643 3270 
C 2643 2867 2342 2682 1958 2682 
C 1574 2682 1274 2867 1274 3270 
z
" transform="scale(0.015625)"/>
      <path id="HelveticaRounded-Bold-11" d="M 1184 2234 
C 1184 3194 1395 3782 1958 3782 
C 2522 3782 2733 3194 2733 2234 
C 2733 1088 2451 685 1958 685 
C 1466 685 1184 1088 1184 2234 
z
M 250 2291 
C 250 1158 608 -83 1958 -83 
C 3309 -83 3667 1158 3667 2291 
C 3667 3802 2995 4550 1958 4550 
C 922 4550 250 3802 250 2291 
z
" transform="scale(0.015625)"/>
     </defs>
     <use xlink:href="#HelveticaRounded-Bold-19"/>
     <use xlink:href="#HelveticaRounded-Bold-f" transform="translate(61.203125 0)"/>
     <use xlink:href="#HelveticaRounded-Bold-11" transform="translate(91.796875 0)"/>
     <use xlink:href="#HelveticaRounded-Bold-6" transform="translate(153 0)"/>
    </g>
   </g>
   <g id="text_15">
    <!-- Average CPU Utilization -->
    <g style="fill: #1f2937" transform="translate(126.931875 19.68) scale(0.12 -0.12)">
     <defs>
      <path id="HelveticaRounded-Bold-22" d="M 160 781 
C 122 678 58 493 58 378 
C 58 96 256 -83 544 -83 
C 794 -83 941 0 1011 205 
L 1286 973 
L 2976 973 
L 3245 205 
C 3322 0 3488 -83 3718 -83 
C 3987 -83 4211 122 4211 378 
C 4211 493 4147 678 4109 781 
L 2842 4307 
C 2726 4634 2515 4691 2278 4691 
L 2029 4691 
C 1773 4691 1606 4608 1517 4371 
L 160 781 
z
M 2746 1702 
L 1517 1702 
L 2138 3552 
L 2150 3552 
L 2746 1702 
z
" transform="scale(0.015625)"/>
      <path id="HelveticaRounded-Bold-57" d="M 986 250 
C 1075 0 1133 -83 1600 -83 
C 2067 -83 2125 0 2214 250 
L 3098 2707 
C 3123 2784 3155 2886 3155 2944 
C 3155 3277 2925 3430 2701 3430 
C 2349 3430 2259 3136 2234 3040 
L 1606 928 
L 1594 928 
L 966 3040 
C 941 3136 851 3430 499 3430 
C 275 3430 45 3277 45 2944 
C 45 2886 77 2784 102 2707 
L 986 250 
z
" transform="scale(0.015625)"/>
      <path id="HelveticaRounded-Bold-46" d="M 3277 1498 
C 3590 1498 3686 1581 3686 1901 
C 3686 2669 3072 3430 1997 3430 
C 890 3430 230 2701 230 1613 
C 230 800 723 -83 2029 -83 
C 2592 -83 3494 179 3494 742 
C 3494 915 3334 1107 3110 1107 
C 2733 1107 2733 646 2029 646 
C 1485 646 1165 1005 1165 1498 
L 3277 1498 
z
M 1165 2035 
C 1267 2490 1549 2778 2016 2778 
C 2432 2778 2752 2464 2803 2035 
L 1165 2035 
z
" transform="scale(0.015625)"/>
      <path id="HelveticaRounded-Bold-53" d="M 422 384 
C 422 134 525 -83 890 -83 
C 1254 -83 1357 134 1357 384 
L 1357 1472 
C 1357 2246 1562 2509 1939 2509 
L 2106 2509 
C 2336 2509 2566 2630 2566 2976 
C 2566 3238 2349 3430 2054 3430 
C 1600 3430 1389 3027 1280 2637 
L 1267 2637 
L 1267 2995 
C 1267 3277 1082 3430 845 3430 
C 608 3430 422 3277 422 2995 
L 422 384 
z
" transform="scale(0.015625)"/>
      <path id="HelveticaRounded-Bold-42" d="M 3475 2470 
C 3475 3142 2854 3430 1958 3430 
C 998 3430 474 2957 474 2586 
C 474 2394 634 2227 870 2227 
C 1242 2227 1261 2739 1952 2739 
C 2266 2739 2541 2624 2541 2355 
C 2541 2086 2362 2035 2138 2010 
L 1568 1946 
C 851 1862 262 1645 262 870 
C 262 282 787 -83 1318 -83 
C 1811 -83 2234 58 2598 461 
C 2611 173 2746 -83 3149 -83 
C 3373 -83 3571 64 3571 275 
C 3571 422 3475 512 3475 902 
L 3475 2470 
z
M 2541 1210 
C 2541 864 2227 531 1715 531 
C 1395 531 1197 704 1197 915 
C 1197 1197 1408 1318 1798 1376 
L 2138 1427 
C 2246 1446 2438 1478 2541 1574 
L 2541 1210 
z
" transform="scale(0.015625)"/>
      <path id="HelveticaRounded-Bold-48" d="M 1165 1683 
C 1165 2259 1350 2701 1952 2701 
C 2387 2701 2643 2400 2643 1722 
C 2643 1056 2323 781 1907 781 
C 1376 781 1165 1254 1165 1683 
z
M 3539 2989 
C 3539 3277 3405 3430 3117 3430 
C 2842 3430 2694 3277 2694 2989 
L 2694 2874 
L 2682 2874 
C 2509 3219 2150 3430 1696 3430 
C 909 3430 230 2861 230 1651 
C 230 730 742 90 1728 90 
C 2099 90 2464 294 2630 538 
L 2643 538 
L 2643 346 
C 2643 -390 2413 -678 1843 -678 
C 1318 -678 1242 -198 851 -198 
C 646 -198 467 -365 467 -595 
C 467 -1050 1165 -1370 1875 -1370 
C 2848 -1370 3539 -851 3539 275 
L 3539 2989 
z
" transform="scale(0.015625)"/>
      <path id="HelveticaRounded-Bold-1" transform="scale(0.015625)"/>
      <path id="HelveticaRounded-Bold-24" d="M 339 2304 
C 339 717 1190 -109 2630 -109 
C 3648 -109 4454 550 4454 1216 
C 4454 1472 4198 1619 3942 1619 
C 3437 1619 3456 736 2630 736 
C 1722 736 1389 1466 1389 2304 
C 1389 3302 1933 3872 2592 3872 
C 3552 3872 3373 3040 3981 3040 
C 4294 3040 4454 3219 4454 3514 
C 4454 3962 3795 4717 2592 4717 
C 1107 4717 339 3603 339 2304 
z
" transform="scale(0.015625)"/>
      <path id="HelveticaRounded-Bold-31" d="M 486 442 
C 486 128 691 -83 1011 -83 
C 1331 -83 1536 128 1536 442 
L 1536 1690 
L 2701 1690 
C 3718 1690 4301 2310 4301 3149 
C 4301 4173 3590 4608 2707 4608 
L 1101 4608 
C 730 4608 486 4461 486 3994 
L 486 442 
z
M 1536 3802 
L 2406 3802 
C 2925 3802 3251 3610 3251 3149 
C 3251 2752 2938 2496 2515 2496 
L 1536 2496 
L 1536 3802 
z
" transform="scale(0.015625)"/>
      <path id="HelveticaRounded-Bold-36" d="M 486 1728 
C 486 461 1267 -109 2490 -109 
C 3712 -109 4493 461 4493 1728 
L 4493 4166 
C 4493 4480 4288 4691 3968 4691 
C 3648 4691 3443 4480 3443 4166 
L 3443 1645 
C 3443 1018 3091 736 2490 736 
C 1888 736 1536 1018 1536 1645 
L 1536 4166 
C 1536 4480 1331 4691 1011 4691 
C 691 4691 486 4480 486 4166 
L 486 1728 
z
" transform="scale(0.015625)"/>
      <path id="HelveticaRounded-Bold-55" d="M 614 749 
C 614 198 896 -83 1574 -83 
C 2022 -83 2253 64 2253 333 
C 2253 531 2131 646 1926 646 
L 1792 646 
C 1626 646 1549 723 1549 864 
L 1549 2733 
L 1830 2733 
C 2106 2733 2253 2816 2253 3040 
C 2253 3264 2106 3347 1830 3347 
L 1549 3347 
L 1549 3917 
C 1549 4224 1363 4384 1082 4384 
C 800 4384 614 4224 614 3917 
L 614 3347 
L 454 3347 
C 192 3347 83 3245 83 3040 
C 83 2835 192 2733 454 2733 
L 614 2733 
L 614 749 
z
" transform="scale(0.015625)"/>
      <path id="HelveticaRounded-Bold-4a" d="M 422 384 
C 422 134 525 -83 890 -83 
C 1254 -83 1357 134 1357 384 
L 1357 2963 
C 1357 3213 1254 3430 890 3430 
C 525 3430 422 3213 422 2963 
L 422 384 
z
M 403 4230 
C 403 3962 621 3744 890 3744 
C 1158 3744 1376 3962 1376 4230 
C 1376 4499 1158 4717 890 4717 
C 621 4717 403 4499 403 4230 
z
" transform="scale(0.015625)"/>
      <path id="HelveticaRounded-Bold-4d" d="M 422 384 
C 422 77 608 -83 890 -83 
C 1171 -83 1357 77 1357 384 
L 1357 4224 
C 1357 4531 1171 4691 890 4691 
C 608 4691 422 4531 422 4224 
L 422 384 
z
" transform="scale(0.015625)"/>
      <path id="HelveticaRounded-Bold-5b" d="M 314 704 
C 230 614 192 499 192 365 
C 192 179 333 0 608 0 
L 2989 0 
C 3162 0 3366 96 3366 365 
C 3366 634 3162 730 2989 730 
L 1453 730 
L 3181 2624 
C 3270 2720 3328 2835 3328 2938 
C 3328 3181 3194 3347 2944 3347 
L 723 3347 
C 550 3347 346 3251 346 2982 
C 346 2714 550 2618 723 2618 
L 2074 2618 
L 314 704 
z
" transform="scale(0.015625)"/>
      <path id="HelveticaRounded-Bold-50" d="M 1165 1677 
C 1165 2285 1414 2739 1958 2739 
C 2502 2739 2752 2285 2752 1677 
C 2752 1107 2515 608 1958 608 
C 1402 608 1165 1107 1165 1677 
z
M 230 1677 
C 230 742 685 -83 1958 -83 
C 3232 -83 3686 742 3686 1677 
C 3686 2662 3085 3430 1958 3430 
C 832 3430 230 2662 230 1677 
z
" transform="scale(0.015625)"/>
      <path id="HelveticaRounded-Bold-4f" d="M 371 384 
C 371 134 474 -83 838 -83 
C 1203 -83 1306 134 1306 384 
L 1306 1926 
C 1306 2394 1690 2662 2016 2662 
C 2419 2662 2605 2394 2605 2016 
L 2605 384 
C 2605 134 2707 -83 3072 -83 
C 3437 -83 3539 134 3539 384 
L 3539 2202 
C 3539 3149 2925 3430 2362 3430 
C 1830 3430 1491 3187 1229 2842 
L 1216 2842 
L 1216 2963 
C 1216 3245 1088 3430 794 3430 
C 499 3430 371 3245 371 2963 
L 371 384 
z
" transform="scale(0.015625)"/>
     </defs>
     <use xlink:href="#HelveticaRounded-Bold-22"/>
     <use xlink:href="#HelveticaRounded-Bold-57" transform="translate(64.90625 0)"/>
     <use xlink:href="#HelveticaRounded-Bold-46" transform="translate(114.90625 0)"/>
     <use xlink:href="#HelveticaRounded-Bold-53" transform="translate(176.109375 0)"/>
     <use xlink:href="#HelveticaRounded-Bold-42" transform="translate(215.015625 0)"/>
     <use xlink:href="#HelveticaRounded-Bold-48" transform="translate(276.109375 0)"/>
     <use xlink:href="#HelveticaRounded-Bold-46" transform="translate(337.203125 0)"/>
     <use xlink:href="#HelveticaRounded-Bold-1" transform="translate(398.40625 0)"/>
     <use xlink:href="#HelveticaRounded-Bold-24" transform="translate(429 0)"/>
     <use xlink:href="#HelveticaRounded-Bold-31" transform="translate(501.203125 0)"/>
     <use xlink:href="#HelveticaRounded-Bold-36" transform="translate(571.609375 0)"/>
     <use xlink:href="#HelveticaRounded-Bold-1" transform="translate(649.40625 0)"/>
     <use xlink:href="#HelveticaRounded-Bold-36" transform="translate(680 0)"/>
     <use xlink:href="#HelveticaRounded-Bold-55" transform="translate(757.796875 0)"/>
     <use xlink:href="#HelveticaRounded-Bold-4a" transform="translate(794.796875 0)"/>
     <use xlink:href="#HelveticaRounded-Bold-4d" transform="translate(822.59375 0)"/>
     <use xlink:href="#HelveticaRounded-Bold-4a" transform="translate(850.390625 0)"/>
     <use xlink:href="#HelveticaRounded-Bold-5b" transform="translate(878.1875 0)"/>
     <use xlink:href="#HelveticaRounded-Bold-42" transform="translate(933.78125 0)"/>
     <use xlink:href="#HelveticaRounded-Bold-55" transform="translate(994.875 0)"/>
     <use xlink:href="#HelveticaRounded-Bold-4a" transform="translate(1031.875 0)"/>
     <use xlink:href="#HelveticaRounded-Bold-50" transform="translate(1059.671875 0)"/>
     <use xlink:href="#HelveticaRounded-Bold-4f" transform="translate(1120.875 0)"/>
    </g>
   </g>
  </g>
 </g>
 <defs>
  <clipPath id="p59e03f7e93">
   <rect x="46.5" y="31.68" width="302.7" height="229.320781"/>
  </clipPath>
 </defs>
</svg>
