<?xml version="1.0" encoding="utf-8" standalone="no"?>
<!DOCTYPE svg PUBLIC "-//W3C//DTD SVG 1.1//EN"
  "http://www.w3.org/Graphics/SVG/1.1/DTD/svg11.dtd">
<svg xmlns:xlink="http://www.w3.org/1999/xlink" width="360pt" height="288pt" viewBox="0 0 360 288" xmlns="http://www.w3.org/2000/svg" version="1.1">
 <metadata>
  <rdf:RDF xmlns:dc="http://purl.org/dc/elements/1.1/" xmlns:cc="http://creativecommons.org/ns#" xmlns:rdf="http://www.w3.org/1999/02/22-rdf-syntax-ns#">
   <cc:Work>
    <dc:type rdf:resource="http://purl.org/dc/dcmitype/StillImage"/>
    <dc:date>2026-07-06T14:23:49.825224</dc:date>
    <dc:format>image/svg+xml</dc:format>
    <dc:creator>
     <cc:Agent>
      <dc:title>Matplotlib v3.11.0, https://matplotlib.org/</dc:title>
     </cc:Agent>
    </dc:creator>
   </cc:Work>
  </rdf:RDF>
 </metadata>
 <defs>
  <style type="text/css">*{stroke-linejoin: round; stroke-linecap: butt}</style>
 </defs>
 <g id="figure_1">
  <g id="patch_1">
   <path d="M 0 288 
L 360 288 
L 360 0 
L 0 0 
z
" style="fill: #ffffff"/>
  </g>
  <g id="axes_1">
   <g id="patch_2">
    <path d="M 52.02 261.000781 
L 349.2 261.000781 
L 349.2 31.68 
L 52.02 31.68 
z
" style="fill: #ffffff"/>
   </g>
   <g id="patch_3">
    <path d="M 65.528182 261.000781 
L 142.717792 261.000781 
L 142.717792 136.736268 
L 65.528182 136.736268 
z
" clip-path="url(#pb878643560)" style="fill: #9ca3af"/>
   </g>
   <g id="patch_4">
    <path d="M 258.502208 261.000781 
L 335.691818 261.000781 
L 335.691818 42.600037 
L 258.502208 42.600037 
z
" clip-path="url(#pb878643560)" style="fill: #6366f1"/>
   </g>
   <g id="matplotlib.axis_1">
    <g id="xtick_1">
     <g id="line2d_1">
      <defs>
       <path id="m4e501075b9" d="M 0 0 
L 0 3.5 
" style="stroke: #4b5563; stroke-width: 0.8"/>
      </defs>
      <g>
       <use xlink:href="#m4e501075b9" x="104.122987" y="261.000781" style="fill: #4b5563; stroke: #4b5563; stroke-width: 0.8"/>
      </g>
     </g>
     <g id="text_1">
      <!-- Baseline FL -->
      <g style="fill: #4b5563" transform="translate(77.720643 275.500781) scale(0.1 -0.1)">
       <defs>
        <path id="Helvetica-25" d="M 2213 2650 
Q 2606 2650 2825 2759 
Q 3169 2931 3169 3378 
Q 3169 3828 2803 3984 
Q 2597 4072 2191 4072 
L 1081 4072 
L 1081 2650 
L 2213 2650 
z
M 2422 531 
Q 2994 531 3238 863 
Q 3391 1072 3391 1369 
Q 3391 1869 2944 2050 
Q 2706 2147 2316 2147 
L 1081 2147 
L 1081 531 
L 2422 531 
z
M 472 4591 
L 2444 4591 
Q 3250 4591 3591 4109 
Q 3791 3825 3791 3453 
Q 3791 3019 3544 2741 
Q 3416 2594 3175 2472 
Q 3528 2338 3703 2169 
Q 4013 1869 4013 1341 
Q 4013 897 3734 538 
Q 3319 0 2413 0 
L 472 0 
L 472 4591 
z
" transform="scale(0.015625)"/>
        <path id="Helvetica-44" d="M 844 891 
Q 844 647 1022 506 
Q 1200 366 1444 366 
Q 1741 366 2019 503 
Q 2488 731 2488 1250 
L 2488 1703 
Q 2384 1638 2221 1594 
Q 2059 1550 1903 1531 
L 1563 1488 
Q 1256 1447 1103 1359 
Q 844 1213 844 891 
z
M 2206 2028 
Q 2400 2053 2466 2191 
Q 2503 2266 2503 2406 
Q 2503 2694 2298 2823 
Q 2094 2953 1713 2953 
Q 1272 2953 1088 2716 
Q 984 2584 953 2325 
L 428 2325 
Q 444 2944 830 3186 
Q 1216 3428 1725 3428 
Q 2316 3428 2684 3203 
Q 3050 2978 3050 2503 
L 3050 575 
Q 3050 488 3086 434 
Q 3122 381 3238 381 
Q 3275 381 3322 386 
Q 3369 391 3422 400 
L 3422 -16 
Q 3291 -53 3222 -62 
Q 3153 -72 3034 -72 
Q 2744 -72 2613 134 
Q 2544 244 2516 444 
Q 2344 219 2022 53 
Q 1700 -113 1313 -113 
Q 847 -113 551 170 
Q 256 453 256 878 
Q 256 1344 547 1600 
Q 838 1856 1309 1916 
L 2206 2028 
z
M 1741 3428 
L 1741 3428 
z
" transform="scale(0.015625)"/>
        <path id="Helvetica-56" d="M 747 1050 
Q 772 769 888 619 
Q 1100 347 1625 347 
Q 1938 347 2175 483 
Q 2413 619 2413 903 
Q 2413 1119 2222 1231 
Q 2100 1300 1741 1391 
L 1294 1503 
Q 866 1609 663 1741 
Q 300 1969 300 2372 
Q 300 2847 642 3140 
Q 984 3434 1563 3434 
Q 2319 3434 2653 2991 
Q 2863 2709 2856 2384 
L 2325 2384 
Q 2309 2575 2191 2731 
Q 1997 2953 1519 2953 
Q 1200 2953 1036 2831 
Q 872 2709 872 2509 
Q 872 2291 1088 2159 
Q 1213 2081 1456 2022 
L 1828 1931 
Q 2434 1784 2641 1647 
Q 2969 1431 2969 969 
Q 2969 522 2630 197 
Q 2291 -128 1597 -128 
Q 850 -128 539 211 
Q 228 550 206 1050 
L 747 1050 
z
M 1578 3428 
L 1578 3428 
z
" transform="scale(0.015625)"/>
        <path id="Helvetica-48" d="M 1806 3422 
Q 2163 3422 2497 3255 
Q 2831 3088 3006 2822 
Q 3175 2569 3231 2231 
Q 3281 2000 3281 1494 
L 828 1494 
Q 844 984 1069 676 
Q 1294 369 1766 369 
Q 2206 369 2469 659 
Q 2619 828 2681 1050 
L 3234 1050 
Q 3213 866 3089 639 
Q 2966 413 2813 269 
Q 2556 19 2178 -69 
Q 1975 -119 1719 -119 
Q 1094 -119 659 336 
Q 225 791 225 1609 
Q 225 2416 662 2919 
Q 1100 3422 1806 3422 
z
M 2703 1941 
Q 2669 2306 2544 2525 
Q 2313 2931 1772 2931 
Q 1384 2931 1121 2651 
Q 859 2372 844 1941 
L 2703 1941 
z
M 1753 3428 
L 1753 3428 
z
" transform="scale(0.015625)"/>
        <path id="Helvetica-4f" d="M 428 4591 
L 991 4591 
L 991 0 
L 428 0 
L 428 4591 
z
" transform="scale(0.015625)"/>
        <path id="Helvetica-4c" d="M 413 3331 
L 984 3331 
L 984 0 
L 413 0 
L 413 3331 
z
M 413 4591 
L 984 4591 
L 984 3953 
L 413 3953 
L 413 4591 
z
" transform="scale(0.015625)"/>
        <path id="Helvetica-51" d="M 413 3347 
L 947 3347 
L 947 2872 
Q 1184 3166 1450 3294 
Q 1716 3422 2041 3422 
Q 2753 3422 3003 2925 
Q 3141 2653 3141 2147 
L 3141 0 
L 2569 0 
L 2569 2109 
Q 2569 2416 2478 2603 
Q 2328 2916 1934 2916 
Q 1734 2916 1606 2875 
Q 1375 2806 1200 2600 
Q 1059 2434 1017 2257 
Q 975 2081 975 1753 
L 975 0 
L 413 0 
L 413 3347 
z
M 1734 3428 
L 1734 3428 
z
" transform="scale(0.015625)"/>
        <path id="Helvetica-3" transform="scale(0.015625)"/>
        <path id="Helvetica-29" d="M 547 4591 
L 3731 4591 
L 3731 4028 
L 1169 4028 
L 1169 2634 
L 3422 2634 
L 3422 2088 
L 1169 2088 
L 1169 0 
L 547 0 
L 547 4591 
z
" transform="scale(0.015625)"/>
        <path id="Helvetica-2f" d="M 488 4591 
L 1109 4591 
L 1109 547 
L 3434 547 
L 3434 0 
L 488 0 
L 488 4591 
z
" transform="scale(0.015625)"/>
       </defs>
       <use xlink:href="#Helvetica-25"/>
       <use xlink:href="#Helvetica-44" transform="translate(66.703125 0)"/>
       <use xlink:href="#Helvetica-56" transform="translate(122.3125 0)"/>
       <use xlink:href="#Helvetica-48" transform="translate(172.3125 0)"/>
       <use xlink:href="#Helvetica-4f" transform="translate(227.921875 0)"/>
       <use xlink:href="#Helvetica-4c" transform="translate(250.140625 0)"/>
       <use xlink:href="#Helvetica-51" transform="translate(272.359375 0)"/>
       <use xlink:href="#Helvetica-48" transform="translate(327.96875 0)"/>
       <use xlink:href="#Helvetica-3" transform="translate(383.578125 0)"/>
       <use xlink:href="#Helvetica-29" transform="translate(411.359375 0)"/>
       <use xlink:href="#Helvetica-2f" transform="translate(472.4375 0)"/>
      </g>
     </g>
    </g>
    <g id="xtick_2">
     <g id="line2d_2">
      <g>
       <use xlink:href="#m4e501075b9" x="297.097013" y="261.000781" style="fill: #4b5563; stroke: #4b5563; stroke-width: 0.8"/>
      </g>
     </g>
     <g id="text_2">
      <!-- Conclave -->
      <g style="fill: #4b5563" transform="translate(276.253263 275.500781) scale(0.1 -0.1)">
       <defs>
        <path id="Helvetica-26" d="M 2422 4716 
Q 3294 4716 3775 4256 
Q 4256 3797 4309 3213 
L 3703 3213 
Q 3600 3656 3292 3915 
Q 2984 4175 2428 4175 
Q 1750 4175 1333 3698 
Q 916 3222 916 2238 
Q 916 1431 1292 929 
Q 1669 428 2416 428 
Q 3103 428 3463 956 
Q 3653 1234 3747 1688 
L 4353 1688 
Q 4272 963 3816 472 
Q 3269 -119 2341 -119 
Q 1541 -119 997 366 
Q 281 1006 281 2344 
Q 281 3359 819 4009 
Q 1400 4716 2422 4716 
z
M 2297 4716 
L 2297 4716 
z
" transform="scale(0.015625)"/>
        <path id="Helvetica-52" d="M 1741 363 
Q 2300 363 2508 786 
Q 2716 1209 2716 1728 
Q 2716 2197 2566 2491 
Q 2328 2953 1747 2953 
Q 1231 2953 997 2559 
Q 763 2166 763 1609 
Q 763 1075 997 719 
Q 1231 363 1741 363 
z
M 1763 3444 
Q 2409 3444 2856 3012 
Q 3303 2581 3303 1744 
Q 3303 934 2909 406 
Q 2516 -122 1688 -122 
Q 997 -122 590 345 
Q 184 813 184 1600 
Q 184 2444 612 2944 
Q 1041 3444 1763 3444 
z
M 1744 3428 
L 1744 3428 
z
" transform="scale(0.015625)"/>
        <path id="Helvetica-46" d="M 1703 3444 
Q 2269 3444 2623 3169 
Q 2978 2894 3050 2222 
L 2503 2222 
Q 2453 2531 2275 2736 
Q 2097 2941 1703 2941 
Q 1166 2941 934 2416 
Q 784 2075 784 1575 
Q 784 1072 996 728 
Q 1209 384 1666 384 
Q 2016 384 2220 598 
Q 2425 813 2503 1184 
L 3050 1184 
Q 2956 519 2581 211 
Q 2206 -97 1622 -97 
Q 966 -97 575 383 
Q 184 863 184 1581 
Q 184 2463 612 2953 
Q 1041 3444 1703 3444 
z
M 1616 3428 
L 1616 3428 
z
" transform="scale(0.015625)"/>
        <path id="Helvetica-59" d="M 688 3347 
L 1581 622 
L 2516 3347 
L 3131 3347 
L 1869 0 
L 1269 0 
L 34 3347 
L 688 3347 
z
" transform="scale(0.015625)"/>
       </defs>
       <use xlink:href="#Helvetica-26"/>
       <use xlink:href="#Helvetica-52" transform="translate(72.21875 0)"/>
       <use xlink:href="#Helvetica-51" transform="translate(127.828125 0)"/>
       <use xlink:href="#Helvetica-46" transform="translate(183.4375 0)"/>
       <use xlink:href="#Helvetica-4f" transform="translate(233.4375 0)"/>
       <use xlink:href="#Helvetica-44" transform="translate(255.65625 0)"/>
       <use xlink:href="#Helvetica-59" transform="translate(311.265625 0)"/>
       <use xlink:href="#Helvetica-48" transform="translate(361.265625 0)"/>
      </g>
     </g>
    </g>
   </g>
   <g id="matplotlib.axis_2">
    <g id="ytick_1">
     <g id="line2d_3">
      <path d="M 52.02 261.000781 
L 349.2 261.000781 
" clip-path="url(#pb878643560)" style="fill: none; stroke-dasharray: 1.85,0.8; stroke-dashoffset: 0; stroke: #e5e7eb; stroke-opacity: 0.7; stroke-width: 0.5"/>
     </g>
     <g id="line2d_4">
      <defs>
       <path id="m1e25295c2a" d="M 0 0 
L -3.5 0 
" style="stroke: #4b5563; stroke-width: 0.8"/>
      </defs>
      <g>
       <use xlink:href="#m1e25295c2a" x="52.02" y="261.000781" style="fill: #4b5563; stroke: #4b5563; stroke-width: 0.8"/>
      </g>
     </g>
     <g id="text_3">
      <!-- 0 -->
      <g style="fill: #4b5563" transform="translate(39.459063 264.750781) scale(0.1 -0.1)">
       <defs>
        <path id="Helvetica-13" d="M 1731 4475 
Q 2600 4475 2988 3759 
Q 3288 3206 3288 2244 
Q 3288 1331 3016 734 
Q 2622 -122 1728 -122 
Q 922 -122 528 578 
Q 200 1163 200 2147 
Q 200 2909 397 3456 
Q 766 4475 1731 4475 
z
M 1725 391 
Q 2163 391 2422 778 
Q 2681 1166 2681 2222 
Q 2681 2984 2493 3476 
Q 2306 3969 1766 3969 
Q 1269 3969 1039 3501 
Q 809 3034 809 2125 
Q 809 1441 956 1025 
Q 1181 391 1725 391 
z
" transform="scale(0.015625)"/>
       </defs>
       <use xlink:href="#Helvetica-13"/>
      </g>
     </g>
    </g>
    <g id="ytick_2">
     <g id="line2d_5">
      <path d="M 52.02 231.693113 
L 349.2 231.693113 
" clip-path="url(#pb878643560)" style="fill: none; stroke-dasharray: 1.85,0.8; stroke-dashoffset: 0; stroke: #e5e7eb; stroke-opacity: 0.7; stroke-width: 0.5"/>
     </g>
     <g id="line2d_6">
      <g>
       <use xlink:href="#m1e25295c2a" x="52.02" y="231.693113" style="fill: #4b5563; stroke: #4b5563; stroke-width: 0.8"/>
      </g>
     </g>
     <g id="text_4">
      <!-- 50 -->
      <g style="fill: #4b5563" transform="translate(33.898125 235.443113) scale(0.1 -0.1)">
       <defs>
        <path id="Helvetica-18" d="M 791 1141 
Q 847 659 1238 475 
Q 1438 381 1700 381 
Q 2200 381 2440 700 
Q 2681 1019 2681 1406 
Q 2681 1875 2395 2131 
Q 2109 2388 1709 2388 
Q 1419 2388 1211 2275 
Q 1003 2163 856 1963 
L 369 1991 
L 709 4400 
L 3034 4400 
L 3034 3856 
L 1131 3856 
L 941 2613 
Q 1097 2731 1238 2791 
Q 1488 2894 1816 2894 
Q 2431 2894 2859 2497 
Q 3288 2100 3288 1491 
Q 3288 856 2895 371 
Q 2503 -113 1644 -113 
Q 1097 -113 676 195 
Q 256 503 206 1141 
L 791 1141 
z
" transform="scale(0.015625)"/>
       </defs>
       <use xlink:href="#Helvetica-18"/>
       <use xlink:href="#Helvetica-13" transform="translate(55.609375 0)"/>
      </g>
     </g>
    </g>
    <g id="ytick_3">
     <g id="line2d_7">
      <path d="M 52.02 202.385445 
L 349.2 202.385445 
" clip-path="url(#pb878643560)" style="fill: none; stroke-dasharray: 1.85,0.8; stroke-dashoffset: 0; stroke: #e5e7eb; stroke-opacity: 0.7; stroke-width: 0.5"/>
     </g>
     <g id="line2d_8">
      <g>
       <use xlink:href="#m1e25295c2a" x="52.02" y="202.385445" style="fill: #4b5563; stroke: #4b5563; stroke-width: 0.8"/>
      </g>
     </g>
     <g id="text_5">
      <!-- 100 -->
      <g style="fill: #4b5563" transform="translate(28.337188 206.135445) scale(0.1 -0.1)">
       <defs>
        <path id="Helvetica-14" d="M 613 3169 
L 613 3600 
Q 1222 3659 1462 3798 
Q 1703 3938 1822 4456 
L 2266 4456 
L 2266 0 
L 1666 0 
L 1666 3169 
L 613 3169 
z
" transform="scale(0.015625)"/>
       </defs>
       <use xlink:href="#Helvetica-14"/>
       <use xlink:href="#Helvetica-13" transform="translate(55.609375 0)"/>
       <use xlink:href="#Helvetica-13" transform="translate(111.21875 0)"/>
      </g>
     </g>
    </g>
    <g id="ytick_4">
     <g id="line2d_9">
      <path d="M 52.02 173.077776 
L 349.2 173.077776 
" clip-path="url(#pb878643560)" style="fill: none; stroke-dasharray: 1.85,0.8; stroke-dashoffset: 0; stroke: #e5e7eb; stroke-opacity: 0.7; stroke-width: 0.5"/>
     </g>
     <g id="line2d_10">
      <g>
       <use xlink:href="#m1e25295c2a" x="52.02" y="173.077776" style="fill: #4b5563; stroke: #4b5563; stroke-width: 0.8"/>
      </g>
     </g>
     <g id="text_6">
      <!-- 150 -->
      <g style="fill: #4b5563" transform="translate(28.337188 176.827776) scale(0.1 -0.1)">
       <use xlink:href="#Helvetica-14"/>
       <use xlink:href="#Helvetica-18" transform="translate(55.609375 0)"/>
       <use xlink:href="#Helvetica-13" transform="translate(111.21875 0)"/>
      </g>
     </g>
    </g>
    <g id="ytick_5">
     <g id="line2d_11">
      <path d="M 52.02 143.770108 
L 349.2 143.770108 
" clip-path="url(#pb878643560)" style="fill: none; stroke-dasharray: 1.85,0.8; stroke-dashoffset: 0; stroke: #e5e7eb; stroke-opacity: 0.7; stroke-width: 0.5"/>
     </g>
     <g id="line2d_12">
      <g>
       <use xlink:href="#m1e25295c2a" x="52.02" y="143.770108" style="fill: #4b5563; stroke: #4b5563; stroke-width: 0.8"/>
      </g>
     </g>
     <g id="text_7">
      <!-- 200 -->
      <g style="fill: #4b5563" transform="translate(28.337188 147.520108) scale(0.1 -0.1)">
       <defs>
        <path id="Helvetica-15" d="M 200 0 
Q 231 578 439 1006 
Q 647 1434 1250 1784 
L 1850 2131 
Q 2253 2366 2416 2531 
Q 2672 2791 2672 3125 
Q 2672 3516 2437 3745 
Q 2203 3975 1813 3975 
Q 1234 3975 1013 3538 
Q 894 3303 881 2888 
L 309 2888 
Q 319 3472 525 3841 
Q 891 4491 1816 4491 
Q 2584 4491 2939 4075 
Q 3294 3659 3294 3150 
Q 3294 2613 2916 2231 
Q 2697 2009 2131 1694 
L 1703 1456 
Q 1397 1288 1222 1134 
Q 909 863 828 531 
L 3272 531 
L 3272 0 
L 200 0 
z
" transform="scale(0.015625)"/>
       </defs>
       <use xlink:href="#Helvetica-15"/>
       <use xlink:href="#Helvetica-13" transform="translate(55.609375 0)"/>
       <use xlink:href="#Helvetica-13" transform="translate(111.21875 0)"/>
      </g>
     </g>
    </g>
    <g id="ytick_6">
     <g id="line2d_13">
      <path d="M 52.02 114.46244 
L 349.2 114.46244 
" clip-path="url(#pb878643560)" style="fill: none; stroke-dasharray: 1.85,0.8; stroke-dashoffset: 0; stroke: #e5e7eb; stroke-opacity: 0.7; stroke-width: 0.5"/>
     </g>
     <g id="line2d_14">
      <g>
       <use xlink:href="#m1e25295c2a" x="52.02" y="114.46244" style="fill: #4b5563; stroke: #4b5563; stroke-width: 0.8"/>
      </g>
     </g>
     <g id="text_8">
      <!-- 250 -->
      <g style="fill: #4b5563" transform="translate(28.337188 118.21244) scale(0.1 -0.1)">
       <use xlink:href="#Helvetica-15"/>
       <use xlink:href="#Helvetica-18" transform="translate(55.609375 0)"/>
       <use xlink:href="#Helvetica-13" transform="translate(111.21875 0)"/>
      </g>
     </g>
    </g>
    <g id="ytick_7">
     <g id="line2d_15">
      <path d="M 52.02 85.154772 
L 349.2 85.154772 
" clip-path="url(#pb878643560)" style="fill: none; stroke-dasharray: 1.85,0.8; stroke-dashoffset: 0; stroke: #e5e7eb; stroke-opacity: 0.7; stroke-width: 0.5"/>
     </g>
     <g id="line2d_16">
      <g>
       <use xlink:href="#m1e25295c2a" x="52.02" y="85.154772" style="fill: #4b5563; stroke: #4b5563; stroke-width: 0.8"/>
      </g>
     </g>
     <g id="text_9">
      <!-- 300 -->
      <g style="fill: #4b5563" transform="translate(28.337188 88.904772) scale(0.1 -0.1)">
       <defs>
        <path id="Helvetica-16" d="M 1663 -122 
Q 869 -122 511 314 
Q 153 750 153 1375 
L 741 1375 
Q 778 941 903 744 
Q 1122 391 1694 391 
Q 2138 391 2406 628 
Q 2675 866 2675 1241 
Q 2675 1703 2392 1887 
Q 2109 2072 1606 2072 
Q 1550 2072 1492 2070 
Q 1434 2069 1375 2066 
L 1375 2563 
Q 1463 2553 1522 2550 
Q 1581 2547 1650 2547 
Q 1966 2547 2169 2647 
Q 2525 2822 2525 3272 
Q 2525 3606 2287 3787 
Q 2050 3969 1734 3969 
Q 1172 3969 956 3594 
Q 838 3388 822 3006 
L 266 3006 
Q 266 3506 466 3856 
Q 809 4481 1675 4481 
Q 2359 4481 2734 4176 
Q 3109 3872 3109 3294 
Q 3109 2881 2888 2625 
Q 2750 2466 2531 2375 
Q 2884 2278 3082 2001 
Q 3281 1725 3281 1325 
Q 3281 684 2859 281 
Q 2438 -122 1663 -122 
z
" transform="scale(0.015625)"/>
       </defs>
       <use xlink:href="#Helvetica-16"/>
       <use xlink:href="#Helvetica-13" transform="translate(55.609375 0)"/>
       <use xlink:href="#Helvetica-13" transform="translate(111.21875 0)"/>
      </g>
     </g>
    </g>
    <g id="ytick_8">
     <g id="line2d_17">
      <path d="M 52.02 55.847103 
L 349.2 55.847103 
" clip-path="url(#pb878643560)" style="fill: none; stroke-dasharray: 1.85,0.8; stroke-dashoffset: 0; stroke: #e5e7eb; stroke-opacity: 0.7; stroke-width: 0.5"/>
     </g>
     <g id="line2d_18">
      <g>
       <use xlink:href="#m1e25295c2a" x="52.02" y="55.847103" style="fill: #4b5563; stroke: #4b5563; stroke-width: 0.8"/>
      </g>
     </g>
     <g id="text_10">
      <!-- 350 -->
      <g style="fill: #4b5563" transform="translate(28.337188 59.597103) scale(0.1 -0.1)">
       <use xlink:href="#Helvetica-16"/>
       <use xlink:href="#Helvetica-18" transform="translate(55.609375 0)"/>
       <use xlink:href="#Helvetica-13" transform="translate(111.21875 0)"/>
      </g>
     </g>
    </g>
    <g id="text_11">
     <!-- Peak Memory (MB) -->
     <g transform="translate(18.193438 189.399766) rotate(-90) scale(0.1 -0.1)">
      <defs>
       <path id="Helvetica-33" d="M 547 4591 
L 2613 4591 
Q 3225 4591 3600 4245 
Q 3975 3900 3975 3275 
Q 3975 2738 3640 2339 
Q 3306 1941 2613 1941 
L 1169 1941 
L 1169 0 
L 547 0 
L 547 4591 
z
M 3347 3272 
Q 3347 3778 2972 3959 
Q 2766 4056 2406 4056 
L 1169 4056 
L 1169 2466 
L 2406 2466 
Q 2825 2466 3086 2644 
Q 3347 2822 3347 3272 
z
" transform="scale(0.015625)"/>
       <path id="Helvetica-4e" d="M 400 4591 
L 941 4591 
L 941 1925 
L 2384 3347 
L 3103 3347 
L 1822 2094 
L 3175 0 
L 2456 0 
L 1413 1688 
L 941 1256 
L 941 0 
L 400 0 
L 400 4591 
z
" transform="scale(0.015625)"/>
       <path id="Helvetica-30" d="M 472 4591 
L 1363 4591 
L 2681 709 
L 3991 4591 
L 4872 4591 
L 4872 0 
L 4281 0 
L 4281 2709 
Q 4281 2850 4287 3175 
Q 4294 3500 4294 3872 
L 2984 0 
L 2369 0 
L 1050 3872 
L 1050 3731 
Q 1050 3563 1058 3217 
Q 1066 2872 1066 2709 
L 1066 0 
L 472 0 
L 472 4591 
z
" transform="scale(0.015625)"/>
       <path id="Helvetica-50" d="M 413 3347 
L 969 3347 
L 969 2872 
Q 1169 3119 1331 3231 
Q 1609 3422 1963 3422 
Q 2363 3422 2606 3225 
Q 2744 3113 2856 2894 
Q 3044 3163 3297 3292 
Q 3550 3422 3866 3422 
Q 4541 3422 4784 2934 
Q 4916 2672 4916 2228 
L 4916 0 
L 4331 0 
L 4331 2325 
Q 4331 2659 4164 2784 
Q 3997 2909 3756 2909 
Q 3425 2909 3186 2687 
Q 2947 2466 2947 1947 
L 2947 0 
L 2375 0 
L 2375 2184 
Q 2375 2525 2294 2681 
Q 2166 2916 1816 2916 
Q 1497 2916 1236 2669 
Q 975 2422 975 1775 
L 975 0 
L 413 0 
L 413 3347 
z
" transform="scale(0.015625)"/>
       <path id="Helvetica-55" d="M 428 3347 
L 963 3347 
L 963 2769 
Q 1028 2938 1284 3180 
Q 1541 3422 1875 3422 
Q 1891 3422 1928 3419 
Q 1966 3416 2056 3406 
L 2056 2813 
Q 2006 2822 1964 2825 
Q 1922 2828 1872 2828 
Q 1447 2828 1219 2554 
Q 991 2281 991 1925 
L 991 0 
L 428 0 
L 428 3347 
z
" transform="scale(0.015625)"/>
       <path id="Helvetica-5c" d="M 2503 3347 
L 3125 3347 
Q 3006 3025 2597 1878 
Q 2291 1016 2084 472 
Q 1597 -809 1397 -1090 
Q 1197 -1372 709 -1372 
Q 591 -1372 527 -1362 
Q 463 -1353 369 -1328 
L 369 -816 
Q 516 -856 581 -865 
Q 647 -875 697 -875 
Q 853 -875 926 -823 
Q 1000 -772 1050 -697 
Q 1066 -672 1162 -440 
Q 1259 -209 1303 -97 
L 66 3347 
L 703 3347 
L 1600 622 
L 2503 3347 
z
M 1597 3428 
L 1597 3428 
z
" transform="scale(0.015625)"/>
       <path id="Helvetica-b" d="M 1894 4666 
Q 1403 3713 1256 3263 
Q 1034 2578 1034 1681 
Q 1034 775 1288 25 
Q 1444 -438 1903 -1306 
L 1525 -1306 
Q 1069 -594 959 -397 
Q 850 -200 722 138 
Q 547 600 478 1125 
Q 444 1397 444 1644 
Q 444 2569 734 3291 
Q 919 3750 1503 4666 
L 1894 4666 
z
" transform="scale(0.015625)"/>
       <path id="Helvetica-c" d="M 222 -1306 
Q 719 -338 863 106 
Q 1081 778 1081 1681 
Q 1081 2584 828 3334 
Q 672 3797 213 4666 
L 591 4666 
Q 1072 3897 1173 3717 
Q 1275 3538 1394 3222 
Q 1544 2831 1608 2450 
Q 1672 2069 1672 1716 
Q 1672 791 1378 66 
Q 1194 -400 613 -1306 
L 222 -1306 
z
" transform="scale(0.015625)"/>
      </defs>
      <use xlink:href="#Helvetica-33"/>
      <use xlink:href="#Helvetica-48" transform="translate(66.703125 0)"/>
      <use xlink:href="#Helvetica-44" transform="translate(122.3125 0)"/>
      <use xlink:href="#Helvetica-4e" transform="translate(177.921875 0)"/>
      <use xlink:href="#Helvetica-3" transform="translate(227.921875 0)"/>
      <use xlink:href="#Helvetica-30" transform="translate(255.703125 0)"/>
      <use xlink:href="#Helvetica-48" transform="translate(339 0)"/>
      <use xlink:href="#Helvetica-50" transform="translate(394.609375 0)"/>
      <use xlink:href="#Helvetica-52" transform="translate(477.90625 0)"/>
      <use xlink:href="#Helvetica-55" transform="translate(533.515625 0)"/>
      <use xlink:href="#Helvetica-5c" transform="translate(566.8125 0)"/>
      <use xlink:href="#Helvetica-3" transform="translate(616.8125 0)"/>
      <use xlink:href="#Helvetica-b" transform="translate(644.59375 0)"/>
      <use xlink:href="#Helvetica-30" transform="translate(677.890625 0)"/>
      <use xlink:href="#Helvetica-25" transform="translate(761.1875 0)"/>
      <use xlink:href="#Helvetica-c" transform="translate(827.890625 0)"/>
     </g>
    </g>
   </g>
   <g id="patch_5">
    <path d="M 52.02 261.000781 
L 52.02 31.68 
" style="fill: none; stroke: #9ca3af; stroke-width: 0.8; stroke-linejoin: miter; stroke-linecap: square"/>
   </g>
   <g id="patch_6">
    <path d="M 52.02 261.000781 
L 349.2 261.000781 
" style="fill: none; stroke: #9ca3af; stroke-width: 0.8; stroke-linejoin: miter; stroke-linecap: square"/>
   </g>
   <g id="text_12">
    <!-- 212.0 MB -->
    <g style="fill: #1f2937" transform="translate(84.20205 131.873268) scale(0.09 -0.09)">
     <defs>
      <path id="HelveticaRounded-Bold-13" d="M 1254 806 
C 1338 1050 1779 1312 2502 1722 
C 3181 2106 3571 2438 3571 3290 
C 3571 3878 2963 4550 1939 4550 
C 998 4550 230 3955 230 3174 
C 230 2854 435 2746 698 2746 
C 954 2746 1037 2867 1101 3104 
C 1242 3616 1517 3782 1926 3782 
C 2278 3782 2598 3552 2598 3136 
C 2598 2618 2291 2502 1402 1939 
C 602 1434 198 928 198 474 
C 198 250 352 0 723 0 
L 3123 0 
C 3418 0 3597 115 3597 403 
C 3597 691 3418 806 3174 806 
L 1254 806 
z
" transform="scale(0.015625)"/>
      <path id="HelveticaRounded-Bold-12" d="M 1094 480 
C 1094 147 1222 -83 1581 -83 
C 1939 -83 2067 147 2067 480 
L 2067 4115 
C 2067 4461 1901 4550 1696 4550 
C 1152 4550 1350 3821 640 3667 
L 403 3616 
C 70 3552 -58 3488 -58 3251 
C -58 2989 58 2912 269 2912 
L 1094 2912 
L 1094 480 
z
" transform="scale(0.015625)"/>
      <path id="HelveticaRounded-Bold-f" d="M 454 480 
C 454 192 691 -45 979 -45 
C 1267 -45 1504 192 1504 480 
C 1504 768 1267 1005 979 1005 
C 691 1005 454 768 454 480 
z
" transform="scale(0.015625)"/>
      <path id="HelveticaRounded-Bold-11" d="M 1184 2234 
C 1184 3194 1395 3782 1958 3782 
C 2522 3782 2733 3194 2733 2234 
C 2733 1088 2451 685 1958 685 
C 1466 685 1184 1088 1184 2234 
z
M 250 2291 
C 250 1158 608 -83 1958 -83 
C 3309 -83 3667 1158 3667 2291 
C 3667 3802 2995 4550 1958 4550 
C 922 4550 250 3802 250 2291 
z
" transform="scale(0.015625)"/>
      <path id="HelveticaRounded-Bold-1" transform="scale(0.015625)"/>
      <path id="HelveticaRounded-Bold-2e" d="M 467 429 
C 467 166 595 -83 934 -83 
C 1274 -83 1402 166 1402 429 
L 1402 3283 
L 1414 3283 
L 2394 224 
C 2464 6 2624 -83 2842 -83 
C 3059 -83 3219 6 3290 224 
L 4269 3283 
L 4282 3283 
L 4282 429 
C 4282 166 4410 -83 4749 -83 
C 5088 -83 5216 166 5216 429 
L 5216 4173 
C 5216 4595 4928 4691 4646 4691 
L 4352 4691 
C 4026 4691 3872 4563 3763 4211 
L 2861 1254 
L 2848 1254 
L 1933 4211 
C 1824 4563 1670 4691 1344 4691 
L 1037 4691 
C 755 4691 467 4595 467 4173 
L 467 429 
z
" transform="scale(0.015625)"/>
      <path id="HelveticaRounded-Bold-23" d="M 486 614 
C 486 147 730 0 1101 0 
L 2643 0 
C 3552 0 4339 397 4339 1363 
C 4339 1997 4019 2342 3533 2470 
L 3533 2483 
C 3968 2656 4179 3027 4179 3418 
C 4179 4435 3264 4608 2496 4608 
L 1101 4608 
C 730 4608 486 4461 486 3994 
L 486 614 
z
M 1536 2048 
L 2291 2048 
C 2803 2048 3290 1978 3290 1421 
C 3290 890 2829 806 2419 806 
L 1536 806 
L 1536 2048 
z
M 1536 3840 
L 2368 3840 
C 2758 3840 3130 3718 3130 3277 
C 3130 2912 2893 2714 2400 2714 
L 1536 2714 
L 1536 3840 
z
" transform="scale(0.015625)"/>
     </defs>
     <use xlink:href="#HelveticaRounded-Bold-13"/>
     <use xlink:href="#HelveticaRounded-Bold-12" transform="translate(59.296875 0)"/>
     <use xlink:href="#HelveticaRounded-Bold-13" transform="translate(100 0)"/>
     <use xlink:href="#HelveticaRounded-Bold-f" transform="translate(159.296875 0)"/>
     <use xlink:href="#HelveticaRounded-Bold-11" transform="translate(189.890625 0)"/>
     <use xlink:href="#HelveticaRounded-Bold-1" transform="translate(251.09375 0)"/>
     <use xlink:href="#HelveticaRounded-Bold-2e" transform="translate(281.6875 0)"/>
     <use xlink:href="#HelveticaRounded-Bold-23" transform="translate(370.484375 0)"/>
    </g>
   </g>
   <g id="text_13">
    <!-- 372.6 MB -->
    <g style="fill: #1f2937" transform="translate(276.424435 37.737037) scale(0.09 -0.09)">
     <defs>
      <path id="HelveticaRounded-Bold-14" d="M 198 1024 
C 198 666 576 -83 1779 -83 
C 2726 -83 3507 403 3507 1414 
C 3507 1894 3302 2278 2822 2413 
C 3181 2605 3366 2899 3366 3309 
C 3366 3930 2957 4550 1850 4550 
C 1229 4550 301 4218 301 3437 
C 301 3149 512 3053 730 3053 
C 1235 3053 1056 3782 1830 3782 
C 2170 3782 2470 3603 2470 3219 
C 2470 2925 2304 2739 1984 2720 
C 1619 2701 1427 2630 1427 2298 
C 1427 2003 1779 1971 1958 1952 
C 2400 1907 2534 1683 2534 1376 
C 2534 979 2278 685 1798 685 
C 915 685 1222 1472 653 1472 
C 390 1472 198 1286 198 1024 
z
" transform="scale(0.015625)"/>
      <path id="HelveticaRounded-Bold-18" d="M 486 4467 
C 243 4467 64 4352 64 4064 
C 64 3776 243 3661 474 3661 
L 2541 3661 
C 1728 2906 877 1037 877 403 
C 877 128 973 -83 1344 -83 
C 1645 -83 1734 45 1818 422 
C 2470 3309 3526 3494 3526 4006 
C 3526 4365 3334 4467 3085 4467 
L 486 4467 
z
" transform="scale(0.015625)"/>
      <path id="HelveticaRounded-Bold-17" d="M 1184 2624 
C 1184 3213 1427 3859 2093 3859 
C 2611 3859 2630 3309 3053 3309 
C 3277 3309 3456 3494 3456 3725 
C 3456 4115 2938 4550 2176 4550 
C 986 4550 250 3878 250 1984 
C 250 973 653 -83 2010 -83 
C 2944 -83 3667 448 3667 1504 
C 3667 2278 3142 2918 2182 2918 
C 1754 2918 1459 2771 1184 2509 
L 1184 2624 
z
M 1242 1440 
C 1242 1946 1574 2227 1990 2227 
C 2413 2227 2733 1984 2733 1440 
C 2733 947 2451 646 1990 646 
C 1530 646 1242 947 1242 1440 
z
" transform="scale(0.015625)"/>
     </defs>
     <use xlink:href="#HelveticaRounded-Bold-14"/>
     <use xlink:href="#HelveticaRounded-Bold-18" transform="translate(59.296875 0)"/>
     <use xlink:href="#HelveticaRounded-Bold-13" transform="translate(116.703125 0)"/>
     <use xlink:href="#HelveticaRounded-Bold-f" transform="translate(176 0)"/>
     <use xlink:href="#HelveticaRounded-Bold-17" transform="translate(206.59375 0)"/>
     <use xlink:href="#HelveticaRounded-Bold-1" transform="translate(267.796875 0)"/>
     <use xlink:href="#HelveticaRounded-Bold-2e" transform="translate(298.390625 0)"/>
     <use xlink:href="#HelveticaRounded-Bold-23" transform="translate(387.1875 0)"/>
    </g>
   </g>
   <g id="text_14">
    <!-- Peak Memory Footprint -->
    <g style="fill: #1f2937" transform="translate(131.880938 19.68) scale(0.12 -0.12)">
     <defs>
      <path id="HelveticaRounded-Bold-31" d="M 486 442 
C 486 128 691 -83 1011 -83 
C 1331 -83 1536 128 1536 442 
L 1536 1690 
L 2701 1690 
C 3718 1690 4301 2310 4301 3149 
C 4301 4173 3590 4608 2707 4608 
L 1101 4608 
C 730 4608 486 4461 486 3994 
L 486 442 
z
M 1536 3802 
L 2406 3802 
C 2925 3802 3251 3610 3251 3149 
C 3251 2752 2938 2496 2515 2496 
L 1536 2496 
L 1536 3802 
z
" transform="scale(0.015625)"/>
      <path id="HelveticaRounded-Bold-46" d="M 3277 1498 
C 3590 1498 3686 1581 3686 1901 
C 3686 2669 3072 3430 1997 3430 
C 890 3430 230 2701 230 1613 
C 230 800 723 -83 2029 -83 
C 2592 -83 3494 179 3494 742 
C 3494 915 3334 1107 3110 1107 
C 2733 1107 2733 646 2029 646 
C 1485 646 1165 1005 1165 1498 
L 3277 1498 
z
M 1165 2035 
C 1267 2490 1549 2778 2016 2778 
C 2432 2778 2752 2464 2803 2035 
L 1165 2035 
z
" transform="scale(0.015625)"/>
      <path id="HelveticaRounded-Bold-42" d="M 3475 2470 
C 3475 3142 2854 3430 1958 3430 
C 998 3430 474 2957 474 2586 
C 474 2394 634 2227 870 2227 
C 1242 2227 1261 2739 1952 2739 
C 2266 2739 2541 2624 2541 2355 
C 2541 2086 2362 2035 2138 2010 
L 1568 1946 
C 851 1862 262 1645 262 870 
C 262 282 787 -83 1318 -83 
C 1811 -83 2234 58 2598 461 
C 2611 173 2746 -83 3149 -83 
C 3373 -83 3571 64 3571 275 
C 3571 422 3475 512 3475 902 
L 3475 2470 
z
M 2541 1210 
C 2541 864 2227 531 1715 531 
C 1395 531 1197 704 1197 915 
C 1197 1197 1408 1318 1798 1376 
L 2138 1427 
C 2246 1446 2438 1478 2541 1574 
L 2541 1210 
z
" transform="scale(0.015625)"/>
      <path id="HelveticaRounded-Bold-4c" d="M 371 384 
C 371 77 557 -83 838 -83 
C 1120 -83 1306 77 1306 384 
L 1306 1094 
L 1632 1382 
L 2515 134 
C 2586 32 2707 -83 2938 -83 
C 3187 -83 3379 134 3379 371 
C 3379 525 3315 627 3283 672 
L 2310 1978 
L 3002 2701 
C 3085 2790 3142 2842 3142 3008 
C 3142 3245 2912 3430 2701 3430 
C 2560 3430 2438 3354 2342 3251 
L 1306 2099 
L 1306 4224 
C 1306 4531 1120 4691 838 4691 
C 557 4691 371 4531 371 4224 
L 371 384 
z
" transform="scale(0.015625)"/>
      <path id="HelveticaRounded-Bold-4e" d="M 371 384 
C 371 134 474 -83 838 -83 
C 1203 -83 1306 134 1306 384 
L 1306 1939 
C 1306 2374 1626 2662 1984 2662 
C 2349 2662 2496 2394 2496 2061 
L 2496 384 
C 2496 134 2598 -83 2963 -83 
C 3328 -83 3430 134 3430 384 
L 3430 1939 
C 3430 2374 3750 2662 4109 2662 
C 4474 2662 4621 2394 4621 2061 
L 4621 384 
C 4621 134 4723 -83 5088 -83 
C 5453 -83 5555 134 5555 384 
L 5555 2298 
C 5555 3136 5037 3430 4390 3430 
C 3885 3430 3552 3206 3290 2842 
C 3117 3283 2714 3430 2394 3430 
C 1920 3430 1510 3213 1267 2842 
L 1254 2842 
L 1254 2963 
C 1254 3245 1088 3430 813 3430 
C 538 3430 371 3245 371 2963 
L 371 384 
z
" transform="scale(0.015625)"/>
      <path id="HelveticaRounded-Bold-50" d="M 1165 1677 
C 1165 2285 1414 2739 1958 2739 
C 2502 2739 2752 2285 2752 1677 
C 2752 1107 2515 608 1958 608 
C 1402 608 1165 1107 1165 1677 
z
M 230 1677 
C 230 742 685 -83 1958 -83 
C 3232 -83 3686 742 3686 1677 
C 3686 2662 3085 3430 1958 3430 
C 832 3430 230 2662 230 1677 
z
" transform="scale(0.015625)"/>
      <path id="HelveticaRounded-Bold-53" d="M 422 384 
C 422 134 525 -83 890 -83 
C 1254 -83 1357 134 1357 384 
L 1357 1472 
C 1357 2246 1562 2509 1939 2509 
L 2106 2509 
C 2336 2509 2566 2630 2566 2976 
C 2566 3238 2349 3430 2054 3430 
C 1600 3430 1389 3027 1280 2637 
L 1267 2637 
L 1267 2995 
C 1267 3277 1082 3430 845 3430 
C 608 3430 422 3277 422 2995 
L 422 384 
z
" transform="scale(0.015625)"/>
      <path id="HelveticaRounded-Bold-5a" d="M 1011 3078 
C 954 3290 781 3430 531 3430 
C 282 3430 77 3238 77 2982 
C 77 2874 115 2771 192 2547 
L 1165 -224 
C 1094 -512 960 -518 838 -518 
L 742 -518 
C 493 -518 314 -646 314 -896 
C 314 -1120 486 -1325 902 -1325 
C 1491 -1325 1747 -992 1971 -352 
L 3053 2714 
C 3098 2835 3123 2931 3123 3008 
C 3123 3123 3014 3430 2643 3430 
C 2387 3430 2259 3251 2195 3014 
L 1626 896 
L 1613 896 
L 1011 3078 
z
" transform="scale(0.015625)"/>
      <path id="HelveticaRounded-Bold-27" d="M 512 442 
C 512 128 717 -83 1037 -83 
C 1357 -83 1562 128 1562 442 
L 1562 1882 
L 3149 1882 
C 3424 1882 3642 1958 3642 2285 
C 3642 2611 3424 2688 3149 2688 
L 1562 2688 
L 1562 3763 
L 3437 3763 
C 3744 3763 3968 3853 3968 4186 
C 3968 4518 3744 4608 3437 4608 
L 1126 4608 
C 755 4608 512 4461 512 3994 
L 512 442 
z
" transform="scale(0.015625)"/>
      <path id="HelveticaRounded-Bold-55" d="M 614 749 
C 614 198 896 -83 1574 -83 
C 2022 -83 2253 64 2253 333 
C 2253 531 2131 646 1926 646 
L 1792 646 
C 1626 646 1549 723 1549 864 
L 1549 2733 
L 1830 2733 
C 2106 2733 2253 2816 2253 3040 
C 2253 3264 2106 3347 1830 3347 
L 1549 3347 
L 1549 3917 
C 1549 4224 1363 4384 1082 4384 
C 800 4384 614 4224 614 3917 
L 614 3347 
L 454 3347 
C 192 3347 83 3245 83 3040 
C 83 2835 192 2733 454 2733 
L 614 2733 
L 614 749 
z
" transform="scale(0.015625)"/>
      <path id="HelveticaRounded-Bold-51" d="M 371 -858 
C 371 -1165 557 -1325 838 -1325 
C 1120 -1325 1306 -1165 1306 -858 
L 1306 390 
L 1318 390 
C 1491 90 1811 -83 2240 -83 
C 3226 -83 3680 755 3680 1651 
C 3680 2861 2995 3430 2214 3430 
C 1760 3430 1382 3238 1229 2842 
L 1216 2842 
L 1216 2989 
C 1216 3277 1069 3430 794 3430 
C 506 3430 371 3277 371 2989 
L 371 -858 
z
M 2746 1683 
C 2746 1248 2598 646 2003 646 
C 1434 640 1254 1203 1254 1683 
C 1254 2214 1459 2701 2003 2701 
C 2502 2688 2746 2234 2746 1683 
z
" transform="scale(0.015625)"/>
      <path id="HelveticaRounded-Bold-4a" d="M 422 384 
C 422 134 525 -83 890 -83 
C 1254 -83 1357 134 1357 384 
L 1357 2963 
C 1357 3213 1254 3430 890 3430 
C 525 3430 422 3213 422 2963 
L 422 384 
z
M 403 4230 
C 403 3962 621 3744 890 3744 
C 1158 3744 1376 3962 1376 4230 
C 1376 4499 1158 4717 890 4717 
C 621 4717 403 4499 403 4230 
z
" transform="scale(0.015625)"/>
      <path id="HelveticaRounded-Bold-4f" d="M 371 384 
C 371 134 474 -83 838 -83 
C 1203 -83 1306 134 1306 384 
L 1306 1926 
C 1306 2394 1690 2662 2016 2662 
C 2419 2662 2605 2394 2605 2016 
L 2605 384 
C 2605 134 2707 -83 3072 -83 
C 3437 -83 3539 134 3539 384 
L 3539 2202 
C 3539 3149 2925 3430 2362 3430 
C 1830 3430 1491 3187 1229 2842 
L 1216 2842 
L 1216 2963 
C 1216 3245 1088 3430 794 3430 
C 499 3430 371 3245 371 2963 
L 371 384 
z
" transform="scale(0.015625)"/>
     </defs>
     <use xlink:href="#HelveticaRounded-Bold-31"/>
     <use xlink:href="#HelveticaRounded-Bold-46" transform="translate(67.40625 0)"/>
     <use xlink:href="#HelveticaRounded-Bold-42" transform="translate(128.609375 0)"/>
     <use xlink:href="#HelveticaRounded-Bold-4c" transform="translate(189.703125 0)"/>
     <use xlink:href="#HelveticaRounded-Bold-1" transform="translate(243.40625 0)"/>
     <use xlink:href="#HelveticaRounded-Bold-2e" transform="translate(274 0)"/>
     <use xlink:href="#HelveticaRounded-Bold-46" transform="translate(362.796875 0)"/>
     <use xlink:href="#HelveticaRounded-Bold-4e" transform="translate(424 0)"/>
     <use xlink:href="#HelveticaRounded-Bold-50" transform="translate(516.59375 0)"/>
     <use xlink:href="#HelveticaRounded-Bold-53" transform="translate(577.796875 0)"/>
     <use xlink:href="#HelveticaRounded-Bold-5a" transform="translate(618.5 0)"/>
     <use xlink:href="#HelveticaRounded-Bold-1" transform="translate(668.5 0)"/>
     <use xlink:href="#HelveticaRounded-Bold-27" transform="translate(699.09375 0)"/>
     <use xlink:href="#HelveticaRounded-Bold-50" transform="translate(758.390625 0)"/>
     <use xlink:href="#HelveticaRounded-Bold-50" transform="translate(819.59375 0)"/>
     <use xlink:href="#HelveticaRounded-Bold-55" transform="translate(880.796875 0)"/>
     <use xlink:href="#HelveticaRounded-Bold-51" transform="translate(917.796875 0)"/>
     <use xlink:href="#HelveticaRounded-Bold-53" transform="translate(978.890625 0)"/>
     <use xlink:href="#HelveticaRounded-Bold-4a" transform="translate(1019.59375 0)"/>
     <use xlink:href="#HelveticaRounded-Bold-4f" transform="translate(1047.390625 0)"/>
     <use xlink:href="#HelveticaRounded-Bold-55" transform="translate(1108.484375 0)"/>
    </g>
   </g>
  </g>
 </g>
 <defs>
  <clipPath id="pb878643560">
   <rect x="52.02" y="31.68" width="297.18" height="229.320781"/>
  </clipPath>
 </defs>
</svg>
