<?xml version="1.0" encoding="utf-8" standalone="no"?>
<!DOCTYPE svg PUBLIC "-//W3C//DTD SVG 1.1//EN"
  "http://www.w3.org/Graphics/SVG/1.1/DTD/svg11.dtd">
<svg xmlns:xlink="http://www.w3.org/1999/xlink" width="504pt" height="324pt" viewBox="0 0 504 324" xmlns="http://www.w3.org/2000/svg" version="1.1">
 <metadata>
  <rdf:RDF xmlns:dc="http://purl.org/dc/elements/1.1/" xmlns:cc="http://creativecommons.org/ns#" xmlns:rdf="http://www.w3.org/1999/02/22-rdf-syntax-ns#">
   <cc:Work>
    <dc:type rdf:resource="http://purl.org/dc/dcmitype/StillImage"/>
    <dc:date>2026-07-06T14:16:42.049769</dc:date>
    <dc:format>image/svg+xml</dc:format>
    <dc:creator>
     <cc:Agent>
      <dc:title>Matplotlib v3.11.0, https://matplotlib.org/</dc:title>
     </cc:Agent>
    </dc:creator>
   </cc:Work>
  </rdf:RDF>
 </metadata>
 <defs>
  <style type="text/css">*{stroke-linejoin: round; stroke-linecap: butt}</style>
 </defs>
 <g id="figure_1">
  <g id="patch_1">
   <path d="M 0 324 
L 504 324 
L 504 0 
L 0 0 
z
" style="fill: #ffffff"/>
  </g>
  <g id="axes_1">
   <g id="patch_2">
    <path d="M 87.52502 267.825061 
L 493.2 267.825061 
L 493.2 31.68 
L 87.52502 31.68 
z
" style="fill: #ffffff"/>
   </g>
   <g id="patch_3">
    <path d="M 105.964792 267.825061 
L 146.942063 267.825061 
L 146.942063 53.147733 
L 105.964792 53.147733 
z
" clip-path="url(#p29b3f05fe7)" style="fill: #3b82f6"/>
   </g>
   <g id="patch_4">
    <path d="M 187.919333 267.825061 
L 228.896604 267.825061 
L 228.896604 53.147733 
L 187.919333 53.147733 
z
" clip-path="url(#p29b3f05fe7)" style="fill: #3b82f6"/>
   </g>
   <g id="patch_5">
    <path d="M 269.873875 267.825061 
L 310.851145 267.825061 
L 310.851145 53.147733 
L 269.873875 53.147733 
z
" clip-path="url(#p29b3f05fe7)" style="fill: #3b82f6"/>
   </g>
   <g id="patch_6">
    <path d="M 351.828416 267.825061 
L 392.805687 267.825061 
L 392.805687 53.147733 
L 351.828416 53.147733 
z
" clip-path="url(#p29b3f05fe7)" style="fill: #3b82f6"/>
   </g>
   <g id="patch_7">
    <path d="M 433.782958 267.825061 
L 474.760228 267.825061 
L 474.760228 53.147733 
L 433.782958 53.147733 
z
" clip-path="url(#p29b3f05fe7)" style="fill: #3b82f6"/>
   </g>
   <g id="matplotlib.axis_1">
    <g id="xtick_1">
     <g id="line2d_1">
      <defs>
       <path id="m1951c13dc4" d="M 0 0 
L 0 3.5 
" style="stroke: #4b5563; stroke-width: 0.8"/>
      </defs>
      <g>
       <use xlink:href="#m1951c13dc4" x="126.453427" y="267.825061" style="fill: #4b5563; stroke: #4b5563; stroke-width: 0.8"/>
      </g>
     </g>
     <g id="text_1">
      <!-- Node Failure During Training -->
      <g style="fill: #4b5563" transform="translate(14.799232 311.124617) rotate(-15) scale(0.09 -0.09)">
       <defs>
        <path id="Helvetica-31" d="M 488 4591 
L 1222 4591 
L 3541 872 
L 3541 4591 
L 4131 4591 
L 4131 0 
L 3434 0 
L 1081 3716 
L 1081 0 
L 488 0 
L 488 4591 
z
M 2269 4591 
L 2269 4591 
z
" transform="scale(0.015625)"/>
        <path id="Helvetica-52" d="M 1741 363 
Q 2300 363 2508 786 
Q 2716 1209 2716 1728 
Q 2716 2197 2566 2491 
Q 2328 2953 1747 2953 
Q 1231 2953 997 2559 
Q 763 2166 763 1609 
Q 763 1075 997 719 
Q 1231 363 1741 363 
z
M 1763 3444 
Q 2409 3444 2856 3012 
Q 3303 2581 3303 1744 
Q 3303 934 2909 406 
Q 2516 -122 1688 -122 
Q 997 -122 590 345 
Q 184 813 184 1600 
Q 184 2444 612 2944 
Q 1041 3444 1763 3444 
z
M 1744 3428 
L 1744 3428 
z
" transform="scale(0.015625)"/>
        <path id="Helvetica-47" d="M 769 1634 
Q 769 1097 997 734 
Q 1225 372 1728 372 
Q 2119 372 2370 708 
Q 2622 1044 2622 1672 
Q 2622 2306 2362 2611 
Q 2103 2916 1722 2916 
Q 1297 2916 1033 2591 
Q 769 2266 769 1634 
z
M 1616 3406 
Q 2000 3406 2259 3244 
Q 2409 3150 2600 2916 
L 2600 4606 
L 3141 4606 
L 3141 0 
L 2634 0 
L 2634 466 
Q 2438 156 2169 18 
Q 1900 -119 1553 -119 
Q 994 -119 584 351 
Q 175 822 175 1603 
Q 175 2334 548 2870 
Q 922 3406 1616 3406 
z
" transform="scale(0.015625)"/>
        <path id="Helvetica-48" d="M 1806 3422 
Q 2163 3422 2497 3255 
Q 2831 3088 3006 2822 
Q 3175 2569 3231 2231 
Q 3281 2000 3281 1494 
L 828 1494 
Q 844 984 1069 676 
Q 1294 369 1766 369 
Q 2206 369 2469 659 
Q 2619 828 2681 1050 
L 3234 1050 
Q 3213 866 3089 639 
Q 2966 413 2813 269 
Q 2556 19 2178 -69 
Q 1975 -119 1719 -119 
Q 1094 -119 659 336 
Q 225 791 225 1609 
Q 225 2416 662 2919 
Q 1100 3422 1806 3422 
z
M 2703 1941 
Q 2669 2306 2544 2525 
Q 2313 2931 1772 2931 
Q 1384 2931 1121 2651 
Q 859 2372 844 1941 
L 2703 1941 
z
M 1753 3428 
L 1753 3428 
z
" transform="scale(0.015625)"/>
        <path id="Helvetica-3" transform="scale(0.015625)"/>
        <path id="Helvetica-29" d="M 547 4591 
L 3731 4591 
L 3731 4028 
L 1169 4028 
L 1169 2634 
L 3422 2634 
L 3422 2088 
L 1169 2088 
L 1169 0 
L 547 0 
L 547 4591 
z
" transform="scale(0.015625)"/>
        <path id="Helvetica-44" d="M 844 891 
Q 844 647 1022 506 
Q 1200 366 1444 366 
Q 1741 366 2019 503 
Q 2488 731 2488 1250 
L 2488 1703 
Q 2384 1638 2221 1594 
Q 2059 1550 1903 1531 
L 1563 1488 
Q 1256 1447 1103 1359 
Q 844 1213 844 891 
z
M 2206 2028 
Q 2400 2053 2466 2191 
Q 2503 2266 2503 2406 
Q 2503 2694 2298 2823 
Q 2094 2953 1713 2953 
Q 1272 2953 1088 2716 
Q 984 2584 953 2325 
L 428 2325 
Q 444 2944 830 3186 
Q 1216 3428 1725 3428 
Q 2316 3428 2684 3203 
Q 3050 2978 3050 2503 
L 3050 575 
Q 3050 488 3086 434 
Q 3122 381 3238 381 
Q 3275 381 3322 386 
Q 3369 391 3422 400 
L 3422 -16 
Q 3291 -53 3222 -62 
Q 3153 -72 3034 -72 
Q 2744 -72 2613 134 
Q 2544 244 2516 444 
Q 2344 219 2022 53 
Q 1700 -113 1313 -113 
Q 847 -113 551 170 
Q 256 453 256 878 
Q 256 1344 547 1600 
Q 838 1856 1309 1916 
L 2206 2028 
z
M 1741 3428 
L 1741 3428 
z
" transform="scale(0.015625)"/>
        <path id="Helvetica-4c" d="M 413 3331 
L 984 3331 
L 984 0 
L 413 0 
L 413 3331 
z
M 413 4591 
L 984 4591 
L 984 3953 
L 413 3953 
L 413 4591 
z
" transform="scale(0.015625)"/>
        <path id="Helvetica-4f" d="M 428 4591 
L 991 4591 
L 991 0 
L 428 0 
L 428 4591 
z
" transform="scale(0.015625)"/>
        <path id="Helvetica-58" d="M 975 3347 
L 975 1125 
Q 975 869 1056 706 
Q 1206 406 1616 406 
Q 2203 406 2416 931 
Q 2531 1213 2531 1703 
L 2531 3347 
L 3094 3347 
L 3094 0 
L 2563 0 
L 2569 494 
Q 2459 303 2297 172 
Q 1975 -91 1516 -91 
Q 800 -91 541 388 
Q 400 644 400 1072 
L 400 3347 
L 975 3347 
z
M 1747 3428 
L 1747 3428 
z
" transform="scale(0.015625)"/>
        <path id="Helvetica-55" d="M 428 3347 
L 963 3347 
L 963 2769 
Q 1028 2938 1284 3180 
Q 1541 3422 1875 3422 
Q 1891 3422 1928 3419 
Q 1966 3416 2056 3406 
L 2056 2813 
Q 2006 2822 1964 2825 
Q 1922 2828 1872 2828 
Q 1447 2828 1219 2554 
Q 991 2281 991 1925 
L 991 0 
L 428 0 
L 428 3347 
z
" transform="scale(0.015625)"/>
        <path id="Helvetica-27" d="M 2250 531 
Q 2566 531 2769 597 
Q 3131 719 3363 1066 
Q 3547 1344 3628 1778 
Q 3675 2038 3675 2259 
Q 3675 3113 3336 3584 
Q 2997 4056 2244 4056 
L 1141 4056 
L 1141 531 
L 2250 531 
z
M 516 4591 
L 2375 4591 
Q 3322 4591 3844 3919 
Q 4309 3313 4309 2366 
Q 4309 1634 4034 1044 
Q 3550 0 2369 0 
L 516 0 
L 516 4591 
z
" transform="scale(0.015625)"/>
        <path id="Helvetica-51" d="M 413 3347 
L 947 3347 
L 947 2872 
Q 1184 3166 1450 3294 
Q 1716 3422 2041 3422 
Q 2753 3422 3003 2925 
Q 3141 2653 3141 2147 
L 3141 0 
L 2569 0 
L 2569 2109 
Q 2569 2416 2478 2603 
Q 2328 2916 1934 2916 
Q 1734 2916 1606 2875 
Q 1375 2806 1200 2600 
Q 1059 2434 1017 2257 
Q 975 2081 975 1753 
L 975 0 
L 413 0 
L 413 3347 
z
M 1734 3428 
L 1734 3428 
z
" transform="scale(0.015625)"/>
        <path id="Helvetica-4a" d="M 1594 3406 
Q 1988 3406 2281 3213 
Q 2441 3103 2606 2894 
L 2606 3316 
L 3125 3316 
L 3125 272 
Q 3125 -366 2938 -734 
Q 2588 -1416 1616 -1416 
Q 1075 -1416 706 -1173 
Q 338 -931 294 -416 
L 866 -416 
Q 906 -641 1028 -763 
Q 1219 -950 1628 -950 
Q 2275 -950 2475 -494 
Q 2594 -225 2584 466 
Q 2416 209 2178 84 
Q 1941 -41 1550 -41 
Q 1006 -41 598 345 
Q 191 731 191 1622 
Q 191 2463 602 2934 
Q 1013 3406 1594 3406 
z
M 2606 1688 
Q 2606 2309 2350 2609 
Q 2094 2909 1697 2909 
Q 1103 2909 884 2353 
Q 769 2056 769 1575 
Q 769 1009 998 714 
Q 1228 419 1616 419 
Q 2222 419 2469 966 
Q 2606 1275 2606 1688 
z
M 1659 3428 
L 1659 3428 
z
" transform="scale(0.015625)"/>
        <path id="Helvetica-37" d="M 3828 4591 
L 3828 4044 
L 2281 4044 
L 2281 0 
L 1650 0 
L 1650 4044 
L 103 4044 
L 103 4591 
L 3828 4591 
z
" transform="scale(0.015625)"/>
       </defs>
       <use xlink:href="#Helvetica-31"/>
       <use xlink:href="#Helvetica-52" transform="translate(72.21875 0)"/>
       <use xlink:href="#Helvetica-47" transform="translate(127.828125 0)"/>
       <use xlink:href="#Helvetica-48" transform="translate(183.4375 0)"/>
       <use xlink:href="#Helvetica-3" transform="translate(239.046875 0)"/>
       <use xlink:href="#Helvetica-29" transform="translate(266.828125 0)"/>
       <use xlink:href="#Helvetica-44" transform="translate(327.90625 0)"/>
       <use xlink:href="#Helvetica-4c" transform="translate(383.515625 0)"/>
       <use xlink:href="#Helvetica-4f" transform="translate(405.734375 0)"/>
       <use xlink:href="#Helvetica-58" transform="translate(427.953125 0)"/>
       <use xlink:href="#Helvetica-55" transform="translate(483.5625 0)"/>
       <use xlink:href="#Helvetica-48" transform="translate(516.859375 0)"/>
       <use xlink:href="#Helvetica-3" transform="translate(572.46875 0)"/>
       <use xlink:href="#Helvetica-27" transform="translate(600.25 0)"/>
       <use xlink:href="#Helvetica-58" transform="translate(672.46875 0)"/>
       <use xlink:href="#Helvetica-55" transform="translate(728.078125 0)"/>
       <use xlink:href="#Helvetica-4c" transform="translate(761.375 0)"/>
       <use xlink:href="#Helvetica-51" transform="translate(783.59375 0)"/>
       <use xlink:href="#Helvetica-4a" transform="translate(839.203125 0)"/>
       <use xlink:href="#Helvetica-3" transform="translate(894.8125 0)"/>
       <use xlink:href="#Helvetica-37" transform="translate(920.84375 0)"/>
       <use xlink:href="#Helvetica-55" transform="translate(978.265625 0)"/>
       <use xlink:href="#Helvetica-44" transform="translate(1011.5625 0)"/>
       <use xlink:href="#Helvetica-4c" transform="translate(1067.171875 0)"/>
       <use xlink:href="#Helvetica-51" transform="translate(1089.390625 0)"/>
       <use xlink:href="#Helvetica-4c" transform="translate(1145 0)"/>
       <use xlink:href="#Helvetica-51" transform="translate(1167.21875 0)"/>
       <use xlink:href="#Helvetica-4a" transform="translate(1222.828125 0)"/>
      </g>
     </g>
    </g>
    <g id="xtick_2">
     <g id="line2d_2">
      <g>
       <use xlink:href="#m1951c13dc4" x="208.407969" y="267.825061" style="fill: #4b5563; stroke: #4b5563; stroke-width: 0.8"/>
      </g>
     </g>
     <g id="text_2">
      <!-- Missed Heartbeats -->
      <g style="fill: #4b5563" transform="translate(135.541007 300.763646) rotate(-15) scale(0.09 -0.09)">
       <defs>
        <path id="Helvetica-30" d="M 472 4591 
L 1363 4591 
L 2681 709 
L 3991 4591 
L 4872 4591 
L 4872 0 
L 4281 0 
L 4281 2709 
Q 4281 2850 4287 3175 
Q 4294 3500 4294 3872 
L 2984 0 
L 2369 0 
L 1050 3872 
L 1050 3731 
Q 1050 3563 1058 3217 
Q 1066 2872 1066 2709 
L 1066 0 
L 472 0 
L 472 4591 
z
" transform="scale(0.015625)"/>
        <path id="Helvetica-56" d="M 747 1050 
Q 772 769 888 619 
Q 1100 347 1625 347 
Q 1938 347 2175 483 
Q 2413 619 2413 903 
Q 2413 1119 2222 1231 
Q 2100 1300 1741 1391 
L 1294 1503 
Q 866 1609 663 1741 
Q 300 1969 300 2372 
Q 300 2847 642 3140 
Q 984 3434 1563 3434 
Q 2319 3434 2653 2991 
Q 2863 2709 2856 2384 
L 2325 2384 
Q 2309 2575 2191 2731 
Q 1997 2953 1519 2953 
Q 1200 2953 1036 2831 
Q 872 2709 872 2509 
Q 872 2291 1088 2159 
Q 1213 2081 1456 2022 
L 1828 1931 
Q 2434 1784 2641 1647 
Q 2969 1431 2969 969 
Q 2969 522 2630 197 
Q 2291 -128 1597 -128 
Q 850 -128 539 211 
Q 228 550 206 1050 
L 747 1050 
z
M 1578 3428 
L 1578 3428 
z
" transform="scale(0.015625)"/>
        <path id="Helvetica-2b" d="M 503 4591 
L 1131 4591 
L 1131 2694 
L 3519 2694 
L 3519 4591 
L 4147 4591 
L 4147 0 
L 3519 0 
L 3519 2147 
L 1131 2147 
L 1131 0 
L 503 0 
L 503 4591 
z
" transform="scale(0.015625)"/>
        <path id="Helvetica-57" d="M 525 4281 
L 1094 4281 
L 1094 3347 
L 1628 3347 
L 1628 2888 
L 1094 2888 
L 1094 703 
Q 1094 528 1213 469 
Q 1278 434 1431 434 
Q 1472 434 1519 436 
Q 1566 438 1628 444 
L 1628 0 
Q 1531 -28 1426 -40 
Q 1322 -53 1200 -53 
Q 806 -53 665 148 
Q 525 350 525 672 
L 525 2888 
L 72 2888 
L 72 3347 
L 525 3347 
L 525 4281 
z
" transform="scale(0.015625)"/>
        <path id="Helvetica-45" d="M 369 4606 
L 916 4606 
L 916 2941 
Q 1100 3181 1356 3307 
Q 1613 3434 1913 3434 
Q 2538 3434 2927 3004 
Q 3316 2575 3316 1738 
Q 3316 944 2931 419 
Q 2547 -106 1866 -106 
Q 1484 -106 1222 78 
Q 1066 188 888 428 
L 888 0 
L 369 0 
L 369 4606 
z
M 1831 391 
Q 2288 391 2514 753 
Q 2741 1116 2741 1709 
Q 2741 2238 2514 2584 
Q 2288 2931 1847 2931 
Q 1463 2931 1173 2647 
Q 884 2363 884 1709 
Q 884 1238 1003 944 
Q 1225 391 1831 391 
z
" transform="scale(0.015625)"/>
       </defs>
       <use xlink:href="#Helvetica-30"/>
       <use xlink:href="#Helvetica-4c" transform="translate(83.296875 0)"/>
       <use xlink:href="#Helvetica-56" transform="translate(105.515625 0)"/>
       <use xlink:href="#Helvetica-56" transform="translate(155.515625 0)"/>
       <use xlink:href="#Helvetica-48" transform="translate(205.515625 0)"/>
       <use xlink:href="#Helvetica-47" transform="translate(261.125 0)"/>
       <use xlink:href="#Helvetica-3" transform="translate(316.734375 0)"/>
       <use xlink:href="#Helvetica-2b" transform="translate(344.515625 0)"/>
       <use xlink:href="#Helvetica-48" transform="translate(416.734375 0)"/>
       <use xlink:href="#Helvetica-44" transform="translate(472.34375 0)"/>
       <use xlink:href="#Helvetica-55" transform="translate(527.953125 0)"/>
       <use xlink:href="#Helvetica-57" transform="translate(561.25 0)"/>
       <use xlink:href="#Helvetica-45" transform="translate(589.03125 0)"/>
       <use xlink:href="#Helvetica-48" transform="translate(644.640625 0)"/>
       <use xlink:href="#Helvetica-44" transform="translate(700.25 0)"/>
       <use xlink:href="#Helvetica-57" transform="translate(755.859375 0)"/>
       <use xlink:href="#Helvetica-56" transform="translate(783.640625 0)"/>
      </g>
     </g>
    </g>
    <g id="xtick_3">
     <g id="line2d_3">
      <g>
       <use xlink:href="#m1951c13dc4" x="290.36251" y="267.825061" style="fill: #4b5563; stroke: #4b5563; stroke-width: 0.8"/>
      </g>
     </g>
     <g id="text_3">
      <!-- Invalid Client Certificate -->
      <g style="fill: #4b5563" transform="translate(198.65275 305.812559) rotate(-15) scale(0.09 -0.09)">
       <defs>
        <path id="Helvetica-2c" d="M 628 4591 
L 1256 4591 
L 1256 0 
L 628 0 
L 628 4591 
z
" transform="scale(0.015625)"/>
        <path id="Helvetica-59" d="M 688 3347 
L 1581 622 
L 2516 3347 
L 3131 3347 
L 1869 0 
L 1269 0 
L 34 3347 
L 688 3347 
z
" transform="scale(0.015625)"/>
        <path id="Helvetica-26" d="M 2422 4716 
Q 3294 4716 3775 4256 
Q 4256 3797 4309 3213 
L 3703 3213 
Q 3600 3656 3292 3915 
Q 2984 4175 2428 4175 
Q 1750 4175 1333 3698 
Q 916 3222 916 2238 
Q 916 1431 1292 929 
Q 1669 428 2416 428 
Q 3103 428 3463 956 
Q 3653 1234 3747 1688 
L 4353 1688 
Q 4272 963 3816 472 
Q 3269 -119 2341 -119 
Q 1541 -119 997 366 
Q 281 1006 281 2344 
Q 281 3359 819 4009 
Q 1400 4716 2422 4716 
z
M 2297 4716 
L 2297 4716 
z
" transform="scale(0.015625)"/>
        <path id="Helvetica-7d4" d="M 553 3856 
Q 566 4206 675 4369 
Q 872 4656 1434 4656 
Q 1488 4656 1544 4653 
Q 1600 4650 1672 4644 
L 1672 4131 
Q 1584 4138 1545 4139 
Q 1506 4141 1472 4141 
Q 1216 4141 1166 4008 
Q 1116 3875 1116 3331 
L 1672 3331 
L 1672 2888 
L 1109 2888 
L 1109 0 
L 553 0 
L 553 2888 
L 88 2888 
L 88 3331 
L 553 3331 
L 553 3856 
z
M 2213 3953 
L 2213 4591 
L 2775 4591 
L 2775 3953 
L 2213 3953 
z
M 2213 3331 
L 2775 3331 
L 2775 0 
L 2213 0 
L 2213 3331 
z
" transform="scale(0.015625)"/>
        <path id="Helvetica-46" d="M 1703 3444 
Q 2269 3444 2623 3169 
Q 2978 2894 3050 2222 
L 2503 2222 
Q 2453 2531 2275 2736 
Q 2097 2941 1703 2941 
Q 1166 2941 934 2416 
Q 784 2075 784 1575 
Q 784 1072 996 728 
Q 1209 384 1666 384 
Q 2016 384 2220 598 
Q 2425 813 2503 1184 
L 3050 1184 
Q 2956 519 2581 211 
Q 2206 -97 1622 -97 
Q 966 -97 575 383 
Q 184 863 184 1581 
Q 184 2463 612 2953 
Q 1041 3444 1703 3444 
z
M 1616 3428 
L 1616 3428 
z
" transform="scale(0.015625)"/>
       </defs>
       <use xlink:href="#Helvetica-2c"/>
       <use xlink:href="#Helvetica-51" transform="translate(27.78125 0)"/>
       <use xlink:href="#Helvetica-59" transform="translate(83.390625 0)"/>
       <use xlink:href="#Helvetica-44" transform="translate(133.390625 0)"/>
       <use xlink:href="#Helvetica-4f" transform="translate(189 0)"/>
       <use xlink:href="#Helvetica-4c" transform="translate(211.21875 0)"/>
       <use xlink:href="#Helvetica-47" transform="translate(233.4375 0)"/>
       <use xlink:href="#Helvetica-3" transform="translate(289.046875 0)"/>
       <use xlink:href="#Helvetica-26" transform="translate(316.828125 0)"/>
       <use xlink:href="#Helvetica-4f" transform="translate(389.046875 0)"/>
       <use xlink:href="#Helvetica-4c" transform="translate(411.265625 0)"/>
       <use xlink:href="#Helvetica-48" transform="translate(433.484375 0)"/>
       <use xlink:href="#Helvetica-51" transform="translate(489.09375 0)"/>
       <use xlink:href="#Helvetica-57" transform="translate(544.703125 0)"/>
       <use xlink:href="#Helvetica-3" transform="translate(572.484375 0)"/>
       <use xlink:href="#Helvetica-26" transform="translate(600.265625 0)"/>
       <use xlink:href="#Helvetica-48" transform="translate(672.484375 0)"/>
       <use xlink:href="#Helvetica-55" transform="translate(728.09375 0)"/>
       <use xlink:href="#Helvetica-57" transform="translate(761.390625 0)"/>
       <use xlink:href="#Helvetica-4c" transform="translate(789.171875 0)"/>
       <use xlink:href="#Helvetica-7d4" transform="translate(811.390625 0)"/>
       <use xlink:href="#Helvetica-46" transform="translate(861.390625 0)"/>
       <use xlink:href="#Helvetica-44" transform="translate(911.390625 0)"/>
       <use xlink:href="#Helvetica-57" transform="translate(967 0)"/>
       <use xlink:href="#Helvetica-48" transform="translate(994.78125 0)"/>
      </g>
     </g>
    </g>
    <g id="xtick_4">
     <g id="line2d_4">
      <g>
       <use xlink:href="#m1951c13dc4" x="372.317051" y="267.825061" style="fill: #4b5563; stroke: #4b5563; stroke-width: 0.8"/>
      </g>
     </g>
     <g id="text_4">
      <!-- Tampered Audit Ledger -->
      <g style="fill: #4b5563" transform="translate(281.912621 305.43076) rotate(-15) scale(0.09 -0.09)">
       <defs>
        <path id="Helvetica-50" d="M 413 3347 
L 969 3347 
L 969 2872 
Q 1169 3119 1331 3231 
Q 1609 3422 1963 3422 
Q 2363 3422 2606 3225 
Q 2744 3113 2856 2894 
Q 3044 3163 3297 3292 
Q 3550 3422 3866 3422 
Q 4541 3422 4784 2934 
Q 4916 2672 4916 2228 
L 4916 0 
L 4331 0 
L 4331 2325 
Q 4331 2659 4164 2784 
Q 3997 2909 3756 2909 
Q 3425 2909 3186 2687 
Q 2947 2466 2947 1947 
L 2947 0 
L 2375 0 
L 2375 2184 
Q 2375 2525 2294 2681 
Q 2166 2916 1816 2916 
Q 1497 2916 1236 2669 
Q 975 2422 975 1775 
L 975 0 
L 413 0 
L 413 3347 
z
" transform="scale(0.015625)"/>
        <path id="Helvetica-53" d="M 1825 378 
Q 2219 378 2480 708 
Q 2741 1038 2741 1694 
Q 2741 2094 2625 2381 
Q 2406 2934 1825 2934 
Q 1241 2934 1025 2350 
Q 909 2038 909 1556 
Q 909 1169 1025 897 
Q 1244 378 1825 378 
z
M 369 3331 
L 916 3331 
L 916 2888 
Q 1084 3116 1284 3241 
Q 1569 3428 1953 3428 
Q 2522 3428 2919 2992 
Q 3316 2556 3316 1747 
Q 3316 653 2744 184 
Q 2381 -113 1900 -113 
Q 1522 -113 1266 53 
Q 1116 147 931 375 
L 931 -1334 
L 369 -1334 
L 369 3331 
z
" transform="scale(0.015625)"/>
        <path id="Helvetica-24" d="M 2844 1881 
L 2147 3909 
L 1406 1881 
L 2844 1881 
z
M 1822 4591 
L 2525 4591 
L 4191 0 
L 3509 0 
L 3044 1375 
L 1228 1375 
L 731 0 
L 94 0 
L 1822 4591 
z
M 2144 4591 
L 2144 4591 
z
" transform="scale(0.015625)"/>
        <path id="Helvetica-2f" d="M 488 4591 
L 1109 4591 
L 1109 547 
L 3434 547 
L 3434 0 
L 488 0 
L 488 4591 
z
" transform="scale(0.015625)"/>
       </defs>
       <use xlink:href="#Helvetica-37"/>
       <use xlink:href="#Helvetica-44" transform="translate(50 0)"/>
       <use xlink:href="#Helvetica-50" transform="translate(105.609375 0)"/>
       <use xlink:href="#Helvetica-53" transform="translate(188.90625 0)"/>
       <use xlink:href="#Helvetica-48" transform="translate(244.515625 0)"/>
       <use xlink:href="#Helvetica-55" transform="translate(300.125 0)"/>
       <use xlink:href="#Helvetica-48" transform="translate(333.421875 0)"/>
       <use xlink:href="#Helvetica-47" transform="translate(389.03125 0)"/>
       <use xlink:href="#Helvetica-3" transform="translate(444.640625 0)"/>
       <use xlink:href="#Helvetica-24" transform="translate(466.953125 0)"/>
       <use xlink:href="#Helvetica-58" transform="translate(533.65625 0)"/>
       <use xlink:href="#Helvetica-47" transform="translate(589.265625 0)"/>
       <use xlink:href="#Helvetica-4c" transform="translate(644.875 0)"/>
       <use xlink:href="#Helvetica-57" transform="translate(667.09375 0)"/>
       <use xlink:href="#Helvetica-3" transform="translate(694.875 0)"/>
       <use xlink:href="#Helvetica-2f" transform="translate(722.65625 0)"/>
       <use xlink:href="#Helvetica-48" transform="translate(778.265625 0)"/>
       <use xlink:href="#Helvetica-47" transform="translate(833.875 0)"/>
       <use xlink:href="#Helvetica-4a" transform="translate(889.484375 0)"/>
       <use xlink:href="#Helvetica-48" transform="translate(945.09375 0)"/>
       <use xlink:href="#Helvetica-55" transform="translate(1000.703125 0)"/>
      </g>
     </g>
    </g>
    <g id="xtick_5">
     <g id="line2d_5">
      <g>
       <use xlink:href="#m1951c13dc4" x="454.271593" y="267.825061" style="fill: #4b5563; stroke: #4b5563; stroke-width: 0.8"/>
      </g>
     </g>
     <g id="text_5">
      <!-- Slow Node -->
      <g style="fill: #4b5563" transform="translate(411.836728 292.60939) rotate(-15) scale(0.09 -0.09)">
       <defs>
        <path id="Helvetica-36" d="M 894 1481 
Q 916 1091 1078 847 
Q 1388 391 2169 391 
Q 2519 391 2806 491 
Q 3363 684 3363 1184 
Q 3363 1559 3128 1719 
Q 2891 1875 2384 1991 
L 1763 2131 
Q 1153 2269 900 2434 
Q 463 2722 463 3294 
Q 463 3913 891 4309 
Q 1319 4706 2103 4706 
Q 2825 4706 3329 4357 
Q 3834 4009 3834 3244 
L 3250 3244 
Q 3203 3613 3050 3809 
Q 2766 4169 2084 4169 
Q 1534 4169 1293 3937 
Q 1053 3706 1053 3400 
Q 1053 3063 1334 2906 
Q 1519 2806 2169 2656 
L 2813 2509 
Q 3278 2403 3531 2219 
Q 3969 1897 3969 1284 
Q 3969 522 3414 194 
Q 2859 -134 2125 -134 
Q 1269 -134 784 303 
Q 300 738 309 1481 
L 894 1481 
z
M 2150 4716 
L 2150 4716 
z
" transform="scale(0.015625)"/>
        <path id="Helvetica-5a" d="M 672 3347 
L 1316 709 
L 1969 3347 
L 2600 3347 
L 3256 725 
L 3941 3347 
L 4503 3347 
L 3531 0 
L 2947 0 
L 2266 2591 
L 1606 0 
L 1022 0 
L 56 3347 
L 672 3347 
z
" transform="scale(0.015625)"/>
       </defs>
       <use xlink:href="#Helvetica-36"/>
       <use xlink:href="#Helvetica-4f" transform="translate(66.703125 0)"/>
       <use xlink:href="#Helvetica-52" transform="translate(88.921875 0)"/>
       <use xlink:href="#Helvetica-5a" transform="translate(144.53125 0)"/>
       <use xlink:href="#Helvetica-3" transform="translate(216.75 0)"/>
       <use xlink:href="#Helvetica-31" transform="translate(244.53125 0)"/>
       <use xlink:href="#Helvetica-52" transform="translate(316.75 0)"/>
       <use xlink:href="#Helvetica-47" transform="translate(372.359375 0)"/>
       <use xlink:href="#Helvetica-48" transform="translate(427.96875 0)"/>
      </g>
     </g>
    </g>
   </g>
   <g id="matplotlib.axis_2">
    <g id="ytick_1">
     <g id="line2d_6">
      <path d="M 87.52502 267.825061 
L 493.2 267.825061 
" clip-path="url(#p29b3f05fe7)" style="fill: none; stroke-dasharray: 1.85,0.8; stroke-dashoffset: 0; stroke: #e5e7eb; stroke-opacity: 0.7; stroke-width: 0.5"/>
     </g>
     <g id="line2d_7">
      <defs>
       <path id="m0821bc6be6" d="M 0 0 
L -3.5 0 
" style="stroke: #4b5563; stroke-width: 0.8"/>
      </defs>
      <g>
       <use xlink:href="#m0821bc6be6" x="87.52502" y="267.825061" style="fill: #4b5563; stroke: #4b5563; stroke-width: 0.8"/>
      </g>
     </g>
     <g id="text_6">
      <!-- 0 -->
      <g style="fill: #4b5563" transform="translate(74.964083 271.575061) scale(0.1 -0.1)">
       <defs>
        <path id="Helvetica-13" d="M 1731 4475 
Q 2600 4475 2988 3759 
Q 3288 3206 3288 2244 
Q 3288 1331 3016 734 
Q 2622 -122 1728 -122 
Q 922 -122 528 578 
Q 200 1163 200 2147 
Q 200 2909 397 3456 
Q 766 4475 1731 4475 
z
M 1725 391 
Q 2163 391 2422 778 
Q 2681 1166 2681 2222 
Q 2681 2984 2493 3476 
Q 2306 3969 1766 3969 
Q 1269 3969 1039 3501 
Q 809 3034 809 2125 
Q 809 1441 956 1025 
Q 1181 391 1725 391 
z
" transform="scale(0.015625)"/>
       </defs>
       <use xlink:href="#Helvetica-13"/>
      </g>
     </g>
    </g>
    <g id="ytick_2">
     <g id="line2d_8">
      <path d="M 87.52502 224.889595 
L 493.2 224.889595 
" clip-path="url(#p29b3f05fe7)" style="fill: none; stroke-dasharray: 1.85,0.8; stroke-dashoffset: 0; stroke: #e5e7eb; stroke-opacity: 0.7; stroke-width: 0.5"/>
     </g>
     <g id="line2d_9">
      <g>
       <use xlink:href="#m0821bc6be6" x="87.52502" y="224.889595" style="fill: #4b5563; stroke: #4b5563; stroke-width: 0.8"/>
      </g>
     </g>
     <g id="text_7">
      <!-- 20 -->
      <g style="fill: #4b5563" transform="translate(69.403145 228.639595) scale(0.1 -0.1)">
       <defs>
        <path id="Helvetica-15" d="M 200 0 
Q 231 578 439 1006 
Q 647 1434 1250 1784 
L 1850 2131 
Q 2253 2366 2416 2531 
Q 2672 2791 2672 3125 
Q 2672 3516 2437 3745 
Q 2203 3975 1813 3975 
Q 1234 3975 1013 3538 
Q 894 3303 881 2888 
L 309 2888 
Q 319 3472 525 3841 
Q 891 4491 1816 4491 
Q 2584 4491 2939 4075 
Q 3294 3659 3294 3150 
Q 3294 2613 2916 2231 
Q 2697 2009 2131 1694 
L 1703 1456 
Q 1397 1288 1222 1134 
Q 909 863 828 531 
L 3272 531 
L 3272 0 
L 200 0 
z
" transform="scale(0.015625)"/>
       </defs>
       <use xlink:href="#Helvetica-15"/>
       <use xlink:href="#Helvetica-13" transform="translate(55.609375 0)"/>
      </g>
     </g>
    </g>
    <g id="ytick_3">
     <g id="line2d_10">
      <path d="M 87.52502 181.954129 
L 493.2 181.954129 
" clip-path="url(#p29b3f05fe7)" style="fill: none; stroke-dasharray: 1.85,0.8; stroke-dashoffset: 0; stroke: #e5e7eb; stroke-opacity: 0.7; stroke-width: 0.5"/>
     </g>
     <g id="line2d_11">
      <g>
       <use xlink:href="#m0821bc6be6" x="87.52502" y="181.954129" style="fill: #4b5563; stroke: #4b5563; stroke-width: 0.8"/>
      </g>
     </g>
     <g id="text_8">
      <!-- 40 -->
      <g style="fill: #4b5563" transform="translate(69.403145 185.704129) scale(0.1 -0.1)">
       <defs>
        <path id="Helvetica-17" d="M 2116 1584 
L 2116 3613 
L 681 1584 
L 2116 1584 
z
M 2125 0 
L 2125 1094 
L 163 1094 
L 163 1644 
L 2213 4488 
L 2688 4488 
L 2688 1584 
L 3347 1584 
L 3347 1094 
L 2688 1094 
L 2688 0 
L 2125 0 
z
" transform="scale(0.015625)"/>
       </defs>
       <use xlink:href="#Helvetica-17"/>
       <use xlink:href="#Helvetica-13" transform="translate(55.609375 0)"/>
      </g>
     </g>
    </g>
    <g id="ytick_4">
     <g id="line2d_12">
      <path d="M 87.52502 139.018664 
L 493.2 139.018664 
" clip-path="url(#p29b3f05fe7)" style="fill: none; stroke-dasharray: 1.85,0.8; stroke-dashoffset: 0; stroke: #e5e7eb; stroke-opacity: 0.7; stroke-width: 0.5"/>
     </g>
     <g id="line2d_13">
      <g>
       <use xlink:href="#m0821bc6be6" x="87.52502" y="139.018664" style="fill: #4b5563; stroke: #4b5563; stroke-width: 0.8"/>
      </g>
     </g>
     <g id="text_9">
      <!-- 60 -->
      <g style="fill: #4b5563" transform="translate(69.403145 142.768664) scale(0.1 -0.1)">
       <defs>
        <path id="Helvetica-19" d="M 1872 4494 
Q 2622 4494 2917 4105 
Q 3213 3716 3213 3303 
L 2656 3303 
Q 2606 3569 2497 3719 
Q 2294 4000 1881 4000 
Q 1409 4000 1131 3564 
Q 853 3128 822 2316 
Q 1016 2600 1309 2741 
Q 1578 2866 1909 2866 
Q 2472 2866 2890 2506 
Q 3309 2147 3309 1434 
Q 3309 825 2912 354 
Q 2516 -116 1781 -116 
Q 1153 -116 697 361 
Q 241 838 241 1966 
Q 241 2800 444 3381 
Q 834 4494 1872 4494 
z
M 1831 384 
Q 2275 384 2495 682 
Q 2716 981 2716 1388 
Q 2716 1731 2519 2042 
Q 2322 2353 1803 2353 
Q 1441 2353 1167 2112 
Q 894 1872 894 1388 
Q 894 963 1142 673 
Q 1391 384 1831 384 
z
" transform="scale(0.015625)"/>
       </defs>
       <use xlink:href="#Helvetica-19"/>
       <use xlink:href="#Helvetica-13" transform="translate(55.609375 0)"/>
      </g>
     </g>
    </g>
    <g id="ytick_5">
     <g id="line2d_14">
      <path d="M 87.52502 96.083198 
L 493.2 96.083198 
" clip-path="url(#p29b3f05fe7)" style="fill: none; stroke-dasharray: 1.85,0.8; stroke-dashoffset: 0; stroke: #e5e7eb; stroke-opacity: 0.7; stroke-width: 0.5"/>
     </g>
     <g id="line2d_15">
      <g>
       <use xlink:href="#m0821bc6be6" x="87.52502" y="96.083198" style="fill: #4b5563; stroke: #4b5563; stroke-width: 0.8"/>
      </g>
     </g>
     <g id="text_10">
      <!-- 80 -->
      <g style="fill: #4b5563" transform="translate(69.403145 99.833198) scale(0.1 -0.1)">
       <defs>
        <path id="Helvetica-1b" d="M 1741 2600 
Q 2113 2600 2322 2808 
Q 2531 3016 2531 3303 
Q 2531 3553 2331 3762 
Q 2131 3972 1722 3972 
Q 1316 3972 1134 3762 
Q 953 3553 953 3272 
Q 953 2956 1187 2778 
Q 1422 2600 1741 2600 
z
M 1775 384 
Q 2166 384 2423 595 
Q 2681 806 2681 1225 
Q 2681 1659 2415 1884 
Q 2150 2109 1734 2109 
Q 1331 2109 1076 1879 
Q 822 1650 822 1244 
Q 822 894 1055 639 
Q 1288 384 1775 384 
z
M 975 2384 
Q 741 2484 609 2619 
Q 363 2869 363 3269 
Q 363 3769 725 4128 
Q 1088 4488 1753 4488 
Q 2397 4488 2762 4148 
Q 3128 3809 3128 3356 
Q 3128 2938 2916 2678 
Q 2797 2531 2547 2391 
Q 2825 2263 2984 2097 
Q 3281 1784 3281 1284 
Q 3281 694 2884 283 
Q 2488 -128 1763 -128 
Q 1109 -128 657 226 
Q 206 581 206 1256 
Q 206 1653 400 1942 
Q 594 2231 975 2384 
z
" transform="scale(0.015625)"/>
       </defs>
       <use xlink:href="#Helvetica-1b"/>
       <use xlink:href="#Helvetica-13" transform="translate(55.609375 0)"/>
      </g>
     </g>
    </g>
    <g id="ytick_6">
     <g id="line2d_16">
      <path d="M 87.52502 53.147733 
L 493.2 53.147733 
" clip-path="url(#p29b3f05fe7)" style="fill: none; stroke-dasharray: 1.85,0.8; stroke-dashoffset: 0; stroke: #e5e7eb; stroke-opacity: 0.7; stroke-width: 0.5"/>
     </g>
     <g id="line2d_17">
      <g>
       <use xlink:href="#m0821bc6be6" x="87.52502" y="53.147733" style="fill: #4b5563; stroke: #4b5563; stroke-width: 0.8"/>
      </g>
     </g>
     <g id="text_11">
      <!-- 100 -->
      <g style="fill: #4b5563" transform="translate(63.842208 56.897733) scale(0.1 -0.1)">
       <defs>
        <path id="Helvetica-14" d="M 613 3169 
L 613 3600 
Q 1222 3659 1462 3798 
Q 1703 3938 1822 4456 
L 2266 4456 
L 2266 0 
L 1666 0 
L 1666 3169 
L 613 3169 
z
" transform="scale(0.015625)"/>
       </defs>
       <use xlink:href="#Helvetica-14"/>
       <use xlink:href="#Helvetica-13" transform="translate(55.609375 0)"/>
       <use xlink:href="#Helvetica-13" transform="translate(111.21875 0)"/>
      </g>
     </g>
    </g>
    <g id="text_12">
     <!-- Success Rate (%) -->
     <g transform="translate(53.801583 189.763468) rotate(-90) scale(0.1 -0.1)">
      <defs>
       <path id="Helvetica-35" d="M 2622 2488 
Q 3059 2488 3314 2663 
Q 3569 2838 3569 3294 
Q 3569 3784 3213 3963 
Q 3022 4056 2703 4056 
L 1184 4056 
L 1184 2488 
L 2622 2488 
z
M 563 4591 
L 2688 4591 
Q 3213 4591 3553 4438 
Q 4200 4144 4200 3353 
Q 4200 2941 4029 2678 
Q 3859 2416 3553 2256 
Q 3822 2147 3958 1969 
Q 4094 1791 4109 1391 
L 4131 775 
Q 4141 513 4175 384 
Q 4231 166 4375 103 
L 4375 0 
L 3613 0 
Q 3581 59 3562 153 
Q 3544 247 3531 516 
L 3494 1281 
Q 3472 1731 3159 1884 
Q 2981 1969 2600 1969 
L 1184 1969 
L 1184 0 
L 563 0 
L 563 4591 
z
" transform="scale(0.015625)"/>
       <path id="Helvetica-b" d="M 1894 4666 
Q 1403 3713 1256 3263 
Q 1034 2578 1034 1681 
Q 1034 775 1288 25 
Q 1444 -438 1903 -1306 
L 1525 -1306 
Q 1069 -594 959 -397 
Q 850 -200 722 138 
Q 547 600 478 1125 
Q 444 1397 444 1644 
Q 444 2569 734 3291 
Q 919 3750 1503 4666 
L 1894 4666 
z
" transform="scale(0.015625)"/>
       <path id="Helvetica-8" d="M 4363 2175 
Q 4813 2175 5131 1856 
Q 5450 1538 5450 1088 
Q 5450 638 5131 319 
Q 4813 0 4363 0 
Q 3909 0 3590 319 
Q 3272 638 3272 1088 
Q 3272 1538 3590 1856 
Q 3909 2175 4363 2175 
z
M 3909 4456 
L 4256 4456 
L 1753 -119 
L 1406 -119 
L 3909 4456 
z
M 1294 2606 
Q 1563 2606 1752 2795 
Q 1941 2984 1941 3250 
Q 1941 3516 1752 3705 
Q 1563 3894 1294 3894 
Q 1028 3894 839 3706 
Q 650 3519 650 3250 
Q 650 2984 839 2795 
Q 1028 2606 1294 2606 
z
M 1294 4341 
Q 1747 4341 2065 4020 
Q 2384 3700 2384 3250 
Q 2384 2800 2065 2481 
Q 1747 2163 1294 2163 
Q 844 2163 525 2481 
Q 206 2800 206 3250 
Q 206 3700 525 4020 
Q 844 4341 1294 4341 
z
M 4363 444 
Q 4628 444 4817 633 
Q 5006 822 5006 1088 
Q 5006 1353 4817 1542 
Q 4628 1731 4363 1731 
Q 4094 1731 3905 1542 
Q 3716 1353 3716 1088 
Q 3716 822 3905 633 
Q 4094 444 4363 444 
z
" transform="scale(0.015625)"/>
       <path id="Helvetica-c" d="M 222 -1306 
Q 719 -338 863 106 
Q 1081 778 1081 1681 
Q 1081 2584 828 3334 
Q 672 3797 213 4666 
L 591 4666 
Q 1072 3897 1173 3717 
Q 1275 3538 1394 3222 
Q 1544 2831 1608 2450 
Q 1672 2069 1672 1716 
Q 1672 791 1378 66 
Q 1194 -400 613 -1306 
L 222 -1306 
z
" transform="scale(0.015625)"/>
      </defs>
      <use xlink:href="#Helvetica-36"/>
      <use xlink:href="#Helvetica-58" transform="translate(66.703125 0)"/>
      <use xlink:href="#Helvetica-46" transform="translate(122.3125 0)"/>
      <use xlink:href="#Helvetica-46" transform="translate(172.3125 0)"/>
      <use xlink:href="#Helvetica-48" transform="translate(222.3125 0)"/>
      <use xlink:href="#Helvetica-56" transform="translate(277.921875 0)"/>
      <use xlink:href="#Helvetica-56" transform="translate(327.921875 0)"/>
      <use xlink:href="#Helvetica-3" transform="translate(377.921875 0)"/>
      <use xlink:href="#Helvetica-35" transform="translate(405.703125 0)"/>
      <use xlink:href="#Helvetica-44" transform="translate(477.921875 0)"/>
      <use xlink:href="#Helvetica-57" transform="translate(533.53125 0)"/>
      <use xlink:href="#Helvetica-48" transform="translate(561.3125 0)"/>
      <use xlink:href="#Helvetica-3" transform="translate(616.921875 0)"/>
      <use xlink:href="#Helvetica-b" transform="translate(644.703125 0)"/>
      <use xlink:href="#Helvetica-8" transform="translate(678 0)"/>
      <use xlink:href="#Helvetica-c" transform="translate(766.921875 0)"/>
     </g>
    </g>
   </g>
   <g id="patch_8">
    <path d="M 87.52502 267.825061 
L 87.52502 31.68 
" style="fill: none; stroke: #9ca3af; stroke-width: 0.8; stroke-linejoin: miter; stroke-linecap: square"/>
   </g>
   <g id="patch_9">
    <path d="M 87.52502 267.825061 
L 493.2 267.825061 
" style="fill: none; stroke: #9ca3af; stroke-width: 0.8; stroke-linejoin: miter; stroke-linecap: square"/>
   </g>
   <g id="text_13">
    <!-- 100.0% -->
    <g style="fill: #1f2937" transform="translate(112.887802 48.788358) scale(0.08 -0.08)">
     <defs>
      <path id="Helvetica-11" d="M 547 681 
L 1200 681 
L 1200 0 
L 547 0 
L 547 681 
z
" transform="scale(0.015625)"/>
     </defs>
     <use xlink:href="#Helvetica-14"/>
     <use xlink:href="#Helvetica-13" transform="translate(55.609375 0)"/>
     <use xlink:href="#Helvetica-13" transform="translate(111.21875 0)"/>
     <use xlink:href="#Helvetica-11" transform="translate(166.828125 0)"/>
     <use xlink:href="#Helvetica-13" transform="translate(194.609375 0)"/>
     <use xlink:href="#Helvetica-8" transform="translate(250.21875 0)"/>
    </g>
   </g>
   <g id="text_14">
    <!-- 100.0% -->
    <g style="fill: #1f2937" transform="translate(194.842344 48.788358) scale(0.08 -0.08)">
     <use xlink:href="#Helvetica-14"/>
     <use xlink:href="#Helvetica-13" transform="translate(55.609375 0)"/>
     <use xlink:href="#Helvetica-13" transform="translate(111.21875 0)"/>
     <use xlink:href="#Helvetica-11" transform="translate(166.828125 0)"/>
     <use xlink:href="#Helvetica-13" transform="translate(194.609375 0)"/>
     <use xlink:href="#Helvetica-8" transform="translate(250.21875 0)"/>
    </g>
   </g>
   <g id="text_15">
    <!-- 100.0% -->
    <g style="fill: #1f2937" transform="translate(276.796885 48.788358) scale(0.08 -0.08)">
     <use xlink:href="#Helvetica-14"/>
     <use xlink:href="#Helvetica-13" transform="translate(55.609375 0)"/>
     <use xlink:href="#Helvetica-13" transform="translate(111.21875 0)"/>
     <use xlink:href="#Helvetica-11" transform="translate(166.828125 0)"/>
     <use xlink:href="#Helvetica-13" transform="translate(194.609375 0)"/>
     <use xlink:href="#Helvetica-8" transform="translate(250.21875 0)"/>
    </g>
   </g>
   <g id="text_16">
    <!-- 100.0% -->
    <g style="fill: #1f2937" transform="translate(358.751426 48.788358) scale(0.08 -0.08)">
     <use xlink:href="#Helvetica-14"/>
     <use xlink:href="#Helvetica-13" transform="translate(55.609375 0)"/>
     <use xlink:href="#Helvetica-13" transform="translate(111.21875 0)"/>
     <use xlink:href="#Helvetica-11" transform="translate(166.828125 0)"/>
     <use xlink:href="#Helvetica-13" transform="translate(194.609375 0)"/>
     <use xlink:href="#Helvetica-8" transform="translate(250.21875 0)"/>
    </g>
   </g>
   <g id="text_17">
    <!-- 100.0% -->
    <g style="fill: #1f2937" transform="translate(440.705968 48.788358) scale(0.08 -0.08)">
     <use xlink:href="#Helvetica-14"/>
     <use xlink:href="#Helvetica-13" transform="translate(55.609375 0)"/>
     <use xlink:href="#Helvetica-13" transform="translate(111.21875 0)"/>
     <use xlink:href="#Helvetica-11" transform="translate(166.828125 0)"/>
     <use xlink:href="#Helvetica-13" transform="translate(194.609375 0)"/>
     <use xlink:href="#Helvetica-8" transform="translate(250.21875 0)"/>
    </g>
   </g>
   <g id="text_18">
    <!-- Scenario Execution Success Rate -->
    <g style="fill: #1f2937" transform="translate(191.616573 19.68) scale(0.12 -0.12)">
     <defs>
      <path id="HelveticaRounded-Bold-34" d="M 2022 2867 
C 1690 2944 1306 3046 1306 3366 
C 1306 3686 1574 3910 2061 3910 
C 3040 3910 2950 3226 3437 3226 
C 3693 3226 3917 3379 3917 3642 
C 3917 4256 2950 4717 2131 4717 
C 1242 4717 294 4333 294 3309 
C 294 2816 467 2291 1421 2048 
L 2605 1747 
C 2963 1658 3053 1453 3053 1267 
C 3053 960 2752 659 2208 659 
C 1146 659 1293 1491 723 1491 
C 467 1491 282 1312 282 1056 
C 282 557 877 -109 2208 -109 
C 3475 -109 4102 512 4102 1344 
C 4102 1882 3859 2451 2899 2669 
L 2022 2867 
z
" transform="scale(0.015625)"/>
      <path id="HelveticaRounded-Bold-44" d="M 192 1606 
C 192 627 736 -83 1888 -83 
C 2848 -83 3309 480 3309 890 
C 3309 1075 3155 1248 2918 1248 
C 2426 1248 2566 646 1914 646 
C 1402 646 1126 1024 1126 1606 
C 1126 2451 1555 2701 1920 2701 
C 2592 2701 2432 2150 2874 2150 
C 3110 2150 3309 2285 3309 2554 
C 3309 2989 2726 3430 1946 3430 
C 800 3430 192 2682 192 1606 
z
" transform="scale(0.015625)"/>
      <path id="HelveticaRounded-Bold-46" d="M 3277 1498 
C 3590 1498 3686 1581 3686 1901 
C 3686 2669 3072 3430 1997 3430 
C 890 3430 230 2701 230 1613 
C 230 800 723 -83 2029 -83 
C 2592 -83 3494 179 3494 742 
C 3494 915 3334 1107 3110 1107 
C 2733 1107 2733 646 2029 646 
C 1485 646 1165 1005 1165 1498 
L 3277 1498 
z
M 1165 2035 
C 1267 2490 1549 2778 2016 2778 
C 2432 2778 2752 2464 2803 2035 
L 1165 2035 
z
" transform="scale(0.015625)"/>
      <path id="HelveticaRounded-Bold-4f" d="M 371 384 
C 371 134 474 -83 838 -83 
C 1203 -83 1306 134 1306 384 
L 1306 1926 
C 1306 2394 1690 2662 2016 2662 
C 2419 2662 2605 2394 2605 2016 
L 2605 384 
C 2605 134 2707 -83 3072 -83 
C 3437 -83 3539 134 3539 384 
L 3539 2202 
C 3539 3149 2925 3430 2362 3430 
C 1830 3430 1491 3187 1229 2842 
L 1216 2842 
L 1216 2963 
C 1216 3245 1088 3430 794 3430 
C 499 3430 371 3245 371 2963 
L 371 384 
z
" transform="scale(0.015625)"/>
      <path id="HelveticaRounded-Bold-42" d="M 3475 2470 
C 3475 3142 2854 3430 1958 3430 
C 998 3430 474 2957 474 2586 
C 474 2394 634 2227 870 2227 
C 1242 2227 1261 2739 1952 2739 
C 2266 2739 2541 2624 2541 2355 
C 2541 2086 2362 2035 2138 2010 
L 1568 1946 
C 851 1862 262 1645 262 870 
C 262 282 787 -83 1318 -83 
C 1811 -83 2234 58 2598 461 
C 2611 173 2746 -83 3149 -83 
C 3373 -83 3571 64 3571 275 
C 3571 422 3475 512 3475 902 
L 3475 2470 
z
M 2541 1210 
C 2541 864 2227 531 1715 531 
C 1395 531 1197 704 1197 915 
C 1197 1197 1408 1318 1798 1376 
L 2138 1427 
C 2246 1446 2438 1478 2541 1574 
L 2541 1210 
z
" transform="scale(0.015625)"/>
      <path id="HelveticaRounded-Bold-53" d="M 422 384 
C 422 134 525 -83 890 -83 
C 1254 -83 1357 134 1357 384 
L 1357 1472 
C 1357 2246 1562 2509 1939 2509 
L 2106 2509 
C 2336 2509 2566 2630 2566 2976 
C 2566 3238 2349 3430 2054 3430 
C 1600 3430 1389 3027 1280 2637 
L 1267 2637 
L 1267 2995 
C 1267 3277 1082 3430 845 3430 
C 608 3430 422 3277 422 2995 
L 422 384 
z
" transform="scale(0.015625)"/>
      <path id="HelveticaRounded-Bold-4a" d="M 422 384 
C 422 134 525 -83 890 -83 
C 1254 -83 1357 134 1357 384 
L 1357 2963 
C 1357 3213 1254 3430 890 3430 
C 525 3430 422 3213 422 2963 
L 422 384 
z
M 403 4230 
C 403 3962 621 3744 890 3744 
C 1158 3744 1376 3962 1376 4230 
C 1376 4499 1158 4717 890 4717 
C 621 4717 403 4499 403 4230 
z
" transform="scale(0.015625)"/>
      <path id="HelveticaRounded-Bold-50" d="M 1165 1677 
C 1165 2285 1414 2739 1958 2739 
C 2502 2739 2752 2285 2752 1677 
C 2752 1107 2515 608 1958 608 
C 1402 608 1165 1107 1165 1677 
z
M 230 1677 
C 230 742 685 -83 1958 -83 
C 3232 -83 3686 742 3686 1677 
C 3686 2662 3085 3430 1958 3430 
C 832 3430 230 2662 230 1677 
z
" transform="scale(0.015625)"/>
      <path id="HelveticaRounded-Bold-1" transform="scale(0.015625)"/>
      <path id="HelveticaRounded-Bold-26" d="M 512 614 
C 512 147 755 0 1126 0 
L 3642 0 
C 3949 0 4173 90 4173 422 
C 4173 755 3949 845 3642 845 
L 1562 845 
L 1562 1958 
L 3341 1958 
C 3616 1958 3834 2035 3834 2362 
C 3834 2688 3616 2765 3341 2765 
L 1562 2765 
L 1562 3763 
L 3590 3763 
C 3898 3763 4122 3853 4122 4186 
C 4122 4518 3898 4608 3590 4608 
L 1126 4608 
C 755 4608 512 4461 512 3994 
L 512 614 
z
" transform="scale(0.015625)"/>
      <path id="HelveticaRounded-Bold-59" d="M 1536 1082 
L 2074 224 
C 2195 32 2310 -83 2502 -83 
C 2803 -83 2976 128 2976 352 
C 2976 486 2938 563 2886 634 
L 2163 1709 
L 2842 2714 
C 2899 2797 2938 2893 2938 3027 
C 2938 3238 2733 3430 2515 3430 
C 2368 3430 2227 3392 2086 3155 
L 1581 2330 
L 1056 3194 
C 947 3373 826 3430 678 3430 
C 339 3430 179 3162 179 2963 
C 179 2874 224 2790 275 2720 
L 947 1709 
L 230 653 
C 147 531 102 435 102 352 
C 102 96 333 -83 557 -83 
C 730 -83 858 6 922 102 
L 1536 1082 
z
" transform="scale(0.015625)"/>
      <path id="HelveticaRounded-Bold-56" d="M 3539 2963 
C 3539 3213 3437 3430 3072 3430 
C 2707 3430 2605 3213 2605 2963 
L 2605 1421 
C 2605 954 2221 685 1894 685 
C 1491 685 1306 954 1306 1331 
L 1306 2963 
C 1306 3213 1203 3430 838 3430 
C 474 3430 371 3213 371 2963 
L 371 1146 
C 371 198 986 -83 1549 -83 
C 2080 -83 2419 160 2682 506 
L 2694 506 
L 2694 384 
C 2694 102 2822 -83 3117 -83 
C 3411 -83 3539 102 3539 384 
L 3539 2963 
z
" transform="scale(0.015625)"/>
      <path id="HelveticaRounded-Bold-55" d="M 614 749 
C 614 198 896 -83 1574 -83 
C 2022 -83 2253 64 2253 333 
C 2253 531 2131 646 1926 646 
L 1792 646 
C 1626 646 1549 723 1549 864 
L 1549 2733 
L 1830 2733 
C 2106 2733 2253 2816 2253 3040 
C 2253 3264 2106 3347 1830 3347 
L 1549 3347 
L 1549 3917 
C 1549 4224 1363 4384 1082 4384 
C 800 4384 614 4224 614 3917 
L 614 3347 
L 454 3347 
C 192 3347 83 3245 83 3040 
C 83 2835 192 2733 454 2733 
L 614 2733 
L 614 749 
z
" transform="scale(0.015625)"/>
      <path id="HelveticaRounded-Bold-54" d="M 224 2387 
C 224 1760 646 1536 1190 1402 
L 1741 1267 
C 2074 1184 2278 1146 2278 909 
C 2278 717 2067 570 1734 570 
C 1043 570 1005 1146 602 1146 
C 339 1146 224 960 224 755 
C 224 294 928 -83 1773 -83 
C 2477 -83 3213 269 3213 1030 
C 3213 1683 2579 1907 2048 2029 
L 1658 2118 
C 1370 2182 1158 2234 1158 2451 
C 1158 2650 1370 2739 1696 2739 
C 2285 2739 2298 2310 2662 2310 
C 2906 2310 3053 2502 3053 2720 
C 3053 3149 2336 3430 1626 3430 
C 979 3430 224 3149 224 2387 
z
" transform="scale(0.015625)"/>
      <path id="HelveticaRounded-Bold-33" d="M 486 442 
C 486 128 691 -83 1011 -83 
C 1331 -83 1536 128 1536 442 
L 1536 1792 
L 2573 1792 
C 3149 1792 3296 1466 3296 659 
C 3296 474 3341 -83 3917 -83 
C 4160 -83 4410 83 4410 326 
C 4410 544 4269 742 4269 1274 
C 4269 1741 4173 2131 3635 2208 
L 3635 2221 
C 4134 2336 4429 2829 4429 3328 
C 4429 3923 4096 4608 2848 4608 
L 1101 4608 
C 730 4608 486 4461 486 3994 
L 486 442 
z
M 1536 3802 
L 2618 3802 
C 3078 3802 3379 3674 3379 3181 
C 3379 2662 2982 2560 2586 2560 
L 1536 2560 
L 1536 3802 
z
" transform="scale(0.015625)"/>
     </defs>
     <use xlink:href="#HelveticaRounded-Bold-34"/>
     <use xlink:href="#HelveticaRounded-Bold-44" transform="translate(68.5 0)"/>
     <use xlink:href="#HelveticaRounded-Bold-46" transform="translate(122.203125 0)"/>
     <use xlink:href="#HelveticaRounded-Bold-4f" transform="translate(183.40625 0)"/>
     <use xlink:href="#HelveticaRounded-Bold-42" transform="translate(244.5 0)"/>
     <use xlink:href="#HelveticaRounded-Bold-53" transform="translate(305.59375 0)"/>
     <use xlink:href="#HelveticaRounded-Bold-4a" transform="translate(346.296875 0)"/>
     <use xlink:href="#HelveticaRounded-Bold-50" transform="translate(374.09375 0)"/>
     <use xlink:href="#HelveticaRounded-Bold-1" transform="translate(435.296875 0)"/>
     <use xlink:href="#HelveticaRounded-Bold-26" transform="translate(465.890625 0)"/>
     <use xlink:href="#HelveticaRounded-Bold-59" transform="translate(534.390625 0)"/>
     <use xlink:href="#HelveticaRounded-Bold-46" transform="translate(582.484375 0)"/>
     <use xlink:href="#HelveticaRounded-Bold-44" transform="translate(643.6875 0)"/>
     <use xlink:href="#HelveticaRounded-Bold-56" transform="translate(697.390625 0)"/>
     <use xlink:href="#HelveticaRounded-Bold-55" transform="translate(758.484375 0)"/>
     <use xlink:href="#HelveticaRounded-Bold-4a" transform="translate(795.484375 0)"/>
     <use xlink:href="#HelveticaRounded-Bold-50" transform="translate(823.28125 0)"/>
     <use xlink:href="#HelveticaRounded-Bold-4f" transform="translate(884.484375 0)"/>
     <use xlink:href="#HelveticaRounded-Bold-1" transform="translate(945.578125 0)"/>
     <use xlink:href="#HelveticaRounded-Bold-34" transform="translate(976.171875 0)"/>
     <use xlink:href="#HelveticaRounded-Bold-56" transform="translate(1044.671875 0)"/>
     <use xlink:href="#HelveticaRounded-Bold-44" transform="translate(1105.765625 0)"/>
     <use xlink:href="#HelveticaRounded-Bold-44" transform="translate(1159.46875 0)"/>
     <use xlink:href="#HelveticaRounded-Bold-46" transform="translate(1213.171875 0)"/>
     <use xlink:href="#HelveticaRounded-Bold-54" transform="translate(1274.375 0)"/>
     <use xlink:href="#HelveticaRounded-Bold-54" transform="translate(1328.078125 0)"/>
     <use xlink:href="#HelveticaRounded-Bold-1" transform="translate(1381.78125 0)"/>
     <use xlink:href="#HelveticaRounded-Bold-33" transform="translate(1412.375 0)"/>
     <use xlink:href="#HelveticaRounded-Bold-42" transform="translate(1486.46875 0)"/>
     <use xlink:href="#HelveticaRounded-Bold-55" transform="translate(1547.5625 0)"/>
     <use xlink:href="#HelveticaRounded-Bold-46" transform="translate(1584.5625 0)"/>
    </g>
   </g>
  </g>
 </g>
 <defs>
  <clipPath id="p29b3f05fe7">
   <rect x="87.52502" y="31.68" width="405.67498" height="236.145061"/>
  </clipPath>
 </defs>
</svg>
