<?xml version="1.0" encoding="utf-8" standalone="no"?>
<!DOCTYPE svg PUBLIC "-//W3C//DTD SVG 1.1//EN"
  "http://www.w3.org/Graphics/SVG/1.1/DTD/svg11.dtd">
<svg xmlns:xlink="http://www.w3.org/1999/xlink" width="504pt" height="324pt" viewBox="0 0 504 324" xmlns="http://www.w3.org/2000/svg" version="1.1">
 <metadata>
  <rdf:RDF xmlns:dc="http://purl.org/dc/elements/1.1/" xmlns:cc="http://creativecommons.org/ns#" xmlns:rdf="http://www.w3.org/1999/02/22-rdf-syntax-ns#">
   <cc:Work>
    <dc:type rdf:resource="http://purl.org/dc/dcmitype/StillImage"/>
    <dc:date>2026-08-01T14:47:49.297084</dc:date>
    <dc:format>image/svg+xml</dc:format>
    <dc:creator>
     <cc:Agent>
      <dc:title>Matplotlib v3.10.1, https://matplotlib.org/</dc:title>
     </cc:Agent>
    </dc:creator>
   </cc:Work>
  </rdf:RDF>
 </metadata>
 <defs>
  <style type="text/css">*{stroke-linejoin: round; stroke-linecap: butt}</style>
 </defs>
 <g id="figure_1">
  <g id="patch_1">
   <path d="M 0 324 
L 504 324 
L 504 0 
L 0 0 
z
" style="fill: #ffffff"/>
  </g>
  <g id="axes_1">
   <g id="patch_2">
    <path d="M 57.32 282.04 
L 493.2 282.04 
L 493.2 25.2 
L 57.32 25.2 
z
" style="fill: #ffffff"/>
   </g>
   <g id="matplotlib.axis_1">
    <g id="xtick_1">
     <g id="line2d_1">
      <path d="M 77.132727 282.04 
L 77.132727 25.2 
" clip-path="url(#pd2db37043a)" style="fill: none; stroke-dasharray: 2.96,1.28; stroke-dashoffset: 0; stroke: #e5e7eb; stroke-opacity: 0.6; stroke-width: 0.8"/>
     </g>
     <g id="line2d_2">
      <defs>
       <path id="m868e578964" d="M 0 0 
L 0 3.5 
" style="stroke: #000000; stroke-width: 0.8"/>
      </defs>
      <g>
       <use xlink:href="#m868e578964" x="77.132727" y="282.04" style="stroke: #000000; stroke-width: 0.8"/>
      </g>
     </g>
     <g id="text_1">
      <!-- 1 -->
      <g transform="translate(73.951477 296.638438) scale(0.1 -0.1)">
       <defs>
        <path id="DejaVuSans-31" d="M 794 531 
L 1825 531 
L 1825 4091 
L 703 3866 
L 703 4441 
L 1819 4666 
L 2450 4666 
L 2450 531 
L 3481 531 
L 3481 0 
L 794 0 
L 794 531 
z
" transform="scale(0.015625)"/>
       </defs>
       <use xlink:href="#DejaVuSans-31"/>
      </g>
     </g>
    </g>
    <g id="xtick_2">
     <g id="line2d_3">
      <path d="M 275.26 282.04 
L 275.26 25.2 
" clip-path="url(#pd2db37043a)" style="fill: none; stroke-dasharray: 2.96,1.28; stroke-dashoffset: 0; stroke: #e5e7eb; stroke-opacity: 0.6; stroke-width: 0.8"/>
     </g>
     <g id="line2d_4">
      <g>
       <use xlink:href="#m868e578964" x="275.26" y="282.04" style="stroke: #000000; stroke-width: 0.8"/>
      </g>
     </g>
     <g id="text_2">
      <!-- 2 -->
      <g transform="translate(272.07875 296.638438) scale(0.1 -0.1)">
       <defs>
        <path id="DejaVuSans-32" d="M 1228 531 
L 3431 531 
L 3431 0 
L 469 0 
L 469 531 
Q 828 903 1448 1529 
Q 2069 2156 2228 2338 
Q 2531 2678 2651 2914 
Q 2772 3150 2772 3378 
Q 2772 3750 2511 3984 
Q 2250 4219 1831 4219 
Q 1534 4219 1204 4116 
Q 875 4013 500 3803 
L 500 4441 
Q 881 4594 1212 4672 
Q 1544 4750 1819 4750 
Q 2544 4750 2975 4387 
Q 3406 4025 3406 3419 
Q 3406 3131 3298 2873 
Q 3191 2616 2906 2266 
Q 2828 2175 2409 1742 
Q 1991 1309 1228 531 
z
" transform="scale(0.015625)"/>
       </defs>
       <use xlink:href="#DejaVuSans-32"/>
      </g>
     </g>
    </g>
    <g id="xtick_3">
     <g id="line2d_5">
      <path d="M 473.387273 282.04 
L 473.387273 25.2 
" clip-path="url(#pd2db37043a)" style="fill: none; stroke-dasharray: 2.96,1.28; stroke-dashoffset: 0; stroke: #e5e7eb; stroke-opacity: 0.6; stroke-width: 0.8"/>
     </g>
     <g id="line2d_6">
      <g>
       <use xlink:href="#m868e578964" x="473.387273" y="282.04" style="stroke: #000000; stroke-width: 0.8"/>
      </g>
     </g>
     <g id="text_3">
      <!-- 3 -->
      <g transform="translate(470.206023 296.638438) scale(0.1 -0.1)">
       <defs>
        <path id="DejaVuSans-33" d="M 2597 2516 
Q 3050 2419 3304 2112 
Q 3559 1806 3559 1356 
Q 3559 666 3084 287 
Q 2609 -91 1734 -91 
Q 1441 -91 1130 -33 
Q 819 25 488 141 
L 488 750 
Q 750 597 1062 519 
Q 1375 441 1716 441 
Q 2309 441 2620 675 
Q 2931 909 2931 1356 
Q 2931 1769 2642 2001 
Q 2353 2234 1838 2234 
L 1294 2234 
L 1294 2753 
L 1863 2753 
Q 2328 2753 2575 2939 
Q 2822 3125 2822 3475 
Q 2822 3834 2567 4026 
Q 2313 4219 1838 4219 
Q 1578 4219 1281 4162 
Q 984 4106 628 3988 
L 628 4550 
Q 988 4650 1302 4700 
Q 1616 4750 1894 4750 
Q 2613 4750 3031 4423 
Q 3450 4097 3450 3541 
Q 3450 3153 3228 2886 
Q 3006 2619 2597 2516 
z
" transform="scale(0.015625)"/>
       </defs>
       <use xlink:href="#DejaVuSans-33"/>
      </g>
     </g>
    </g>
    <g id="text_4">
     <!-- FL Round -->
     <g transform="translate(252.188906 310.316563) scale(0.1 -0.1)">
      <defs>
       <path id="DejaVuSans-46" d="M 628 4666 
L 3309 4666 
L 3309 4134 
L 1259 4134 
L 1259 2759 
L 3109 2759 
L 3109 2228 
L 1259 2228 
L 1259 0 
L 628 0 
L 628 4666 
z
" transform="scale(0.015625)"/>
       <path id="DejaVuSans-4c" d="M 628 4666 
L 1259 4666 
L 1259 531 
L 3531 531 
L 3531 0 
L 628 0 
L 628 4666 
z
" transform="scale(0.015625)"/>
       <path id="DejaVuSans-20" transform="scale(0.015625)"/>
       <path id="DejaVuSans-52" d="M 2841 2188 
Q 3044 2119 3236 1894 
Q 3428 1669 3622 1275 
L 4263 0 
L 3584 0 
L 2988 1197 
Q 2756 1666 2539 1819 
Q 2322 1972 1947 1972 
L 1259 1972 
L 1259 0 
L 628 0 
L 628 4666 
L 2053 4666 
Q 2853 4666 3247 4331 
Q 3641 3997 3641 3322 
Q 3641 2881 3436 2590 
Q 3231 2300 2841 2188 
z
M 1259 4147 
L 1259 2491 
L 2053 2491 
Q 2509 2491 2742 2702 
Q 2975 2913 2975 3322 
Q 2975 3731 2742 3939 
Q 2509 4147 2053 4147 
L 1259 4147 
z
" transform="scale(0.015625)"/>
       <path id="DejaVuSans-6f" d="M 1959 3097 
Q 1497 3097 1228 2736 
Q 959 2375 959 1747 
Q 959 1119 1226 758 
Q 1494 397 1959 397 
Q 2419 397 2687 759 
Q 2956 1122 2956 1747 
Q 2956 2369 2687 2733 
Q 2419 3097 1959 3097 
z
M 1959 3584 
Q 2709 3584 3137 3096 
Q 3566 2609 3566 1747 
Q 3566 888 3137 398 
Q 2709 -91 1959 -91 
Q 1206 -91 779 398 
Q 353 888 353 1747 
Q 353 2609 779 3096 
Q 1206 3584 1959 3584 
z
" transform="scale(0.015625)"/>
       <path id="DejaVuSans-75" d="M 544 1381 
L 544 3500 
L 1119 3500 
L 1119 1403 
Q 1119 906 1312 657 
Q 1506 409 1894 409 
Q 2359 409 2629 706 
Q 2900 1003 2900 1516 
L 2900 3500 
L 3475 3500 
L 3475 0 
L 2900 0 
L 2900 538 
Q 2691 219 2414 64 
Q 2138 -91 1772 -91 
Q 1169 -91 856 284 
Q 544 659 544 1381 
z
M 1991 3584 
L 1991 3584 
z
" transform="scale(0.015625)"/>
       <path id="DejaVuSans-6e" d="M 3513 2113 
L 3513 0 
L 2938 0 
L 2938 2094 
Q 2938 2591 2744 2837 
Q 2550 3084 2163 3084 
Q 1697 3084 1428 2787 
Q 1159 2491 1159 1978 
L 1159 0 
L 581 0 
L 581 3500 
L 1159 3500 
L 1159 2956 
Q 1366 3272 1645 3428 
Q 1925 3584 2291 3584 
Q 2894 3584 3203 3211 
Q 3513 2838 3513 2113 
z
" transform="scale(0.015625)"/>
       <path id="DejaVuSans-64" d="M 2906 2969 
L 2906 4863 
L 3481 4863 
L 3481 0 
L 2906 0 
L 2906 525 
Q 2725 213 2448 61 
Q 2172 -91 1784 -91 
Q 1150 -91 751 415 
Q 353 922 353 1747 
Q 353 2572 751 3078 
Q 1150 3584 1784 3584 
Q 2172 3584 2448 3432 
Q 2725 3281 2906 2969 
z
M 947 1747 
Q 947 1113 1208 752 
Q 1469 391 1925 391 
Q 2381 391 2643 752 
Q 2906 1113 2906 1747 
Q 2906 2381 2643 2742 
Q 2381 3103 1925 3103 
Q 1469 3103 1208 2742 
Q 947 2381 947 1747 
z
" transform="scale(0.015625)"/>
      </defs>
      <use xlink:href="#DejaVuSans-46"/>
      <use xlink:href="#DejaVuSans-4c" transform="translate(57.519531 0)"/>
      <use xlink:href="#DejaVuSans-20" transform="translate(113.232422 0)"/>
      <use xlink:href="#DejaVuSans-52" transform="translate(145.019531 0)"/>
      <use xlink:href="#DejaVuSans-6f" transform="translate(210.001953 0)"/>
      <use xlink:href="#DejaVuSans-75" transform="translate(271.183594 0)"/>
      <use xlink:href="#DejaVuSans-6e" transform="translate(334.5625 0)"/>
      <use xlink:href="#DejaVuSans-64" transform="translate(397.941406 0)"/>
     </g>
    </g>
   </g>
   <g id="matplotlib.axis_2">
    <g id="ytick_1">
     <g id="line2d_7">
      <path d="M 57.32 252.959762 
L 493.2 252.959762 
" clip-path="url(#pd2db37043a)" style="fill: none; stroke-dasharray: 2.96,1.28; stroke-dashoffset: 0; stroke: #e5e7eb; stroke-opacity: 0.6; stroke-width: 0.8"/>
     </g>
     <g id="line2d_8">
      <defs>
       <path id="md1b21476d2" d="M 0 0 
L -3.5 0 
" style="stroke: #000000; stroke-width: 0.8"/>
      </defs>
      <g>
       <use xlink:href="#md1b21476d2" x="57.32" y="252.959762" style="stroke: #000000; stroke-width: 0.8"/>
      </g>
     </g>
     <g id="text_5">
      <!-- 500 -->
      <g transform="translate(31.2325 256.758981) scale(0.1 -0.1)">
       <defs>
        <path id="DejaVuSans-35" d="M 691 4666 
L 3169 4666 
L 3169 4134 
L 1269 4134 
L 1269 2991 
Q 1406 3038 1543 3061 
Q 1681 3084 1819 3084 
Q 2600 3084 3056 2656 
Q 3513 2228 3513 1497 
Q 3513 744 3044 326 
Q 2575 -91 1722 -91 
Q 1428 -91 1123 -41 
Q 819 9 494 109 
L 494 744 
Q 775 591 1075 516 
Q 1375 441 1709 441 
Q 2250 441 2565 725 
Q 2881 1009 2881 1497 
Q 2881 1984 2565 2268 
Q 2250 2553 1709 2553 
Q 1456 2553 1204 2497 
Q 953 2441 691 2322 
L 691 4666 
z
" transform="scale(0.015625)"/>
        <path id="DejaVuSans-30" d="M 2034 4250 
Q 1547 4250 1301 3770 
Q 1056 3291 1056 2328 
Q 1056 1369 1301 889 
Q 1547 409 2034 409 
Q 2525 409 2770 889 
Q 3016 1369 3016 2328 
Q 3016 3291 2770 3770 
Q 2525 4250 2034 4250 
z
M 2034 4750 
Q 2819 4750 3233 4129 
Q 3647 3509 3647 2328 
Q 3647 1150 3233 529 
Q 2819 -91 2034 -91 
Q 1250 -91 836 529 
Q 422 1150 422 2328 
Q 422 3509 836 4129 
Q 1250 4750 2034 4750 
z
" transform="scale(0.015625)"/>
       </defs>
       <use xlink:href="#DejaVuSans-35"/>
       <use xlink:href="#DejaVuSans-30" transform="translate(63.623047 0)"/>
       <use xlink:href="#DejaVuSans-30" transform="translate(127.246094 0)"/>
      </g>
     </g>
    </g>
    <g id="ytick_2">
     <g id="line2d_9">
      <path d="M 57.32 206.290701 
L 493.2 206.290701 
" clip-path="url(#pd2db37043a)" style="fill: none; stroke-dasharray: 2.96,1.28; stroke-dashoffset: 0; stroke: #e5e7eb; stroke-opacity: 0.6; stroke-width: 0.8"/>
     </g>
     <g id="line2d_10">
      <g>
       <use xlink:href="#md1b21476d2" x="57.32" y="206.290701" style="stroke: #000000; stroke-width: 0.8"/>
      </g>
     </g>
     <g id="text_6">
      <!-- 1000 -->
      <g transform="translate(24.87 210.08992) scale(0.1 -0.1)">
       <use xlink:href="#DejaVuSans-31"/>
       <use xlink:href="#DejaVuSans-30" transform="translate(63.623047 0)"/>
       <use xlink:href="#DejaVuSans-30" transform="translate(127.246094 0)"/>
       <use xlink:href="#DejaVuSans-30" transform="translate(190.869141 0)"/>
      </g>
     </g>
    </g>
    <g id="ytick_3">
     <g id="line2d_11">
      <path d="M 57.32 159.621641 
L 493.2 159.621641 
" clip-path="url(#pd2db37043a)" style="fill: none; stroke-dasharray: 2.96,1.28; stroke-dashoffset: 0; stroke: #e5e7eb; stroke-opacity: 0.6; stroke-width: 0.8"/>
     </g>
     <g id="line2d_12">
      <g>
       <use xlink:href="#md1b21476d2" x="57.32" y="159.621641" style="stroke: #000000; stroke-width: 0.8"/>
      </g>
     </g>
     <g id="text_7">
      <!-- 1500 -->
      <g transform="translate(24.87 163.42086) scale(0.1 -0.1)">
       <use xlink:href="#DejaVuSans-31"/>
       <use xlink:href="#DejaVuSans-35" transform="translate(63.623047 0)"/>
       <use xlink:href="#DejaVuSans-30" transform="translate(127.246094 0)"/>
       <use xlink:href="#DejaVuSans-30" transform="translate(190.869141 0)"/>
      </g>
     </g>
    </g>
    <g id="ytick_4">
     <g id="line2d_13">
      <path d="M 57.32 112.952581 
L 493.2 112.952581 
" clip-path="url(#pd2db37043a)" style="fill: none; stroke-dasharray: 2.96,1.28; stroke-dashoffset: 0; stroke: #e5e7eb; stroke-opacity: 0.6; stroke-width: 0.8"/>
     </g>
     <g id="line2d_14">
      <g>
       <use xlink:href="#md1b21476d2" x="57.32" y="112.952581" style="stroke: #000000; stroke-width: 0.8"/>
      </g>
     </g>
     <g id="text_8">
      <!-- 2000 -->
      <g transform="translate(24.87 116.7518) scale(0.1 -0.1)">
       <use xlink:href="#DejaVuSans-32"/>
       <use xlink:href="#DejaVuSans-30" transform="translate(63.623047 0)"/>
       <use xlink:href="#DejaVuSans-30" transform="translate(127.246094 0)"/>
       <use xlink:href="#DejaVuSans-30" transform="translate(190.869141 0)"/>
      </g>
     </g>
    </g>
    <g id="ytick_5">
     <g id="line2d_15">
      <path d="M 57.32 66.283521 
L 493.2 66.283521 
" clip-path="url(#pd2db37043a)" style="fill: none; stroke-dasharray: 2.96,1.28; stroke-dashoffset: 0; stroke: #e5e7eb; stroke-opacity: 0.6; stroke-width: 0.8"/>
     </g>
     <g id="line2d_16">
      <g>
       <use xlink:href="#md1b21476d2" x="57.32" y="66.283521" style="stroke: #000000; stroke-width: 0.8"/>
      </g>
     </g>
     <g id="text_9">
      <!-- 2500 -->
      <g transform="translate(24.87 70.082739) scale(0.1 -0.1)">
       <use xlink:href="#DejaVuSans-32"/>
       <use xlink:href="#DejaVuSans-35" transform="translate(63.623047 0)"/>
       <use xlink:href="#DejaVuSans-30" transform="translate(127.246094 0)"/>
       <use xlink:href="#DejaVuSans-30" transform="translate(190.869141 0)"/>
      </g>
     </g>
    </g>
    <g id="text_10">
     <!-- Duration (ms) -->
     <g transform="translate(18.790312 188.30125) rotate(-90) scale(0.1 -0.1)">
      <defs>
       <path id="DejaVuSans-44" d="M 1259 4147 
L 1259 519 
L 2022 519 
Q 2988 519 3436 956 
Q 3884 1394 3884 2338 
Q 3884 3275 3436 3711 
Q 2988 4147 2022 4147 
L 1259 4147 
z
M 628 4666 
L 1925 4666 
Q 3281 4666 3915 4102 
Q 4550 3538 4550 2338 
Q 4550 1131 3912 565 
Q 3275 0 1925 0 
L 628 0 
L 628 4666 
z
" transform="scale(0.015625)"/>
       <path id="DejaVuSans-72" d="M 2631 2963 
Q 2534 3019 2420 3045 
Q 2306 3072 2169 3072 
Q 1681 3072 1420 2755 
Q 1159 2438 1159 1844 
L 1159 0 
L 581 0 
L 581 3500 
L 1159 3500 
L 1159 2956 
Q 1341 3275 1631 3429 
Q 1922 3584 2338 3584 
Q 2397 3584 2469 3576 
Q 2541 3569 2628 3553 
L 2631 2963 
z
" transform="scale(0.015625)"/>
       <path id="DejaVuSans-61" d="M 2194 1759 
Q 1497 1759 1228 1600 
Q 959 1441 959 1056 
Q 959 750 1161 570 
Q 1363 391 1709 391 
Q 2188 391 2477 730 
Q 2766 1069 2766 1631 
L 2766 1759 
L 2194 1759 
z
M 3341 1997 
L 3341 0 
L 2766 0 
L 2766 531 
Q 2569 213 2275 61 
Q 1981 -91 1556 -91 
Q 1019 -91 701 211 
Q 384 513 384 1019 
Q 384 1609 779 1909 
Q 1175 2209 1959 2209 
L 2766 2209 
L 2766 2266 
Q 2766 2663 2505 2880 
Q 2244 3097 1772 3097 
Q 1472 3097 1187 3025 
Q 903 2953 641 2809 
L 641 3341 
Q 956 3463 1253 3523 
Q 1550 3584 1831 3584 
Q 2591 3584 2966 3190 
Q 3341 2797 3341 1997 
z
" transform="scale(0.015625)"/>
       <path id="DejaVuSans-74" d="M 1172 4494 
L 1172 3500 
L 2356 3500 
L 2356 3053 
L 1172 3053 
L 1172 1153 
Q 1172 725 1289 603 
Q 1406 481 1766 481 
L 2356 481 
L 2356 0 
L 1766 0 
Q 1100 0 847 248 
Q 594 497 594 1153 
L 594 3053 
L 172 3053 
L 172 3500 
L 594 3500 
L 594 4494 
L 1172 4494 
z
" transform="scale(0.015625)"/>
       <path id="DejaVuSans-69" d="M 603 3500 
L 1178 3500 
L 1178 0 
L 603 0 
L 603 3500 
z
M 603 4863 
L 1178 4863 
L 1178 4134 
L 603 4134 
L 603 4863 
z
" transform="scale(0.015625)"/>
       <path id="DejaVuSans-28" d="M 1984 4856 
Q 1566 4138 1362 3434 
Q 1159 2731 1159 2009 
Q 1159 1288 1364 580 
Q 1569 -128 1984 -844 
L 1484 -844 
Q 1016 -109 783 600 
Q 550 1309 550 2009 
Q 550 2706 781 3412 
Q 1013 4119 1484 4856 
L 1984 4856 
z
" transform="scale(0.015625)"/>
       <path id="DejaVuSans-6d" d="M 3328 2828 
Q 3544 3216 3844 3400 
Q 4144 3584 4550 3584 
Q 5097 3584 5394 3201 
Q 5691 2819 5691 2113 
L 5691 0 
L 5113 0 
L 5113 2094 
Q 5113 2597 4934 2840 
Q 4756 3084 4391 3084 
Q 3944 3084 3684 2787 
Q 3425 2491 3425 1978 
L 3425 0 
L 2847 0 
L 2847 2094 
Q 2847 2600 2669 2842 
Q 2491 3084 2119 3084 
Q 1678 3084 1418 2786 
Q 1159 2488 1159 1978 
L 1159 0 
L 581 0 
L 581 3500 
L 1159 3500 
L 1159 2956 
Q 1356 3278 1631 3431 
Q 1906 3584 2284 3584 
Q 2666 3584 2933 3390 
Q 3200 3197 3328 2828 
z
" transform="scale(0.015625)"/>
       <path id="DejaVuSans-73" d="M 2834 3397 
L 2834 2853 
Q 2591 2978 2328 3040 
Q 2066 3103 1784 3103 
Q 1356 3103 1142 2972 
Q 928 2841 928 2578 
Q 928 2378 1081 2264 
Q 1234 2150 1697 2047 
L 1894 2003 
Q 2506 1872 2764 1633 
Q 3022 1394 3022 966 
Q 3022 478 2636 193 
Q 2250 -91 1575 -91 
Q 1294 -91 989 -36 
Q 684 19 347 128 
L 347 722 
Q 666 556 975 473 
Q 1284 391 1588 391 
Q 1994 391 2212 530 
Q 2431 669 2431 922 
Q 2431 1156 2273 1281 
Q 2116 1406 1581 1522 
L 1381 1569 
Q 847 1681 609 1914 
Q 372 2147 372 2553 
Q 372 3047 722 3315 
Q 1072 3584 1716 3584 
Q 2034 3584 2315 3537 
Q 2597 3491 2834 3397 
z
" transform="scale(0.015625)"/>
       <path id="DejaVuSans-29" d="M 513 4856 
L 1013 4856 
Q 1481 4119 1714 3412 
Q 1947 2706 1947 2009 
Q 1947 1309 1714 600 
Q 1481 -109 1013 -844 
L 513 -844 
Q 928 -128 1133 580 
Q 1338 1288 1338 2009 
Q 1338 2731 1133 3434 
Q 928 4138 513 4856 
z
" transform="scale(0.015625)"/>
      </defs>
      <use xlink:href="#DejaVuSans-44"/>
      <use xlink:href="#DejaVuSans-75" transform="translate(77.001953 0)"/>
      <use xlink:href="#DejaVuSans-72" transform="translate(140.380859 0)"/>
      <use xlink:href="#DejaVuSans-61" transform="translate(181.494141 0)"/>
      <use xlink:href="#DejaVuSans-74" transform="translate(242.773438 0)"/>
      <use xlink:href="#DejaVuSans-69" transform="translate(281.982422 0)"/>
      <use xlink:href="#DejaVuSans-6f" transform="translate(309.765625 0)"/>
      <use xlink:href="#DejaVuSans-6e" transform="translate(370.947266 0)"/>
      <use xlink:href="#DejaVuSans-20" transform="translate(434.326172 0)"/>
      <use xlink:href="#DejaVuSans-28" transform="translate(466.113281 0)"/>
      <use xlink:href="#DejaVuSans-6d" transform="translate(505.126953 0)"/>
      <use xlink:href="#DejaVuSans-73" transform="translate(602.539062 0)"/>
      <use xlink:href="#DejaVuSans-29" transform="translate(654.638672 0)"/>
     </g>
    </g>
   </g>
   <g id="line2d_17">
    <path d="M 77.132727 58.183638 
L 275.26 89.47991 
L 473.387273 36.874545 
" clip-path="url(#pd2db37043a)" style="fill: none; stroke: #1e3a8a; stroke-width: 2.5; stroke-linecap: square"/>
    <defs>
     <path id="mdce7f8d927" d="M 0 3 
C 0.795609 3 1.55874 2.683901 2.12132 2.12132 
C 2.683901 1.55874 3 0.795609 3 0 
C 3 -0.795609 2.683901 -1.55874 2.12132 -2.12132 
C 1.55874 -2.683901 0.795609 -3 0 -3 
C -0.795609 -3 -1.55874 -2.683901 -2.12132 -2.12132 
C -2.683901 -1.55874 -3 -0.795609 -3 0 
C -3 0.795609 -2.683901 1.55874 -2.12132 2.12132 
C -1.55874 2.683901 -0.795609 3 0 3 
z
" style="stroke: #1e3a8a"/>
    </defs>
    <g clip-path="url(#pd2db37043a)">
     <use xlink:href="#mdce7f8d927" x="77.132727" y="58.183638" style="fill: #1e3a8a; stroke: #1e3a8a"/>
     <use xlink:href="#mdce7f8d927" x="275.26" y="89.47991" style="fill: #1e3a8a; stroke: #1e3a8a"/>
     <use xlink:href="#mdce7f8d927" x="473.387273" y="36.874545" style="fill: #1e3a8a; stroke: #1e3a8a"/>
    </g>
   </g>
   <g id="line2d_18">
    <path d="M 77.132727 209.823549 
L 275.26 226.835355 
L 473.387273 216.376819 
" clip-path="url(#pd2db37043a)" style="fill: none; stroke-dasharray: 7.4,3.2; stroke-dashoffset: 0; stroke: #0f766e; stroke-width: 2"/>
    <defs>
     <path id="m61f7be38b0" d="M -3 3 
L 3 3 
L 3 -3 
L -3 -3 
z
" style="stroke: #0f766e; stroke-linejoin: miter"/>
    </defs>
    <g clip-path="url(#pd2db37043a)">
     <use xlink:href="#m61f7be38b0" x="77.132727" y="209.823549" style="fill: #0f766e; stroke: #0f766e; stroke-linejoin: miter"/>
     <use xlink:href="#m61f7be38b0" x="275.26" y="226.835355" style="fill: #0f766e; stroke: #0f766e; stroke-linejoin: miter"/>
     <use xlink:href="#m61f7be38b0" x="473.387273" y="216.376819" style="fill: #0f766e; stroke: #0f766e; stroke-linejoin: miter"/>
    </g>
   </g>
   <g id="line2d_19">
    <path d="M 77.132727 194.531965 
L 275.26 198.601507 
L 473.387273 173.422616 
" clip-path="url(#pd2db37043a)" style="fill: none; stroke-dasharray: 2,3.3; stroke-dashoffset: 0; stroke: #06b6d4; stroke-width: 2"/>
    <defs>
     <path id="m4c8214193a" d="M 0 -3 
L -3 3 
L 3 3 
z
" style="stroke: #06b6d4; stroke-linejoin: miter"/>
    </defs>
    <g clip-path="url(#pd2db37043a)">
     <use xlink:href="#m4c8214193a" x="77.132727" y="194.531965" style="fill: #06b6d4; stroke: #06b6d4; stroke-linejoin: miter"/>
     <use xlink:href="#m4c8214193a" x="275.26" y="198.601507" style="fill: #06b6d4; stroke: #06b6d4; stroke-linejoin: miter"/>
     <use xlink:href="#m4c8214193a" x="473.387273" y="173.422616" style="fill: #06b6d4; stroke: #06b6d4; stroke-linejoin: miter"/>
    </g>
   </g>
   <g id="line2d_20">
    <path d="M 77.132727 262.529719 
L 275.26 270.365455 
L 473.387273 255.881245 
" clip-path="url(#pd2db37043a)" style="fill: none; stroke-dasharray: 12.8,3.2,2,3.2; stroke-dashoffset: 0; stroke: #f59e0b; stroke-width: 2"/>
    <defs>
     <path id="m30b45eb002" d="M 0 4.242641 
L 2.545584 0 
L 0 -4.242641 
L -2.545584 0 
z
" style="stroke: #f59e0b; stroke-linejoin: miter"/>
    </defs>
    <g clip-path="url(#pd2db37043a)">
     <use xlink:href="#m30b45eb002" x="77.132727" y="262.529719" style="fill: #f59e0b; stroke: #f59e0b; stroke-linejoin: miter"/>
     <use xlink:href="#m30b45eb002" x="275.26" y="270.365455" style="fill: #f59e0b; stroke: #f59e0b; stroke-linejoin: miter"/>
     <use xlink:href="#m30b45eb002" x="473.387273" y="255.881245" style="fill: #f59e0b; stroke: #f59e0b; stroke-linejoin: miter"/>
    </g>
   </g>
   <g id="patch_3">
    <path d="M 57.32 282.04 
L 57.32 25.2 
" style="fill: none; stroke: #d1d5db; stroke-width: 0.8; stroke-linejoin: miter; stroke-linecap: square"/>
   </g>
   <g id="patch_4">
    <path d="M 493.2 282.04 
L 493.2 25.2 
" style="fill: none; stroke: #d1d5db; stroke-width: 0.8; stroke-linejoin: miter; stroke-linecap: square"/>
   </g>
   <g id="patch_5">
    <path d="M 57.32 282.04 
L 493.2 282.04 
" style="fill: none; stroke: #d1d5db; stroke-width: 0.8; stroke-linejoin: miter; stroke-linecap: square"/>
   </g>
   <g id="patch_6">
    <path d="M 57.32 25.2 
L 493.2 25.2 
" style="fill: none; stroke: #d1d5db; stroke-width: 0.8; stroke-linejoin: miter; stroke-linecap: square"/>
   </g>
   <g id="text_11">
    <!-- Conclave: PyTorch ResNet-18 (11.17M Params) Governance Latency Breakdown -->
    <g style="fill: #1f2937" transform="translate(28.376172 19.2) scale(0.11 -0.11)">
     <defs>
      <path id="DejaVuSans-Bold-43" d="M 4288 256 
Q 3956 84 3597 -3 
Q 3238 -91 2847 -91 
Q 1681 -91 1000 561 
Q 319 1213 319 2328 
Q 319 3447 1000 4098 
Q 1681 4750 2847 4750 
Q 3238 4750 3597 4662 
Q 3956 4575 4288 4403 
L 4288 3438 
Q 3953 3666 3628 3772 
Q 3303 3878 2944 3878 
Q 2300 3878 1931 3465 
Q 1563 3053 1563 2328 
Q 1563 1606 1931 1193 
Q 2300 781 2944 781 
Q 3303 781 3628 887 
Q 3953 994 4288 1222 
L 4288 256 
z
" transform="scale(0.015625)"/>
      <path id="DejaVuSans-Bold-6f" d="M 2203 2784 
Q 1831 2784 1636 2517 
Q 1441 2250 1441 1747 
Q 1441 1244 1636 976 
Q 1831 709 2203 709 
Q 2569 709 2762 976 
Q 2956 1244 2956 1747 
Q 2956 2250 2762 2517 
Q 2569 2784 2203 2784 
z
M 2203 3584 
Q 3106 3584 3614 3096 
Q 4122 2609 4122 1747 
Q 4122 884 3614 396 
Q 3106 -91 2203 -91 
Q 1297 -91 786 396 
Q 275 884 275 1747 
Q 275 2609 786 3096 
Q 1297 3584 2203 3584 
z
" transform="scale(0.015625)"/>
      <path id="DejaVuSans-Bold-6e" d="M 4056 2131 
L 4056 0 
L 2931 0 
L 2931 347 
L 2931 1631 
Q 2931 2084 2911 2256 
Q 2891 2428 2841 2509 
Q 2775 2619 2662 2680 
Q 2550 2741 2406 2741 
Q 2056 2741 1856 2470 
Q 1656 2200 1656 1722 
L 1656 0 
L 538 0 
L 538 3500 
L 1656 3500 
L 1656 2988 
Q 1909 3294 2193 3439 
Q 2478 3584 2822 3584 
Q 3428 3584 3742 3212 
Q 4056 2841 4056 2131 
z
" transform="scale(0.015625)"/>
      <path id="DejaVuSans-Bold-63" d="M 3366 3391 
L 3366 2478 
Q 3138 2634 2908 2709 
Q 2678 2784 2431 2784 
Q 1963 2784 1702 2511 
Q 1441 2238 1441 1747 
Q 1441 1256 1702 982 
Q 1963 709 2431 709 
Q 2694 709 2930 787 
Q 3166 866 3366 1019 
L 3366 103 
Q 3103 6 2833 -42 
Q 2563 -91 2291 -91 
Q 1344 -91 809 395 
Q 275 881 275 1747 
Q 275 2613 809 3098 
Q 1344 3584 2291 3584 
Q 2566 3584 2833 3536 
Q 3100 3488 3366 3391 
z
" transform="scale(0.015625)"/>
      <path id="DejaVuSans-Bold-6c" d="M 538 4863 
L 1656 4863 
L 1656 0 
L 538 0 
L 538 4863 
z
" transform="scale(0.015625)"/>
      <path id="DejaVuSans-Bold-61" d="M 2106 1575 
Q 1756 1575 1579 1456 
Q 1403 1338 1403 1106 
Q 1403 894 1545 773 
Q 1688 653 1941 653 
Q 2256 653 2472 879 
Q 2688 1106 2688 1447 
L 2688 1575 
L 2106 1575 
z
M 3816 1997 
L 3816 0 
L 2688 0 
L 2688 519 
Q 2463 200 2181 54 
Q 1900 -91 1497 -91 
Q 953 -91 614 226 
Q 275 544 275 1050 
Q 275 1666 698 1953 
Q 1122 2241 2028 2241 
L 2688 2241 
L 2688 2328 
Q 2688 2594 2478 2717 
Q 2269 2841 1825 2841 
Q 1466 2841 1156 2769 
Q 847 2697 581 2553 
L 581 3406 
Q 941 3494 1303 3539 
Q 1666 3584 2028 3584 
Q 2975 3584 3395 3211 
Q 3816 2838 3816 1997 
z
" transform="scale(0.015625)"/>
      <path id="DejaVuSans-Bold-76" d="M 97 3500 
L 1216 3500 
L 2088 1081 
L 2956 3500 
L 4078 3500 
L 2700 0 
L 1472 0 
L 97 3500 
z
" transform="scale(0.015625)"/>
      <path id="DejaVuSans-Bold-65" d="M 4031 1759 
L 4031 1441 
L 1416 1441 
Q 1456 1047 1700 850 
Q 1944 653 2381 653 
Q 2734 653 3104 758 
Q 3475 863 3866 1075 
L 3866 213 
Q 3469 63 3072 -14 
Q 2675 -91 2278 -91 
Q 1328 -91 801 392 
Q 275 875 275 1747 
Q 275 2603 792 3093 
Q 1309 3584 2216 3584 
Q 3041 3584 3536 3087 
Q 4031 2591 4031 1759 
z
M 2881 2131 
Q 2881 2450 2695 2645 
Q 2509 2841 2209 2841 
Q 1884 2841 1681 2658 
Q 1478 2475 1428 2131 
L 2881 2131 
z
" transform="scale(0.015625)"/>
      <path id="DejaVuSans-Bold-3a" d="M 716 3500 
L 1844 3500 
L 1844 2291 
L 716 2291 
L 716 3500 
z
M 716 1209 
L 1844 1209 
L 1844 0 
L 716 0 
L 716 1209 
z
" transform="scale(0.015625)"/>
      <path id="DejaVuSans-Bold-20" transform="scale(0.015625)"/>
      <path id="DejaVuSans-Bold-50" d="M 588 4666 
L 2584 4666 
Q 3475 4666 3951 4270 
Q 4428 3875 4428 3144 
Q 4428 2409 3951 2014 
Q 3475 1619 2584 1619 
L 1791 1619 
L 1791 0 
L 588 0 
L 588 4666 
z
M 1791 3794 
L 1791 2491 
L 2456 2491 
Q 2806 2491 2997 2661 
Q 3188 2831 3188 3144 
Q 3188 3456 2997 3625 
Q 2806 3794 2456 3794 
L 1791 3794 
z
" transform="scale(0.015625)"/>
      <path id="DejaVuSans-Bold-79" d="M 78 3500 
L 1197 3500 
L 2138 1125 
L 2938 3500 
L 4056 3500 
L 2584 -331 
Q 2363 -916 2067 -1148 
Q 1772 -1381 1288 -1381 
L 641 -1381 
L 641 -647 
L 991 -647 
Q 1275 -647 1404 -556 
Q 1534 -466 1606 -231 
L 1638 -134 
L 78 3500 
z
" transform="scale(0.015625)"/>
      <path id="DejaVuSans-Bold-54" d="M 31 4666 
L 4331 4666 
L 4331 3756 
L 2784 3756 
L 2784 0 
L 1581 0 
L 1581 3756 
L 31 3756 
L 31 4666 
z
" transform="scale(0.015625)"/>
      <path id="DejaVuSans-Bold-72" d="M 3138 2547 
Q 2991 2616 2845 2648 
Q 2700 2681 2553 2681 
Q 2122 2681 1889 2404 
Q 1656 2128 1656 1613 
L 1656 0 
L 538 0 
L 538 3500 
L 1656 3500 
L 1656 2925 
Q 1872 3269 2151 3426 
Q 2431 3584 2822 3584 
Q 2878 3584 2943 3579 
Q 3009 3575 3134 3559 
L 3138 2547 
z
" transform="scale(0.015625)"/>
      <path id="DejaVuSans-Bold-68" d="M 4056 2131 
L 4056 0 
L 2931 0 
L 2931 347 
L 2931 1625 
Q 2931 2084 2911 2256 
Q 2891 2428 2841 2509 
Q 2775 2619 2662 2680 
Q 2550 2741 2406 2741 
Q 2056 2741 1856 2470 
Q 1656 2200 1656 1722 
L 1656 0 
L 538 0 
L 538 4863 
L 1656 4863 
L 1656 2988 
Q 1909 3294 2193 3439 
Q 2478 3584 2822 3584 
Q 3428 3584 3742 3212 
Q 4056 2841 4056 2131 
z
" transform="scale(0.015625)"/>
      <path id="DejaVuSans-Bold-52" d="M 2297 2597 
Q 2675 2597 2839 2737 
Q 3003 2878 3003 3200 
Q 3003 3519 2839 3656 
Q 2675 3794 2297 3794 
L 1791 3794 
L 1791 2597 
L 2297 2597 
z
M 1791 1766 
L 1791 0 
L 588 0 
L 588 4666 
L 2425 4666 
Q 3347 4666 3776 4356 
Q 4206 4047 4206 3378 
Q 4206 2916 3982 2619 
Q 3759 2322 3309 2181 
Q 3556 2125 3751 1926 
Q 3947 1728 4147 1325 
L 4800 0 
L 3519 0 
L 2950 1159 
Q 2778 1509 2601 1637 
Q 2425 1766 2131 1766 
L 1791 1766 
z
" transform="scale(0.015625)"/>
      <path id="DejaVuSans-Bold-73" d="M 3272 3391 
L 3272 2541 
Q 2913 2691 2578 2766 
Q 2244 2841 1947 2841 
Q 1628 2841 1473 2761 
Q 1319 2681 1319 2516 
Q 1319 2381 1436 2309 
Q 1553 2238 1856 2203 
L 2053 2175 
Q 2913 2066 3209 1816 
Q 3506 1566 3506 1031 
Q 3506 472 3093 190 
Q 2681 -91 1863 -91 
Q 1516 -91 1145 -36 
Q 775 19 384 128 
L 384 978 
Q 719 816 1070 734 
Q 1422 653 1784 653 
Q 2113 653 2278 743 
Q 2444 834 2444 1013 
Q 2444 1163 2330 1236 
Q 2216 1309 1875 1350 
L 1678 1375 
Q 931 1469 631 1722 
Q 331 1975 331 2491 
Q 331 3047 712 3315 
Q 1094 3584 1881 3584 
Q 2191 3584 2531 3537 
Q 2872 3491 3272 3391 
z
" transform="scale(0.015625)"/>
      <path id="DejaVuSans-Bold-4e" d="M 588 4666 
L 1931 4666 
L 3628 1466 
L 3628 4666 
L 4769 4666 
L 4769 0 
L 3425 0 
L 1728 3200 
L 1728 0 
L 588 0 
L 588 4666 
z
" transform="scale(0.015625)"/>
      <path id="DejaVuSans-Bold-74" d="M 1759 4494 
L 1759 3500 
L 2913 3500 
L 2913 2700 
L 1759 2700 
L 1759 1216 
Q 1759 972 1856 886 
Q 1953 800 2241 800 
L 2816 800 
L 2816 0 
L 1856 0 
Q 1194 0 917 276 
Q 641 553 641 1216 
L 641 2700 
L 84 2700 
L 84 3500 
L 641 3500 
L 641 4494 
L 1759 4494 
z
" transform="scale(0.015625)"/>
      <path id="DejaVuSans-Bold-2d" d="M 347 2297 
L 2309 2297 
L 2309 1388 
L 347 1388 
L 347 2297 
z
" transform="scale(0.015625)"/>
      <path id="DejaVuSans-Bold-31" d="M 750 831 
L 1813 831 
L 1813 3847 
L 722 3622 
L 722 4441 
L 1806 4666 
L 2950 4666 
L 2950 831 
L 4013 831 
L 4013 0 
L 750 0 
L 750 831 
z
" transform="scale(0.015625)"/>
      <path id="DejaVuSans-Bold-38" d="M 2228 2088 
Q 1891 2088 1709 1903 
Q 1528 1719 1528 1375 
Q 1528 1031 1709 848 
Q 1891 666 2228 666 
Q 2563 666 2741 848 
Q 2919 1031 2919 1375 
Q 2919 1722 2741 1905 
Q 2563 2088 2228 2088 
z
M 1350 2484 
Q 925 2613 709 2878 
Q 494 3144 494 3541 
Q 494 4131 934 4440 
Q 1375 4750 2228 4750 
Q 3075 4750 3515 4442 
Q 3956 4134 3956 3541 
Q 3956 3144 3739 2878 
Q 3522 2613 3097 2484 
Q 3572 2353 3814 2058 
Q 4056 1763 4056 1313 
Q 4056 619 3595 264 
Q 3134 -91 2228 -91 
Q 1319 -91 855 264 
Q 391 619 391 1313 
Q 391 1763 633 2058 
Q 875 2353 1350 2484 
z
M 1631 3419 
Q 1631 3141 1786 2991 
Q 1941 2841 2228 2841 
Q 2509 2841 2662 2991 
Q 2816 3141 2816 3419 
Q 2816 3697 2662 3845 
Q 2509 3994 2228 3994 
Q 1941 3994 1786 3844 
Q 1631 3694 1631 3419 
z
" transform="scale(0.015625)"/>
      <path id="DejaVuSans-Bold-28" d="M 2413 -844 
L 1484 -844 
Q 1006 -72 778 623 
Q 550 1319 550 2003 
Q 550 2688 779 3389 
Q 1009 4091 1484 4856 
L 2413 4856 
Q 2013 4116 1813 3408 
Q 1613 2700 1613 2009 
Q 1613 1319 1811 609 
Q 2009 -100 2413 -844 
z
" transform="scale(0.015625)"/>
      <path id="DejaVuSans-Bold-2e" d="M 653 1209 
L 1778 1209 
L 1778 0 
L 653 0 
L 653 1209 
z
" transform="scale(0.015625)"/>
      <path id="DejaVuSans-Bold-37" d="M 428 4666 
L 3944 4666 
L 3944 3988 
L 2125 0 
L 953 0 
L 2675 3781 
L 428 3781 
L 428 4666 
z
" transform="scale(0.015625)"/>
      <path id="DejaVuSans-Bold-4d" d="M 588 4666 
L 2119 4666 
L 3181 2169 
L 4250 4666 
L 5778 4666 
L 5778 0 
L 4641 0 
L 4641 3413 
L 3566 897 
L 2803 897 
L 1728 3413 
L 1728 0 
L 588 0 
L 588 4666 
z
" transform="scale(0.015625)"/>
      <path id="DejaVuSans-Bold-6d" d="M 3781 2919 
Q 3994 3244 4286 3414 
Q 4578 3584 4928 3584 
Q 5531 3584 5847 3212 
Q 6163 2841 6163 2131 
L 6163 0 
L 5038 0 
L 5038 1825 
Q 5041 1866 5042 1909 
Q 5044 1953 5044 2034 
Q 5044 2406 4934 2573 
Q 4825 2741 4581 2741 
Q 4263 2741 4089 2478 
Q 3916 2216 3909 1719 
L 3909 0 
L 2784 0 
L 2784 1825 
Q 2784 2406 2684 2573 
Q 2584 2741 2328 2741 
Q 2006 2741 1831 2477 
Q 1656 2213 1656 1722 
L 1656 0 
L 531 0 
L 531 3500 
L 1656 3500 
L 1656 2988 
Q 1863 3284 2130 3434 
Q 2397 3584 2719 3584 
Q 3081 3584 3359 3409 
Q 3638 3234 3781 2919 
z
" transform="scale(0.015625)"/>
      <path id="DejaVuSans-Bold-29" d="M 513 -844 
Q 913 -100 1113 609 
Q 1313 1319 1313 2009 
Q 1313 2700 1113 3408 
Q 913 4116 513 4856 
L 1441 4856 
Q 1916 4091 2145 3389 
Q 2375 2688 2375 2003 
Q 2375 1319 2147 623 
Q 1919 -72 1441 -844 
L 513 -844 
z
" transform="scale(0.015625)"/>
      <path id="DejaVuSans-Bold-47" d="M 4781 347 
Q 4331 128 3847 18 
Q 3363 -91 2847 -91 
Q 1681 -91 1000 561 
Q 319 1213 319 2328 
Q 319 3456 1012 4103 
Q 1706 4750 2913 4750 
Q 3378 4750 3804 4662 
Q 4231 4575 4609 4403 
L 4609 3438 
Q 4219 3659 3833 3768 
Q 3447 3878 3059 3878 
Q 2341 3878 1952 3476 
Q 1563 3075 1563 2328 
Q 1563 1588 1938 1184 
Q 2313 781 3003 781 
Q 3191 781 3352 804 
Q 3513 828 3641 878 
L 3641 1784 
L 2906 1784 
L 2906 2591 
L 4781 2591 
L 4781 347 
z
" transform="scale(0.015625)"/>
      <path id="DejaVuSans-Bold-4c" d="M 588 4666 
L 1791 4666 
L 1791 909 
L 3903 909 
L 3903 0 
L 588 0 
L 588 4666 
z
" transform="scale(0.015625)"/>
      <path id="DejaVuSans-Bold-42" d="M 2456 2859 
Q 2741 2859 2887 2984 
Q 3034 3109 3034 3353 
Q 3034 3594 2887 3720 
Q 2741 3847 2456 3847 
L 1791 3847 
L 1791 2859 
L 2456 2859 
z
M 2497 819 
Q 2859 819 3042 972 
Q 3225 1125 3225 1434 
Q 3225 1738 3044 1889 
Q 2863 2041 2497 2041 
L 1791 2041 
L 1791 819 
L 2497 819 
z
M 3616 2497 
Q 4003 2384 4215 2081 
Q 4428 1778 4428 1338 
Q 4428 663 3972 331 
Q 3516 0 2584 0 
L 588 0 
L 588 4666 
L 2394 4666 
Q 3366 4666 3802 4372 
Q 4238 4078 4238 3431 
Q 4238 3091 4078 2852 
Q 3919 2613 3616 2497 
z
" transform="scale(0.015625)"/>
      <path id="DejaVuSans-Bold-6b" d="M 538 4863 
L 1656 4863 
L 1656 2216 
L 2944 3500 
L 4244 3500 
L 2534 1894 
L 4378 0 
L 3022 0 
L 1656 1459 
L 1656 0 
L 538 0 
L 538 4863 
z
" transform="scale(0.015625)"/>
      <path id="DejaVuSans-Bold-64" d="M 2919 2988 
L 2919 4863 
L 4044 4863 
L 4044 0 
L 2919 0 
L 2919 506 
Q 2688 197 2409 53 
Q 2131 -91 1766 -91 
Q 1119 -91 703 423 
Q 288 938 288 1747 
Q 288 2556 703 3070 
Q 1119 3584 1766 3584 
Q 2128 3584 2408 3439 
Q 2688 3294 2919 2988 
z
M 2181 722 
Q 2541 722 2730 984 
Q 2919 1247 2919 1747 
Q 2919 2247 2730 2509 
Q 2541 2772 2181 2772 
Q 1825 2772 1636 2509 
Q 1447 2247 1447 1747 
Q 1447 1247 1636 984 
Q 1825 722 2181 722 
z
" transform="scale(0.015625)"/>
      <path id="DejaVuSans-Bold-77" d="M 225 3500 
L 1313 3500 
L 1900 1088 
L 2491 3500 
L 3425 3500 
L 4013 1113 
L 4603 3500 
L 5691 3500 
L 4769 0 
L 3547 0 
L 2956 2406 
L 2369 0 
L 1147 0 
L 225 3500 
z
" transform="scale(0.015625)"/>
     </defs>
     <use xlink:href="#DejaVuSans-Bold-43"/>
     <use xlink:href="#DejaVuSans-Bold-6f" transform="translate(73.388672 0)"/>
     <use xlink:href="#DejaVuSans-Bold-6e" transform="translate(142.089844 0)"/>
     <use xlink:href="#DejaVuSans-Bold-63" transform="translate(213.28125 0)"/>
     <use xlink:href="#DejaVuSans-Bold-6c" transform="translate(272.558594 0)"/>
     <use xlink:href="#DejaVuSans-Bold-61" transform="translate(306.835938 0)"/>
     <use xlink:href="#DejaVuSans-Bold-76" transform="translate(374.316406 0)"/>
     <use xlink:href="#DejaVuSans-Bold-65" transform="translate(439.501953 0)"/>
     <use xlink:href="#DejaVuSans-Bold-3a" transform="translate(507.324219 0)"/>
     <use xlink:href="#DejaVuSans-Bold-20" transform="translate(547.314453 0)"/>
     <use xlink:href="#DejaVuSans-Bold-50" transform="translate(582.128906 0)"/>
     <use xlink:href="#DejaVuSans-Bold-79" transform="translate(657.294922 0)"/>
     <use xlink:href="#DejaVuSans-Bold-54" transform="translate(722.480469 0)"/>
     <use xlink:href="#DejaVuSans-Bold-6f" transform="translate(777.443359 0)"/>
     <use xlink:href="#DejaVuSans-Bold-72" transform="translate(846.144531 0)"/>
     <use xlink:href="#DejaVuSans-Bold-63" transform="translate(895.460938 0)"/>
     <use xlink:href="#DejaVuSans-Bold-68" transform="translate(954.738281 0)"/>
     <use xlink:href="#DejaVuSans-Bold-20" transform="translate(1025.929688 0)"/>
     <use xlink:href="#DejaVuSans-Bold-52" transform="translate(1060.744141 0)"/>
     <use xlink:href="#DejaVuSans-Bold-65" transform="translate(1137.746094 0)"/>
     <use xlink:href="#DejaVuSans-Bold-73" transform="translate(1205.568359 0)"/>
     <use xlink:href="#DejaVuSans-Bold-4e" transform="translate(1265.089844 0)"/>
     <use xlink:href="#DejaVuSans-Bold-65" transform="translate(1348.78125 0)"/>
     <use xlink:href="#DejaVuSans-Bold-74" transform="translate(1416.603516 0)"/>
     <use xlink:href="#DejaVuSans-Bold-2d" transform="translate(1464.40625 0)"/>
     <use xlink:href="#DejaVuSans-Bold-31" transform="translate(1505.910156 0)"/>
     <use xlink:href="#DejaVuSans-Bold-38" transform="translate(1575.490234 0)"/>
     <use xlink:href="#DejaVuSans-Bold-20" transform="translate(1645.070312 0)"/>
     <use xlink:href="#DejaVuSans-Bold-28" transform="translate(1679.884766 0)"/>
     <use xlink:href="#DejaVuSans-Bold-31" transform="translate(1725.587891 0)"/>
     <use xlink:href="#DejaVuSans-Bold-31" transform="translate(1795.167969 0)"/>
     <use xlink:href="#DejaVuSans-Bold-2e" transform="translate(1864.748047 0)"/>
     <use xlink:href="#DejaVuSans-Bold-31" transform="translate(1902.736328 0)"/>
     <use xlink:href="#DejaVuSans-Bold-37" transform="translate(1972.316406 0)"/>
     <use xlink:href="#DejaVuSans-Bold-4d" transform="translate(2041.896484 0)"/>
     <use xlink:href="#DejaVuSans-Bold-20" transform="translate(2141.408203 0)"/>
     <use xlink:href="#DejaVuSans-Bold-50" transform="translate(2176.222656 0)"/>
     <use xlink:href="#DejaVuSans-Bold-61" transform="translate(2246.888672 0)"/>
     <use xlink:href="#DejaVuSans-Bold-72" transform="translate(2314.369141 0)"/>
     <use xlink:href="#DejaVuSans-Bold-61" transform="translate(2363.685547 0)"/>
     <use xlink:href="#DejaVuSans-Bold-6d" transform="translate(2431.166016 0)"/>
     <use xlink:href="#DejaVuSans-Bold-73" transform="translate(2535.365234 0)"/>
     <use xlink:href="#DejaVuSans-Bold-29" transform="translate(2594.886719 0)"/>
     <use xlink:href="#DejaVuSans-Bold-20" transform="translate(2640.589844 0)"/>
     <use xlink:href="#DejaVuSans-Bold-47" transform="translate(2675.404297 0)"/>
     <use xlink:href="#DejaVuSans-Bold-6f" transform="translate(2757.484375 0)"/>
     <use xlink:href="#DejaVuSans-Bold-76" transform="translate(2826.185547 0)"/>
     <use xlink:href="#DejaVuSans-Bold-65" transform="translate(2891.371094 0)"/>
     <use xlink:href="#DejaVuSans-Bold-72" transform="translate(2959.193359 0)"/>
     <use xlink:href="#DejaVuSans-Bold-6e" transform="translate(3008.509766 0)"/>
     <use xlink:href="#DejaVuSans-Bold-61" transform="translate(3079.701172 0)"/>
     <use xlink:href="#DejaVuSans-Bold-6e" transform="translate(3147.181641 0)"/>
     <use xlink:href="#DejaVuSans-Bold-63" transform="translate(3218.373047 0)"/>
     <use xlink:href="#DejaVuSans-Bold-65" transform="translate(3277.650391 0)"/>
     <use xlink:href="#DejaVuSans-Bold-20" transform="translate(3345.472656 0)"/>
     <use xlink:href="#DejaVuSans-Bold-4c" transform="translate(3380.287109 0)"/>
     <use xlink:href="#DejaVuSans-Bold-61" transform="translate(3444.007812 0)"/>
     <use xlink:href="#DejaVuSans-Bold-74" transform="translate(3511.488281 0)"/>
     <use xlink:href="#DejaVuSans-Bold-65" transform="translate(3559.291016 0)"/>
     <use xlink:href="#DejaVuSans-Bold-6e" transform="translate(3627.113281 0)"/>
     <use xlink:href="#DejaVuSans-Bold-63" transform="translate(3698.304688 0)"/>
     <use xlink:href="#DejaVuSans-Bold-79" transform="translate(3757.582031 0)"/>
     <use xlink:href="#DejaVuSans-Bold-20" transform="translate(3822.767578 0)"/>
     <use xlink:href="#DejaVuSans-Bold-42" transform="translate(3857.582031 0)"/>
     <use xlink:href="#DejaVuSans-Bold-72" transform="translate(3933.802734 0)"/>
     <use xlink:href="#DejaVuSans-Bold-65" transform="translate(3983.119141 0)"/>
     <use xlink:href="#DejaVuSans-Bold-61" transform="translate(4050.941406 0)"/>
     <use xlink:href="#DejaVuSans-Bold-6b" transform="translate(4118.421875 0)"/>
     <use xlink:href="#DejaVuSans-Bold-64" transform="translate(4184.925781 0)"/>
     <use xlink:href="#DejaVuSans-Bold-6f" transform="translate(4256.507812 0)"/>
     <use xlink:href="#DejaVuSans-Bold-77" transform="translate(4325.208984 0)"/>
     <use xlink:href="#DejaVuSans-Bold-6e" transform="translate(4417.591797 0)"/>
    </g>
   </g>
   <g id="legend_1">
    <g id="patch_7">
     <path d="M 353.6325 85.24125 
L 486.9 85.24125 
Q 488.7 85.24125 488.7 83.44125 
L 488.7 31.5 
Q 488.7 29.7 486.9 29.7 
L 353.6325 29.7 
Q 351.8325 29.7 351.8325 31.5 
L 351.8325 83.44125 
Q 351.8325 85.24125 353.6325 85.24125 
z
" style="fill: #ffffff; opacity: 0.8; stroke: #cccccc; stroke-linejoin: miter"/>
    </g>
    <g id="line2d_21">
     <path d="M 355.4325 36.988594 
L 364.4325 36.988594 
L 373.4325 36.988594 
" style="fill: none; stroke: #1e3a8a; stroke-width: 2.5; stroke-linecap: square"/>
     <g>
      <use xlink:href="#mdce7f8d927" x="364.4325" y="36.988594" style="fill: #1e3a8a; stroke: #1e3a8a"/>
     </g>
    </g>
    <g id="text_12">
     <!-- Total Round Duration -->
     <g style="fill: #1f2937" transform="translate(380.6325 40.138594) scale(0.09 -0.09)">
      <defs>
       <path id="DejaVuSans-54" d="M -19 4666 
L 3928 4666 
L 3928 4134 
L 2272 4134 
L 2272 0 
L 1638 0 
L 1638 4134 
L -19 4134 
L -19 4666 
z
" transform="scale(0.015625)"/>
       <path id="DejaVuSans-6c" d="M 603 4863 
L 1178 4863 
L 1178 0 
L 603 0 
L 603 4863 
z
" transform="scale(0.015625)"/>
      </defs>
      <use xlink:href="#DejaVuSans-54"/>
      <use xlink:href="#DejaVuSans-6f" transform="translate(44.083984 0)"/>
      <use xlink:href="#DejaVuSans-74" transform="translate(105.265625 0)"/>
      <use xlink:href="#DejaVuSans-61" transform="translate(144.474609 0)"/>
      <use xlink:href="#DejaVuSans-6c" transform="translate(205.753906 0)"/>
      <use xlink:href="#DejaVuSans-20" transform="translate(233.537109 0)"/>
      <use xlink:href="#DejaVuSans-52" transform="translate(265.324219 0)"/>
      <use xlink:href="#DejaVuSans-6f" transform="translate(330.306641 0)"/>
      <use xlink:href="#DejaVuSans-75" transform="translate(391.488281 0)"/>
      <use xlink:href="#DejaVuSans-6e" transform="translate(454.867188 0)"/>
      <use xlink:href="#DejaVuSans-64" transform="translate(518.246094 0)"/>
      <use xlink:href="#DejaVuSans-20" transform="translate(581.722656 0)"/>
      <use xlink:href="#DejaVuSans-44" transform="translate(613.509766 0)"/>
      <use xlink:href="#DejaVuSans-75" transform="translate(690.511719 0)"/>
      <use xlink:href="#DejaVuSans-72" transform="translate(753.890625 0)"/>
      <use xlink:href="#DejaVuSans-61" transform="translate(795.003906 0)"/>
      <use xlink:href="#DejaVuSans-74" transform="translate(856.283203 0)"/>
      <use xlink:href="#DejaVuSans-69" transform="translate(895.492188 0)"/>
      <use xlink:href="#DejaVuSans-6f" transform="translate(923.275391 0)"/>
      <use xlink:href="#DejaVuSans-6e" transform="translate(984.457031 0)"/>
     </g>
    </g>
    <g id="line2d_22">
     <path d="M 355.4325 50.198906 
L 364.4325 50.198906 
L 373.4325 50.198906 
" style="fill: none; stroke-dasharray: 7.4,3.2; stroke-dashoffset: 0; stroke: #0f766e; stroke-width: 2"/>
     <g>
      <use xlink:href="#m61f7be38b0" x="364.4325" y="50.198906" style="fill: #0f766e; stroke: #0f766e; stroke-linejoin: miter"/>
     </g>
    </g>
    <g id="text_13">
     <!-- PyTorch Local Compute -->
     <g style="fill: #1f2937" transform="translate(380.6325 53.348906) scale(0.09 -0.09)">
      <defs>
       <path id="DejaVuSans-50" d="M 1259 4147 
L 1259 2394 
L 2053 2394 
Q 2494 2394 2734 2622 
Q 2975 2850 2975 3272 
Q 2975 3691 2734 3919 
Q 2494 4147 2053 4147 
L 1259 4147 
z
M 628 4666 
L 2053 4666 
Q 2838 4666 3239 4311 
Q 3641 3956 3641 3272 
Q 3641 2581 3239 2228 
Q 2838 1875 2053 1875 
L 1259 1875 
L 1259 0 
L 628 0 
L 628 4666 
z
" transform="scale(0.015625)"/>
       <path id="DejaVuSans-79" d="M 2059 -325 
Q 1816 -950 1584 -1140 
Q 1353 -1331 966 -1331 
L 506 -1331 
L 506 -850 
L 844 -850 
Q 1081 -850 1212 -737 
Q 1344 -625 1503 -206 
L 1606 56 
L 191 3500 
L 800 3500 
L 1894 763 
L 2988 3500 
L 3597 3500 
L 2059 -325 
z
" transform="scale(0.015625)"/>
       <path id="DejaVuSans-63" d="M 3122 3366 
L 3122 2828 
Q 2878 2963 2633 3030 
Q 2388 3097 2138 3097 
Q 1578 3097 1268 2742 
Q 959 2388 959 1747 
Q 959 1106 1268 751 
Q 1578 397 2138 397 
Q 2388 397 2633 464 
Q 2878 531 3122 666 
L 3122 134 
Q 2881 22 2623 -34 
Q 2366 -91 2075 -91 
Q 1284 -91 818 406 
Q 353 903 353 1747 
Q 353 2603 823 3093 
Q 1294 3584 2113 3584 
Q 2378 3584 2631 3529 
Q 2884 3475 3122 3366 
z
" transform="scale(0.015625)"/>
       <path id="DejaVuSans-68" d="M 3513 2113 
L 3513 0 
L 2938 0 
L 2938 2094 
Q 2938 2591 2744 2837 
Q 2550 3084 2163 3084 
Q 1697 3084 1428 2787 
Q 1159 2491 1159 1978 
L 1159 0 
L 581 0 
L 581 4863 
L 1159 4863 
L 1159 2956 
Q 1366 3272 1645 3428 
Q 1925 3584 2291 3584 
Q 2894 3584 3203 3211 
Q 3513 2838 3513 2113 
z
" transform="scale(0.015625)"/>
       <path id="DejaVuSans-43" d="M 4122 4306 
L 4122 3641 
Q 3803 3938 3442 4084 
Q 3081 4231 2675 4231 
Q 1875 4231 1450 3742 
Q 1025 3253 1025 2328 
Q 1025 1406 1450 917 
Q 1875 428 2675 428 
Q 3081 428 3442 575 
Q 3803 722 4122 1019 
L 4122 359 
Q 3791 134 3420 21 
Q 3050 -91 2638 -91 
Q 1578 -91 968 557 
Q 359 1206 359 2328 
Q 359 3453 968 4101 
Q 1578 4750 2638 4750 
Q 3056 4750 3426 4639 
Q 3797 4528 4122 4306 
z
" transform="scale(0.015625)"/>
       <path id="DejaVuSans-70" d="M 1159 525 
L 1159 -1331 
L 581 -1331 
L 581 3500 
L 1159 3500 
L 1159 2969 
Q 1341 3281 1617 3432 
Q 1894 3584 2278 3584 
Q 2916 3584 3314 3078 
Q 3713 2572 3713 1747 
Q 3713 922 3314 415 
Q 2916 -91 2278 -91 
Q 1894 -91 1617 61 
Q 1341 213 1159 525 
z
M 3116 1747 
Q 3116 2381 2855 2742 
Q 2594 3103 2138 3103 
Q 1681 3103 1420 2742 
Q 1159 2381 1159 1747 
Q 1159 1113 1420 752 
Q 1681 391 2138 391 
Q 2594 391 2855 752 
Q 3116 1113 3116 1747 
z
" transform="scale(0.015625)"/>
       <path id="DejaVuSans-65" d="M 3597 1894 
L 3597 1613 
L 953 1613 
Q 991 1019 1311 708 
Q 1631 397 2203 397 
Q 2534 397 2845 478 
Q 3156 559 3463 722 
L 3463 178 
Q 3153 47 2828 -22 
Q 2503 -91 2169 -91 
Q 1331 -91 842 396 
Q 353 884 353 1716 
Q 353 2575 817 3079 
Q 1281 3584 2069 3584 
Q 2775 3584 3186 3129 
Q 3597 2675 3597 1894 
z
M 3022 2063 
Q 3016 2534 2758 2815 
Q 2500 3097 2075 3097 
Q 1594 3097 1305 2825 
Q 1016 2553 972 2059 
L 3022 2063 
z
" transform="scale(0.015625)"/>
      </defs>
      <use xlink:href="#DejaVuSans-50"/>
      <use xlink:href="#DejaVuSans-79" transform="translate(60.302734 0)"/>
      <use xlink:href="#DejaVuSans-54" transform="translate(119.482422 0)"/>
      <use xlink:href="#DejaVuSans-6f" transform="translate(163.566406 0)"/>
      <use xlink:href="#DejaVuSans-72" transform="translate(224.748047 0)"/>
      <use xlink:href="#DejaVuSans-63" transform="translate(263.611328 0)"/>
      <use xlink:href="#DejaVuSans-68" transform="translate(318.591797 0)"/>
      <use xlink:href="#DejaVuSans-20" transform="translate(381.970703 0)"/>
      <use xlink:href="#DejaVuSans-4c" transform="translate(413.757812 0)"/>
      <use xlink:href="#DejaVuSans-6f" transform="translate(467.720703 0)"/>
      <use xlink:href="#DejaVuSans-63" transform="translate(528.902344 0)"/>
      <use xlink:href="#DejaVuSans-61" transform="translate(583.882812 0)"/>
      <use xlink:href="#DejaVuSans-6c" transform="translate(645.162109 0)"/>
      <use xlink:href="#DejaVuSans-20" transform="translate(672.945312 0)"/>
      <use xlink:href="#DejaVuSans-43" transform="translate(704.732422 0)"/>
      <use xlink:href="#DejaVuSans-6f" transform="translate(774.556641 0)"/>
      <use xlink:href="#DejaVuSans-6d" transform="translate(835.738281 0)"/>
      <use xlink:href="#DejaVuSans-70" transform="translate(933.150391 0)"/>
      <use xlink:href="#DejaVuSans-75" transform="translate(996.626953 0)"/>
      <use xlink:href="#DejaVuSans-74" transform="translate(1060.005859 0)"/>
      <use xlink:href="#DejaVuSans-65" transform="translate(1099.214844 0)"/>
     </g>
    </g>
    <g id="line2d_23">
     <path d="M 355.4325 63.409219 
L 364.4325 63.409219 
L 373.4325 63.409219 
" style="fill: none; stroke-dasharray: 2,3.3; stroke-dashoffset: 0; stroke: #06b6d4; stroke-width: 2"/>
     <g>
      <use xlink:href="#m4c8214193a" x="364.4325" y="63.409219" style="fill: #06b6d4; stroke: #06b6d4; stroke-linejoin: miter"/>
     </g>
    </g>
    <g id="text_14">
     <!-- Cryptographic SecAgg -->
     <g style="fill: #1f2937" transform="translate(380.6325 66.559219) scale(0.09 -0.09)">
      <defs>
       <path id="DejaVuSans-67" d="M 2906 1791 
Q 2906 2416 2648 2759 
Q 2391 3103 1925 3103 
Q 1463 3103 1205 2759 
Q 947 2416 947 1791 
Q 947 1169 1205 825 
Q 1463 481 1925 481 
Q 2391 481 2648 825 
Q 2906 1169 2906 1791 
z
M 3481 434 
Q 3481 -459 3084 -895 
Q 2688 -1331 1869 -1331 
Q 1566 -1331 1297 -1286 
Q 1028 -1241 775 -1147 
L 775 -588 
Q 1028 -725 1275 -790 
Q 1522 -856 1778 -856 
Q 2344 -856 2625 -561 
Q 2906 -266 2906 331 
L 2906 616 
Q 2728 306 2450 153 
Q 2172 0 1784 0 
Q 1141 0 747 490 
Q 353 981 353 1791 
Q 353 2603 747 3093 
Q 1141 3584 1784 3584 
Q 2172 3584 2450 3431 
Q 2728 3278 2906 2969 
L 2906 3500 
L 3481 3500 
L 3481 434 
z
" transform="scale(0.015625)"/>
       <path id="DejaVuSans-53" d="M 3425 4513 
L 3425 3897 
Q 3066 4069 2747 4153 
Q 2428 4238 2131 4238 
Q 1616 4238 1336 4038 
Q 1056 3838 1056 3469 
Q 1056 3159 1242 3001 
Q 1428 2844 1947 2747 
L 2328 2669 
Q 3034 2534 3370 2195 
Q 3706 1856 3706 1288 
Q 3706 609 3251 259 
Q 2797 -91 1919 -91 
Q 1588 -91 1214 -16 
Q 841 59 441 206 
L 441 856 
Q 825 641 1194 531 
Q 1563 422 1919 422 
Q 2459 422 2753 634 
Q 3047 847 3047 1241 
Q 3047 1584 2836 1778 
Q 2625 1972 2144 2069 
L 1759 2144 
Q 1053 2284 737 2584 
Q 422 2884 422 3419 
Q 422 4038 858 4394 
Q 1294 4750 2059 4750 
Q 2388 4750 2728 4690 
Q 3069 4631 3425 4513 
z
" transform="scale(0.015625)"/>
       <path id="DejaVuSans-41" d="M 2188 4044 
L 1331 1722 
L 3047 1722 
L 2188 4044 
z
M 1831 4666 
L 2547 4666 
L 4325 0 
L 3669 0 
L 3244 1197 
L 1141 1197 
L 716 0 
L 50 0 
L 1831 4666 
z
" transform="scale(0.015625)"/>
      </defs>
      <use xlink:href="#DejaVuSans-43"/>
      <use xlink:href="#DejaVuSans-72" transform="translate(69.824219 0)"/>
      <use xlink:href="#DejaVuSans-79" transform="translate(110.9375 0)"/>
      <use xlink:href="#DejaVuSans-70" transform="translate(170.117188 0)"/>
      <use xlink:href="#DejaVuSans-74" transform="translate(233.59375 0)"/>
      <use xlink:href="#DejaVuSans-6f" transform="translate(272.802734 0)"/>
      <use xlink:href="#DejaVuSans-67" transform="translate(333.984375 0)"/>
      <use xlink:href="#DejaVuSans-72" transform="translate(397.460938 0)"/>
      <use xlink:href="#DejaVuSans-61" transform="translate(438.574219 0)"/>
      <use xlink:href="#DejaVuSans-70" transform="translate(499.853516 0)"/>
      <use xlink:href="#DejaVuSans-68" transform="translate(563.330078 0)"/>
      <use xlink:href="#DejaVuSans-69" transform="translate(626.708984 0)"/>
      <use xlink:href="#DejaVuSans-63" transform="translate(654.492188 0)"/>
      <use xlink:href="#DejaVuSans-20" transform="translate(709.472656 0)"/>
      <use xlink:href="#DejaVuSans-53" transform="translate(741.259766 0)"/>
      <use xlink:href="#DejaVuSans-65" transform="translate(804.736328 0)"/>
      <use xlink:href="#DejaVuSans-63" transform="translate(866.259766 0)"/>
      <use xlink:href="#DejaVuSans-41" transform="translate(921.240234 0)"/>
      <use xlink:href="#DejaVuSans-67" transform="translate(989.648438 0)"/>
      <use xlink:href="#DejaVuSans-67" transform="translate(1053.125 0)"/>
     </g>
    </g>
    <g id="line2d_24">
     <path d="M 355.4325 76.619531 
L 364.4325 76.619531 
L 373.4325 76.619531 
" style="fill: none; stroke-dasharray: 12.8,3.2,2,3.2; stroke-dashoffset: 0; stroke: #f59e0b; stroke-width: 2"/>
     <g>
      <use xlink:href="#m30b45eb002" x="364.4325" y="76.619531" style="fill: #f59e0b; stroke: #f59e0b; stroke-linejoin: miter"/>
     </g>
    </g>
    <g id="text_15">
     <!-- RDP Noise Injection -->
     <g style="fill: #1f2937" transform="translate(380.6325 79.769531) scale(0.09 -0.09)">
      <defs>
       <path id="DejaVuSans-4e" d="M 628 4666 
L 1478 4666 
L 3547 763 
L 3547 4666 
L 4159 4666 
L 4159 0 
L 3309 0 
L 1241 3903 
L 1241 0 
L 628 0 
L 628 4666 
z
" transform="scale(0.015625)"/>
       <path id="DejaVuSans-49" d="M 628 4666 
L 1259 4666 
L 1259 0 
L 628 0 
L 628 4666 
z
" transform="scale(0.015625)"/>
       <path id="DejaVuSans-6a" d="M 603 3500 
L 1178 3500 
L 1178 -63 
Q 1178 -731 923 -1031 
Q 669 -1331 103 -1331 
L -116 -1331 
L -116 -844 
L 38 -844 
Q 366 -844 484 -692 
Q 603 -541 603 -63 
L 603 3500 
z
M 603 4863 
L 1178 4863 
L 1178 4134 
L 603 4134 
L 603 4863 
z
" transform="scale(0.015625)"/>
      </defs>
      <use xlink:href="#DejaVuSans-52"/>
      <use xlink:href="#DejaVuSans-44" transform="translate(69.482422 0)"/>
      <use xlink:href="#DejaVuSans-50" transform="translate(146.484375 0)"/>
      <use xlink:href="#DejaVuSans-20" transform="translate(206.787109 0)"/>
      <use xlink:href="#DejaVuSans-4e" transform="translate(238.574219 0)"/>
      <use xlink:href="#DejaVuSans-6f" transform="translate(313.378906 0)"/>
      <use xlink:href="#DejaVuSans-69" transform="translate(374.560547 0)"/>
      <use xlink:href="#DejaVuSans-73" transform="translate(402.34375 0)"/>
      <use xlink:href="#DejaVuSans-65" transform="translate(454.443359 0)"/>
      <use xlink:href="#DejaVuSans-20" transform="translate(515.966797 0)"/>
      <use xlink:href="#DejaVuSans-49" transform="translate(547.753906 0)"/>
      <use xlink:href="#DejaVuSans-6e" transform="translate(577.246094 0)"/>
      <use xlink:href="#DejaVuSans-6a" transform="translate(640.625 0)"/>
      <use xlink:href="#DejaVuSans-65" transform="translate(668.408203 0)"/>
      <use xlink:href="#DejaVuSans-63" transform="translate(729.931641 0)"/>
      <use xlink:href="#DejaVuSans-74" transform="translate(784.912109 0)"/>
      <use xlink:href="#DejaVuSans-69" transform="translate(824.121094 0)"/>
      <use xlink:href="#DejaVuSans-6f" transform="translate(851.904297 0)"/>
      <use xlink:href="#DejaVuSans-6e" transform="translate(913.085938 0)"/>
     </g>
    </g>
   </g>
  </g>
 </g>
 <defs>
  <clipPath id="pd2db37043a">
   <rect x="57.32" y="25.2" width="435.88" height="256.84"/>
  </clipPath>
 </defs>
</svg>
